<svg xmlns="http://www.w3.org/2000/svg" xmlns:xlink="http://www.w3.org/1999/xlink" viewBox="0 0 551.41 489.65"><defs><style>.cls-1{fill:none;}.cls-2{fill:#d8dee8;}.cls-3{fill:url(#linear-gradient);}.cls-4{fill:url(#linear-gradient-2);}.cls-5{fill:url(#linear-gradient-3);}.cls-6{isolation:isolate;}.cls-7{fill:url(#linear-gradient-4);}.cls-8{fill:url(#linear-gradient-5);}.cls-9{fill:url(#linear-gradient-6);}.cls-10{fill:url(#linear-gradient-7);}.cls-11{fill:url(#linear-gradient-8);}.cls-12{fill:url(#linear-gradient-9);}.cls-13{fill:url(#linear-gradient-10);}.cls-14{fill:url(#linear-gradient-11);}.cls-15{fill:url(#linear-gradient-12);}.cls-16{fill:url(#linear-gradient-13);}.cls-17{fill:url(#linear-gradient-14);}.cls-18{fill:url(#linear-gradient-15);}.cls-19{clip-path:url(#clip-path);}.cls-20{fill:#8172b4;}.cls-21{fill:url(#linear-gradient-16);}.cls-22{fill:url(#linear-gradient-17);}.cls-120,.cls-122,.cls-23{fill:#fff;}.cls-24{fill:url(#linear-gradient-18);}.cls-25{fill:url(#linear-gradient-19);}.cls-26{fill:url(#linear-gradient-20);}.cls-27{fill:url(#linear-gradient-21);}.cls-28{fill:url(#linear-gradient-22);}.cls-29{fill:url(#linear-gradient-23);}.cls-30{fill:url(#linear-gradient-24);}.cls-31{fill:url(#linear-gradient-25);}.cls-32{fill:url(#linear-gradient-26);}.cls-33{fill:url(#linear-gradient-27);}.cls-34{fill:url(#linear-gradient-28);}.cls-35{fill:url(#linear-gradient-29);}.cls-36{fill:url(#linear-gradient-30);}.cls-37{fill:url(#linear-gradient-31);}.cls-38{fill:url(#linear-gradient-32);}.cls-39{fill:url(#linear-gradient-33);}.cls-40{fill:url(#linear-gradient-34);}.cls-41{fill:url(#linear-gradient-35);}.cls-42{fill:url(#linear-gradient-36);}.cls-43{fill:url(#linear-gradient-37);}.cls-44{fill:url(#linear-gradient-38);}.cls-45{fill:url(#linear-gradient-39);}.cls-46{fill:url(#linear-gradient-40);}.cls-47{fill:url(#linear-gradient-41);}.cls-48{fill:url(#linear-gradient-42);}.cls-49{fill:url(#linear-gradient-43);}.cls-50{fill:url(#linear-gradient-44);}.cls-51{fill:url(#linear-gradient-45);}.cls-52{fill:url(#linear-gradient-46);}.cls-53{fill:url(#linear-gradient-47);}.cls-54{fill:url(#linear-gradient-48);}.cls-55{fill:url(#linear-gradient-49);}.cls-105,.cls-124,.cls-128,.cls-132,.cls-138,.cls-56,.cls-86,.cls-97{mix-blend-mode:multiply;}.cls-56{fill:url(#linear-gradient-50);}.cls-57{fill:url(#linear-gradient-51);}.cls-58{fill:url(#linear-gradient-52);}.cls-59{fill:url(#linear-gradient-53);}.cls-60{fill:url(#linear-gradient-54);}.cls-61{fill:url(#linear-gradient-55);}.cls-62{fill:url(#linear-gradient-56);}.cls-63{fill:url(#linear-gradient-57);}.cls-64{fill:url(#linear-gradient-58);}.cls-65{fill:url(#linear-gradient-59);}.cls-66{fill:url(#linear-gradient-60);}.cls-67{fill:url(#linear-gradient-61);}.cls-68{fill:url(#linear-gradient-62);}.cls-69{fill:url(#linear-gradient-63);}.cls-70{clip-path:url(#clip-path-2);}.cls-71{clip-path:url(#clip-path-3);}.cls-72{fill:url(#linear-gradient-64);}.cls-73{fill:url(#linear-gradient-65);}.cls-74{fill:url(#linear-gradient-66);}.cls-75{fill:url(#linear-gradient-67);}.cls-76{fill:url(#linear-gradient-68);}.cls-77{fill:url(#linear-gradient-69);}.cls-78{fill:url(#linear-gradient-70);}.cls-79{fill:url(#linear-gradient-71);}.cls-80{fill:url(#linear-gradient-72);}.cls-81{fill:url(#linear-gradient-73);}.cls-82{fill:url(#linear-gradient-74);}.cls-83{fill:url(#linear-gradient-75);}.cls-84{fill:url(#linear-gradient-76);}.cls-85{fill:url(#linear-gradient-77);}.cls-86{opacity:0.4;fill:url(#linear-gradient-78);}.cls-87{fill:url(#linear-gradient-79);}.cls-88{fill:url(#linear-gradient-80);}.cls-89{fill:url(#linear-gradient-81);}.cls-90{fill:url(#linear-gradient-82);}.cls-91{fill:url(#linear-gradient-83);}.cls-92{fill:url(#linear-gradient-84);}.cls-93{fill:url(#linear-gradient-85);}.cls-94{fill:url(#linear-gradient-86);}.cls-95{fill:url(#linear-gradient-87);}.cls-96{fill:url(#linear-gradient-88);}.cls-138,.cls-97{opacity:0.2;}.cls-97{fill:url(#linear-gradient-89);}.cls-98{fill:url(#linear-gradient-90);}.cls-99{fill:url(#linear-gradient-91);}.cls-100{fill:url(#linear-gradient-92);}.cls-101{fill:url(#linear-gradient-93);}.cls-102{fill:#f4f7fa;}.cls-103{fill:url(#linear-gradient-94);}.cls-104{fill:url(#linear-gradient-95);}.cls-105,.cls-124,.cls-132{opacity:0.3;}.cls-105{fill:url(#linear-gradient-96);}.cls-106{clip-path:url(#clip-path-4);}.cls-107{opacity:0.7;}.cls-107,.cls-109,.cls-113,.cls-120,.cls-122{mix-blend-mode:soft-light;}.cls-108{clip-path:url(#clip-path-5);}.cls-109{opacity:0.8;}.cls-110{fill:#fdfeff;}.cls-111{clip-path:url(#clip-path-6);}.cls-112{clip-path:url(#clip-path-7);}.cls-113{opacity:0.9;}.cls-114{clip-path:url(#clip-path-8);}.cls-115{clip-path:url(#clip-path-9);}.cls-116{fill:url(#linear-gradient-100);}.cls-117{fill:url(#linear-gradient-101);}.cls-118{fill:url(#linear-gradient-102);}.cls-119{fill:url(#linear-gradient-103);}.cls-120{opacity:0.6;}.cls-121{fill:#96a6b7;}.cls-123{fill:url(#linear-gradient-104);}.cls-124{fill:url(#linear-gradient-105);}.cls-125{fill:url(#linear-gradient-106);}.cls-126{fill:url(#linear-gradient-107);}.cls-127{fill:url(#linear-gradient-108);}.cls-128{opacity:0.5;}.cls-129{fill:url(#linear-gradient-109);}.cls-130{fill:url(#linear-gradient-110);}.cls-131{fill:url(#linear-gradient-111);}.cls-132{fill:url(#linear-gradient-112);}.cls-133{fill:url(#linear-gradient-113);}.cls-134{fill:url(#linear-gradient-114);}.cls-135{fill:url(#linear-gradient-115);}.cls-136{fill:url(#linear-gradient-116);}.cls-137{fill:url(#linear-gradient-117);}.cls-138{fill:url(#linear-gradient-118);}</style><linearGradient id="linear-gradient" x1="621.92" y1="392.11" x2="578.45" y2="581.45" gradientUnits="userSpaceOnUse"><stop offset="0" stop-color="#f58f86"/><stop offset="1" stop-color="#ed72ac"/></linearGradient><linearGradient id="linear-gradient-2" x1="538.48" y1="464.22" x2="597.14" y2="464.22" gradientUnits="userSpaceOnUse"><stop offset="0" stop-color="#9681bc"/><stop offset="1" stop-color="#6166ae"/></linearGradient><linearGradient id="linear-gradient-3" x1="629.85" y1="463.67" x2="602.11" y2="542.51" gradientUnits="userSpaceOnUse"><stop offset="0" stop-color="#d191c0"/><stop offset="1" stop-color="#8172b4"/></linearGradient><linearGradient id="linear-gradient-4" x1="268.58" y1="233.35" x2="-541.23" y2="244.92" gradientUnits="userSpaceOnUse"><stop offset="0" stop-color="#d8dee8"/><stop offset="1" stop-color="#fff"/></linearGradient><linearGradient id="linear-gradient-5" x1="927.07" y1="221.63" x2="465.1" y2="228.23" gradientUnits="userSpaceOnUse"><stop offset="0" stop-color="#d8dee8"/><stop offset="0.88" stop-color="#fafcfe"/><stop offset="1" stop-color="#fff"/></linearGradient><linearGradient id="linear-gradient-6" x1="604.47" y1="104.42" x2="-511.16" y2="120.36" xlink:href="#linear-gradient-3"/><linearGradient id="linear-gradient-7" x1="667.76" y1="96.82" x2="180.37" y2="103.79" xlink:href="#linear-gradient-3"/><linearGradient id="linear-gradient-8" x1="523.28" y1="243.26" x2="269.5" y2="246.88" xlink:href="#linear-gradient-3"/><linearGradient id="linear-gradient-9" x1="469.6" y1="204.72" x2="334.64" y2="204.72" gradientUnits="userSpaceOnUse"><stop offset="0.34" stop-color="#d8dee8"/><stop offset="1" stop-color="#fff"/></linearGradient><linearGradient id="linear-gradient-10" x1="196.66" y1="163.38" x2="137.74" y2="164.22" xlink:href="#linear-gradient-4"/><linearGradient id="linear-gradient-11" x1="207.74" y1="143.24" x2="184.67" y2="143.57" xlink:href="#linear-gradient-4"/><linearGradient id="linear-gradient-12" x1="461.33" y1="285.62" x2="404.11" y2="286.44" xlink:href="#linear-gradient-4"/><linearGradient id="linear-gradient-13" x1="624.07" y1="290.98" x2="433.28" y2="293.71" xlink:href="#linear-gradient-9"/><linearGradient id="linear-gradient-14" x1="579.6" y1="98.93" x2="318.35" y2="102.67" xlink:href="#linear-gradient-3"/><linearGradient id="linear-gradient-15" x1="226.12" y1="83.15" x2="85.71" y2="85.16" xlink:href="#linear-gradient-3"/><clipPath id="clip-path" transform="translate(-146.25 -52.82)"><polygon id="SVGID" class="cls-1" points="244.69 281.32 235.95 296.33 149.27 301.93 163.04 287.18 244.69 281.32"/></clipPath><linearGradient id="linear-gradient-16" x1="112.44" y1="203.7" x2="193.74" y2="203.7" xlink:href="#linear-gradient-4"/><linearGradient id="linear-gradient-17" x1="229.33" y1="-7.26" x2="180.28" y2="73.03" xlink:href="#linear-gradient-3"/><linearGradient id="linear-gradient-18" x1="277.59" y1="187.89" x2="252.74" y2="334.19" xlink:href="#linear-gradient-3"/><linearGradient id="linear-gradient-19" x1="297.8" y1="189.93" x2="273.37" y2="333.79" xlink:href="#linear-gradient-3"/><linearGradient id="linear-gradient-20" x1="315.98" y1="191.87" x2="291.87" y2="333.85" xlink:href="#linear-gradient-3"/><linearGradient id="linear-gradient-21" x1="370.71" y1="311.88" x2="329.26" y2="556.01" xlink:href="#linear-gradient-3"/><linearGradient id="linear-gradient-22" x1="390.26" y1="311.96" x2="349.3" y2="553.18" xlink:href="#linear-gradient-3"/><linearGradient id="linear-gradient-23" x1="409.42" y1="312.33" x2="368.51" y2="553.23" xlink:href="#linear-gradient-3"/><linearGradient id="linear-gradient-24" x1="113.19" y1="197.7" x2="86.99" y2="352" xlink:href="#linear-gradient-3"/><linearGradient id="linear-gradient-25" x1="129.95" y1="196.1" x2="103.46" y2="352.12" xlink:href="#linear-gradient-3"/><linearGradient id="linear-gradient-26" x1="146.36" y1="194.65" x2="119.37" y2="353.6" xlink:href="#linear-gradient-3"/><linearGradient id="linear-gradient-27" x1="37.1" y1="216.11" x2="9.51" y2="378.58" xlink:href="#linear-gradient-3"/><linearGradient id="linear-gradient-28" x1="53.86" y1="214.4" x2="25.95" y2="378.75" xlink:href="#linear-gradient-3"/><linearGradient id="linear-gradient-29" x1="70.26" y1="212.85" x2="41.83" y2="380.32" xlink:href="#linear-gradient-3"/><linearGradient id="linear-gradient-30" x1="449.98" y1="210.47" x2="428.27" y2="338.34" xlink:href="#linear-gradient-3"/><linearGradient id="linear-gradient-31" x1="465.48" y1="212.01" x2="444.13" y2="337.75" xlink:href="#linear-gradient-3"/><linearGradient id="linear-gradient-32" x1="479.95" y1="213.58" x2="458.77" y2="338.26" xlink:href="#linear-gradient-3"/><linearGradient id="linear-gradient-33" x1="467.87" y1="298.15" x2="446.74" y2="422.59" xlink:href="#linear-gradient-3"/><linearGradient id="linear-gradient-34" x1="481.99" y1="298.41" x2="461" y2="422.05" xlink:href="#linear-gradient-3"/><linearGradient id="linear-gradient-35" x1="102.06" y1="297.11" x2="-94.8" y2="299.92" xlink:href="#linear-gradient-3"/><linearGradient id="linear-gradient-36" x1="351.74" y1="292.51" x2="198.37" y2="294.7" xlink:href="#linear-gradient-3"/><linearGradient id="linear-gradient-37" x1="207.76" y1="249.14" x2="302.98" y2="395.22" xlink:href="#linear-gradient-3"/><linearGradient id="linear-gradient-38" x1="365.17" y1="166.46" x2="413.58" y2="240.72" xlink:href="#linear-gradient-3"/><linearGradient id="linear-gradient-39" x1="388.54" y1="169.43" x2="435.73" y2="241.82" xlink:href="#linear-gradient-3"/><linearGradient id="linear-gradient-40" x1="410.82" y1="172.2" x2="457.32" y2="243.54" xlink:href="#linear-gradient-3"/><linearGradient id="linear-gradient-41" x1="390.01" y1="122.62" x2="421.12" y2="170.34" xlink:href="#linear-gradient-3"/><linearGradient id="linear-gradient-42" x1="125.81" y1="118.89" x2="155.93" y2="165.1" xlink:href="#linear-gradient-3"/><linearGradient id="linear-gradient-43" x1="243.83" y1="251.35" x2="336.1" y2="392.9" xlink:href="#linear-gradient-3"/><linearGradient id="linear-gradient-44" x1="174.71" y1="247.29" x2="243.24" y2="247.29" xlink:href="#linear-gradient-4"/><linearGradient id="linear-gradient-45" x1="142.37" y1="237.86" x2="253.32" y2="408.06" xlink:href="#linear-gradient-3"/><linearGradient id="linear-gradient-46" x1="99.35" y1="187.83" x2="65.4" y2="188.31" xlink:href="#linear-gradient-3"/><linearGradient id="linear-gradient-47" x1="416.85" y1="218.21" x2="379.12" y2="218.75" xlink:href="#linear-gradient-3"/><linearGradient id="linear-gradient-48" x1="75.7" y1="101.99" x2="40.6" y2="102.49" xlink:href="#linear-gradient-3"/><linearGradient id="linear-gradient-49" x1="327.91" y1="240.1" x2="352.79" y2="240.1" gradientUnits="userSpaceOnUse"><stop offset="0.34" stop-color="#d8dee8"/><stop offset="0.79" stop-color="#f2f4f8"/><stop offset="1" stop-color="#fff"/></linearGradient><linearGradient id="linear-gradient-50" x1="387.94" y1="240.1" x2="412.82" y2="240.1" xlink:href="#linear-gradient-4"/><linearGradient id="linear-gradient-51" x1="579.97" y1="213.12" x2="197.43" y2="218.58" gradientUnits="userSpaceOnUse"><stop offset="0" stop-color="#d191c0"/><stop offset="0.73" stop-color="#8172b4"/></linearGradient><linearGradient id="linear-gradient-52" x1="173.86" y1="189.41" x2="11.91" y2="191.73" xlink:href="#linear-gradient-3"/><linearGradient id="linear-gradient-53" x1="330.27" y1="246.9" x2="333.62" y2="380.71" xlink:href="#linear-gradient-9"/><linearGradient id="linear-gradient-54" x1="174.46" y1="279.42" x2="338.86" y2="288.42" xlink:href="#linear-gradient-4"/><linearGradient id="linear-gradient-55" x1="534.28" y1="262.42" x2="318.36" y2="283.92" xlink:href="#linear-gradient-9"/><linearGradient id="linear-gradient-56" x1="338.35" y1="288.75" x2="500.38" y2="297.63" xlink:href="#linear-gradient-4"/><linearGradient id="linear-gradient-57" x1="392.7" y1="245.05" x2="396.04" y2="378.63" xlink:href="#linear-gradient-9"/><linearGradient id="linear-gradient-58" x1="307.51" y1="283.44" x2="470.06" y2="292.34" xlink:href="#linear-gradient-4"/><linearGradient id="linear-gradient-59" x1="364.16" y1="246.66" x2="367.52" y2="381.05" xlink:href="#linear-gradient-9"/><linearGradient id="linear-gradient-60" x1="328.47" y1="119.31" x2="367.11" y2="119.31" xlink:href="#linear-gradient-3"/><linearGradient id="linear-gradient-61" x1="328.3" y1="224.98" x2="368.9" y2="224.98" xlink:href="#linear-gradient-51"/><linearGradient id="linear-gradient-62" x1="310.44" y1="337.58" x2="354.79" y2="337.58" xlink:href="#linear-gradient-4"/><linearGradient id="linear-gradient-63" x1="360.37" y1="256.12" x2="363.36" y2="375.58" xlink:href="#linear-gradient-4"/><clipPath id="clip-path-2" transform="translate(-146.25 -52.82)"><path id="SVGID-2" data-name="SVGID" class="cls-1" d="M418.81,71.9H144.23V424.67H364.34c2.8-52.41,35.41-114.66,66.14-177.18C463.19,180.94,440.81,113.56,418.81,71.9Z"/></clipPath><clipPath id="clip-path-3" transform="translate(-146.25 -52.82)"><path id="SVGID-3" data-name="SVGID" class="cls-2" d="M148.6,302.93a1,1,0,0,1-.74-1.69l13.78-14.74a1,1,0,0,1,.66-.32l81.64-5.87a1,1,0,0,1,.93.48,1,1,0,0,1,0,1l-8.74,15a1,1,0,0,1-.81.5l-86.68,5.6Zm14.24-14.77-11.77,12.6,83.61-5.4,7.5-12.9Z"/></clipPath><linearGradient id="linear-gradient-64" x1="-846.79" y1="-496.14" x2="-780.92" y2="288.81" gradientTransform="matrix(0.96, -0.26, 0.26, 0.96, 1375.3, 175.62)" xlink:href="#linear-gradient"/><linearGradient id="linear-gradient-65" x1="-1016.35" y1="-481.91" x2="-950.48" y2="303.04" gradientTransform="matrix(0.96, -0.26, 0.26, 0.96, 1521.55, 228.44)" xlink:href="#linear-gradient"/><linearGradient id="linear-gradient-66" x1="2029.48" y1="331.47" x2="2090.73" y2="331.47" gradientTransform="matrix(-1, 0, 0, 1, 2278.45, 0)" xlink:href="#linear-gradient"/><linearGradient id="linear-gradient-67" x1="1876.98" y1="795.57" x2="1884.83" y2="802.55" gradientTransform="matrix(-0.99, -0.14, -0.14, 0.99, 2177.36, -9.08)" gradientUnits="userSpaceOnUse"><stop offset="0" stop-color="#454c8d"/><stop offset="1" stop-color="#26274f"/></linearGradient><linearGradient id="linear-gradient-68" x1="959.27" y1="802.54" x2="959.27" y2="788.87" gradientTransform="matrix(-0.99, -0.14, -0.14, 0.99, 1261.16, -138.6)" gradientUnits="userSpaceOnUse"><stop offset="0" stop-color="#ac316e"/><stop offset="1" stop-color="#7a2e3e"/></linearGradient><linearGradient id="linear-gradient-69" x1="1877.77" y1="794.68" x2="1885.62" y2="801.66" xlink:href="#linear-gradient-67"/><linearGradient id="linear-gradient-70" x1="2015.53" y1="520.25" x2="2023.37" y2="527.23" gradientTransform="matrix(-1, 0, 0, 1, 2278.45, 0)" xlink:href="#linear-gradient-67"/><linearGradient id="linear-gradient-71" x1="1097.77" y1="527.24" x2="1097.77" y2="513.58" gradientTransform="matrix(-1, 0, 0, 1, 1353.14, 0)" xlink:href="#linear-gradient-68"/><linearGradient id="linear-gradient-72" x1="-2614.69" y1="533.51" x2="-2665.85" y2="326.97" gradientTransform="translate(2870.7)" xlink:href="#linear-gradient-67"/><linearGradient id="linear-gradient-73" x1="2009.79" y1="371.92" x2="2068.99" y2="304.9" gradientTransform="matrix(-1, 0, 0, 1, 2278.45, 0)" xlink:href="#linear-gradient"/><linearGradient id="linear-gradient-74" x1="2016.31" y1="519.36" x2="2024.16" y2="526.34" gradientTransform="matrix(-1, 0, 0, 1, 2278.45, 0)" xlink:href="#linear-gradient-67"/><linearGradient id="linear-gradient-75" x1="2023.24" y1="271.34" x2="2065.73" y2="324.79" gradientTransform="matrix(-1, 0, 0, 1, 2278.45, 0)" xlink:href="#linear-gradient-68"/><linearGradient id="linear-gradient-76" x1="2039.51" y1="271.08" x2="2051" y2="311.04" gradientTransform="matrix(-1, 0, 0, 1, 2278.45, 0)" gradientUnits="userSpaceOnUse"><stop offset="0" stop-color="#321944"/><stop offset="1" stop-color="#8a3a77"/></linearGradient><linearGradient id="linear-gradient-77" x1="2025.03" y1="269.91" x2="2067.52" y2="323.36" gradientTransform="matrix(-1, 0, 0, 1, 2278.45, 0)" xlink:href="#linear-gradient-68"/><linearGradient id="linear-gradient-78" x1="2012.09" y1="373.95" x2="2071.29" y2="306.92" gradientTransform="matrix(-1, 0, 0, 1, 2278.45, 0)" xlink:href="#linear-gradient"/><linearGradient id="linear-gradient-79" x1="-4596.14" y1="373.82" x2="-4626.43" y2="422.82" gradientTransform="translate(4911.19 4.77) rotate(0.79)" xlink:href="#linear-gradient-67"/><linearGradient id="linear-gradient-80" x1="-4599.23" y1="370.68" x2="-4592.02" y2="355.73" gradientTransform="translate(4911.19 4.77) rotate(0.79)" xlink:href="#linear-gradient-2"/><linearGradient id="linear-gradient-81" x1="-4574.6" y1="315.97" x2="-4549.89" y2="315.97" gradientTransform="translate(4869.44)" xlink:href="#linear-gradient-67"/><linearGradient id="linear-gradient-82" x1="-4575.69" y1="318.24" x2="-4551.1" y2="318.24" gradientTransform="translate(4869.44)" xlink:href="#linear-gradient-67"/><linearGradient id="linear-gradient-83" x1="-4576.83" y1="322.56" x2="-4562.94" y2="322.56" gradientTransform="translate(4869.44)" xlink:href="#linear-gradient-67"/><linearGradient id="linear-gradient-84" x1="-4589.73" y1="393.19" x2="-4597" y2="404.95" gradientTransform="translate(4911.19 4.77) rotate(0.79)" xlink:href="#linear-gradient-68"/><linearGradient id="linear-gradient-85" x1="1984.25" y1="349.35" x2="2043.45" y2="282.33" gradientTransform="matrix(-1, 0, 0, 1, 2278.45, 0)" xlink:href="#linear-gradient"/><linearGradient id="linear-gradient-86" x1="2031.76" y1="261.04" x2="2060.05" y2="296.63" gradientTransform="matrix(-1, 0, 0, 1, 2278.45, 0)" gradientUnits="userSpaceOnUse"><stop offset="0" stop-color="#ffc546"/><stop offset="1" stop-color="#f36f56"/></linearGradient><linearGradient id="linear-gradient-87" x1="2041.18" y1="249.13" x2="2044.16" y2="282.35" xlink:href="#linear-gradient-86"/><linearGradient id="linear-gradient-88" x1="2037.97" y1="256.5" x2="2040.56" y2="285.44" xlink:href="#linear-gradient-86"/><linearGradient id="linear-gradient-89" x1="2039.31" y1="250.01" x2="2042.19" y2="282.15" xlink:href="#linear-gradient-86"/><linearGradient id="linear-gradient-90" x1="297.24" y1="529.41" x2="372.05" y2="529.41" gradientUnits="userSpaceOnUse"><stop offset="0" stop-color="#ffc546"/><stop offset="0.92" stop-color="#f37556"/><stop offset="1" stop-color="#f36f56"/></linearGradient><linearGradient id="linear-gradient-91" x1="151.55" y1="439.09" x2="225.74" y2="439.09" xlink:href="#linear-gradient-90"/><linearGradient id="linear-gradient-92" x1="297.24" y1="498.15" x2="354.96" y2="498.15" xlink:href="#linear-gradient-90"/><linearGradient id="linear-gradient-93" x1="294.79" y1="454.45" x2="374.52" y2="454.45" xlink:href="#linear-gradient-4"/><linearGradient id="linear-gradient-94" x1="299.02" y1="451.29" x2="370.26" y2="451.29" xlink:href="#linear-gradient-3"/><linearGradient id="linear-gradient-95" x1="318.87" y1="475.1" x2="366.28" y2="475.1" xlink:href="#linear-gradient-3"/><linearGradient id="linear-gradient-96" x1="299.02" y1="448.94" x2="370.26" y2="448.94" xlink:href="#linear-gradient-3"/><clipPath id="clip-path-4" transform="translate(-146.25 -52.82)"><path id="SVGID-4" data-name="SVGID" class="cls-1" d="M629.53,471.76c10.57-6.59,32.93-15.62,35.81-29.78,3.28-16.13-10.75-17.69-6.78-29.21,6.19-18,.39-37.39-18.66-39.23-18.81-1.83-36.81,25.79-38.89,67.92-4.91,30.05-9.81,33.52-23.18,39.71-9.35,4.33-37.15,10.12-38.86,27.54S589.78,496.53,629.53,471.76Z"/></clipPath><clipPath id="clip-path-5" transform="translate(-146.25 -52.82)"><path id="SVGID-5" data-name="SVGID" class="cls-3" d="M547.14,504.53a110.11,110.11,0,0,1,12.21,11.72c9.81,1.51,20.18,3.76,30.06,2.5a20.48,20.48,0,0,0,7.9-2.88,30.75,30.75,0,0,0,4.85-3.41c5.92-5.23,5.91-16,9-23.45,2-5,6.83-10,18.42-17.25,10.57-6.59,32.93-15.62,35.81-29.78,3.28-16.13-10.75-17.69-6.78-29.21,6.19-18,.39-37.39-18.66-39.23-18.81-1.83-36.81,25.79-38.89,67.92-4.91,30.05-9.81,33.52-23.18,39.71-7.66,3.55-27.71,8.08-35.64,19.18C544,501.75,545.77,503.4,547.14,504.53Z"/></clipPath><clipPath id="clip-path-6" transform="translate(-146.25 -52.82)"><path id="SVGID-6" data-name="SVGID" class="cls-4" d="M542.12,487.12a10,10,0,0,0-3.48,5.44c-1.49,7.1,7.61,14.3,9.76,16,12.38,9.79,29.06,7.58,34.83,6.55,6.38-3.37,13.11-9,8.59-17.45-5.1-9.58-10.36-14.72-1.55-24.75s9.42-21.06.23-29c-9.67-8.3-5.28-27.69-16.69-30.94-19.87-5.65-28.66,26.85-18.84,48.37S550.18,479.75,542.12,487.12Z"/></clipPath><clipPath id="clip-path-7" transform="translate(-146.25 -52.82)"><path id="SVGID-7" data-name="SVGID" class="cls-1" d="M577.07,517.89c6.31-2.53,20.89-8.72,14.75-20.23-5.1-9.58-10.36-14.72-1.55-24.75s9.42-21.06.23-29c-9.67-8.3-5.28-27.69-16.69-30.94-19.87-5.65-28.66,26.85-18.84,48.37s-4.79,18.36-12.85,25.73c-11,10.07,5.62,21.88,5.32,29.78C547.21,523.09,572,519.93,577.07,517.89Z"/></clipPath><clipPath id="clip-path-8" transform="translate(-146.25 -52.82)"><path id="SVGID-8" data-name="SVGID" class="cls-1" d="M591.09,513.55c9,1.93,21.23.35,21.3-6.58.13-11.35,16.5-14.58,31.39-11.6,14.56,2.91,28.14-21.31-2.81-30.5-18.48-5.49-28.65,10.31-35.67,17.08S586.86,479.8,582.77,492C579.28,502.41,585.06,512.26,591.09,513.55Z"/></clipPath><clipPath id="clip-path-9" transform="translate(-146.25 -52.82)"><path id="SVGID-9" data-name="SVGID" class="cls-5" d="M641,464.87c-18.48-5.49-28.65,10.31-35.67,17.08S586.86,479.8,582.77,492c-2.26,6.75-2.56,13.67-5,18.05.78.49,1.55,1,2.32,1.49l.23.13c1.1.63,2.21,1.2,3.36,1.73-.26-.13,1.07.4,1.21.45.66.21,1.33.41,2,.59,5.11,1.37,11,2.27,16.38,1.62,4.36-.95,9.58-2.9,11.76-7.33,1.24-2.52.33-3.47,1.27-5.45,2.92-6.15,13.79-10.64,27.48-7.91C658.34,498.28,671.92,474.06,641,464.87Z"/></clipPath><linearGradient id="linear-gradient-100" x1="420.13" y1="459.27" x2="400.96" y2="540.8" gradientTransform="matrix(1, 0, 0, 1, 0, 0)" xlink:href="#linear-gradient-86"/><linearGradient id="linear-gradient-101" x1="391.47" y1="495.97" x2="431.9" y2="495.97" gradientTransform="matrix(1, 0, 0, 1, 0, 0)" xlink:href="#linear-gradient-86"/><linearGradient id="linear-gradient-102" x1="452.82" y1="463.42" x2="448.18" y2="483.17" gradientTransform="matrix(1, 0, 0, 1, 0, 0)" xlink:href="#linear-gradient-86"/><linearGradient id="linear-gradient-103" x1="283.08" y1="449.25" x2="362.28" y2="449.25" gradientTransform="matrix(1, 0, 0, 1, 0, 0)" xlink:href="#linear-gradient-86"/><linearGradient id="linear-gradient-104" x1="2896.7" y1="-533.98" x2="2884.11" y2="-480.45" gradientTransform="translate(1134.89 -2430.04) rotate(114.11)" xlink:href="#linear-gradient-2"/><linearGradient id="linear-gradient-105" x1="424.06" y1="422.5" x2="395.12" y2="400.42" xlink:href="#linear-gradient"/><linearGradient id="linear-gradient-106" x1="-1879.43" y1="1079.43" x2="-1883.4" y2="1026.26" gradientTransform="matrix(0, -1, -1, 0, 1509.12, -1415.57)" gradientUnits="userSpaceOnUse"><stop offset="0" stop-color="#41457f"/><stop offset="1" stop-color="#3d3c6c"/></linearGradient><linearGradient id="linear-gradient-107" x1="-1881.36" y1="1056.37" x2="-1881.36" y2="1077.41" gradientTransform="matrix(0, -1, -1, 0, 1518.99, -1396.7)" xlink:href="#linear-gradient-3"/><linearGradient id="linear-gradient-108" x1="-1894.09" y1="1103.17" x2="-1868.62" y2="1103.17" gradientTransform="matrix(-0.82, -0.57, -0.57, 0.82, -498.48, -1467.12)" xlink:href="#linear-gradient-3"/><linearGradient id="linear-gradient-109" x1="-1884.58" y1="1134.96" x2="-1889.18" y2="1073.24" gradientTransform="matrix(-0.82, -0.57, -0.57, 0.82, -498.48, -1467.12)" xlink:href="#linear-gradient-3"/><linearGradient id="linear-gradient-110" x1="-1873.65" y1="1134.14" x2="-1878.26" y2="1072.42" gradientTransform="matrix(-0.82, -0.57, -0.57, 0.82, -498.48, -1467.12)" xlink:href="#linear-gradient-3"/><linearGradient id="linear-gradient-111" x1="-1881.1" y1="1028.05" x2="-1882.37" y2="1011.02" gradientTransform="matrix(-0.82, -0.57, -0.57, 0.82, -498.48, -1467.12)" xlink:href="#linear-gradient-106"/><linearGradient id="linear-gradient-112" x1="-1881.59" y1="1132.25" x2="-1885.89" y2="1074.76" gradientTransform="matrix(-0.82, -0.57, -0.57, 0.82, -498.48, -1467.12)" xlink:href="#linear-gradient-3"/><linearGradient id="linear-gradient-113" x1="245.57" y1="450.91" x2="324.76" y2="450.91" gradientTransform="matrix(1, 0, 0, 1, 0, 0)" xlink:href="#linear-gradient-86"/><linearGradient id="linear-gradient-114" x1="245.57" y1="476.26" x2="324.76" y2="476.26" gradientTransform="matrix(1, 0, 0, 1, 0, 0)" xlink:href="#linear-gradient-86"/><linearGradient id="linear-gradient-115" x1="502.4" y1="463.29" x2="491.31" y2="516.22" gradientTransform="matrix(1, 0, 0, 1, 0, 0)" xlink:href="#linear-gradient-86"/><linearGradient id="linear-gradient-116" x1="495.44" y1="558.93" x2="501.3" y2="661.78" xlink:href="#linear-gradient-90"/><linearGradient id="linear-gradient-117" x1="496" y1="472.13" x2="495.12" y2="476.32" gradientTransform="matrix(1, 0, 0, 1, 0, 0)" xlink:href="#linear-gradient-86"/><linearGradient id="linear-gradient-118" x1="503.25" y1="494.21" x2="496.32" y2="527.29" gradientTransform="matrix(1, 0, 0, 1, 0, 0)" xlink:href="#linear-gradient-86"/></defs><g class="cls-6"><g id="Layer_1" data-name="Layer 1"><path class="cls-2" d="M524.65,70.52l3.81,7.84a67.62,67.62,0,0,0-8.91,7.85l-7.19-4.87a4.28,4.28,0,0,0-6,1.2L498.08,95a4.37,4.37,0,0,0,1.14,6l7.27,4.95a69.69,69.69,0,0,0-3.83,11.28l-8.79-.6a4.34,4.34,0,0,0-4.6,4.06l-1.09,15.06a4.33,4.33,0,0,0,4,4.67l8.82.62a69.07,69.07,0,0,0,2.25,11.76l-8,4a4.44,4.44,0,0,0-2,5.88l6.52,13.71a4.29,4.29,0,0,0,5.79,2l8-4a68.48,68.48,0,0,0,7.75,9.15l-5,7.53a4.51,4.51,0,0,0,1.17,6.17L530,205.89a4.29,4.29,0,0,0,6-1.18l5-7.55a69.53,69.53,0,0,0,11.29,4l-.59,9.08a4.48,4.48,0,0,0,4.08,4.78l15.1,1.13a4.37,4.37,0,0,0,4.65-4.14l.57-9a67.42,67.42,0,0,0,11.8-2.31l4,8.12a4.39,4.39,0,0,0,5.89,2.08l13.59-6.74a4.47,4.47,0,0,0,2-6l-3.94-8.05a67.74,67.74,0,0,0,9.1-8l7.31,5a4.33,4.33,0,0,0,6.09-1.19l8.33-12.76a4.5,4.5,0,0,0-1.26-6.17L631.64,162a70.25,70.25,0,0,0,3.83-11.59l8.66.6a4.34,4.34,0,0,0,4.63-4.11l.84-15.23a4.47,4.47,0,0,0-4.13-4.7l-8.58-.58a69.69,69.69,0,0,0-2.48-12l7.67-3.81a4.37,4.37,0,0,0,1.94-5.87L637.23,91.2a4.38,4.38,0,0,0-5.84-2L623.73,93a68.65,68.65,0,0,0-8-9.12l4.69-7.11a4.36,4.36,0,0,0-1.23-6l-12.5-8.32a4.31,4.31,0,0,0-6,1.2L596,70.77a68.31,68.31,0,0,0-11.35-3.84l.54-8.56a4.32,4.32,0,0,0-4-4.59l-14.85-1a4.32,4.32,0,0,0-4.57,4l-.56,8.59a67,67,0,0,0-11.65,2.39l-3.8-7.77a4.28,4.28,0,0,0-5.75-2l-13.32,6.61A4.35,4.35,0,0,0,524.65,70.52Zm4.74,82.66c-10.59-22-1.61-48.45,20-59.17a43.78,43.78,0,0,1,58.67,20.13c10.89,22,2.05,48.76-19.79,59.6A43.76,43.76,0,0,1,529.39,153.18Z" transform="translate(-146.25 -52.82)"/><polygon class="cls-7" points="197.55 334.22 16.8 328.87 16.8 164.73 197.55 134.51 197.55 334.22"/><polygon class="cls-8" points="257.65 122.48 501.27 173 501.27 332.04 197.55 340.76 197.55 138.02 257.65 122.48"/><polygon class="cls-9" points="256.01 124.13 323.65 40.36 391.3 86.95 458.7 108.45 509.56 173.85 256.01 124.13"/><polygon class="cls-10" points="323.65 40.36 91.61 93.22 11.42 167.58 256.01 124.13 323.65 40.36"/><polygon class="cls-11" points="443.82 234.37 456.81 251.24 501.61 253.59 491.19 238.14 443.82 234.37"/><polygon class="cls-12" points="352.73 141.08 401.04 71.66 433.85 160.95 432.17 337.21 353.41 337.79 352.73 141.08"/><polygon class="cls-13" points="255.34 123.91 255.34 201.18 196.88 156.83 196.88 134.66 255.34 123.91"/><polygon class="cls-14" points="196.88 134.55 174.03 132.64 174.03 150.78 196.88 154.47 196.88 134.55"/><polygon class="cls-15" points="455.92 250.7 455.88 337.04 444.16 335.45 443.82 234.54 455.92 250.7"/><polygon class="cls-16" points="456.43 249.43 497.91 252.34 497.91 336.73 455.88 337.04 456.43 249.43"/><polygon class="cls-17" points="341.01 75.53 345.1 141.38 352.1 141.38 400.03 62.31 341.01 75.53"/><polygon class="cls-18" points="126.1 59.62 125.93 68.47 174.03 132.64 200.42 134 266.15 53.46 204.94 32.97 197.55 76.42 126.1 59.62"/><g class="cls-19"><polygon class="cls-20" points="98.1 249.09 97.11 248.89 2.69 248.89 2.69 228.52 4.36 228.73 98.1 228.73 98.1 249.09"/></g><polygon class="cls-21" points="125.93 68.47 98.1 140.25 98.1 334.22 179.41 338.93 173.95 133.61 125.93 68.47"/><polygon class="cls-22" points="204.94 32.97 163.73 68.47 197.55 76.42 204.94 32.97"/><polygon class="cls-23" points="329.93 195.43 269.45 189.08 269.45 150.11 329.93 158.06 329.93 195.43"/><polygon class="cls-24" points="288.94 186.49 272.14 184.71 272.14 154.53 288.94 156.66 288.94 186.49"/><polygon class="cls-25" points="308.42 188.55 292.97 186.9 292.97 157.14 308.42 159.13 308.42 188.55"/><polygon class="cls-26" points="326.57 190.53 311.11 188.86 311.11 159.49 326.57 161.48 326.57 190.53"/><polygon class="cls-23" points="425.34 315.85 364.87 315.36 364.87 251.61 425.34 253.76 425.34 315.85"/><polygon class="cls-27" points="383.68 307.77 367.56 307.59 367.56 258.21 383.68 258.74 383.68 307.77"/><polygon class="cls-28" points="402.5 307.99 387.71 307.82 387.71 258.87 402.5 259.36 402.5 307.99"/><polygon class="cls-29" points="422.65 308.21 405.86 308.03 405.86 259.46 422.65 259.98 422.65 308.21"/><polygon class="cls-23" points="159.92 194.48 106.84 199.41 106.84 162.51 159.92 155.96 159.92 194.48"/><polygon class="cls-30" points="122.97 193.4 109.53 194.71 109.53 166.02 122.97 164.39 122.97 193.4"/><polygon class="cls-31" points="139.76 191.81 126.33 193.09 126.33 164 139.76 162.4 139.76 191.81"/><polygon class="cls-32" points="156.56 190.16 142.45 191.54 142.45 162.08 156.56 160.36 156.56 190.16"/><polygon class="cls-23" points="84.67 212.73 30.91 217.98 30.91 179 84.67 171.99 84.67 212.73"/><polygon class="cls-33" points="47.04 211.62 33.6 213.01 33.6 182.71 47.04 180.97 47.04 211.62"/><polygon class="cls-34" points="63.84 209.92 50.4 211.28 50.4 180.55 63.84 178.84 63.84 209.92"/><polygon class="cls-35" points="80.63 208.17 66.52 209.64 66.52 178.49 80.63 176.65 80.63 208.17"/><polygon class="cls-23" points="491.19 216.63 444.16 211.72 444.16 177.56 491.19 183.72 491.19 216.63"/><polygon class="cls-36" points="458.94 209.22 446.17 207.86 446.17 181.38 458.94 183.01 458.94 209.22"/><polygon class="cls-37" points="473.72 210.81 462.3 209.54 462.3 183.4 473.72 184.91 473.72 210.81"/><polygon class="cls-38" points="488.5 212.36 476.41 211.06 476.41 185.22 488.5 186.77 488.5 212.36"/><polygon class="cls-23" points="492.54 299.95 462.3 299.43 462.3 267.74 492.54 268.74 492.54 299.95"/><polygon class="cls-39" points="475.74 295.97 464.99 295.75 464.99 270.93 475.74 271.28 475.74 295.97"/><polygon class="cls-40" points="489.85 296.23 479.1 296.02 479.1 271.37 489.85 271.72 489.85 296.23"/><polygon class="cls-23" points="89.37 331.02 37.63 329.49 37.63 259.54 89.37 257.4 89.37 331.02"/><polygon class="cls-41" points="84.67 330.88 40.99 329.58 40.99 265.33 84.67 263.82 84.67 330.88"/><polygon class="cls-23" points="341.35 334.22 301.03 334.22 301.03 244.16 341.35 245.94 341.35 334.22"/><polygon class="cls-42" points="337.99 334.22 304.39 334.22 304.39 251.67 337.99 253.05 337.99 334.22"/><polygon class="cls-23" points="237.2 310.7 206.96 310.31 206.96 234.33 237.2 235.97 237.2 310.7"/><polygon class="cls-43" points="233.84 303.02 210.99 302.64 210.99 239.46 233.84 240.61 233.84 303.02"/><polygon class="cls-23" points="380.32 197.24 364.87 195.61 364.87 159.34 380.32 161.39 380.32 197.24"/><polygon class="cls-44" points="378.31 193.93 366.88 192.71 366.88 161.5 378.31 162.98 378.31 193.93"/><polygon class="cls-23" points="403.17 199.58 388.38 198.01 388.38 162.37 403.17 164.34 403.17 199.58"/><polygon class="cls-45" points="401.15 196.34 390.4 195.15 390.4 164.47 401.15 165.91 401.15 196.34"/><polygon class="cls-23" points="425.34 201.85 410.56 200.33 410.56 165.31 425.34 167.21 425.34 201.85"/><polygon class="cls-46" points="423.33 198.66 412.57 197.51 412.57 167.36 423.33 168.76 423.33 198.66"/><polygon class="cls-23" points="399.81 142.9 389.73 141.36 389.73 116.17 399.81 117.9 399.81 142.9"/><polygon class="cls-47" points="398.46 140.26 391.07 139.1 391.07 119.46 398.46 120.74 398.46 140.26"/><polygon class="cls-23" points="135.73 138.13 124.98 139.62 124.98 113.14 135.73 111.43 135.73 138.13"/><polygon class="cls-48" points="134.39 135.72 126.33 136.85 126.33 116.16 134.39 114.9 134.39 135.72"/><polygon class="cls-23" points="272.14 311.26 243.92 310.89 243.92 236.77 272.14 238.32 272.14 311.26"/><polygon class="cls-49" points="268.78 303.77 247.28 303.4 247.28 241.76 268.78 242.86 268.78 303.77"/><polygon class="cls-50" points="197.55 219.65 197.55 340.76 129.01 339.02 129.01 226.05 155.6 153.81 197.55 219.65"/><polygon class="cls-23" points="174.71 311.38 143.13 311.38 143.13 220.31 174.71 217.98 174.71 311.38"/><polygon class="cls-51" points="170.67 302 147.16 302.18 147.16 225.93 170.67 224.32 170.67 302"/><polygon class="cls-52" points="152.98 147.73 123.55 226.71 130.36 226.71 156.56 160.36 152.98 147.73"/><polygon class="cls-53" points="367.78 198.49 404.51 238.81 399.81 238.81 366.21 199.41 367.78 198.49"/><polygon class="cls-54" points="126.1 59.54 94.75 143.39 98.1 143.39 128.88 75.14 126.1 59.54"/><polygon class="cls-23" points="10.75 170.56 10.75 164.61 97.83 148.57 98.35 155.96 10.75 170.56"/><polygon class="cls-23" points="3.22 252.13 3.02 249.11 89.28 242.92 98.1 228.73 98.1 235.09 91.51 246.43 3.22 252.13"/><polygon class="cls-23" points="501.34 256.6 456.06 254.37 444.06 241.16 443.82 234.37 456.81 251.24 501.61 253.59 501.34 256.6"/><polygon class="cls-55" points="352.77 338.82 342.69 337.62 342.69 141.38 352.77 141.38 352.77 338.82"/><polygon class="cls-56" points="352.77 338.82 342.69 337.62 342.69 141.38 352.77 141.38 352.77 338.82"/><polygon class="cls-57" points="318.06 202.3 298.57 228.5 288.04 227.61 281.69 233.66 324.66 234.42 367.89 198.49 318.06 202.3"/><polygon class="cls-58" points="315.81 207.45 304.14 223.56 299.87 229.45 195.09 219.1 152.98 147.87 153.08 147.89 223.31 158.4 256.01 201.18 315.81 207.45"/><polygon class="cls-59" points="337.32 339.91 325.22 340 325.22 233.54 337.32 233.48 337.32 339.91"/><polygon class="cls-60" points="324.98 340.94 319.13 340.76 319.16 234.92 325.04 234.25 324.98 340.94"/><rect class="cls-61" x="286.25" y="234.1" width="12.1" height="104.82"/><polygon class="cls-62" points="286.76 337.45 281.04 337.28 280.93 234.89 286.68 234.25 286.76 337.45"/><polygon class="cls-63" points="399.81 338.79 387.71 338.87 387.71 235.93 399.81 235.88 399.81 338.79"/><polygon class="cls-64" points="387.71 338.87 380.32 335.51 380.32 236.79 387.71 236.79 387.71 338.87"/><polygon class="cls-65" points="367.89 198.49 403.17 239.1 324.66 234.42 367.89 198.49"/><polygon class="cls-23" points="304.14 223.56 299.87 229.45 194.65 222.1 153.71 158.68 127.17 226.71 121.79 226.71 152.98 147.73 153.08 147.89 196.88 216.19 304.14 223.56"/><polygon class="cls-66" points="433.41 162.21 428.7 162.21 394.77 79.89 399.2 76.42 433.41 162.21"/><polygon class="cls-23" points="512.7 179.68 433.43 161.94 399.2 76.42 353.74 144.74 344.77 144.74 255.34 126.07 197.55 138.02 174.03 136.85 126.33 71.58 94.75 143.56 86.01 145.41 126.1 59.54 175.63 129.86 197.55 130.85 257.44 119.47 345.42 138.69 350.46 138.69 400.03 62.31 437.97 156.74 512.7 173 512.7 179.68"/><polygon class="cls-23" points="404.51 242.11 367.89 207.23 324.7 237.07 280.87 238.81 280.87 233.66 322.58 231.14 367.79 198.49 404.51 236.76 404.51 242.11"/><polygon class="cls-67" points="404.51 242.11 399.14 242.73 363.92 209.97 367.89 207.23 404.51 242.11"/><polygon class="cls-68" points="325.22 340.94 281.05 339.6 280.87 334.22 325.22 334.22 325.22 340.94"/><polygon class="cls-69" points="399.81 339.45 324.98 340.94 325.22 334.22 399.81 332.77 399.81 339.45"/><g class="cls-70"><polygon class="cls-23" points="511.19 179.47 511.19 172.79 506.62 171.79 457.2 108.24 411.16 93.56 398.53 62.1 364.94 69.62 322.15 40.15 264.65 53.25 264.65 53.25 203.44 32.76 162.23 68.26 124.67 59.43 124.6 59.33 111.1 88.23 90.1 93.01 14.09 163.51 9.24 164.4 9.24 170.35 15.29 169.34 15.29 228.52 15.29 228.52 15.29 234.16 1.18 248.68 1.73 248.68 1.52 248.9 1.71 251.92 15.29 251.04 15.29 328.66 36.12 329.27 36.12 329.28 70.45 330.3 83.16 330.67 83.16 330.67 87.86 330.81 87.86 330.81 96.6 331.07 96.6 334.01 127.51 335.8 127.51 338.81 196.05 340.56 279.5 338.16 279.54 339.39 323.72 340.73 323.72 340.72 398.3 339.24 398.3 338.57 398.3 337.24 430.67 337 430.7 333.81 442.64 333.47 442.65 335.25 454.38 336.93 454.38 333.34 454.4 333.34 454.38 336.93 496.41 336.52 496.41 331.93 499.77 331.83 499.77 256.39 499.83 256.39 500.1 253.38 499.77 252.88 499.77 176.91 511.19 179.47"/><path class="cls-2" d="M162.37,288.17V221.91a9.15,9.15,0,0,1-2,.38v67.32a.89.89,0,0,0,.07.36A3,3,0,0,1,162.37,288.17Z" transform="translate(-146.25 -52.82)"/><path class="cls-2" d="M242.7,383.08l-80.33-2.38V304a3.26,3.26,0,0,1-1.21.29,2.38,2.38,0,0,1-.8-.1v77.54a1,1,0,0,0,1,1L242.64,385h0a1,1,0,1,0,0-1.94Z" transform="translate(-146.25 -52.82)"/><path class="cls-2" d="M341.85,275.39a2.42,2.42,0,0,1-.74-.31V387a1,1,0,1,0,2,0V275.42A3.25,3.25,0,0,1,341.85,275.39Z" transform="translate(-146.25 -52.82)"/><path class="cls-2" d="M646,224.83,456.46,185.52a4.42,4.42,0,0,1-.22,2l188.59,39.11V383.88l-301.7,8.66V275.34a2.94,2.94,0,0,1-2-.2V393.58a.82.82,0,0,0,.31.64.91.91,0,0,0,.7.21h0l303.72-8.65a.94.94,0,0,0,1-.92v-159A1,1,0,0,0,646,224.83Z" transform="translate(-146.25 -52.82)"/><path class="cls-2" d="M655.13,227.79c-.06,0-.13-.06-.19-.08L401.39,178a1,1,0,0,1-.75-.66,1,1,0,0,1,.16-1l67.64-83.78a1,1,0,0,1,1.36-.19l67.52,46.5,67.27,21.46a1,1,0,0,1,.48.34l50.77,65.29a1.1,1.1,0,0,1,.31.78,1.06,1.06,0,0,1-1,1.07ZM403.42,176.28l249.26,48.88-49-63-67.12-21.41a.91.91,0,0,1-.26-.13L469.43,94.53Z" transform="translate(-146.25 -52.82)"/><path class="cls-2" d="M342.12,188.52a1,1,0,0,1-.17-2L401,176,466.62,94.8,412,107.26a1,1,0,0,1-.45-2L469,92.19a1,1,0,0,1,1,1.62l-67.64,83.77a1,1,0,0,1-.61.36L342.3,188.5Z" transform="translate(-146.25 -52.82)"/><path class="cls-2" d="M259.17,141a1,1,0,0,0-1.2-.76l-21,4.78a1,1,0,0,0-.46.25l-76.95,71.36.78-.19a26.33,26.33,0,0,1,2.79-.38L237.67,147l20.74-4.73A1,1,0,0,0,259.17,141Z" transform="translate(-146.25 -52.82)"/><path class="cls-2" d="M647.18,307.41h0l-44.8-2.35a1,1,0,0,1-.74-.39l-13-16.87a1,1,0,0,1,.88-1.62L636.85,290a1,1,0,0,1,.75.44L648,305.84a1,1,0,0,1-.84,1.57Zm-44.28-4.34,42.32,2.22-9-13.37-44.62-3.55Z" transform="translate(-146.25 -52.82)"/><path class="cls-2" d="M499,391.74a1.12,1.12,0,0,1-.71-.35,1.09,1.09,0,0,1-.3-.75l-.67-196.73a1,1,0,0,1,.18-.58l48.31-69.43a1,1,0,0,1,1.77.23l32.81,89.28a1.13,1.13,0,0,1,.06.36L578.75,390a1.06,1.06,0,0,1-1,1.06l-78.76.64Zm.34-197.53L500,389.59l76.77-.57,1.66-175.08-32.07-87.3Z" transform="translate(-146.25 -52.82)"/><path class="cls-2" d="M342.9,186.18l-1.64.3a1,1,0,0,0-.82,1V207a1,1,0,1,0,2,0V188.31l1.33-.24A4.44,4.44,0,0,1,342.9,186.18Z" transform="translate(-146.25 -52.82)"/><path class="cls-2" d="M398.9,178.53V254a1,1,0,1,0,2,0V177.63Q399.93,178.13,398.9,178.53Z" transform="translate(-146.25 -52.82)"/><path class="cls-2" d="M601.46,390.86h-.14l-11.72-1.58a1,1,0,0,1-.88-1l-.33-100.91a1,1,0,0,1,1.81-.61l12.1,16.16a1,1,0,0,1,.2.61l0,86.33a1,1,0,0,1-.34.76A1,1,0,0,1,601.46,390.86Zm-10.72-3.47,9.71,1.31,0-84.85L590.41,290.4Z" transform="translate(-146.25 -52.82)"/><path class="cls-2" d="M600.7,391.07a1.12,1.12,0,0,1-.71-.4,1.14,1.14,0,0,1-.3-.77l.8-87.63a1.05,1.05,0,0,1,.32-.75,1,1,0,0,1,.76-.27l41,2.91a1,1,0,0,1,.94,1v84.38a1.11,1.11,0,0,1-1,1.12l-41.78.41Zm1.79-87.74-.77,85.51,39.75-.3V306.1Z" transform="translate(-146.25 -52.82)"/><path class="cls-2" d="M497.67,196.21h-7a1,1,0,0,1-1-1l-4.08-66.35a1,1,0,0,1,.79-1l59-13a1,1,0,0,1,1.08,1.5l-47.93,79.32A1,1,0,0,1,497.67,196.21Zm-6.05-2h5.49l46.42-76.82-55.88,12.27Z" transform="translate(-146.25 -52.82)"/><path class="cls-2" d="M412.7,106a1,1,0,0,0-.65-.67L350.84,84.83a1,1,0,0,0-.84.09,1,1,0,0,0-.48.69L342.31,128l-70.4-16.55a1,1,0,0,0-1.24,1l-.06,2.83a3.65,3.65,0,0,1,2-.89v-.66l70.24,16.52a1,1,0,0,0,1.22-.82l7.19-42.29L410,106.77l-64.49,79-28-1.32s1.14.33.49.62l.73,1a1,1,0,0,0,.76.4L346,187.83H346a1,1,0,0,0,.78-.37l65.73-80.55A1,1,0,0,0,412.7,106Z" transform="translate(-146.25 -52.82)"/><path id="SVGID-10" data-name="SVGID" class="cls-2" d="M148.6,302.93a1,1,0,0,1-.74-1.69l13.78-14.74a1,1,0,0,1,.66-.32l81.64-5.87a1,1,0,0,1,.93.48,1,1,0,0,1,0,1l-8.74,15a1,1,0,0,1-.81.5l-86.68,5.6Zm14.24-14.77-11.77,12.6,83.61-5.4,7.5-12.9Z" transform="translate(-146.25 -52.82)"/><g class="cls-71"><path class="cls-2" d="M242.69,303.72H147.25a1,1,0,0,1-1-1V281.34a1,1,0,0,1,1.42-.92l2.48,1.12h92.52a1,1,0,0,1,1,1v20a1.09,1.09,0,0,1,0,.18A1,1,0,0,1,242.69,303.72Zm-94.43-2h93.4V283.56H149.93a1,1,0,0,1-.41-.09l-1.26-.57Z" transform="translate(-146.25 -52.82)"/></g><path class="cls-2" d="M318.47,203.73h.18a8.25,8.25,0,0,1,1.84.19L320,186.4a1.09,1.09,0,0,0-.2-.57l-45.71-62.24a1,1,0,0,0-.94-.41,1,1,0,0,0-.81.63L241.73,192.7a1.16,1.16,0,0,0-.07.37v13.22a1,1,0,0,0,2,0v-13l29.9-67L318,186.77Z" transform="translate(-146.25 -52.82)"/><path class="cls-2" d="M273.58,389.82h-.06l-30.91-1.77a1,1,0,0,1-1-1V206.29a1,1,0,0,1,2,0v179.8l30,1.72a1,1,0,0,1-.06,2Z" transform="translate(-146.25 -52.82)"/><path class="cls-2" d="M343.13,130.24l-.23,0-33.82-8a1,1,0,0,1-.75-.75,1,1,0,0,1,.32-1L349.86,85a1,1,0,0,1,1.65.93l-7.39,43.45a1,1,0,0,1-.44.68A1,1,0,0,1,343.13,130.24Zm-31.67-9.48L342.31,128l6.74-39.64Z" transform="translate(-146.25 -52.82)"/><path class="cls-2" d="M474.49,249.25h-.1l-60.48-6.34a1,1,0,0,1-.9-1v-39a1,1,0,0,1,.34-.76,1,1,0,0,1,.8-.24l60.47,7.95a1,1,0,0,1,.88,1v37.36a1,1,0,0,1-1,1ZM415,241l58.46,6.13V211.76L415,204.08Z" transform="translate(-146.25 -52.82)"/><path class="cls-2" d="M433.5,240.31h-.1l-16.8-1.77a1,1,0,0,1-.9-1V207.35a1,1,0,0,1,.34-.76,1,1,0,0,1,.79-.24l16.8,2.12a1,1,0,0,1,.88,1V239.3a1,1,0,0,1-1,1Zm-15.79-3.69,14.79,1.56V210.36l-14.79-1.87Z" transform="translate(-146.25 -52.82)"/><path class="cls-2" d="M453,242.37h-.11l-15.45-1.66a1,1,0,0,1-.9-1V210a1,1,0,0,1,.34-.76,1,1,0,0,1,.79-.24l15.46,2a1,1,0,0,1,.88,1v29.42a1,1,0,0,1-1,1Zm-14.45-3.56L452,240.24V212.83l-13.44-1.73Z" transform="translate(-146.25 -52.82)"/><path class="cls-2" d="M471.13,244.36H471l-15.45-1.67a1,1,0,0,1-.9-1V212.3a1,1,0,0,1,1.14-1l15.45,2a1,1,0,0,1,.88,1v29a1,1,0,0,1-.33.75A1.07,1.07,0,0,1,471.13,244.36Zm-14.44-3.59,13.43,1.45v-27l-13.43-1.74Z" transform="translate(-146.25 -52.82)"/><path class="cls-2" d="M569.91,369.57h0l-60.47-.44a1,1,0,0,1-1-.95V304.43a1,1,0,0,1,.3-.73,1,1,0,0,1,.74-.28l60.47,2.15a1,1,0,0,1,1,1v62.09a.91.91,0,0,1-.3.66A1,1,0,0,1,569.91,369.57Zm-59.47-2.39,58.46.47v-60.1l-58.46-2.08Z" transform="translate(-146.25 -52.82)"/><path class="cls-2" d="M528.25,361.51h0l-16.13-.15a1,1,0,0,1-1-1V311a1,1,0,0,1,.31-.73,1,1,0,0,1,.73-.28l16.13.53a1,1,0,0,1,1,1v49a.91.91,0,0,1-.3.67A1,1,0,0,1,528.25,361.51Zm-15.12-2.1,14.11.16v-47l-14.11-.46Z" transform="translate(-146.25 -52.82)"/><path class="cls-2" d="M547.06,361.51h0l-14.78,0c-.55,0-1-.3-1-.86V311.69a1,1,0,0,1,.31-.73,1,1,0,0,1,.73-.28l14.79.49a1,1,0,0,1,1,1v48.63c0,.27-.11.37-.3.56S547.33,361.51,547.06,361.51Zm-13.77-1.87,12.76.15V313.15l-12.76-.42Z" transform="translate(-146.25 -52.82)"/><path class="cls-2" d="M567.22,362.18h0l-16.8-.26a1.07,1.07,0,0,1-1-1.08V312.28a1,1,0,0,1,.31-.73,1,1,0,0,1,.73-.28l16.8.52a1,1,0,0,1,1,1V361a1.19,1.19,0,0,1-.3.79A1.08,1.08,0,0,1,567.22,362.18Zm-15.79-2.34,14.78.16V313.77l-14.78-.45Z" transform="translate(-146.25 -52.82)"/><path class="cls-2" d="M279.36,248.72l-27,2.4V216.21L294.84,211a3.08,3.08,0,0,1,0-2l-43.53,5.37a1,1,0,0,0-.88,1v36.9a1,1,0,0,0,.33.75,1,1,0,0,0,.68.26h.09l28-2.5a1,1,0,0,0,.92-1.09A1,1,0,0,0,279.36,248.72Z" transform="translate(-146.25 -52.82)"/><path class="cls-2" d="M254.09,248.53a1,1,0,0,1-.67-.26,1,1,0,0,1-.33-.75V218.83a1,1,0,0,1,.88-1l13.44-1.63a1,1,0,0,1,.79.25,1,1,0,0,1,.34.75v29a1,1,0,0,1-.91,1l-13.44,1.31Zm1-28.8v26.68l11.42-1.11v-27Z" transform="translate(-146.25 -52.82)"/><path class="cls-2" d="M281,245.69a2.92,2.92,0,0,1,.29-1.27,1,1,0,0,0-.82-.32l-8.57.71v-27.1l11.42-1.36v22.19a.93.93,0,0,0,.11.44,2.94,2.94,0,0,1,1.91-2.73v-21a1,1,0,0,0-.34-.76,1,1,0,0,0-.79-.24l-13.44,1.59a1,1,0,0,0-.89,1V245.9a1,1,0,0,0,.33.74,1,1,0,0,0,.68.27H271l9.66-.79A.9.9,0,0,0,281,246C281,245.91,281,245.8,281,245.69Z" transform="translate(-146.25 -52.82)"/><path class="cls-2" d="M293.72,213.1l-6.82.79a1,1,0,0,0-.89,1v16.93a1.1,1.1,0,0,0,0,.18l.67-1.1a3.19,3.19,0,0,1,1.33-1.18V215.79l5.45-.64A3.43,3.43,0,0,1,293.72,213.1Z" transform="translate(-146.25 -52.82)"/><path class="cls-2" d="M175.48,271.8a1,1,0,0,1-.68-.26,1,1,0,0,1-.33-.75v-39a1,1,0,0,1,.88-1l53.75-7a1,1,0,0,1,.8.24,1,1,0,0,1,.34.76v40.73a1,1,0,0,1-.91,1l-53.76,5.25Zm1-39.1v37l51.74-5.05V226Z" transform="translate(-146.25 -52.82)"/><path class="cls-2" d="M178.16,266.83a1,1,0,0,1-1-1V235.52a1,1,0,0,1,.87-1l13.44-1.74a1.05,1.05,0,0,1,.8.24,1,1,0,0,1,.34.76v30.65a1,1,0,0,1-.9,1l-13.44,1.39Zm1-30.42v28.3l11.42-1.19V234.93Z" transform="translate(-146.25 -52.82)"/><path class="cls-2" d="M195,265.1a1,1,0,0,1-.67-.26,1,1,0,0,1-.34-.74V233.36a1,1,0,0,1,.89-1l13.43-1.71a1.06,1.06,0,0,1,.8.25,1,1,0,0,1,.34.75v31.08a1,1,0,0,1-.91,1l-13.44,1.37Zm1-30.85V263l11.42-1.16v-29Z" transform="translate(-146.25 -52.82)"/><path class="cls-2" d="M211.09,263.46a1,1,0,0,1-1-1V231.31a1,1,0,0,1,.88-1l14.11-1.84a1,1,0,0,1,.79.24,1,1,0,0,1,.35.76V261a1,1,0,0,1-.91,1l-14.11,1.48Zm1-31.27v29.15l12.09-1.27V230.62Z" transform="translate(-146.25 -52.82)"/><path class="cls-2" d="M635.76,270.46h-.1l-47-4.91a1,1,0,0,1-.9-1V230.37a1,1,0,0,1,.34-.76,1,1,0,0,1,.79-.24l47,6.17a1,1,0,0,1,.88,1v32.91a1,1,0,0,1-.34.75A1,1,0,0,1,635.76,270.46Zm-46-6.83,45,4.7V237.42l-45-5.9Z" transform="translate(-146.25 -52.82)"/><path class="cls-2" d="M603.51,263h-.11l-12.77-1.36a1,1,0,0,1-.9-1V234.2a1.05,1.05,0,0,1,.34-.76,1,1,0,0,1,.8-.24l12.76,1.62a1,1,0,0,1,.88,1V262a1,1,0,0,1-1,1Zm-11.76-3.27,10.75,1.14v-24.2l-10.75-1.37Z" transform="translate(-146.25 -52.82)"/><path class="cls-2" d="M618.29,264.63h-.11l-11.43-1.26a1,1,0,0,1-.89-1V236.21a1,1,0,0,1,.34-.76,1.05,1.05,0,0,1,.8-.24l11.42,1.52a1,1,0,0,1,.88,1v25.89a1,1,0,0,1-.34.75A1,1,0,0,1,618.29,264.63Zm-10.42-3.18,9.41,1.05V238.61l-9.41-1.25Z" transform="translate(-146.25 -52.82)"/><path class="cls-2" d="M633.07,266.18H633l-12.09-1.29a1,1,0,0,1-.9-1V238a1,1,0,0,1,.34-.75,1,1,0,0,1,.79-.25l12.1,1.55a1,1,0,0,1,.88,1v25.59a1,1,0,0,1-1,1ZM622,263l10.08,1.08V240.47L622,239.18Z" transform="translate(-146.25 -52.82)"/><path class="cls-2" d="M637.1,353.44h0l-30.24-.36c-.55,0-1-.29-1-.84V320.55a1,1,0,0,1,1-1l30.24,1a1,1,0,0,1,1,1v31.22c0,.27-.11.36-.3.55S637.37,353.44,637.1,353.44Zm-29.23-2.19,28.23.49V322.53l-28.23-.94Z" transform="translate(-146.25 -52.82)"/><path class="cls-2" d="M620.3,350.08h0l-10.75-.36a1.14,1.14,0,0,1-1-1.16V323.74a1,1,0,0,1,.3-.72,1.08,1.08,0,0,1,.74-.29l10.75.36a1,1,0,0,1,1,1v24.68a1.41,1.41,0,0,1-.3.87C620.82,349.83,620.57,350.08,620.3,350.08Zm-9.74-2.5,8.74.17V325.07l-8.74-.29Z" transform="translate(-146.25 -52.82)"/><path class="cls-2" d="M634.42,350.08h0l-10.76-.23a1,1,0,0,1-1-1V324.18a1,1,0,0,1,.3-.72,1.05,1.05,0,0,1,.74-.29l10.75.36a1,1,0,0,1,1,1v24.52a1,1,0,0,1-1,1Zm-9.75-2.24,8.74.18V325.51l-8.74-.29Z" transform="translate(-146.25 -52.82)"/><path class="cls-2" d="M233.94,385h0l-51.73-1.62a1.09,1.09,0,0,1-1-1.1V312.35a1,1,0,0,1,1-1l51.74-2.13a1,1,0,0,1,1.05,1v73.63a1.25,1.25,0,0,1-.3.81A1.12,1.12,0,0,1,233.94,385Zm-50.74-3.7,49.73,1.48V311.26l-49.73,2.06Z" transform="translate(-146.25 -52.82)"/><path class="cls-2" d="M229.23,385h0l-43.68-1.45a1.16,1.16,0,0,1-1-1.17V318.15a1,1,0,0,1,1-1l43.68-1.51a1,1,0,0,1,.73.28,1,1,0,0,1,.31.73V383.7a1.39,1.39,0,0,1-.31.88C229.75,384.76,229.49,385,229.23,385Zm-42.67-3.6,41.66,1.24v-65l-41.66,1.44Z" transform="translate(-146.25 -52.82)"/><path class="cls-2" d="M485.92,389.06H445.6a1,1,0,0,1-1-1V297a1,1,0,0,1,.31-.73,1,1,0,0,1,.74-.27L486,297.74a1,1,0,0,1,1,1v89.3A1,1,0,0,1,485.92,389.06Zm-39.31-2h38.3V299.72L446.61,298Z" transform="translate(-146.25 -52.82)"/><path class="cls-2" d="M482.56,389.06H449a1,1,0,0,1-1-1V304.49a1,1,0,0,1,.31-.73,1,1,0,0,1,.74-.28l33.6,1.37a1,1,0,0,1,1,1v82.19A1,1,0,0,1,482.56,389.06ZM450,387h31.58V306.83L450,305.54Z" transform="translate(-146.25 -52.82)"/><path class="cls-2" d="M381.76,364.19h0L351.51,364c-.55,0-1-.29-1-.84v-76a1,1,0,0,1,.31-.73,1,1,0,0,1,.75-.27l30.24,1.63a1,1,0,0,1,.95,1v74.73c0,.27-.11.37-.3.56S382,364.19,381.76,364.19Zm-29.23-2.06,28.23.36V289.73l-28.23-1.52Z" transform="translate(-146.25 -52.82)"/><path class="cls-2" d="M378.4,356.8h0l-22.85-.36a1,1,0,0,1-1-1V292.28a1,1,0,0,1,.31-.73,1,1,0,0,1,.75-.28l22.84,1.15a1,1,0,0,1,1,1v62.41a1,1,0,0,1-.3.69A1,1,0,0,1,378.4,356.8Zm-21.83-2.34,20.83.35V294.39l-20.83-1.05Z" transform="translate(-146.25 -52.82)"/><path class="cls-2" d="M524.89,251.06h-.11l-15.45-1.63a1,1,0,0,1-.9-1V212.16a1,1,0,0,1,1.14-1L525,213.21a1,1,0,0,1,.88,1v35.84a1,1,0,0,1-.34.75A1,1,0,0,1,524.89,251.06Zm-14.45-3.54,13.44,1.41V215.09l-13.44-1.78Z" transform="translate(-146.25 -52.82)"/><path class="cls-2" d="M522.87,247.75h-.11l-11.42-1.23a1,1,0,0,1-.9-1V214.31a1.05,1.05,0,0,1,.34-.76,1,1,0,0,1,.8-.24L523,214.79a1,1,0,0,1,.88,1v31a1,1,0,0,1-.33.75A1.06,1.06,0,0,1,522.87,247.75Zm-10.41-3.14,9.4,1V216.68l-9.4-1.22Z" transform="translate(-146.25 -52.82)"/><path class="cls-2" d="M547.73,253.41h-.1l-14.79-1.57a1,1,0,0,1-.9-1V215.18a1,1,0,0,1,.35-.76,1,1,0,0,1,.79-.24l14.79,2a1,1,0,0,1,.87,1V252.4a1,1,0,0,1-.33.75A1.07,1.07,0,0,1,547.73,253.41ZM534,249.92l12.77,1.36V218L534,216.33Z" transform="translate(-146.25 -52.82)"/><path class="cls-2" d="M545.72,250.16h-.11L534.86,249a1,1,0,0,1-.9-1V217.29a1,1,0,0,1,.34-.76,1,1,0,0,1,.8-.24l10.75,1.44a1,1,0,0,1,.88,1v30.42a1,1,0,0,1-.34.75A1,1,0,0,1,545.72,250.16Zm-9.74-3.1,8.73,1V219.61L536,218.44Z" transform="translate(-146.25 -52.82)"/><path class="cls-2" d="M569.91,255.67h-.1L555,254.15a1,1,0,0,1-.9-1v-35a1,1,0,0,1,.34-.76,1,1,0,0,1,.79-.24L570,219a1,1,0,0,1,.88,1v34.65a1,1,0,0,1-1,1Zm-13.78-3.43,12.77,1.31V220.91l-12.77-1.64Z" transform="translate(-146.25 -52.82)"/><path class="cls-2" d="M567.89,252.49h-.1L557,251.33a1,1,0,0,1-.9-1V220.18a1,1,0,0,1,.35-.76,1,1,0,0,1,.79-.24l10.75,1.4a1,1,0,0,1,.88,1v29.9a1,1,0,0,1-1,1Zm-9.74-3.07,8.73.94v-27.9l-8.73-1.14Z" transform="translate(-146.25 -52.82)"/><path class="cls-2" d="M544.37,196.72h-.15l-10.08-1.54a1,1,0,0,1-.85-1V169a1,1,0,0,1,1.18-1l10.08,1.73a1,1,0,0,1,.83,1v25a1,1,0,0,1-1,1Zm-9.07-3.41,8.07,1.23v-23l-8.07-1.38Z" transform="translate(-146.25 -52.82)"/><path class="cls-2" d="M543,194.09h-.16l-7.39-1.17a1,1,0,0,1-.85-1V172.27a1,1,0,0,1,.36-.77,1,1,0,0,1,.82-.22l7.39,1.28a1,1,0,0,1,.84,1v19.53a1,1,0,0,1-.35.77A1.07,1.07,0,0,1,543,194.09Zm-6.38-3,5.37.85V174.4l-5.37-.93Z" transform="translate(-146.25 -52.82)"/><path class="cls-2" d="M269.55,193.44a1,1,0,0,1-1-1V166a1,1,0,0,1,.85-1l10.75-1.71a1,1,0,0,1,1.17,1V191a1,1,0,0,1-.87,1l-10.75,1.48Zm1-26.62v24.45l8.73-1.2V165.43Z" transform="translate(-146.25 -52.82)"/><path class="cls-2" d="M416.7,364.87h0l-28.22-.27a.91.91,0,0,1-1-.9V289.58a1,1,0,0,1,.31-.73,1,1,0,0,1,.75-.27l28.22,1.55a1,1,0,0,1,.95,1v72.94a.77.77,0,0,1-.3.6A.92.92,0,0,1,416.7,364.87Zm-27.21-2.16,26.21.35v-71l-26.21-1.44Z" transform="translate(-146.25 -52.82)"/><path class="cls-2" d="M413.34,357.47h0l-21.5-.3a1,1,0,0,1-1-.95V294.58a1,1,0,0,1,.32-.73,1,1,0,0,1,.74-.28l21.51,1.1a1,1,0,0,1,1,1v60.9a.87.87,0,0,1-.3.66A.94.94,0,0,1,413.34,357.47Zm-20.49-2.24,19.49.33V296.63l-19.49-1Z" transform="translate(-146.25 -52.82)"/><path class="cls-2" d="M341.11,274.16V392.55l-66.52-1.7v-113c-.68.12-1.4,2.91-2,2.63V391.83a.94.94,0,0,0,1,.93l68.54,1.67h0a.92.92,0,0,0,.7-.21.82.82,0,0,0,.31-.64V274.8A3.2,3.2,0,0,1,341.11,274.16Z" transform="translate(-146.25 -52.82)"/><path class="cls-2" d="M319.27,366.21H287.69a1,1,0,0,1-1-1V273.12a1,1,0,0,1,.94-1l31.58-2.33a1,1,0,0,1,1.08,1V365.2A1,1,0,0,1,319.27,366.21Zm-30.57-2h29.56V271.88l-29.56,2.18Z" transform="translate(-146.25 -52.82)"/><path class="cls-2" d="M291.72,356.13a1.09,1.09,0,0,1-.71-.36,1.17,1.17,0,0,1-.3-.78V278.74a1,1,0,0,1,.94-1l23.52-1.61a1,1,0,0,1,.76.26,1,1,0,0,1,.32.74v77.69a1.07,1.07,0,0,1-1,1.07l-23.52.24Zm1-76.45V354l21.5-.16V278.21Z" transform="translate(-146.25 -52.82)"/><path class="cls-2" d="M550.1,293.64h-4.72a1,1,0,0,1-.77-.36L511,253.63a1,1,0,0,1-.24-.77,1.07,1.07,0,0,1,.4-.69l1.57-1.17a1,1,0,0,1,1.35.14l36.65,40.72a1,1,0,0,1,.36.77A1,1,0,0,1,550.1,293.64Zm-4.25-2h2L514,254.08Z" transform="translate(-146.25 -52.82)"/><path class="cls-2" d="M242.39,201.37a3.35,3.35,0,0,1-.16-.89l-87.09,16a1,1,0,0,0-.83,1v6a1,1,0,0,0,.36.77,1,1,0,0,0,.65.24l.16,0,87.6-14.55A24.35,24.35,0,0,0,242.39,201.37Zm-86.06,20.81v-3.92l85.6-15.68.2,5.34Z" transform="translate(-146.25 -52.82)"/><path class="cls-2" d="M148.79,306a1,1,0,0,1-.66-.25,1,1,0,0,1-.34-.69l-.2-3a1,1,0,0,1,.94-1.07l85.22-6.15L241.8,281a1,1,0,0,1,1.88.51v6.37a1,1,0,0,1-.12.47l-6.09,11.34a1.06,1.06,0,0,1-.83.53L148.86,306Zm.88-3.09.06,1,86.22-5.6,5.71-10.62v-2.39l-6.44,11a1,1,0,0,1-.79.49Z" transform="translate(-146.25 -52.82)"/><path class="cls-2" d="M646.91,310.43h0l-45.28-2.22a1,1,0,0,1-.69-.33l-12-13.22a.94.94,0,0,1-.26-.64l-.24-6.79a1,1,0,0,1,1.8-.65l12.71,16.5,44.34,2.33a1,1,0,0,1,.7.35,1,1,0,0,1,.25.75l-.27,3A1,1,0,0,1,646.91,310.43ZM602.1,306.2,646,308.36l.1-1-43.76-2.3a1,1,0,0,1-.74-.39l-11.08-14.38.12,3.28Z" transform="translate(-146.25 -52.82)"/><path class="cls-2" d="M497.34,392.64h-.12l-10.08-1.2a1,1,0,0,1-.89-1V195.2a1,1,0,0,1,1-1h10.08a1,1,0,0,1,1,1V391.63a1,1,0,0,1-1,1Zm-9.07-3.11,8.06,1V196.21h-8.06Z" transform="translate(-146.25 -52.82)"/><path class="cls-2" d="M497.34,392.64h-.12l-10.08-1.2a1,1,0,0,1-.89-1V195.2a1,1,0,0,1,1-1h10.08a1,1,0,0,1,1,1V391.63a1,1,0,0,1-1,1Zm-9.07-3.11,8.06,1V196.21h-8.06Z" transform="translate(-146.25 -52.82)"/><path class="cls-2" d="M470.24,288.26h0l-43-.76a1,1,0,0,1-.68-1.75l6.35-6.05a1,1,0,0,1,.78-.28l10,.85,19.15-25.76a1,1,0,0,1,.73-.4l49.84-3.81a1,1,0,0,1,.72,1.78L470.88,288A1,1,0,0,1,470.24,288.26Zm-40.5-2.75,40.14.71,40.51-33.67-46.23,3.53L445,281.92a1,1,0,0,1-.89.4L434,281.47Z" transform="translate(-146.25 -52.82)"/><path class="cls-2" d="M447.11,279.7H447l-103.18-7.11a1,1,0,0,1-.77-.49l-45.37-70.9a1,1,0,0,1,0-1.07,1,1,0,0,1,1-.44h.1L369,210.21a1,1,0,0,1,.65.39L402.12,253l59.37,6.22a1,1,0,0,1,.82.59,1,1,0,0,1-.1,1l-14.29,18.44A1,1,0,0,1,447.11,279.7Zm-102.57-9.07,102.09,7,12.92-16.56L401.48,255a1,1,0,0,1-.69-.39l-32.46-42.46L300.5,202Z" transform="translate(-146.25 -52.82)"/><path class="cls-2" d="M469.79,393.76a1,1,0,0,1-.71-.26.93.93,0,0,1-.3-.68V286.35a1,1,0,0,1,1-1l12.1,0a.91.91,0,0,1,.71.29,1,1,0,0,1,.3.72V392.73a1,1,0,0,1-1,1l-12.09.06Zm1-106.41V391.8l10.08-.07V287.31Z" transform="translate(-146.25 -52.82)"/><path class="cls-2" d="M470.55,394.43h-5.88a1,1,0,0,1-1-.93l0-105.8a1,1,0,0,1,.89-1l5.88-.66a1,1,0,0,1,.78.26,1,1,0,0,1,.34.75l-.06,106.69c0,.27-.11.37-.31.56S470.81,394.43,470.55,394.43Zm-4.84-1.83,3.83.11.06-104.52-3.85.44Z" transform="translate(-146.25 -52.82)"/><path class="cls-2" d="M442.91,393.76H430.82a1,1,0,0,1-1-1V287.93a1,1,0,0,1,1-1h12.09a1,1,0,0,1,1,1V392.75A1,1,0,0,1,442.91,393.76Zm-11.09-2H441.9V288.94H431.82Z" transform="translate(-146.25 -52.82)"/><path class="cls-2" d="M432.34,391.07h0l-5.72-.07a1,1,0,0,1-1-1l-.11-102.36a1,1,0,0,1,.89-1l5.75-.63a1,1,0,0,1,.78.25,1,1,0,0,1,.34.75l.09,103s0,0,0,.06a.93.93,0,0,1-1,.91Zm-4.72-2,3.71.11-.09-101-3.73.42Z" transform="translate(-146.25 -52.82)"/><path class="cls-2" d="M532.28,392.41c-.27,0-.52,0-.71-.15a.71.71,0,0,1-.3-.57V288.75a1,1,0,0,1,1-1l12.1-.06a1,1,0,0,1,.72.3,1,1,0,0,1,.29.71V391.6a.9.9,0,0,1-1,.87l-12.09-.06Zm1-102.66V390.67l10.08-.07V289.71Z" transform="translate(-146.25 -52.82)"/><path class="cls-2" d="M532.28,392.7a1.06,1.06,0,0,1-.42-.09l-7.39-3.36a1,1,0,0,1-.59-.92V290.61a1,1,0,0,1,1-1h7.39a1,1,0,0,1,1,1V391.69a1,1,0,0,1-.46.85A1.1,1.1,0,0,1,532.28,392.7Zm-6.38-5,5.37,2.44v-98.5H525.9Z" transform="translate(-146.25 -52.82)"/><path class="cls-2" d="M548.74,293s0,0-.06,0l-78.5-4.69a1,1,0,0,1-.9-.7,1,1,0,0,1,.31-1.09l43.23-35.93a1,1,0,0,1,1.41.12l35.19,40.5a1.05,1.05,0,0,1,.34.79,1,1,0,0,1-1,1Zm-75.9-6.59,73.57,4.38-33.06-38Z" transform="translate(-146.25 -52.82)"/><path class="cls-2" d="M450.63,275.94a1,1,0,0,0-.85-.58l-4.27-.28a3.14,3.14,0,0,1-1.29,1.93l3.61.24-2.87,4-104.17-7.28-40.66-62.49a1,1,0,0,0-.95-.46,1,1,0,0,0-.84.64l-26.29,67.9h-3.21l30-76.43,42.77,66.58a1,1,0,0,0,.78.46l.67,0c-.49-.7-.31-1.1-.06-1.95l-43.49-67.82a1.07,1.07,0,0,0-.74-.46,1,1,0,0,0-.81.28l-.1.1a.92.92,0,0,0-.24.35l-31.19,79.49a1,1,0,0,0,.1.93,1,1,0,0,0,.83.44h5.38a1,1,0,0,0,.94-.64l25.83-66.7,39.87,61.26a1,1,0,0,0,.77.46l105.22,7.35h.07a1,1,0,0,0,.82-.42l4.27-5.9A1,1,0,0,0,450.63,275.94Z" transform="translate(-146.25 -52.82)"/><path class="cls-2" d="M579,217h-4.71a1,1,0,0,1-.94-.63l-33.93-82.82a1,1,0,0,1,.34-1.2l4.43-3.21a1,1,0,0,1,.87-.16,1,1,0,0,1,.66.6l34.15,85.89A1,1,0,0,1,579,217Zm-4-2h2.54l-33.17-83.45-2.74,2Z" transform="translate(-146.25 -52.82)"/><path class="cls-2" d="M347.83,182.86l-26.08-1.17L272.5,111.78a1,1,0,0,0-.91-.42,1,1,0,0,0-.83.58l-40.09,85.87a1,1,0,0,0,.12,1.05,1,1,0,0,0,1,.36l8.74-1.83a1,1,0,0,0,.71-.58l.93-2.12c-.22-1.18.57-2.07.75-3.32.09-.63.56-2.21.67-2.85l-3.32,6.86-6.92,1.46,38.5-82.48,48.53,68.9a1,1,0,0,0,.78.42l25.71,1.16A10.06,10.06,0,0,1,347.83,182.86Z" transform="translate(-146.25 -52.82)"/><path class="cls-2" d="M657.47,224.83l-73.69-15.89-37.24-93.68a1,1,0,0,0-1.78-.18L495.49,191.5h-4.38l-35-7.85a5,5,0,0,1-1,1.84l35.72,8a.78.78,0,0,0,.22,0h5a1,1,0,0,0,.84-.46l48.51-75.24,36.72,92.36a1,1,0,0,0,.72.62l73.42,15.83v4.6l-77-17.34-33.78-84.52a1,1,0,0,0-1.78-.18l-44.91,68.36h-8.32l-29.85-6.4a2.68,2.68,0,0,1,.26,2.12l29.27,6.27a.76.76,0,0,0,.21,0h9a1,1,0,0,0,.85-.46l44.14-67.2,33.27,83.22a1,1,0,0,0,.71.61L657,233.47a.83.83,0,0,0,.22,0,1,1,0,0,0,.63-.22,1,1,0,0,0,.38-.79v-6.68A1,1,0,0,0,657.47,224.83Z" transform="translate(-146.25 -52.82)"/><path class="cls-2" d="M549.08,295.93a1,1,0,0,1-.7-.28l-35.53-34.31-42.76,29.37a1,1,0,0,1-.53.18l-44.08,1.74a1,1,0,0,1-1.05-1v-5.14a1,1,0,0,1,.95-1L467.3,283,512,250.49a1,1,0,0,1,1.32.12l36.48,38.27a1,1,0,0,1,.28.7v5.35a1,1,0,0,1-.62.92A.88.88,0,0,1,549.08,295.93ZM513,259a1,1,0,0,1,.7.29l34.41,33.23V290l-35.59-37.34-44.24,32.13a.92.92,0,0,1-.53.19l-41.26,2.47v3.14l42.74-1.68,43.2-29.68A1,1,0,0,1,513,259Z" transform="translate(-146.25 -52.82)"/><path class="cls-2" d="M544.71,296.55a1,1,0,0,1-.69-.27L508.8,263.53a1,1,0,0,1-.32-.82,1,1,0,0,1,.44-.75l4-2.75a1,1,0,0,1,1.27.1l36.62,34.89a1,1,0,0,1-.58,1.73l-5.37.61ZM511.09,262.9l34,31.59,2.77-.32-34.47-32.83Z" transform="translate(-146.25 -52.82)"/><path class="cls-2" d="M469.79,395.1h0l-43.67-1a1.07,1.07,0,0,1-.73-.41,1.11,1.11,0,0,1-.26-.79l.33-4.89a1,1,0,0,1,1-1h43.34a1,1,0,0,1,1,1v5.71a1.42,1.42,0,0,1-.31.89C470.31,394.83,470.05,395.1,469.79,395.1Zm-42.6-3.17,41.59.8v-3.67H427.39Z" transform="translate(-146.25 -52.82)"/><path class="cls-2" d="M470.05,394.43c-.27,0-.52.06-.71-.12a.85.85,0,0,1-.3-.64V387a1,1,0,0,1,1-1l74.33-1.44a1,1,0,0,1,.73.29,1,1,0,0,1,.3.73v6.68c0,.55-.44.83-1,.84l-74.32,1.32Zm1-6.4v4.69l72.32-1.44v-4.67Z" transform="translate(-146.25 -52.82)"/></g><polygon class="cls-72" points="501.8 197.69 515.89 163 551.41 175.95 542.29 156.49 505.94 142.53 491.51 177.32 501.8 197.69"/><path class="cls-73" d="M663.54,306.9c-33.08,67.61-129.27,113.78-227.21,95.44a222.05,222.05,0,0,1-38.74-10.88,187,187,0,0,1-51.52-29.55l53.12,4.55a184.48,184.48,0,0,0,48.18,17c85.32,17.66,171.11-21.77,201.07-81.8,11.89-23.82,14.75-49.1,8.61-73.28a107.25,107.25,0,0,0-4.66-14.18,7.37,7.37,0,0,1,4.91-9.83,8.68,8.68,0,0,1,10.62,4.77q2,5,3.53,10.11C680.14,248,677.49,278.37,663.54,306.9Z" transform="translate(-146.25 -52.82)"/><path class="cls-74" d="M212.65,296.83c-1.26.47-20.4,8.08-24.33,28.06-.32,1.61-3.39,18.78,8.25,30.9,13.05,13.6,38.18,13.26,48.16,1.89a20.46,20.46,0,0,0,4.24-8.05h0l-2.63-7c-3.21-3.87-7.58-4.78-9.91-5.36-5.75-1.42-10.09,1.14-13.38-1.63-1.82-1.53-2.18-3.74-2.51-5.71-1.1-6.72,2.69-10.85,3-15,.21-3.09,1.29-9.88-2.75-14.3A13,13,0,0,0,212.65,296.83Z" transform="translate(-146.25 -52.82)"/><path class="cls-75" d="M205.19,519.46c-.22-1.23-4.19-2.34-6.16-.69-1,.81-1.65,2.47-1.08,3.22.2.27-.64.75.17.76C200.79,522.78,205.41,520.68,205.19,519.46Z" transform="translate(-146.25 -52.82)"/><path class="cls-76" d="M201,519.91l-4.09-.58c1.9-2.28,1.55-9.53,1.55-9.53l4.34,1s-.5,2-1.34,4.93A19.31,19.31,0,0,0,201,519.91Z" transform="translate(-146.25 -52.82)"/><path class="cls-77" d="M201.39,519.41s-4.92-1.14-5.45-.16-.94,3.59,2.18,3.5S201.67,520.23,201.39,519.41Z" transform="translate(-146.25 -52.82)"/><path class="cls-78" d="M261.24,524.07c-.4-1.18-4.49-1.73-6.2.18-.85.94-1.29,2.68-.62,3.34.24.24-.53.84.27.73C257.34,528,261.63,525.25,261.24,524.07Z" transform="translate(-146.25 -52.82)"/><path class="cls-79" d="M257.18,525.1h-4.13c1.56-2.52.19-9.66.19-9.66l4.44.36s-.21,2-.63,5.06A18.48,18.48,0,0,0,257.18,525.1Z" transform="translate(-146.25 -52.82)"/><path class="cls-80" d="M267.87,369.1a190.41,190.41,0,0,1,6.39,29.28c5,36.45-5.64,37.61-3.65,78,.64,12.89-11.17,42.62-12.21,43.27a12.09,12.09,0,0,1-1.63.07,16.45,16.45,0,0,1-4.16-.69c-1.87-.33-8.61-18.59-7-29.44,1.1-7.69.78-15.93.14-32.43-.1-2.67-6.94-52-6.94-52h0c-2.08,18.26-4.47,33.77-6.55,45.79-6.66,38.64-28.32,62-29.45,62.4a4.59,4.59,0,0,1-3.92-.26,2.7,2.7,0,0,1-1-1.12c-.58-.45.17-38.58,6.78-67.27,9.59-41.64,5.41-51.38,8.45-70C215.72,358.63,267.87,369.1,267.87,369.1Z" transform="translate(-146.25 -52.82)"/><path class="cls-81" d="M229.13,293.58c6.37-.19,20.32-1.72,31.33,3.35.17.07-3.78,2.47-3,3.42a54.05,54.05,0,0,1,5.69,8.17A55.09,55.09,0,0,1,268,320.35,102.4,102.4,0,0,1,271.75,341c1.47,19.37,0,28.32-1.32,34.39-5.75,3-20.59,8.25-38.26,5.62a59.73,59.73,0,0,1-19.08-6.28c4.59-13.89,1-21.32-.71-28.17-2.42-9.76-2.46-9-4.45-16.78-3.29-12.8-3.83-25.88-1.57-28.56C212.45,294,223.43,293.74,229.13,293.58Z" transform="translate(-146.25 -52.82)"/><path class="cls-82" d="M257.46,524.55s-5-.43-5.41.61-.44,3.68,2.64,3.16S257.85,525.33,257.46,524.55Z" transform="translate(-146.25 -52.82)"/><path class="cls-83" d="M247.05,286.28a11.14,11.14,0,0,0,.9-8c-.83-3.45-1.14-4-1.78-4.7l-.91-1-.11-.08a13.23,13.23,0,0,0-3.49-1.16c-1.62-.08-4.91,5.73-6.8,14.68l-.45,1q-1,2.25-1.86,4.42a2.66,2.66,0,0,1-2.22,1.71c-9.45.91-10.82,2.1-10.86,2.8-.11,1.56,6.13,3.36,10.82,4,10.23,1.5,20.74-1.2,20.69-3.11,0-.74-1.64-1.68-8.14-2.68a2.64,2.64,0,0,1-2.21-3l.24-1.69C241.57,289.41,245.6,288.73,247.05,286.28Z" transform="translate(-146.25 -52.82)"/><path class="cls-84" d="M247.2,271.85c-.74,2.73-.9,4.45-1.68,4.75a4.39,4.39,0,0,0-1.28.81,1.85,1.85,0,0,0-.24.29c-1.06,1.56,1.14,4.32.41,4.95-.54.45-2.2-.79-2.55-.37s1,1.76.59,2.24-1.14-.27-1.91.2c-.39.24-.36.51-.94,1.38a8.69,8.69,0,0,1-1,1.3c-1.38,1.36-4.21,1.23-4.55.45-.1-.22.07-.34.08-1a5.23,5.23,0,0,0-.2-1.35c-.31-1.06-1.47-2.08-2.56-3.41a9.19,9.19,0,0,1-2.36-4.75c0-.2,0-.35,0-.46a10.54,10.54,0,0,1,2.06-6.73c2.33-2.64,5.37-.28,9-2.56,4.16-2.62,0,2.22,1.85,2.16C244,269.72,248.57,266.8,247.2,271.85Z" transform="translate(-146.25 -52.82)"/><path class="cls-85" d="M243.6,281.74c-.43-1.1-1.84-.55-2.16.64s.5,2.74,1.68,2.8S244.17,283.22,243.6,281.74Z" transform="translate(-146.25 -52.82)"/><path class="cls-86" d="M231.74,364c6.36-1.73,10.27,5.93,15.74,4.8,7.52-1.55,10.2-18.16,10.93-22.67,2.62-16.25-2.27-22.26,2.13-29.33a15.37,15.37,0,0,1,4.5-4.58,64.81,64.81,0,0,1,2.93,8.15A102.4,102.4,0,0,1,271.75,341c1.47,19.37,0,28.32-1.32,34.4-5.75,3-20.59,8.24-38.26,5.61a59.34,59.34,0,0,1-17.71-5.58,17.84,17.84,0,0,0,9.82-4.52C227.18,368.13,228.07,365,231.74,364Z" transform="translate(-146.25 -52.82)"/><path class="cls-87" d="M275.31,347.5l18.44-41.13a1.26,1.26,0,0,1,1.31-.74l32.23,4.06a1.26,1.26,0,0,1,1,1.81L306.53,356a1.25,1.25,0,0,1-1.44.67l-28.69-7.09Z" transform="translate(-146.25 -52.82)"/><path class="cls-23" d="M280.39,342.52l14.92-33.31a1,1,0,0,1,1.06-.59l26.1,3.29a1,1,0,0,1,.79,1.46l-17.6,36a1,1,0,0,1-1.16.55l-23.24-5.75Z" transform="translate(-146.25 -52.82)"/><path class="cls-88" d="M300.72,309l1.18-2.67a.93.93,0,0,1,1-.54l13.41,1.58a.92.92,0,0,1,.73,1.3l-1.32,2.9a.93.93,0,0,1-1,.54l-13.27-1.82A.92.92,0,0,1,300.72,309Z" transform="translate(-146.25 -52.82)"/><path class="cls-89" d="M319,318H319l-23.64-3a.53.53,0,0,1-.46-.6.55.55,0,0,1,.6-.46l23.64,3a.53.53,0,0,1,.46.59A.54.54,0,0,1,319,318Z" transform="translate(-146.25 -52.82)"/><path class="cls-90" d="M317.8,320.41h-.07l-23.52-3.26a.54.54,0,0,1,.15-1.06l23.52,3.26a.54.54,0,0,1-.08,1.07Z" transform="translate(-146.25 -52.82)"/><path class="cls-91" d="M306,324.16h-.09L293.06,322a.53.53,0,0,1-.44-.61.54.54,0,0,1,.62-.44l12.82,2.14a.53.53,0,0,1,.44.61A.54.54,0,0,1,306,324.16Z" transform="translate(-146.25 -52.82)"/><path class="cls-92" d="M311.85,345.07s5.25-3.57,5.87-6.09a36.25,36.25,0,0,0,.45-7.25l-3.06,6.67a3.56,3.56,0,0,1-2.11-2.62c-.64-2.2-1.72-.19-1.28,1.47S311.85,345.07,311.85,345.07Z" transform="translate(-146.25 -52.82)"/><path class="cls-93" d="M260.46,296.93c5.5.83,16,5.45,21.61,12.86,10.39,13.72,6.42,28.12,15.12,33.25,2.48,1.47,6.85,2.66,14.74-.13l3,1.61s3.69,18.78-19.11,19.48-34.16-27.64-34.16-27.64L251,301.67Z" transform="translate(-146.25 -52.82)"/><path class="cls-94" d="M227.79,269.47a9.49,9.49,0,0,1,.87-1.33,13.15,13.15,0,0,1,4.77-3.54c3.09-1.54,6.44-1.93,9.58-.2a14.49,14.49,0,0,1,5.14,5.75,3.49,3.49,0,0,1,0,3.25c-1.92,3.82-7.33,13-14.19,11.83a8.07,8.07,0,0,1-6.06-4.52C226.5,277.29,226,272.87,227.79,269.47Z" transform="translate(-146.25 -52.82)"/><path class="cls-95" d="M229.64,276.91c1.11,5.34,2.22,6.21,4.42,6a1.57,1.57,0,0,0,.69-.23h0a1.28,1.28,0,0,0,.43-.53v0c.58-1.35-.06-4.49-.68-10.17-.83-7.72,7.33-8,7.33-8a6.41,6.41,0,0,0-.39-.86,1.3,1.3,0,0,0-.31-.26,1.73,1.73,0,0,0-.5-.22c-2.31-.7-5.31.25-7.29,1.47C229.18,266.62,228.76,272.73,229.64,276.91Z" transform="translate(-146.25 -52.82)"/><path class="cls-96" d="M247.1,268.42a2.84,2.84,0,0,1,2.12,3.45c-.36,2.37-5.31,13.76-14,13.8s-7-4.52-7-4.52a6.82,6.82,0,0,0,7.27,2.88c4.85-1.12,7.46-3.61,10.55-9.07C246,275,248.44,270.14,247.1,268.42Z" transform="translate(-146.25 -52.82)"/><path class="cls-97" d="M233.41,272.08c.05,2.4,1.08,10.57,1.34,10.57h0a6.72,6.72,0,0,0,.43-.53v0c.58-1.35-.06-4.49-.68-10.17-.83-7.72,7.33-8,7.33-8a6.41,6.41,0,0,0-.39-.86,1.3,1.3,0,0,0-.31-.26c-1.57.26-5.39,1.08-6.51,3.23C233.23,268.73,233.34,269.65,233.41,272.08Z" transform="translate(-146.25 -52.82)"/><path class="cls-98" d="M372.05,529.41c0,2.94-6.81,5.51-17.09,7a144.17,144.17,0,0,1-20.32,1.34c-20.65,0-37.4-3.73-37.4-8.34a.76.76,0,0,1,0-.15c.29-3.7,11.38-6.81,26.53-7.84,3.44-.23,7.09-.35,10.86-.35,20.43,0,37,3.65,37.4,8.19A.76.76,0,0,1,372.05,529.41Z" transform="translate(-146.25 -52.82)"/><rect class="cls-99" x="151.55" y="401.58" width="74.19" height="75.02"/><path class="cls-100" d="M355,536.41a144.17,144.17,0,0,1-20.32,1.34c-20.65,0-37.4-3.65-37.4-8.26,0,0,0-.07,0-.07h.55V458.56c.83,2.17,3,3.9,5.46,4.92,12,5,21,16.88,21.8,34.36a120,120,0,0,1-.92,17.94,48.23,48.23,0,0,0-.33,5.64,19.2,19.2,0,0,0,1.49,7.84,10,10,0,0,0,1.71,2.62c2.37,2.57,5.83,2.78,8.88,3.18C339.2,535.51,348.11,536,355,536.41Z" transform="translate(-146.25 -52.82)"/><path class="cls-101" d="M372.54,451.9c-5.22-4.17-20.21-6.14-37.9-6.14s-32.68,2-37.89,6.14H295.3v2.5h-.51c.47,5,18.13,8.73,39.85,8.73s39.38-3.66,39.86-8.48l0-2.75Z" transform="translate(-146.25 -52.82)"/><ellipse class="cls-102" cx="188.4" cy="398.48" rx="39.88" ry="8.91"/><path class="cls-103" d="M370.26,451.29c0,.63-.48,1.24-1.39,1.82-4.29,2.72-18,4.71-34.23,4.71-17.91,0-32.73-2.43-35.24-5.58a1.52,1.52,0,0,1-.38-.95c0-3.61,16-6.53,35.62-6.53S370.26,447.68,370.26,451.29Z" transform="translate(-146.25 -52.82)"/><path class="cls-104" d="M318.87,457.15a5.28,5.28,0,0,1,1.82,3.05c.15,1.68-.74,18.6,2.82,13.85s12-5.2,11.13,6.68,8.31,22.85,13.51,8.16,9.2-22.71,11-19.15,4.6,4.31,5.49-1.48,3.52-10.85-.54-13.29S318.87,457.15,318.87,457.15Z" transform="translate(-146.25 -52.82)"/><path class="cls-105" d="M370.26,451.29c0,.63-.48,1.24-1.39,1.82-3.06-3.14-11.76-1.27-17.6-3.11a58.61,58.61,0,0,0-21.77-2.18c-6.73.7-14.55,3.67-21.47,2.38-4.69-.87-7.38.84-8.63,2a1.52,1.52,0,0,1-.38-.95c0-3.61,16-6.53,35.62-6.53S370.26,447.68,370.26,451.29Z" transform="translate(-146.25 -52.82)"/><g class="cls-106"><g class="cls-107"><path id="SVGID-11" data-name="SVGID" class="cls-3" d="M547.14,504.53a110.11,110.11,0,0,1,12.21,11.72c9.81,1.51,20.18,3.76,30.06,2.5a20.48,20.48,0,0,0,7.9-2.88,30.75,30.75,0,0,0,4.85-3.41c5.92-5.23,5.91-16,9-23.45,2-5,6.83-10,18.42-17.25,10.57-6.59,32.93-15.62,35.81-29.78,3.28-16.13-10.75-17.69-6.78-29.21,6.19-18,.39-37.39-18.66-39.23-18.81-1.83-36.81,25.79-38.89,67.92-4.91,30.05-9.81,33.52-23.18,39.71-7.66,3.55-27.71,8.08-35.64,19.18C544,501.75,545.77,503.4,547.14,504.53Z" transform="translate(-146.25 -52.82)"/><g class="cls-108"><g class="cls-109"><path class="cls-110" d="M577.86,511.12c.46-.58.92-1.15,1.37-1.73a350.69,350.69,0,0,0,37.09-58A292.81,292.81,0,0,0,635.66,403,234.81,234.81,0,0,0,643,369.84c.27-1.86.44-3.77.6-5.62.22-2.46.44-5,.9-7.44l-.68-.13c-.47,2.46-.7,5-.92,7.51-.16,1.84-.33,3.74-.59,5.58a234.8,234.8,0,0,1-7.35,33A292.67,292.67,0,0,1,615.7,451a349.87,349.87,0,0,1-37,57.92c-.46.59-.93,1.17-1.39,1.75Z" transform="translate(-146.25 -52.82)"/><path class="cls-110" d="M602.52,474.7l.59.38c16.27-25.08,64.63-42,65.11-42.19l-.22-.66C667.51,432.4,618.93,449.42,602.52,474.7Z" transform="translate(-146.25 -52.82)"/><path class="cls-110" d="M632,412.22l.6.35c8.28-14.45,20.32-27.71,24.27-32.06,1-1.06,1.3-1.43,1.39-1.58l-.59-.37c-.07.11-.62.71-1.31,1.48C652.41,384.41,640.33,397.71,632,412.22Z" transform="translate(-146.25 -52.82)"/><path class="cls-110" d="M622,437.7l.68.16c3.43-15.23-13.36-41.56-14.07-42.67l-.59.37C608.23,395.83,625.4,422.76,622,437.7Z" transform="translate(-146.25 -52.82)"/></g></g></g></g><g class="cls-107"><path id="SVGID-12" data-name="SVGID" class="cls-4" d="M542.12,487.12a10,10,0,0,0-3.48,5.44c-1.49,7.1,7.61,14.3,9.76,16,12.38,9.79,29.06,7.58,34.83,6.55,6.38-3.37,13.11-9,8.59-17.45-5.1-9.58-10.36-14.72-1.55-24.75s9.42-21.06.23-29c-9.67-8.3-5.28-27.69-16.69-30.94-19.87-5.65-28.66,26.85-18.84,48.37S550.18,479.75,542.12,487.12Z" transform="translate(-146.25 -52.82)"/><g class="cls-111"><g class="cls-112"><g class="cls-113"><path class="cls-110" d="M561.29,516.52l.65,0c14.94-33.57,17-72.95,4.86-107.1l-.57.2C578.36,443.72,576.26,483,561.29,516.52Z" transform="translate(-146.25 -52.82)"/><path class="cls-110" d="M562.5,513.85l.43.42c12-12.37,32-11.72,32.2-11.71l0-.6C595,502,574.72,501.29,562.5,513.85Z" transform="translate(-146.25 -52.82)"/><path class="cls-110" d="M555.11,515.86c.21,0,.43.06.64.09-3.65-14.14-16.27-28.22-16.43-28.4l-.45.41C539,488.14,551.44,502,555.11,515.86Z" transform="translate(-146.25 -52.82)"/><path class="cls-110" d="M573.27,472.18l.56.22c4.91-13,24.53-21.24,24.73-21.32l-.23-.55C598.13,450.61,578.27,459,573.27,472.18Z" transform="translate(-146.25 -52.82)"/><path class="cls-110" d="M573.66,444.3l.58-.15c-3.89-15.32-22-26.59-22.22-26.7l-.31.51C551.89,418.07,569.83,429.21,573.66,444.3Z" transform="translate(-146.25 -52.82)"/></g></g></g></g><g class="cls-114"><g class="cls-107"><path id="SVGID-13" data-name="SVGID" class="cls-5" d="M641,464.87c-18.48-5.49-28.65,10.31-35.67,17.08S586.86,479.8,582.77,492c-2.26,6.75-2.56,13.67-5,18.05.78.49,1.55,1,2.32,1.49l.23.13c1.1.63,2.21,1.2,3.36,1.73-.26-.13,1.07.4,1.21.45.66.21,1.33.41,2,.59,5.11,1.37,11,2.27,16.38,1.62,4.36-.95,9.58-2.9,11.76-7.33,1.24-2.52.33-3.47,1.27-5.45,2.92-6.15,13.79-10.64,27.48-7.91C658.34,498.28,671.92,474.06,641,464.87Z" transform="translate(-146.25 -52.82)"/><g class="cls-115"><g class="cls-113"><path class="cls-23" d="M626,483c-10.57,3.22-21.5,9.92-32.49,19.9-3.92,3.56-7.57,7.3-10.9,11l.29.26c3.32-3.67,7-7.41,10.88-11,17.18-15.61,43.23-31,69.76-15.6l.2-.33A45.88,45.88,0,0,0,626,483Z" transform="translate(-146.25 -52.82)"/><path class="cls-23" d="M620.5,485l.33.22c7.31-10.82,23.14-21.43,23.3-21.54l-.22-.33C643.75,463.41,627.86,474.07,620.5,485Z" transform="translate(-146.25 -52.82)"/><path class="cls-23" d="M629.39,482.51a32.73,32.73,0,0,1,22.13,13.7l.33-.2c-.06-.12-6.85-11.37-22.4-13.89Z" transform="translate(-146.25 -52.82)"/><path class="cls-23" d="M582.15,515c15.48-11.05,37.41,2.09,37.62,2.23l.25-.3c-.19-.16-22.48-13.4-38.09-2.25Z" transform="translate(-146.25 -52.82)"/><path class="cls-23" d="M587.22,509l.34.2c6-10.58,1.63-25.21,1.59-25.36l-.38.12C588.81,484.07,593.09,498.55,587.22,509Z" transform="translate(-146.25 -52.82)"/></g></g></g></g><path class="cls-116" d="M417.44,458.63H401.55a3.86,3.86,0,0,0-3.5,2.63l-10.4,30.85v41.72l19.62-2.16,2.9-.32,18.25-2L428,489.82Z" transform="translate(-146.25 -52.82)"/><path class="cls-117" d="M421.65,461.18a3.72,3.72,0,0,0-3.33-2.55H405.18a3.82,3.82,0,0,0-3.46,2.62l-10.25,30.5,0,41.57,19.36-2.09,2.89-.3,18.13-2-.49-39.13Z" transform="translate(-146.25 -52.82)"/><path class="cls-118" d="M410.16,466.29V466s.14-.05.07-.05c-1.24-.1-2.11,1.47-2.11,3.5s.8,3.77,2,3.85c.07,0,0,0,0,0v-.13l82.52,5.63v-6Z" transform="translate(-146.25 -52.82)"/><polygon class="cls-119" points="362.28 462.77 283.08 453.54 283.08 435.74 362.28 445.15 362.28 462.77"/><polygon class="cls-120" points="362.28 447.57 283.08 438.18 283.08 435.74 362.28 445.15 362.28 447.57"/><polygon class="cls-121" points="324.58 486.42 318.09 482.76 318.04 475.31 311.55 471.65 311.5 464.19 305 460.53 304.95 453.08 298.53 449.41 298.54 449.36 298.5 449.34 298.48 449.33 298.53 441.71 292.33 437.88 292.28 437.86 292.03 437.88 291.98 437.98 291.89 430.75 285.66 427.29 285.6 427.21 285.56 419.82 279.25 416.27 279.06 415.95 279.01 408.72 272.84 405.24 272.51 404.68 272.46 397.6 266.45 394.21 265.96 393.39 265.92 386.49 260.04 383.17 259.68 382.57 260.5 382.37 285.71 376.16 293.61 374.21 336.13 478.19 333.39 480.14 324.58 486.42"/><polygon class="cls-122" points="333.39 480.14 285.71 376.16 293.61 374.21 336.13 478.19 333.39 480.14"/><path class="cls-123" d="M441.9,425.41l-13.18-33.5a3.19,3.19,0,0,0-3.13-2l-2.72.16-.26,0a3.18,3.18,0,0,0-2.68,2.49l-.66,3.16a3.2,3.2,0,0,1-2.27,2.41l-20.19,5.57A8.37,8.37,0,0,0,391,414l4.4,16a7.41,7.41,0,0,0,3.14,4.29l9.34,6a3.78,3.78,0,0,0,2.16.6,3.69,3.69,0,0,0,1.18-.23l28.49-10.36a3.79,3.79,0,0,0,2.23-4.93Zm-13.61-4.57-19.84,7.83a2.27,2.27,0,0,1-3-1.43l-4.38-13.65a2.29,2.29,0,0,1,1.48-2.87l20.56-6.51a2.34,2.34,0,0,1,1.76.16,2.26,2.26,0,0,1,1.11,1.37l3.66,12.34A2.27,2.27,0,0,1,428.29,420.84Z" transform="translate(-146.25 -52.82)"/><path class="cls-124" d="M423.53,393.9c-.84,3.46-1.16,7.79-6.4,7.88s-23.27,4.49-23.06,8.9,3.77,21,6.29,21.93c0,0,9.37,6.47,9.64,8.32a3.78,3.78,0,0,1-2.16-.6l-9.34-6a7.41,7.41,0,0,1-3.14-4.29L391,414a8.37,8.37,0,0,1,5.85-10.28L417,398.13a3.2,3.2,0,0,0,2.27-2.41l.66-3.16a3.18,3.18,0,0,1,2.68-2.49A4.46,4.46,0,0,1,423.53,393.9Z" transform="translate(-146.25 -52.82)"/><rect class="cls-125" x="429.64" y="463.19" width="53.42" height="5.24" rx="2.4" transform="translate(-332.23 525.46) rotate(-55.52)"/><rect class="cls-126" x="439.86" y="474.64" width="6.99" height="19.97" rx="2.4" transform="translate(-353.37 522.91) rotate(-55.52)"/><path class="cls-127" d="M430.7,480.57l-26.77,39a4.84,4.84,0,0,0,1.26,6.7l13,9a4.81,4.81,0,0,0,6.69-1.24l26.77-39a4.79,4.79,0,0,0,.16-5.19,4.65,4.65,0,0,0-1.4-1.5l-13-9A4.83,4.83,0,0,0,430.7,480.57Z" transform="translate(-146.25 -52.82)"/><g class="cls-128"><path class="cls-129" d="M419,526.66a1.74,1.74,0,0,0,.45,2.43h0a1.74,1.74,0,0,0,2.43-.45l22.19-32.3a1.75,1.75,0,0,0-.46-2.43h0a1.73,1.73,0,0,0-2.42.45Z" transform="translate(-146.25 -52.82)"/><path class="cls-130" d="M410,520.44a1.74,1.74,0,0,0,.45,2.43h0a1.74,1.74,0,0,0,2.43-.45L435,490.12a1.74,1.74,0,0,0-.45-2.43h0a1.74,1.74,0,0,0-2.43.45Z" transform="translate(-146.25 -52.82)"/></g><path class="cls-131" d="M468.4,437.76l8-7.73a1,1,0,0,1,1.31-.1l1.59,1.09,1.32.9,1.61,1.11a1,1,0,0,1,.37,1.26l-4.34,10.26a1.65,1.65,0,0,1-.67.76l-2.49,1.46a2.39,2.39,0,0,1-2.59-.13l-1.36-.93-1.32-.91-1.34-.92a2.39,2.39,0,0,1-1.05-2.37l.48-2.87A1.57,1.57,0,0,1,468.4,437.76Z" transform="translate(-146.25 -52.82)"/><path class="cls-132" d="M403.11,522.6a4.83,4.83,0,0,0,2.08,3.64l13,9a4.81,4.81,0,0,0,6.69-1.24l26.77-39a4.81,4.81,0,0,0,.16-5.19c-1.33,3-3.14,7.35-6.16,9s-7.92,5.87-9.56,11.79-7.78,17.14-13.85,18.56S411.51,531.49,403.11,522.6Z" transform="translate(-146.25 -52.82)"/><polygon class="cls-133" points="324.76 464.43 245.57 455.2 245.57 437.39 324.76 446.81 324.76 464.43"/><polygon class="cls-120" points="324.76 449.23 245.57 439.84 245.57 437.39 324.76 446.81 324.76 449.23"/><polygon class="cls-134" points="324.76 489.64 245.57 480.69 245.57 462.88 324.76 472.03 324.76 489.64"/><polygon class="cls-120" points="324.76 474.79 245.57 465.68 245.57 462.88 324.76 472.03 324.76 474.79"/><path class="cls-135" d="M500.2,464.47H484.32a3.37,3.37,0,0,0-3.2,2.58L471,499.29v43.17l18.92-2.35,2.74-.35,18-2.21-.12-40.47Z" transform="translate(-146.25 -52.82)"/><path class="cls-136" d="M513,497l.09,40.28-39.79,4.87v-43L483.7,467a3.76,3.76,0,0,1,3.53-2.57h13.16a3.46,3.46,0,0,1,3.26,2.49Z" transform="translate(-146.25 -52.82)"/><path class="cls-137" d="M497.42,475.4c0,1.81-.94,3.3-2.1,3.33s-2.13-1.43-2.14-3.25.95-3.31,2.13-3.33S497.42,473.59,497.42,475.4Z" transform="translate(-146.25 -52.82)"/><path class="cls-138" d="M513,497.28l.09,40-38.06,4.66c-.07-5.61,1.21-11.62,6.63-15.14,4.17-2.71,9.93-1.62,13.57-4.81,2.93-2.55,3-6.8,3.7-10.12,1.57-7.41,8-8.45,12.87-13.23A14.32,14.32,0,0,1,513,497.28Z" transform="translate(-146.25 -52.82)"/></g></g></svg>