<svg id="Layer_1" data-name="Layer 1" xmlns="http://www.w3.org/2000/svg" xmlns:xlink="http://www.w3.org/1999/xlink" viewBox="0 0 556.53 557.14"><defs><style>.cls-1{fill:url(#linear-gradient);}.cls-2{fill:#c0cfeb;}.cls-3{fill:#98b1dc;}.cls-4{fill:#8193ca;}.cls-5{fill:url(#linear-gradient-2);}.cls-6{fill:url(#linear-gradient-3);}.cls-7{fill:url(#linear-gradient-4);}.cls-8{fill:url(#linear-gradient-5);}.cls-9{fill:url(#linear-gradient-6);}.cls-10{fill:url(#linear-gradient-7);}.cls-11{fill:url(#linear-gradient-8);}.cls-12{fill:url(#linear-gradient-9);}.cls-13{fill:url(#linear-gradient-10);}.cls-14{fill:url(#linear-gradient-11);}.cls-15{fill:url(#linear-gradient-12);}.cls-16{fill:url(#linear-gradient-13);}.cls-17{fill:url(#linear-gradient-14);}.cls-18{fill:url(#linear-gradient-15);}.cls-19{fill:url(#linear-gradient-16);}.cls-20{fill:url(#linear-gradient-17);}.cls-21{fill:url(#linear-gradient-18);}.cls-22{fill:url(#linear-gradient-19);}.cls-23{fill:url(#linear-gradient-20);}.cls-24{fill:url(#linear-gradient-21);}.cls-25{fill:url(#linear-gradient-22);}.cls-26{fill:url(#linear-gradient-23);}.cls-27{fill:url(#linear-gradient-24);}.cls-28{fill:url(#linear-gradient-25);}.cls-29{fill:url(#linear-gradient-26);}.cls-30{fill:url(#linear-gradient-27);}.cls-31{fill:url(#linear-gradient-28);}.cls-32{fill:url(#linear-gradient-29);}.cls-33{fill:url(#linear-gradient-30);}.cls-34{fill:url(#linear-gradient-31);}.cls-35{fill:url(#linear-gradient-32);}.cls-36{fill:#fff;}</style><linearGradient id="linear-gradient" x1="745.75" y1="585.11" x2="329.43" y2="220.83" gradientUnits="userSpaceOnUse"><stop offset="0" stop-color="#dbe2f3"/><stop offset="1" stop-color="#eaeff8"/></linearGradient><linearGradient id="linear-gradient-2" x1="394.32" y1="515.16" x2="514.62" y2="515.16" gradientTransform="translate(908.94 1030.31) rotate(-180)" gradientUnits="userSpaceOnUse"><stop offset="0" stop-color="#5560ab"/><stop offset="1" stop-color="#4c57a6"/></linearGradient><linearGradient id="linear-gradient-3" x1="284.83" y1="879.25" x2="402.05" y2="403.72" gradientTransform="translate(807.97 791.78) rotate(-180)" gradientUnits="userSpaceOnUse"><stop offset="0" stop-color="#f5928f"/><stop offset="1" stop-color="#f37064"/></linearGradient><linearGradient id="linear-gradient-4" x1="493.24" y1="206.27" x2="378.64" y2="343.27" gradientTransform="translate(863.15 559.98) rotate(-180)" xlink:href="#linear-gradient-2"/><linearGradient id="linear-gradient-5" x1="125.23" y1="1953.85" x2="87.37" y2="2069.92" gradientTransform="translate(-803.61 -1308.5) rotate(-39.31)" gradientUnits="userSpaceOnUse"><stop offset="0" stop-color="#f9baba"/><stop offset="1" stop-color="#f5928f"/></linearGradient><linearGradient id="linear-gradient-6" x1="680.6" y1="-110.9" x2="295.09" y2="322.3" gradientTransform="translate(1020.35 161.23) rotate(-180)" xlink:href="#linear-gradient-2"/><linearGradient id="linear-gradient-7" x1="1274.57" y1="488.18" x2="1344.33" y2="488.18" gradientTransform="translate(-680.97)" xlink:href="#linear-gradient-5"/><linearGradient id="linear-gradient-8" x1="1370.46" y1="332.17" x2="1335.91" y2="556.73" gradientTransform="translate(-680.97)" xlink:href="#linear-gradient-2"/><linearGradient id="linear-gradient-9" x1="1297.36" y1="320.92" x2="1262.81" y2="545.48" gradientTransform="translate(-680.97)" xlink:href="#linear-gradient-2"/><linearGradient id="linear-gradient-10" x1="1232.24" y1="493.36" x2="1272.64" y2="493.36" gradientTransform="translate(-680.97)" xlink:href="#linear-gradient-5"/><linearGradient id="linear-gradient-11" x1="1145.21" y1="190.27" x2="1224.3" y2="190.27" gradientTransform="translate(-680.97)" xlink:href="#linear-gradient-5"/><linearGradient id="linear-gradient-12" x1="1231.88" y1="233.26" x2="1380.15" y2="526.92" gradientTransform="translate(-680.97)" xlink:href="#linear-gradient-2"/><linearGradient id="linear-gradient-13" x1="1196.57" y1="310.86" x2="1326.13" y2="456.97" gradientTransform="translate(-680.97)" gradientUnits="userSpaceOnUse"><stop offset="0" stop-color="#201b59"/><stop offset="1" stop-color="#2d2d84"/></linearGradient><linearGradient id="linear-gradient-14" x1="1244.48" y1="229.1" x2="1269.21" y2="229.1" gradientTransform="translate(-680.97)" xlink:href="#linear-gradient-5"/><linearGradient id="linear-gradient-15" x1="1283.77" y1="197.15" x2="1463.71" y2="209.39" gradientTransform="translate(-680.97)" xlink:href="#linear-gradient-5"/><linearGradient id="linear-gradient-16" x1="1313.35" y1="186.31" x2="1250.01" y2="312.98" xlink:href="#linear-gradient-13"/><linearGradient id="linear-gradient-17" x1="169.58" y1="563.67" x2="198.86" y2="563.67" gradientTransform="matrix(1, 0, 0, 1, 0, 0)" xlink:href="#linear-gradient-13"/><linearGradient id="linear-gradient-18" x1="172.55" y1="550.06" x2="184.43" y2="550.06" gradientTransform="matrix(1, 0, 0, 1, 0, 0)" xlink:href="#linear-gradient-5"/><linearGradient id="linear-gradient-19" x1="231.86" y1="563.2" x2="277.81" y2="563.2" gradientTransform="matrix(1, 0, 0, 1, 0, 0)" xlink:href="#linear-gradient-13"/><linearGradient id="linear-gradient-20" x1="232.56" y1="544.79" x2="244.37" y2="544.79" gradientTransform="matrix(1, 0, 0, 1, 0, 0)" xlink:href="#linear-gradient-5"/><linearGradient id="linear-gradient-21" x1="165.17" y1="437.66" x2="245.7" y2="437.66" gradientTransform="matrix(1, 0, 0, 1, 0, 0)" xlink:href="#linear-gradient-13"/><linearGradient id="linear-gradient-22" x1="183.06" y1="382.34" x2="199.71" y2="382.34" gradientTransform="matrix(1, 0, 0, 1, 0, 0)" xlink:href="#linear-gradient-2"/><linearGradient id="linear-gradient-23" x1="331.34" y1="48.3" x2="291.65" y2="165.35" gradientTransform="matrix(1, 0, 0, 1, 0, 0)" xlink:href="#linear-gradient-2"/><linearGradient id="linear-gradient-24" x1="316.5" y1="223.06" x2="413.37" y2="95.92" gradientTransform="matrix(1, 0, 0, 1, 0, 0)" xlink:href="#linear-gradient-5"/><linearGradient id="linear-gradient-25" x1="328.5" y1="130.41" x2="210.1" y2="341.65" gradientTransform="matrix(1, 0, 0, 1, 0, 0)" xlink:href="#linear-gradient-2"/><linearGradient id="linear-gradient-26" x1="1017.4" y1="1065.89" x2="1079.96" y2="926.65" gradientTransform="translate(-885.68 -589.98) rotate(-13.03)" xlink:href="#linear-gradient-5"/><linearGradient id="linear-gradient-27" x1="1046.49" y1="1078.97" x2="1109.05" y2="939.73" gradientTransform="translate(-885.68 -589.98) rotate(-13.03)" xlink:href="#linear-gradient-5"/><linearGradient id="linear-gradient-28" x1="958.62" y1="942.95" x2="866.76" y2="1111.74" gradientTransform="translate(-885.68 -589.98) rotate(-13.03)" xlink:href="#linear-gradient-5"/><linearGradient id="linear-gradient-29" x1="-133.67" y1="4208.57" x2="-174.27" y2="4262.28" gradientTransform="translate(-2811.27 -2752.82) rotate(-48.25)" xlink:href="#linear-gradient-5"/><linearGradient id="linear-gradient-30" x1="-164.68" y1="4221.53" x2="-116.18" y2="4221.53" gradientTransform="translate(-2811.27 -2752.82) rotate(-48.25)" xlink:href="#linear-gradient-13"/><linearGradient id="linear-gradient-31" x1="260.47" y1="122.76" x2="203.28" y2="220.3" gradientTransform="matrix(1, 0, 0, 1, 0, 0)" xlink:href="#linear-gradient-5"/><linearGradient id="linear-gradient-32" x1="211.35" y1="859.6" x2="328.69" y2="383.56" gradientTransform="translate(769.4 312.71) rotate(-180)" xlink:href="#linear-gradient-3"/></defs><path class="cls-1" d="M675.88,395.46c-54,126.09-197.82,196.72-322.55,177.67C333,570,277.39,560.8,228.12,517.22c-94.83-83.87-115.11-250-38.61-367C245.19,65,345,16.74,439.84,19.15c20.43.52,98.72,3.73,167.52,60a256.5,256.5,0,0,1,52.49,59C707,211.36,711.07,313.29,675.88,395.46Z" transform="translate(-142.68 -19.07)"/><path class="cls-2" d="M675.45,46.6c8.09,4.36,15.79,10.69,18,16.92,9.76,28.12-20.55,59-33.3,80.81-21.91,37.52-35.44,80.32-34.09,124,1.46,47.37-1,93.28-15.63,138.83-7.57,23.46-19.41,47.65-38.67,63.9-36.39,30.71-107-3.29-113.44-46.66-5.11-34.6,6.19-69.06,20.81-99.92,24.58-51.91,57.35-99.41,82.26-151.14C580.4,133.82,591.88,50,644.48,41,654.1,39.39,666.87,42,675.45,46.6Z" transform="translate(-142.68 -19.07)"/><path class="cls-3" d="M505.35,546.35h.06a1.71,1.71,0,0,0,1.66-1.77,715.21,715.21,0,0,1,21-195.43,785.1,785.1,0,0,1,55.28-152.32C624,112.93,666.14,63.24,666.57,62.74a1.71,1.71,0,1,0-2.6-2.22c-.43.49-42.91,50.53-83.67,134.82a789,789,0,0,0-55.52,153,718.56,718.56,0,0,0-21.13,196.37A1.7,1.7,0,0,0,505.35,546.35Z" transform="translate(-142.68 -19.07)"/><path class="cls-3" d="M396.49,340.07c-15.09-40-52.22-74.72-80.77-109.9-15.09-18.61-28.2-38.12-36.55-60.72s-11.13-50.21-31.6-65.74c-41.26-31.28-73.47,11.59-80.48,56.52-8.14,52.14,17.27,115.6,32,167.17C208,358.49,214,392.13,226.26,422c20.32,49.5,48.85,75.76,83.19,85A76.87,76.87,0,0,0,395,473C411.17,446.75,420.84,404.54,396.49,340.07Z" transform="translate(-142.68 -19.07)"/><path class="cls-4" d="M393.89,567.52a3,3,0,0,1-2.49-1.12c-.41-.51-41.32-51.52-85.15-129-40.47-71.52-91.8-180.91-106.53-295.88a3,3,0,1,1,6-.77c28,218.2,188.77,419.81,190.39,421.82a3,3,0,0,1-.45,4.26A3.08,3.08,0,0,1,393.89,567.52Z" transform="translate(-142.68 -19.07)"/><rect class="cls-5" x="394.32" y="455" width="120.3" height="120.3" rx="11.29" transform="translate(766.26 1011.24) rotate(180)"/><rect class="cls-6" x="343.83" y="335.74" width="120.3" height="120.3" rx="10.36" transform="translate(665.29 772.71) rotate(180)"/><rect class="cls-7" x="371.42" y="219.84" width="120.3" height="120.3" rx="12.7" transform="translate(720.47 540.91) rotate(180)"/><path class="cls-8" d="M517.54,167.46s1.72,74.81,80.38,87.93L612,241.45s-68.11-23.16-85.84-71.56L530,144.23l-2.67-17Z" transform="translate(-142.68 -19.07)"/><rect class="cls-9" x="450.02" y="20.46" width="120.3" height="120.3" rx="9.27" transform="translate(877.67 142.16) rotate(180)"/><path class="cls-10" d="M593.6,423.77s37.32,81.34,56.89,115c0,0,3.89,21.2,0,27.87l-3.31,1.47,15.47-.46s1.37-28.52.3-30.11a4,4,0,0,0-3.22-1.49s-6.63-52.54-25.84-63.76l-18.61-64.11Z" transform="translate(-142.68 -19.07)"/><path class="cls-11" d="M640.57,572.13c0,.37,12.08.2,18.66.08a5.23,5.23,0,0,0,5-4.12l5-26.08a4.69,4.69,0,0,0-3.56-5.45l-2.77-.63s-4,5.42-2.71,10.53,2.35,18.33-.79,19.87-12.19,1.81-12.19,1.81S640.78,568.77,640.57,572.13Z" transform="translate(-142.68 -19.07)"/><path class="cls-12" d="M558.22,572.6a1.37,1.37,0,0,0,.69,2.56c11-.11,35.65-.46,37.84-1.37,2.83-1.18-1-11.34-5.09-14.78l-22.42,7.32Z" transform="translate(-142.68 -19.07)"/><path class="cls-13" d="M551.26,418.59S575.38,535.25,582.2,558l-16.14,10.13s8.09-1.38,14.09-1.81S591.66,559,591.66,559l-1.93-3.08s-6.05-116-4.58-129.21Z" transform="translate(-142.68 -19.07)"/><path class="cls-14" d="M491.4,146.46s-3.33,60.69,51.93,91.7L530,268.5s-50-30.25-48.17-112.78a9.57,9.57,0,0,0-2.35-6.46l-10.63-12.34a19.09,19.09,0,0,1-4.06-17.09l1.4-5.59a2.9,2.9,0,0,1,4.27-1.81l1.11.65a19.53,19.53,0,0,1,8,8.91l5.22,11.67a11.21,11.21,0,0,0,11.2,6.59l3.23-.28Z" transform="translate(-142.68 -19.07)"/><path class="cls-15" d="M541.4,233.62c9.25,2.56,40.56,10.8,60.11,10.46l-12,67.74,1,11.05-39.14-.18s-11-25.59-19.71-38.34c-2.51-3.69-.64-8.08.78-12.31l-1.95-1.3a5.3,5.3,0,0,1-2.11-6.08l9.53-29.16A2.89,2.89,0,0,1,541.4,233.62Z" transform="translate(-142.68 -19.07)"/><path class="cls-16" d="M548.19,316.91l.77,6.69s-11.06,33.13,5.53,110.49c0,0,35.93,10.17,65.46-14.18,0,0-8.33-73-10.6-76.42-11.33-16.94-18.88-20.62-18.88-20.62l-.34-7.32S558.54,321.26,548.19,316.91Z" transform="translate(-142.68 -19.07)"/><path class="cls-17" d="M563.51,239.08c-.13-.19,8.17-25.09,8.17-25.09l11.9,1.08,4.65,28.25S569.58,247.09,563.51,239.08Z" transform="translate(-142.68 -19.07)"/><path class="cls-18" d="M580.74,174.72c-.8.5-25.43,10.68-20.14,36.25a4.79,4.79,0,0,0,2.73,3.43A41.74,41.74,0,0,0,584,217.82c12.9-1.31,21.36-23.83,21-30.38S588.6,169.83,580.74,174.72Z" transform="translate(-142.68 -19.07)"/><path class="cls-19" d="M588.23,164.78c-.64.08-14.23,4.82-7.49,14.66s9.26,15.65,6.07,20c-2.9,3.94-9.33,1.7-8.77,9.89a4.61,4.61,0,0,1-2,4.16c-6.06,4.1-20.85,16.73-6.2,34.74a4.6,4.6,0,0,1,.52,5.14c-4.29,7.69-13.31,30.24,19.33,42.75,32.25,12.36,43.89-8.72,47.15-17.14a4.48,4.48,0,0,1,4.45-2.85c3.54.17,8.56-.42,8.33-5.16-.14-2.88-1.93-5.45-4.06-7.52a4.49,4.49,0,0,1,.87-7.07,8.86,8.86,0,0,0,4.35-5.47c1.95-7.24-2-28.9-22.71-32.57a4.88,4.88,0,0,1-3.79-3.67s0,0,0-.07a4.51,4.51,0,0,1,1.67-4.42c3.31-2.43,7.56-7.32,4.11-15.17a17,17,0,0,0-13.29-10.06,4.52,4.52,0,0,1-3.71-5.4C614.55,172.59,613.27,161.5,588.23,164.78Z" transform="translate(-142.68 -19.07)"/><path class="cls-20" d="M173.65,553.35s-3.25,5.13-4.07,19.49a2.34,2.34,0,0,0,2.33,2.48h25.45a1.49,1.49,0,0,0,1.42-2c-1.49-4.42-6-15.18-16.06-21.33Z" transform="translate(-142.68 -19.07)"/><path class="cls-21" d="M172.55,543.62,174,555.69a2.26,2.26,0,0,0,2,2,19.87,19.87,0,0,0,5.38,0,3.72,3.72,0,0,0,3.08-3.7V542.28Z" transform="translate(-142.68 -19.07)"/><path class="cls-22" d="M236.63,552a35.58,35.58,0,0,0-4.77,18,4.49,4.49,0,0,0,4.52,4.39h39.53a1.89,1.89,0,0,0,1.09-3.44c-7.48-5.25-22.18-15.06-32.82-18.92Z" transform="translate(-142.68 -19.07)"/><path class="cls-23" d="M232.56,539l3.07,14.91a3.07,3.07,0,0,0,3.63,2.42,11.45,11.45,0,0,0,3.48-1.45,3.53,3.53,0,0,0,1.57-3.61l-3.17-18.06Z" transform="translate(-142.68 -19.07)"/><path class="cls-24" d="M181.4,327s-13.89,14.12-15.9,25.45,5.7,195.39,5.7,195.39,10.67,1.77,16.17-1.56c0,0,6.53-119.46,11.49-147.06,0,0,26,123.74,33.23,146.1,0,0,10.29,1.25,13.61-.71,0,0-6.2-163.38-14.76-191.9Z" transform="translate(-142.68 -19.07)"/><path class="cls-25" d="M198.55,395.34a1.17,1.17,0,0,1-1.12-.87l-4.42-17-9.41-6a1.16,1.16,0,1,1,1.25-2l9.79,6.29a1.11,1.11,0,0,1,.5.68l4.53,17.4a1.15,1.15,0,0,1-.82,1.41A1.54,1.54,0,0,1,198.55,395.34Z" transform="translate(-142.68 -19.07)"/><path class="cls-26" d="M280.76,214c-44.5-7.29-56.95,1-56.95,1l18.82,35.7s44.09,2.64,77.58-19.16a77.43,77.43,0,0,1-11.14-19.86A59.52,59.52,0,0,1,280.76,214Z" transform="translate(-142.68 -19.07)"/><path class="cls-27" d="M356.16,153.78a1.37,1.37,0,0,0-2.57-.73l-6.69,11.74a12.77,12.77,0,0,0-1.62,7.48l1.44,7.26a12.29,12.29,0,0,1-3.27,9.56c-5.78,6.15-17.92,17.25-34.38,22.6a77.43,77.43,0,0,0,11.14,19.86,77.49,77.49,0,0,0,29.86-35.2,6,6,0,0,0,4.71-5.62Z" transform="translate(-142.68 -19.07)"/><path class="cls-28" d="M279.49,219.09c-19.26-13-50.35-13.75-68.07-12.9a16,16,0,0,0-15.14,13.92c-2.89,22.34-11.31,80.65-13.22,90.78-1,5.42-7.48,18.15-4,22.94,1.26,1.74,3.29,2.72,5.25,3.58,5.67,2.52,11.49,4.7,17.3,6.88l13,4.89c5.78,2.17,15.67,6.28,20.91,1.39s5.29-13.35,7.22-19.76c1.75-5.78,3.73-11.51,5.59-17.26q7.15-22.08,14.3-44.17c.2-.62,3.53-9.42,3.14-9.69,30.94,21.61,53.09,19.11,68.28,9.3a128.06,128.06,0,0,1-11.48-24.61C297.17,245.85,279.49,219.09,279.49,219.09Z" transform="translate(-142.68 -19.07)"/><path class="cls-29" d="M362,230.44l-5.78-4.87c-12,13.13-23.44,18.22-33.62,18.81A128.06,128.06,0,0,0,334.09,269C354.09,256.07,362,230.44,362,230.44Z" transform="translate(-142.68 -19.07)"/><path class="cls-30" d="M358.92,231.26,384,226.47l20-18.1c-3.76-1.3-21.39,7.22-21.39,7.22s-20.12,1.56-25.38,2.77c-4.38,1-2.3,7.15-1.47,9.2.17.42.29.67.29.67Z" transform="translate(-142.68 -19.07)"/><path class="cls-31" d="M227.75,170.27,222,205.35s17.5,7,29.41,3.15l-.11-30.33Z" transform="translate(-142.68 -19.07)"/><path class="cls-32" d="M244.87,143.3c.4.35,17.29,31.45,17.29,31.45l-18,9.27-20.39-27.1S238.19,137.33,244.87,143.3Z" transform="translate(-142.68 -19.07)"/><path class="cls-33" d="M232.06,159.85l9.61,15.1a2.47,2.47,0,0,0,.44.52c1,.94,4.89,3.9,7.68-.21,2.53-3.74,4.9-7.1,7.54-8.23a2.5,2.5,0,0,1,3.18,1.11,109,109,0,0,1,6.92,15.29,2.51,2.51,0,0,1-1.37,3.08c-3.57,1.57-11.18,4.67-17.88,5.73a2.5,2.5,0,0,1-2.38-.94c-2.74-3.55-11.1-14.32-13.9-17-2.62-2.48-7.37-1.29-9.33-.65a2.45,2.45,0,0,1-1.93-.17c-2.1-1.13-6.34-4.27-2.74-10A2.5,2.5,0,0,0,217,160c-2.45-1.43-5.37-4.29-3-9.22s7.07-5.38,10.06-5A2.51,2.51,0,0,0,226.8,144a2,2,0,0,1,1.77-1.39,2.46,2.46,0,0,0,2-3.05c-.68-2.7-.5-6.35,3.86-8.9,7.74-4.52,14.8,2.33,16.71,8.22s-6.76,10.32-12.27,11.17c-4.18.64-6.29,5.42-7.06,7.68A2.46,2.46,0,0,0,232.06,159.85Z" transform="translate(-142.68 -19.07)"/><path class="cls-34" d="M235.46,179.81s-3.76-10.12-8.22-9.63-7.86,5-2.19,9.89C232.11,186.12,235.46,179.81,235.46,179.81Z" transform="translate(-142.68 -19.07)"/><rect class="cls-35" x="324.55" y="96.2" width="120.3" height="120.3" rx="9.27" transform="translate(626.72 293.65) rotate(180)"/><path class="cls-36" d="M494.15,37.72a10,10,0,0,1,9-9.95c2.46-.25,5.12-.41,7.68-.41,7.72,0,11.73.93,15.59,3.74,4.15,2.94,7.51,9.49,7.51,19.11,0,7.61-2.34,14.83-8.31,18.7v.27c6.12,2.94,10,11,10,22.18,0,8.82-2.55,15.77-6.12,20.31-3.93,4.81-10.35,7.62-21.28,7.62-1.71,0-3.29-.05-4.74-.14a10,10,0,0,1-9.32-10Zm13.63,24.51h2.91c6.41,0,9.33-3.2,9.33-8.82,0-5.07-2.41-8-7.29-8a17.43,17.43,0,0,0-5,.53Zm0,38.49a20.47,20.47,0,0,0,4.44.26C517,101,521,97.91,521,90c0-7.62-4.15-10.16-9.69-10.16h-3.57Z" transform="translate(-142.68 -19.07)"/><path class="cls-36" d="M358.94,117.46a6.82,6.82,0,0,1,5.83-6.74,79.32,79.32,0,0,1,11.51-.81c8.23,0,13.7,2.14,17.48,7.09,3.14,4.14,5.11,10.69,5.11,19.77,0,12-5.32,19.65-8.75,21.65V159c3.28,2.54,5.1,8.42,6.49,15.91,1,5.57,2,12.6,2.87,18.06a6.81,6.81,0,0,1-6.73,7.86h-.44a6.81,6.81,0,0,1-6.68-5.46c-.69-3.49-1.54-8.41-2.5-15.12-1.53-10.82-3.5-13-8.09-13h-2.48V194a6.81,6.81,0,0,1-6.81,6.81h0a6.81,6.81,0,0,1-6.81-6.81Zm13.62,32h4.08c5.39,0,8.6-4,8.6-10.83s-2.77-10.29-7.43-10.29a16.49,16.49,0,0,0-5.25.54Z" transform="translate(-142.68 -19.07)"/><path class="cls-36" d="M423.36,305.48,421.22,320a4.36,4.36,0,0,1-4.32,3.72h-5.54a4.37,4.37,0,0,1-4.31-5.11l14.12-81.33a4.37,4.37,0,0,1,4.3-3.62H437a4.36,4.36,0,0,1,4.29,3.58l14.84,81.34a4.36,4.36,0,0,1-4.3,5.14h-6.35a4.37,4.37,0,0,1-4.31-3.67l-2.34-14.57a4.36,4.36,0,0,0-4.31-3.67h-6.8A4.37,4.37,0,0,0,423.36,305.48Zm7.58-22.16a4.38,4.38,0,0,0,4.31-5.08l-1.79-10.82c-.69-4-1.46-8.89-2.19-13.33a.55.55,0,0,0-1.08,0c-.56,3.89-1.45,10.06-2,13.45l-1.59,10.76a4.37,4.37,0,0,0,4.32,5Z" transform="translate(-142.68 -19.07)"/><path class="cls-36" d="M380.91,437.34,381,356a4.36,4.36,0,0,1,4.36-4.36h9.7a4.37,4.37,0,0,1,4.17,3.07l7.13,23c2.61,8.33,5.16,18.22,7.37,28.08a.57.57,0,0,0,1.13-.14c-.21-8-.56-22.07-.56-30.48V356a4.37,4.37,0,0,1,4.37-4.36h4a4.37,4.37,0,0,1,4.36,4.37l-.1,81.33a4.37,4.37,0,0,1-4.37,4.36h-7.46a4.35,4.35,0,0,1-4.18-3.13l-7.86-26.66c-2.72-9.05-5.71-19.41-8.31-30a.57.57,0,0,0-1.13.13c0,8.39.12,25.39.12,35.37l-.1,20a4.36,4.36,0,0,1-4.36,4.34h-4A4.35,4.35,0,0,1,380.91,437.34Z" transform="translate(-142.68 -19.07)"/><path class="cls-36" d="M431.93,475.18a4.37,4.37,0,0,1,3.57-4.29,74.91,74.91,0,0,1,13.7-1.17c10.35,0,16.69,2.8,22.08,9.08,5.76,6.68,9.76,17.64,9.76,34.08,0,18.7-4.22,30.06-9,36.74-6.05,8.42-15.16,12-25.5,12a66.36,66.36,0,0,1-10.92-.78,4.37,4.37,0,0,1-3.66-4.31ZM445.7,542a12.55,12.55,0,0,0,3.21.26c10,.27,17.41-8.41,17.41-28.06,0-17.9-6.92-25.39-15.81-25.39a14.15,14.15,0,0,0-4.81.67Z" transform="translate(-142.68 -19.07)"/></svg>