<svg id="Layer_1" data-name="Layer 1" xmlns="http://www.w3.org/2000/svg" viewBox="0 0 686.38 477.24"><defs><style>.cls-1{opacity:0.5;}.cls-2{fill:#fbaa32;}.cls-3{fill:#fedcbf;}.cls-4{fill:#72b472;}.cls-5{fill:#9ad098;}.cls-6{fill:#fcc89f;}.cls-7{fill:#ec8123;}.cls-8{fill:#f78f1e;}.cls-9{fill:#091b3d;}.cls-10{fill:#d71e43;}.cls-11{fill:#fff;}.cls-12{fill:#5e0d0e;}.cls-13{fill:#c01f3b;}.cls-14{fill:#eeecec;}.cls-15{fill:#5eaacd;}.cls-16{fill:#f58b7a;}.cls-17{fill:#f3753a;}.cls-18{fill:#4493c5;}.cls-19{fill:#f58a64;}.cls-20{fill:#f16c49;}.cls-21{fill:#10294b;}.cls-22{fill:#1a3763;}</style></defs><g class="cls-1"><g class="cls-1"><path class="cls-2" d="M321.63,187.34s-5.76-48.3-30.51-77.13a5.4,5.4,0,0,0-9.48,3.66v.26C282,122.74,309.68,159.09,321.63,187.34Z" transform="translate(-97.07 -57.99)"/></g><g class="cls-1"><path class="cls-2" d="M324.64,201.17S300,140.8,257.85,114.1a5.72,5.72,0,0,0-7.77,1.47c-1.12,1.63-1.63,4.18-.37,8.16C253.07,134.35,300.05,170.09,324.64,201.17Z" transform="translate(-97.07 -57.99)"/></g></g><path class="cls-3" d="M631.86,185.82s-22.09-13.6-10.83-30.34c0,0,8.88-10.2,18-12.54,0,0-5.89,25.42-1.09,26.22s4.52-28.8,4.52-28.8,24.28-10.47,33.59-9.18c0,0-15.81,24.41-11,24s22.48-25,22.48-25,24.6-3.51,27.92,11.12-3.31,21.6-7,22.36-26.86-.51-26.38,2.53,16,8.51,24.81,6.16c0,0-10.63,23.42-23.24,21.69s-16.21-9.73-24-10.66-13.63,1-9.8,3.22,17.16,1.4,23.27,7,11.09,9.18-.77,11.1-32.89-.45-36.74-9.67Z" transform="translate(-97.07 -57.99)"/><path class="cls-3" d="M704.19,145.33S640,163.21,631.86,185.82c0,0-.13,10.26-6.94,21.76l-.19,4.52S632,197,635.7,195C635.7,195,622.36,174.56,704.19,145.33Z" transform="translate(-97.07 -57.99)"/><path class="cls-4" d="M624.92,207.58s-10.38,14.42-5.56,32.69l2.54-.57s-1.62-20,3.91-29.76S624.92,207.58,624.92,207.58Z" transform="translate(-97.07 -57.99)"/><path class="cls-3" d="M542.5,185.28s-37.09,3.28-38.48-25.66c0,0,1.47-19.36,10-29.9,0,0,15,34.32,21.24,31.13s-19.5-37-19.5-37,19-32.88,30.81-39.37c0,0,2.73,41.66,8,37S559,73.38,559,73.38s25.32-25.14,41.68-11.14S615.36,90,611.8,94s-31.36,22.44-28.2,25.53,25.67-3.88,33.84-14.18c0,0,7.84,36.08-8.16,44.9s-27,2.69-36.8,8.33S557.6,171.3,564,170.63s21-13.09,32.83-11.83,20.64,1,8.64,13.43-38.27,27.68-50.6,20.36Z" transform="translate(-97.07 -57.99)"/><path class="cls-3" d="M591.07,76.64s-58.54,75.59-48.57,108.64c0,0,8.65,11.92,10.66,31l3.66,5.36s-4.58-23.61-2-29C554.83,192.59,521.9,180.45,591.07,76.64Z" transform="translate(-97.07 -57.99)"/><path class="cls-5" d="M553.16,216.28s.42,25.5,21.64,42.41l2.43-2.83s-19-21.62-21-37.62S553.16,216.28,553.16,216.28Z" transform="translate(-97.07 -57.99)"/><path class="cls-6" d="M194,470.38s-10.39-12.12-.64-19.81c0,0,7.12-4.31,12.92-4,0,0-8.22,13.79-5.56,15.16s8.06-16,8.06-16,16.2-1.57,21.41.93c0,0-13.85,11.34-10.93,12s17.87-10.45,17.87-10.45,15.08,2.57,14.28,11.77-6,12-8.28,11.79-15.65-5.34-15.94-3.47,7.75,8,13.38,8.27c0,0-10.63,11.73-17.69,8.35s-7.67-8.75-12.08-10.76-8.16-2-6.34,0,9.79,4,12.31,8.5,4.77,7.46-2.54,6.36-19.19-6.45-19.71-12.57Z" transform="translate(-97.07 -57.99)"/><path class="cls-6" d="M244,460.25s-41-1.58-50,10.13a29.63,29.63,0,0,1-8.16,11.45l-1,2.61s7.1-7.48,9.64-7.93C194.52,476.51,190.55,462,244,460.25Z" transform="translate(-97.07 -57.99)"/><path class="cls-6" d="M185.84,481.83a25.71,25.71,0,0,0-9.4,18.12l1.6.14s2.8-12,7.88-16.71S185.84,481.83,185.84,481.83Z" transform="translate(-97.07 -57.99)"/><path class="cls-3" d="M157.68,455.14s16.52-9.25,8.81-21.81c0,0-6.17-7.71-12.78-9.69,0,0,3.53,18.72,0,19.16s-2.42-21.15-2.42-21.15-17.41-8.37-24.24-7.71c0,0,10.8,18.29,7.27,17.85s-15.64-19-15.64-19-17.85-3.31-20.71,7.27,1.76,15.86,4.41,16.52,19.61.44,19.16,2.65S109.65,445,103.26,443c0,0,7,17.41,16.3,16.53s12.12-6.61,17.85-7.05,9.91,1.1,7.05,2.64-12.56.51-17.19,4.44-8.37,6.36.22,8.12,24,.66,27.1-5.95Z" transform="translate(-97.07 -57.99)"/><path class="cls-3" d="M106.12,423.41s46.27,15,51.56,31.73a35.23,35.23,0,0,0,4.4,16.09v3.3s-4.84-11.24-7.49-12.78C154.59,461.75,165,447.21,106.12,423.41Z" transform="translate(-97.07 -57.99)"/><path class="cls-3" d="M162.08,471.23s7.14,10.83,3.07,24l-1.83-.49s1.78-14.53-1.95-21.84S162.08,471.23,162.08,471.23Z" transform="translate(-97.07 -57.99)"/><path class="cls-3" d="M184,442.38s-21.78-12.2-11.62-28.75c0,0,8.13-10.17,16.85-12.78,0,0-4.65,24.68,0,25.27s3.19-27.89,3.19-27.89,22.94-11,32-10.16c0,0-14.23,24.1-9.59,23.52s20.62-25,20.62-25,23.53-4.36,27.3,9.58-2.32,20.91-5.8,21.78-25.85.58-25.27,3.49,15.68,7.55,24.1,4.94c0,0-9.29,22.94-21.49,21.78s-16-8.71-23.52-9.3-13.07,1.46-9.3,3.49,16.56.67,22.66,5.85,11,8.38-.29,10.7-31.66.88-35.73-7.84Z" transform="translate(-97.07 -57.99)"/><path class="cls-3" d="M251.93,400.56s-61,19.75-68,41.82a46.34,46.34,0,0,1-5.81,21.2v4.36s6.39-14.81,9.87-16.85C188,451.09,174.38,431.92,251.93,400.56Z" transform="translate(-97.07 -57.99)"/><path class="cls-3" d="M178.16,463.58s-9.41,14.28-4,31.67l2.41-.65s-2.34-19.15,2.58-28.78S178.16,463.58,178.16,463.58Z" transform="translate(-97.07 -57.99)"/><path class="cls-3" d="M183.23,533a42.66,42.66,0,0,0,42.67-42.66H140.57A42.66,42.66,0,0,0,183.23,533Z" transform="translate(-97.07 -57.99)"/><path class="cls-3" d="M226.49,535.12H140a5.26,5.26,0,0,1,5.26-5.26h76a5.27,5.27,0,0,1,5.26,5.26Z" transform="translate(-97.07 -57.99)"/><rect class="cls-6" x="42.1" y="432.29" width="87.71" height="1.31"/><path class="cls-7" d="M474.28,293.92,455.19,521s-2,13.76,8.23,13.78c16.83,0,83.77,0,83.77,0s-12.66-2.86-12.51-9.31c.18-7.59,22.32-233.65,22.32-233.65Z" transform="translate(-97.07 -57.99)"/><path class="cls-2" d="M553.5,530.61c-3.31,0-68.12.12-84.51-.09-7.15-.09-8.4-6.35-8.46-10.41a20.07,20.07,0,0,1,.22-3.38l.49-5.9,1.27-15,1.12-13.28,1.43-17.08L466.27,451,479.84,289.7l82.72-2.14s-9.32,94.6-15.92,163.46c-.73,7.67-1.43,15-2.08,21.9q-.31,3.29-.61,6.42c-.61,6.52-1.17,12.5-1.66,17.78-.25,2.79-.49,5.37-.7,7.74-.84,9.29-1.34,15.22-1.34,16.35a8.85,8.85,0,0,0,.16,1.83C541.76,530.28,552.25,530.61,553.5,530.61Z" transform="translate(-97.07 -57.99)"/><polygon class="cls-2" points="176.33 112.29 222.84 299.11 229.2 324.69 250.87 411.7 653.3 411.7 573.46 112.29 176.33 112.29"/><polygon class="cls-7" points="176.33 112.29 169.88 114.44 242.3 418.2 250.87 411.7 176.33 112.29"/><polygon class="cls-8" points="242.3 418.2 642.25 418.2 653.29 411.7 250.87 411.7 242.3 418.2"/><rect class="cls-2" x="479.81" y="530.61" width="86.6" height="4.12" transform="translate(949.16 1007.33) rotate(180)"/><polygon class="cls-2" points="447.33 418.2 446.88 421.35 365.44 437.8 366.56 424.51 367.1 418.2 447.33 418.2"/><g class="cls-1"><path class="cls-8" d="M553.5,530.61c-3.31,0-68.12.12-84.51-.09-7.15-.09-8.4-6.35-8.46-10.41l81.06-15.25c-.84,9.29-1.34,15.22-1.34,16.35a8.85,8.85,0,0,0,.16,1.83C541.76,530.28,552.25,530.61,553.5,530.61Z" transform="translate(-97.07 -57.99)"/></g><polygon class="cls-8" points="176.33 112.29 573.46 112.29 637.89 352.92 236.23 352.92 176.33 112.29"/><polygon class="cls-9" points="619.16 342.5 247.33 342.5 234.04 289.56 228.9 269.08 226.8 260.73 213.15 206.33 212.44 203.5 205.22 174.75 201.99 161.88 199.24 150.91 196.99 141.96 192.78 125.18 559.25 125.18 563.88 141.96 566.34 150.91 569.37 161.88 572.91 174.75 596.28 259.51 596.28 259.51 598.26 266.69 599.18 270.02 615.31 328.54 619.16 342.5"/><polygon class="cls-3" points="471.79 332.91 280.47 332.91 269.96 281.38 265.89 265.18 264.24 258.58 253.43 215.54 252.88 213.3 247.16 190.56 244.61 180.38 242.43 171.7 240.65 164.62 237.32 151.35 424.52 151.35 471.79 332.91"/><polygon class="cls-8" points="387.11 352.92 251 412.4 236.23 352.92 387.11 352.92"/><path class="cls-10" d="M777.29,335.91l6,26.68c1,4.25-2.26,7.69-7.19,7.69H632.34c-4.92,0-9.68-3.44-10.64-7.69l-6-26.68a4.63,4.63,0,0,1-.09-.49c-.62-4,2.54-7.21,7.27-7.21H766.65c4.74,0,9.32,3.19,10.51,7.21A2.72,2.72,0,0,1,777.29,335.91Z" transform="translate(-97.07 -57.99)"/><polygon class="cls-11" points="535.6 300.26 534.19 300.26 530.46 283.66 531.87 283.66 535.6 300.26"/><polygon class="cls-11" points="545.31 290.51 535.21 290.51 534.16 285.81 544.26 285.81 545.31 290.51"/><polygon class="cls-11" points="550.02 297.25 536.72 297.25 535.67 292.55 548.97 292.55 550.02 297.25"/><polygon class="cls-11" points="567.91 300.26 566.5 300.26 562.78 283.66 564.18 283.66 567.91 300.26"/><polygon class="cls-11" points="570.07 290.51 559.97 290.51 558.91 285.81 569.01 285.81 570.07 290.51"/><polygon class="cls-11" points="573.18 297.25 559.88 297.25 558.83 292.55 572.12 292.55 573.18 297.25"/><polygon class="cls-11" points="600.23 300.26 598.82 300.26 595.09 283.66 596.5 283.66 600.23 300.26"/><polygon class="cls-11" points="594.82 290.51 584.72 290.51 583.67 285.81 593.77 285.81 594.82 290.51"/><polygon class="cls-11" points="596.33 297.25 583.03 297.25 581.98 292.55 595.28 292.55 596.33 297.25"/><polygon class="cls-11" points="620.9 285 604.3 285 603.99 283.59 620.59 283.59 620.9 285"/><polygon class="cls-11" points="611.45 286.32 613.72 296.43 609.02 296.43 606.75 286.32 611.45 286.32"/><polygon class="cls-11" points="618.19 286.32 621.17 299.62 616.47 299.62 613.49 286.32 618.19 286.32"/><polygon class="cls-11" points="647.03 292.66 630.43 292.66 630.12 291.25 646.72 291.25 647.03 292.66"/><polygon class="cls-11" points="635.99 286.91 638.26 297.01 633.56 297.01 631.29 286.91 635.99 286.91"/><polygon class="cls-11" points="642.37 285.31 645.35 298.61 640.65 298.61 637.67 285.31 642.37 285.31"/><polygon class="cls-11" points="673.18 300.39 656.58 300.39 656.26 298.98 672.86 298.98 673.18 300.39"/><polygon class="cls-11" points="660.64 287.43 662.91 297.54 658.21 297.54 655.94 287.43 660.64 287.43"/><polygon class="cls-11" points="666.66 284.24 669.64 297.54 664.94 297.54 661.96 284.24 666.66 284.24"/><polygon class="cls-12" points="563.88 141.96 196.99 141.96 192.78 125.18 559.25 125.18 563.88 141.96"/><path class="cls-11" d="M312.64,191.71a2,2,0,0,1-2.12,2.75,4.23,4.23,0,0,1-3.86-2.7,2,2,0,0,1,2.13-2.75A4.21,4.21,0,0,1,312.64,191.71Z" transform="translate(-97.07 -57.99)"/><path class="cls-11" d="M325,191.63a2,2,0,0,1-2.13,2.74,4.21,4.21,0,0,1-3.85-2.7,2,2,0,0,1,2.12-2.74A4.23,4.23,0,0,1,325,191.63Z" transform="translate(-97.07 -57.99)"/><path class="cls-11" d="M337.39,191.54a2,2,0,0,1-2.13,2.75,4.21,4.21,0,0,1-3.85-2.71,2,2,0,0,1,2.12-2.74A4.23,4.23,0,0,1,337.39,191.54Z" transform="translate(-97.07 -57.99)"/><path class="cls-10" d="M341.67,238.37s43.19.17,74.51,24.18S443,308.1,469,313.49c42.58,8.85,16.15-36.59,71.45-31.87L568.86,390.9H377.54L363,323.18Z" transform="translate(-97.07 -57.99)"/><path class="cls-11" d="M478.82,315a49.5,49.5,0,0,1-9.94-1.16c-14.34-3-19.63-11-26.32-21.21-5.55-8.44-12.45-18.95-26.62-29.81-8.9-6.82-24.59-16-48.84-21a142.71,142.71,0,0,0-25.43-3.07V238a144.6,144.6,0,0,1,25.58,3.09c13.46,2.79,32.92,8.72,49.15,21.16,14.28,10.95,21.23,21.52,26.81,30,6.85,10.42,11.8,18,25.82,20.87,20,4.15,24.49-3.7,29.72-12.79,5.82-10.12,12.43-21.59,41.68-19.09l-.07.79c-28.75-2.46-35.22,8.78-40.93,18.7-2.65,4.59-5.15,8.94-9.58,11.62A20.77,20.77,0,0,1,478.82,315Z" transform="translate(-97.07 -57.99)"/><path class="cls-13" d="M351.76,278.3l11,43.75,14.8,68.85H568.86l-9.65-35.75s-28.32-15.78-66.73-2-80.92,1.07-83.66-29.88C405.74,288.35,373.68,271.54,351.76,278.3Z" transform="translate(-97.07 -57.99)"/><path class="cls-11" d="M400.1,299c-11-17-31.28-25.55-48.23-20.32l-.23-.75c17.28-5.33,37.93,3.35,49.12,20.64Z" transform="translate(-97.07 -57.99)"/><rect class="cls-11" x="465.44" y="310.39" width="6.25" height="6.25" transform="translate(-62.37 -104.48) rotate(5.9)"/><rect class="cls-11" x="471.76" y="260.72" width="1.04" height="106.97" transform="translate(-28.47 654.73) rotate(-78.27)"/><path class="cls-11" d="M418.12,303.15a1.79,1.79,0,1,1,1.6,2A1.8,1.8,0,0,1,418.12,303.15Z" transform="translate(-97.07 -57.99)"/><path class="cls-11" d="M522.86,324.9a1.79,1.79,0,1,1,1.6,2A1.79,1.79,0,0,1,522.86,324.9Z" transform="translate(-97.07 -57.99)"/><rect class="cls-11" x="391.85" y="246.49" width="6.25" height="6.25" transform="translate(181.77 -260.96) rotate(43.32)"/><rect class="cls-11" x="393.79" y="223.72" width="1.04" height="50.13" transform="translate(-157.3 294.57) rotate(-45.11)"/><path class="cls-11" d="M375.15,230a1.8,1.8,0,1,1,.26,2.52A1.78,1.78,0,0,1,375.15,230Z" transform="translate(-97.07 -57.99)"/><path class="cls-11" d="M410.67,265.35a1.8,1.8,0,0,1,2.79,2.26,1.8,1.8,0,1,1-2.79-2.26Z" transform="translate(-97.07 -57.99)"/><rect class="cls-11" x="511.63" y="281.35" width="6.25" height="6.25" transform="translate(-45.33 589.13) rotate(-67)"/><rect class="cls-11" x="498.88" y="283.89" width="31.98" height="1.04" transform="matrix(0.42, -0.91, 0.91, 0.42, -55.06, 576.24)"/><path class="cls-11" d="M507.64,300.64a1.78,1.78,0,0,1-1.12-2.27,1.79,1.79,0,1,1,1.12,2.27Z" transform="translate(-97.07 -57.99)"/><path class="cls-11" d="M520.94,271.57a1.8,1.8,0,1,1,2.28-1.13A1.8,1.8,0,0,1,520.94,271.57Z" transform="translate(-97.07 -57.99)"/><path class="cls-14" d="M546.91,219.43l9.72,40.18c.42,1.72-1.2,3.12-3.62,3.12H453c-2.42,0-4.72-1.4-5.13-3.12l-9.73-40.18c-.41-1.72,1.21-3.12,3.63-3.12h100C544.2,216.31,546.49,217.71,546.91,219.43Z" transform="translate(-97.07 -57.99)"/><polygon class="cls-9" points="366.42 184.94 355.77 184.94 353.2 174.29 363.85 174.29 366.42 184.94"/><polygon class="cls-9" points="373.03 190.26 362.38 190.26 359.81 179.62 370.45 179.62 373.03 190.26"/><polygon class="cls-9" points="391.27 184.94 380.63 184.94 378.05 174.29 388.7 174.29 391.27 184.94"/><polygon class="cls-15" points="397.88 190.26 387.24 190.26 384.66 179.62 395.31 179.62 397.88 190.26"/><path class="cls-9" d="M492.72,237.16H481.16l1.4,5.77,1.4,5.78h11.55Zm-.69.9,2.35,9.74h-9.73l-1.18-4.87-1.18-4.87Z" transform="translate(-97.07 -57.99)"/><polygon class="cls-15" points="416.12 184.94 405.48 184.94 402.9 174.29 413.55 174.29 416.12 184.94"/><path class="cls-9" d="M513.75,243.37l-1.29-5.31-.1-.45-.11-.45h0L511,231.83H499.41l2.79,11.56h11.55Zm-10.86-.89-2.36-9.74h9.74l1.07,4.41h0l.11.45.11.45,1.07,4.42Z" transform="translate(-97.07 -57.99)"/><polygon class="cls-15" points="422.73 190.26 412.09 190.26 409.51 179.62 420.16 179.62 422.73 190.26"/><path class="cls-9" d="M517.57,237.16H506l1.29,5.32.1.45.11.44v0l1.29,5.32h11.55Zm-9.14,6.21-.11-.44-.11-.45-1.07-4.42h9.74l2.36,9.74H509.5l-1.07-4.41Z" transform="translate(-97.07 -57.99)"/><polygon class="cls-9" points="416.69 185.37 410.42 185.37 408.91 179.16 415.18 179.16 416.69 185.37"/><polygon class="cls-9" points="440.98 184.94 430.33 184.94 427.75 174.29 438.4 174.29 440.98 184.94"/><polygon class="cls-9" points="447.59 190.26 436.94 190.26 434.37 179.62 445.01 179.62 447.59 190.26"/><polygon class="cls-15" points="440.68 184.68 435.8 184.68 434.63 179.85 439.51 179.85 440.68 184.68"/><path class="cls-9" d="M270.19,346.33H233.33a11.73,11.73,0,0,1-10.87-8.9L194.72,212.22c-1.08-4.92,2-8.9,6.93-8.9h36.86a11.71,11.71,0,0,1,10.87,8.9l27.74,125.21C278.21,342.34,275.1,346.33,270.19,346.33Z" transform="translate(-97.07 -57.99)"/><rect class="cls-2" x="101.95" y="173.48" width="54.66" height="0.24"/><rect class="cls-2" x="108.48" y="202.98" width="54.66" height="0.24"/><rect class="cls-2" x="115.02" y="232.49" width="54.66" height="0.24"/><path class="cls-11" d="M232.45,222.77c.07-.63-2.75-11.49-2.75-11.49l10,8.12-4.93-.18Z" transform="translate(-97.07 -57.99)"/><path class="cls-14" d="M258.35,314.11H238.94l1.86,8.37,2.43,11h19.42ZM244.1,332.42l-.22-1-2-8.94-1.61-7.29h17.2l.22,1,3.59,16.22Z" transform="translate(-97.07 -57.99)"/><polygon class="cls-10" points="151.63 264.48 133.33 264.48 129.27 246.18 147.58 246.18 151.63 264.48"/><rect class="cls-10" x="239.19" y="323.03" width="23.2" height="1.56" transform="translate(-255.84 264.83) rotate(-52.1)"/><path class="cls-14" d="M207.81,222.77c.07-.63-2.76-11.49-2.76-11.49l10,8.12-4.92-.18Z" transform="translate(-97.07 -57.99)"/><polygon class="cls-14" points="114.62 186.28 113.14 186.28 112.56 183.65 122.58 183.65 123.14 186.18 121.66 186.18 121.43 185.13 114.36 185.13 114.62 186.28"/><polygon class="cls-14" points="120.31 192.72 118.84 192.72 116.99 184.39 118.47 184.39 120.31 192.72"/><polygon class="cls-14" points="121.64 193.24 117.74 193.24 117.42 191.77 121.32 191.77 121.64 193.24"/><polygon class="cls-14" points="141.61 194.16 140.28 193.2 147.31 182.13 148.65 183.09 141.61 194.16"/><path class="cls-14" d="M225.75,272.84a6.73,6.73,0,0,0-6.24-5.11,4,4,0,0,0-4,5.11,6.75,6.75,0,0,0,6.24,5.11,4.09,4.09,0,0,0,2.88-1.08,3.47,3.47,0,0,0,.74-1A4.38,4.38,0,0,0,225.75,272.84Zm-4.28,3.76a5,5,0,0,1-4.58-3.76,2.92,2.92,0,0,1,2.92-3.76,5,5,0,0,1,4.59,3.76A2.93,2.93,0,0,1,221.47,276.6Z" transform="translate(-97.07 -57.99)"/><path class="cls-14" d="M231.49,282.38a.85.85,0,0,1-.53-.21l-6.79-5.71a.71.71,0,0,1-.19-1,.67.67,0,0,1,1,0l6.8,5.72a.71.71,0,0,1,.19.95A.53.53,0,0,1,231.49,282.38Z" transform="translate(-97.07 -57.99)"/><polygon class="cls-14" points="149.14 209.27 151.67 213.9 156.53 213.9 153.23 216.75 155.76 221.38 151.19 218.52 147.89 221.38 148.37 216.75 143.8 213.9 148.66 213.9 149.14 209.27"/><path class="cls-16" d="M716.11,226.76s.13,7.29-1,7.15-2.58-6.11-2.59-6,.49,6.29-.88,6.6-2.78-6.56-2.78-6.56.93,5.89,0,6-2.49-5.56-2.89-5.58,1.28,4.9.11,5.15-3.81-6.66-2.92-7.55,2.28.07,2.28.07,1.71-1.27,3-.55c0,0,3.08-.62,4,.75A2.44,2.44,0,0,1,716.11,226.76Z" transform="translate(-97.07 -57.99)"/><path class="cls-14" d="M736,198.83,761,289c1.07,3.86-1.37,7-5.45,7H586.74a10.16,10.16,0,0,1-9.33-7l-25-90.19c-1.07-3.86,1.38-7,5.46-7H726.68A10.17,10.17,0,0,1,736,198.83Z" transform="translate(-97.07 -57.99)"/><polygon class="cls-15" points="507.64 181.53 485.84 181.53 479.79 159.72 501.59 159.72 507.64 181.53"/><polygon class="cls-9" points="500.82 176.19 489.7 176.19 486.61 165.06 497.73 165.06 500.82 176.19"/><rect class="cls-17" x="577.33" y="227.76" width="26.9" height="1.71" transform="translate(-37.65 515.51) rotate(-54.14)"/><polygon class="cls-8" points="492.12 169.71 470.32 169.71 464.27 147.9 486.07 147.9 492.12 169.71"/><polygon class="cls-3" points="504.51 207.25 486.98 207.25 482.12 189.72 499.65 189.72 504.51 207.25"/><polygon class="cls-10" points="521.88 207.25 504.35 207.25 499.48 189.72 517.01 189.72 521.88 207.25"/><polygon class="cls-8" points="539.4 207.25 521.88 207.25 517.01 189.72 534.54 189.72 539.4 207.25"/><polygon class="cls-10" points="556.93 207.25 539.4 207.25 534.54 189.72 552.07 189.72 556.93 207.25"/><polygon class="cls-13" points="574.46 207.25 556.93 207.25 552.07 189.72 569.6 189.72 574.46 207.25"/><polygon class="cls-15" points="591.99 207.25 574.46 207.25 569.6 189.72 587.13 189.72 591.99 207.25"/><polygon class="cls-18" points="609.52 207.25 591.99 207.25 587.13 189.72 604.66 189.72 609.52 207.25"/><polygon class="cls-9" points="627.05 207.25 609.52 207.25 604.66 189.72 622.19 189.72 627.05 207.25"/><polygon class="cls-15" points="509.37 224.78 491.84 224.78 486.98 207.25 504.51 207.25 509.37 224.78"/><polygon class="cls-8" points="526.74 224.78 509.21 224.78 504.35 207.25 521.88 207.25 526.74 224.78"/><polygon class="cls-15" points="544.27 224.78 526.74 224.78 521.88 207.25 539.4 207.25 544.27 224.78"/><polygon class="cls-8" points="561.79 224.78 544.27 224.78 539.4 207.25 556.93 207.25 561.79 224.78"/><path class="cls-8" d="M725,213.42H633.15a3.27,3.27,0,0,1-2.93-2.3h0a1.69,1.69,0,0,1,1.66-2.29h91.83a3.26,3.26,0,0,1,2.93,2.29h0A1.7,1.7,0,0,1,725,213.42Z" transform="translate(-97.07 -57.99)"/><path class="cls-10" d="M728.19,225H636.37a3.26,3.26,0,0,1-2.93-2.29h0a1.69,1.69,0,0,1,1.65-2.3h91.83a3.27,3.27,0,0,1,2.93,2.3h0A1.69,1.69,0,0,1,728.19,225Z" transform="translate(-97.07 -57.99)"/><path class="cls-15" d="M731.4,236.59H639.58a3.27,3.27,0,0,1-2.93-2.3h0a1.69,1.69,0,0,1,1.66-2.29h91.82a3.26,3.26,0,0,1,2.93,2.29h0A1.69,1.69,0,0,1,731.4,236.59Z" transform="translate(-97.07 -57.99)"/><path class="cls-9" d="M624.19,213.62l-1.72-1.75-.27-.27a1.75,1.75,0,0,0,.53-.26,1.19,1.19,0,0,0,.51-1,1.82,1.82,0,0,0-.08-.63,2.77,2.77,0,0,0-2.85-2h-2.77l1.72,6.2h1.09l-.6-2.16h1.35l.95,1,1.19,1.2h1.29Zm-3.11-2.8h-1.59l-.58-2.08h1.59a1.46,1.46,0,0,1,1.56,1C622.24,210.42,621.86,210.82,621.08,210.82Z" transform="translate(-97.07 -57.99)"/><path class="cls-9" d="M626.44,222.2H623.8l.26.94h1.58l.33,1.17a2,2,0,0,1-1.37.46,2.81,2.81,0,0,1-2.42-1.47,3.19,3.19,0,0,1-.3-.74,1.64,1.64,0,0,1,.68-2h0a1.59,1.59,0,0,1,.72-.16,3.17,3.17,0,0,1,1.92.67l.46-.82a4.24,4.24,0,0,0-2.62-.85h-.29a2.32,2.32,0,0,0-2,3.2,4.48,4.48,0,0,0,1.31,2.11,4.18,4.18,0,0,0,2.8,1.1,3,3,0,0,0,2.32-1Z" transform="translate(-97.07 -57.99)"/><path class="cls-9" d="M630.61,236.25a2.18,2.18,0,0,0-1.65-1.53,1.11,1.11,0,0,0,.5-1.38,2,2,0,0,0-.71-1.05,2.85,2.85,0,0,0-1.77-.55H624.2l1.72,6.2h2.87C630.17,237.94,630.92,237.35,630.61,236.25Zm-5.07-3.54h1.57a1.22,1.22,0,0,1,1.31.79c.16.58-.24.86-.94.86H626Zm3,4.27h-1.81l-.47-1.7H628c.86,0,1.36.31,1.5.83S629.27,237,628.53,237Z" transform="translate(-97.07 -57.99)"/><path class="cls-19" d="M386.08,209.78a1.73,1.73,0,0,0-.31,1.85h0c.44,1.23,1.91,2.6,3.62,4l.58.49.13.11.1.09c1.6,1.47,1,1.81,3.86,4.79,3.26,3.39,5.51,3.45,6.15,3.14s-.56-2.06-1.78-4.08c-.06-.1-.11-.2-.18-.3l-.48-.81c-1.43-2.44-1.06-3.58-.72-7.2.27-3,4.58-16.46,4.58-16.46l-6.25-1.08s-1.88,10.76-4,12.42c-1.11.88-2.35.89-3.42,1.55l-.22.14A8.3,8.3,0,0,0,386.08,209.78Z" transform="translate(-97.07 -57.99)"/><path class="cls-11" d="M386.08,209.78a1.73,1.73,0,0,0-.31,1.85h0a13.24,13.24,0,0,0,3.63,4c.21.18.4.34.57.5l.13.11.1.09c1.6,1.47,1,1.81,3.86,4.79,3.26,3.39,5.51,3.45,6.15,3.14s-.56-2.06-1.78-4.08a14,14,0,0,1-5.81-4.29c-1.9-2.41-3.18-5.49-4.47-7.38l-.37-.07A8.3,8.3,0,0,0,386.08,209.78Z" transform="translate(-97.07 -57.99)"/><path class="cls-19" d="M436.5,205.88c.38,1.93,3.14,1.61,6.21.85s2.34.15,6.72-.34,5.7-2.11,5.83-2.76-2-.78-4.36-1l-.88-.11c-2.62-.33-4.53-2-6.91-3.4s-5.61-6.67-5.61-6.67l-6,.48s3.15,4.78,4.36,6.86a7.19,7.19,0,0,1,.59,4.08A7.9,7.9,0,0,0,436.5,205.88Z" transform="translate(-97.07 -57.99)"/><path class="cls-11" d="M442.71,206.73c3.07-.75,2.34.15,6.72-.34s5.7-2.11,5.83-2.76-2-.78-4.36-1l0,0a12.39,12.39,0,0,1-6.27,1.95c-3,.07-6.11-.78-8.16-.75a7.9,7.9,0,0,0,.05,2.06C436.88,207.81,439.64,207.49,442.71,206.73Z" transform="translate(-97.07 -57.99)"/><path class="cls-13" d="M413.51,167.52l-5.61,15.09-7.32,19.7a12,12,0,0,1-3.89-.35,17.07,17.07,0,0,1-3.76-1.83s2-21.16,5.82-33.31a21.34,21.34,0,0,1,3.27-7C407.89,152.82,413.51,167.52,413.51,167.52Z" transform="translate(-97.07 -57.99)"/><path class="cls-10" d="M407.81,143.55c-3.2-1-11.53,0-20.56,1.62a6.14,6.14,0,0,1-6.33-2.86h0l-22.74-1.77s-7.5,16.63-3.39,27.24a4,4,0,0,0,4,2.56h0l18.14,0c11.3,0,23.93-7.77,25.56-8.1,2.67-.53,3.74,4.81,6.41,10.42S434,197.54,434,197.54a20,20,0,0,0,4.88-.5,4.75,4.75,0,0,0,2.09-1.32S416.09,146.22,407.81,143.55Z" transform="translate(-97.07 -57.99)"/><path class="cls-12" d="M378.51,75.54a8.12,8.12,0,0,0-4.35-1.13,12.16,12.16,0,0,1-2.09-.12c-8.68-1.28-13.91,11.33-14.21,15.14-.56,7-4.27,8.06-9.47,12.44-9,7.57-8,16.19-3.86,20.85a11.61,11.61,0,0,0,2.19,1.92c2,1.32,4.87,1.11,6.93.69a17.07,17.07,0,0,0,2.53-.69,8.27,8.27,0,0,0,.78-.41c.32-.17.72-.38,1.19-.65l.71-.38c4.1-2.27,12.11-6.75,18.22-10.15l3-1.68.67-.37a5.73,5.73,0,0,0,4.13-2.61C390.13,100.54,382.64,78,378.51,75.54Z" transform="translate(-97.07 -57.99)"/><path class="cls-19" d="M374,107.2s-4,1.4-6.67.21c-2.53-1.12-4.44-5.28-4.41-5.28,1.15,0,2.42-1.06,3.39-7.66l.49.18,8.23,3s-.59,2.64-1,5.16C373.73,104.88,373.55,106.91,374,107.2Z" transform="translate(-97.07 -57.99)"/><path class="cls-20" d="M375,97.61s-.32,1.43-.8,4.09a9.3,9.3,0,0,1-7.43-7Z" transform="translate(-97.07 -57.99)"/><path class="cls-19" d="M376.26,100.23S365,98.72,366,91.72s.31-11.91,7.54-11.24,8.24,3.55,8.45,6S379.22,100.45,376.26,100.23Z" transform="translate(-97.07 -57.99)"/><path class="cls-12" d="M381.62,82.61s-7.21,6.22-12.12,6.72-6.76-1.07-6.76-1.07A19.28,19.28,0,0,0,367.37,82a3.45,3.45,0,0,1,2.85-2C373.72,79.64,380.36,79.51,381.62,82.61Z" transform="translate(-97.07 -57.99)"/><path class="cls-12" d="M377.11,82.06a17.69,17.69,0,0,1,3.18,4.06,13.71,13.71,0,0,1,.37,7.25s3.76-7.31,1.63-10.86C380,78.74,377.11,82.06,377.11,82.06Z" transform="translate(-97.07 -57.99)"/><path class="cls-15" d="M383.49,123.8c-.34,22.81-.09,18-2.59,20.21-.6.52-2.29.83-4.51,1-7,.47-19.29-.68-19.76-2-1.61-4.47-.47-5.86-1.82-12.7-.14-.73-.31-1.52-.52-2.38-1.12-4.7-2.21-6.3,1.77-13.85,3.61-6.85,7.36-12.4,7.7-12.2,9.52,5.65,10.29.9,10.29.9S383.66,112.68,383.49,123.8Z" transform="translate(-97.07 -57.99)"/><path class="cls-10" d="M407.9,182.61l-7.32,19.7a12,12,0,0,1-3.89-.35,17.07,17.07,0,0,1-3.76-1.83s2-21.16,5.82-33.31Z" transform="translate(-97.07 -57.99)"/><path class="cls-15" d="M374.05,102.77s9.8,1.66,10.95,5.88,4.94,29.83,4.94,29.83-2.76,2.7-5.06.4-7.25-24-7.25-24Z" transform="translate(-97.07 -57.99)"/><path class="cls-18" d="M376.39,145c-7,.47-19.29-.68-19.76-2-1.61-4.47-.47-5.86-1.82-12.7l3.37-9.5s-.55,10.58,2.57,13.36,12.77,5.37,14.28,7.69A8.64,8.64,0,0,1,376.39,145Z" transform="translate(-97.07 -57.99)"/><path class="cls-19" d="M368.37,140.54s6.9-1.54,8-.93,3.83,2.84,4.17,3.62-2.48-.59-3.4-.83a8.14,8.14,0,0,0-2.93.64,9.75,9.75,0,0,1-5.25.52Z" transform="translate(-97.07 -57.99)"/><path class="cls-15" d="M363.75,101.87s-9.26.57-12.47,5c-4.51,6.29-13.47,33.13-8.34,36.71,5.78,4,26.31,1,26.31,1s.68-3.19-.27-4.74-16.39-4-17.1-4.75,8.91-13.9,8.91-16S363.75,101.87,363.75,101.87Z" transform="translate(-97.07 -57.99)"/><path class="cls-19" d="M376.72,141.53a12.94,12.94,0,0,0,1.92,2.09,1.47,1.47,0,0,0,.78.17l-1-1.76Z" transform="translate(-97.07 -57.99)"/><path class="cls-19" d="M376.39,139.61l4.2,2a.74.74,0,0,1-.7.27,9.64,9.64,0,0,1-1.82-.5Z" transform="translate(-97.07 -57.99)"/><polygon class="cls-21" points="315.21 86.42 271.31 86.42 271.31 87.39 314.82 87.39 315.21 86.42"/><polygon class="cls-21" points="281.57 87.39 314.82 87.39 324.82 62.52 291.63 62.52 281.57 87.39"/><path class="cls-11" d="M403.49,132.94a1.15,1.15,0,0,0-1.13-1.58,2.27,2.27,0,0,0-2,1.58,1.15,1.15,0,0,0,1.13,1.59A2.26,2.26,0,0,0,403.49,132.94Z" transform="translate(-97.07 -57.99)"/><rect class="cls-11" x="398.17" y="298.14" width="4.52" height="4.52" transform="translate(198.47 -247.06) rotate(41.03)"/><path class="cls-18" d="M356.6,357.49c-.68-2.26-1-2.47-1-2.47s-21.14,2.64-24.73,2.41c-2.13-.14-27.52-8.61-27.52-8.61L287.92,363.6s38.23,6.3,43.62,5.89C340.44,368.81,354,361,354,361S357.13,359.26,356.6,357.49Z" transform="translate(-97.07 -57.99)"/><path class="cls-9" d="M298.82,526.22s.29,7.17,1.67,8.91l19.14.11a3,3,0,0,0-2.86-2.91,12.83,12.83,0,0,1-9.3-7.33C305.34,520.35,298.82,526.22,298.82,526.22Z" transform="translate(-97.07 -57.99)"/><path class="cls-9" d="M261.27,525.19s-1.34,9.52.48,9.68c.24,0,7.71.15,10.94.2,3.81.06,10.06-.07,10.06-.07a1,1,0,0,0,.9-1.5,4,4,0,0,0-2.88-1.84c-3.33-.64-8.88-3.09-10.83-7.54C267.89,519.43,261.27,525.19,261.27,525.19Z" transform="translate(-97.07 -57.99)"/><path class="cls-13" d="M308.77,427.67s-5.32,18.62-20.57,50.95-15.91,47.91-15.91,47.91a13.32,13.32,0,0,1-5.37.49,14.4,14.4,0,0,1-5.65-1.83s1-38.48,8.19-54.8,8.67-61,8.67-61Z" transform="translate(-97.07 -57.99)"/><path class="cls-10" d="M317.31,411.65a465.43,465.43,0,0,1-4.56,64.23c-5,35.4-2.66,51.86-2.66,51.86s-1.32,1-5.39.94c-4.76,0-7.2-2-7.2-2s-7.14-35.41-5.09-53.13-9.78-60.79-9.78-60.79Z" transform="translate(-97.07 -57.99)"/><path class="cls-19" d="M305.73,339.79c-.05,2.26-.36,4.73-1.26,5.93l-5.08,2.67-5.63-4.18A25.16,25.16,0,0,0,295.32,333c-.05-.4-.25-3-.25-3l2.81,1.41,7.65,3.82a1.6,1.6,0,0,0,.05.35C305.63,336.27,305.73,337.93,305.73,339.79Z" transform="translate(-97.07 -57.99)"/><path class="cls-15" d="M277.6,415.21c1.84,8.43,41.27,4.73,40.76-.41,0-.17-.13-2.55-.27-5.76-.3-7-.75-17.79-.81-18.64v0c-.72-7.17-1.4-14.17-1.44-18.75a65.48,65.48,0,0,0-1.31-11.7c-.67-3.4-1.5-6.49-2.21-8.9a9.85,9.85,0,0,0-5.76-6.31,9.09,9.09,0,0,0-1-.33c-4.64-1.35-9.32-3.06-11.06-2.56-4.71,1.39-10,9.74-12.43,20.32C277.47,381.92,276.39,409.72,277.6,415.21Z" transform="translate(-97.07 -57.99)"/><path class="cls-20" d="M305.73,339.79c-2.87-1.16-8.35-3.77-9.86-6.74-.65-1.3.36-1.7,2-1.7l7.65,3.82a1.6,1.6,0,0,0,.05.35C305.63,336.27,305.73,337.93,305.73,339.79Z" transform="translate(-97.07 -57.99)"/><path class="cls-19" d="M309.2,334.7S295.48,339,293,330.39s-6-13.82,2.64-16.91,11.33-.33,12.87,2.33S312.71,333.36,309.2,334.7Z" transform="translate(-97.07 -57.99)"/><path class="cls-12" d="M307.93,315s-.88,10-2.95,9.55-3.94-.75-3.63,2.26.4,6.63-6,7.17-12.76-16-11-19.15C289.42,305.85,315.22,304,307.93,315Z" transform="translate(-97.07 -57.99)"/><path class="cls-18" d="M318.09,409c-.3-7-.75-17.79-.81-18.64v0L294,376.43S293.08,408.94,318.09,409Z" transform="translate(-97.07 -57.99)"/><path class="cls-22" d="M398.46,298.65l4.19,3.65s-7.19,7.7-6.52,15.81l-10.74,9.07-8.9-7.74,7.44-12.34S391.9,306.81,398.46,298.65Z" transform="translate(-97.07 -57.99)"/><path class="cls-11" d="M387.54,311.83a2.39,2.39,0,1,1,.23,3.37A2.38,2.38,0,0,1,387.54,311.83Z" transform="translate(-97.07 -57.99)"/><rect class="cls-11" x="393.78" y="298.11" width="0.91" height="19.32" transform="translate(201.88 -241.21) rotate(41.04)"/><rect class="cls-15" x="374.07" y="322.94" width="11.8" height="2.96" transform="translate(209.2 -227.73) rotate(41.03)"/><path class="cls-22" d="M286.11,432.73l-.43-.38a5.6,5.6,0,0,1-.55-7.91l89.41-102.77,8.9,7.75L294,432.18A5.62,5.62,0,0,1,286.11,432.73Z" transform="translate(-97.07 -57.99)"/><path class="cls-19" d="M336.42,379.6a10.05,10.05,0,0,0,2.13-2.58,3.55,3.55,0,0,1,3.3-1.88c1.83.14,5.07-3.75,5.07-3.75.48,1,2.11,4.88-.22,6.84-1.91,1.59-6.48,4.35-9.26,6.17C334.46,386.35,336.42,379.6,336.42,379.6Z" transform="translate(-97.07 -57.99)"/><path class="cls-15" d="M336.65,379S313.55,383,311.5,382c-3.27-1.59,1.27-25,1.27-25s.19-5.31-6-6.56c-5.4-1.09-10.6,2.95-10.6,2.95s-4.73,4.23-4.13,8.93c1.34,10.41,3.43,31.58,10.39,34.83,9,4.18,35-11.61,35-11.61a4.58,4.58,0,0,0,.74-3A7.07,7.07,0,0,0,336.65,379Z" transform="translate(-97.07 -57.99)"/><path class="cls-19" d="M357.56,359.17s5.83-2.13,5.32-5.11-2.34-2.61-3.43-1.58S359,358.79,357.56,359.17Z" transform="translate(-97.07 -57.99)"/><path class="cls-19" d="M338.14,378.07a13.61,13.61,0,0,1,1.65-3.34c.85-1,1.21-2.7,1.59-2.13s-.31,2.59,0,3.36S338.14,378.07,338.14,378.07Z" transform="translate(-97.07 -57.99)"/></svg>