<svg id="Character_1" data-name="Character 1" xmlns="http://www.w3.org/2000/svg" viewBox="0 0 1426.43 1321.27"><defs><style>.cls-1,.cls-18,.cls-19,.cls-20,.cls-21{fill:#407bff;}.cls-10,.cls-11,.cls-12,.cls-17,.cls-2,.cls-24,.cls-29,.cls-30,.cls-32,.cls-5,.cls-6,.cls-8,.cls-9{fill:#fff;}.cls-2{opacity:0.9;}.cls-3{fill:#f5f5f5;}.cls-13,.cls-14,.cls-15,.cls-16,.cls-4{fill:#263238;}.cls-15,.cls-20,.cls-30,.cls-5{opacity:0.4;}.cls-16,.cls-21,.cls-22,.cls-29,.cls-6,.cls-7{opacity:0.2;}.cls-12,.cls-17,.cls-22,.cls-24,.cls-25,.cls-26,.cls-29,.cls-30,.cls-31,.cls-7{isolation:isolate;}.cls-8{opacity:0.1;}.cls-10,.cls-13,.cls-18{opacity:0.8;}.cls-11,.cls-12,.cls-14,.cls-19{opacity:0.6;}.cls-17{opacity:0.7;}.cls-23{fill:#ebb376;}.cls-24,.cls-26,.cls-31,.cls-32{opacity:0.3;}.cls-25{opacity:0.15;}.cls-27{fill:#e4897b;}.cls-28{fill:#de5753;}</style></defs><path class="cls-1" d="M134.42,934.68c19,61.38,55.55,138.86,121.32,160.91,97.38,32.65,152.42-80.47,175.7-154.54,34-108.2,56.95-220.61,106.74-323.22,39.28-81,110.16-174.41,207.85-183.19,52.57-4.72,83,29.19,99.57,75.61,20.52,57.42,29.86,118.13,44.81,177.24C920,804.38,1008.92,912.43,1125.27,950.1c66.06,21.4,136.65,18.83,199-13.32,269.44-138.9,163.51-553.56-11.52-719.23C1029.79-50.29,569.22,29.51,311,290,207.73,394.18,137.47,532.93,117.66,678.54,106.56,760.18,109.08,852.58,134.42,934.68Z" transform="translate(-80.32 -51.6)"/><path class="cls-2" d="M134.42,934.68c19,61.38,55.55,138.86,121.32,160.91,97.38,32.65,152.42-80.47,175.7-154.54,34-108.2,56.95-220.61,106.74-323.22,39.28-81,110.16-174.41,207.85-183.19,52.57-4.72,83,29.19,99.57,75.61,20.52,57.42,29.86,118.13,44.81,177.24C920,804.38,1008.92,912.43,1125.27,950.1c66.06,21.4,136.65,18.83,199-13.32,269.44-138.9,163.51-553.56-11.52-719.23C1029.79-50.29,569.22,29.51,311,290,207.73,394.18,137.47,532.93,117.66,678.54,106.56,760.18,109.08,852.58,134.42,934.68Z" transform="translate(-80.32 -51.6)"/><ellipse id="_Path_" data-name="&lt;Path&gt;" class="cls-3" cx="713.22" cy="1279.62" rx="713.22" ry="41.65"/><path class="cls-4" d="M760.09,1269.93a32.93,32.93,0,0,1-3.6,15.27,23,23,0,0,1-9.31,9.82s-13.79,8.28-15.67,9.08l-.14.08v0a20.76,20.76,0,0,1-8.06,1.66c-15,0-27.15-15.86-27.15-35.43a41.64,41.64,0,0,1,7.17-23.91l-8.71-48.55L672,1072.14,623.59,802.58h36.19l48.45,269.56,22.58,125.77,7.62,42.34,7.58,4C754.21,1247.93,760.09,1258,760.09,1269.93Z" transform="translate(-80.32 -51.6)"/><path class="cls-5" d="M760.09,1269.93a32.93,32.93,0,0,1-3.6,15.27,23,23,0,0,1-9.31,9.82s-13.79,8.28-15.67,9.08l-.14.08v0a20.76,20.76,0,0,1-8.06,1.66c-15,0-27.15-15.86-27.15-35.43a41.64,41.64,0,0,1,7.17-23.91l-8.71-48.55L672,1072.14,623.59,802.58h36.19l48.45,269.56,22.58,125.77,7.62,42.34,7.58,4C754.21,1247.93,760.09,1258,760.09,1269.93Z" transform="translate(-80.32 -51.6)"/><path class="cls-6" d="M760.1,1269.93c0,15-9.31,27.14-20.81,27.14s-20.8-12.15-20.8-27.14,9.31-27.14,20.8-27.14S760.1,1254.94,760.1,1269.93Z" transform="translate(-80.32 -51.6)"/><polygon class="cls-7" points="650.5 1146.31 614.3 1146.31 591.72 1020.54 543.27 750.99 579.47 750.99 627.91 1020.54 650.5 1146.31"/><rect class="cls-4" x="1144.72" y="832.91" width="162.1" height="46.33"/><path class="cls-4" d="M1373,1027.09l51.16-256.32a8.86,8.86,0,0,0-8.68-10.59h-15.58A13.12,13.12,0,0,0,1387,770.74l-51.17,256.32a8.86,8.86,0,0,0,8.68,10.59h15.58A13.13,13.13,0,0,0,1373,1027.09Z" transform="translate(-80.32 -51.6)"/><path class="cls-4" d="M1413.89,873h-31.4c-9.43,0-17.08,14.84-17.08,33.16s7.65,33.16,17.08,33.16h31.4c9.44,0,17.09-14.84,17.09-33.16S1423.33,873,1413.89,873Z" transform="translate(-80.32 -51.6)"/><path class="cls-6" d="M1428.89,906.13c0,13.65-5.43,24.71-12.12,24.71s-12.13-11.06-12.13-24.71,5.43-24.71,12.13-24.71S1428.89,892.48,1428.89,906.13Z" transform="translate(-80.32 -51.6)"/><path class="cls-6" d="M1373,1027.09l51.16-256.32a8.86,8.86,0,0,0-8.68-10.59h-15.58A13.12,13.12,0,0,0,1387,770.74l-51.17,256.32a8.86,8.86,0,0,0,8.68,10.59h15.58A13.13,13.13,0,0,0,1373,1027.09Z" transform="translate(-80.32 -51.6)"/><polygon class="cls-4" points="1290.41 1187.21 1290.41 1269.03 458.26 1269.03 458.26 1246.26 631.52 1246.26 658.04 1187.21 1290.41 1187.21"/><polygon class="cls-6" points="1290.41 1187.21 1290.41 1269.03 973.25 1269.03 973.25 1246.26 1146.5 1246.26 1173.03 1187.21 1290.41 1187.21"/><path class="cls-4" d="M1348.65,1269.93a32.81,32.81,0,0,1-3.61,15.27,23,23,0,0,1-9.3,9.82s-13.8,8.28-15.67,9.08l-.15.08v0a20.71,20.71,0,0,1-8.05,1.66c-15,0-27.15-15.86-27.15-35.43a41.64,41.64,0,0,1,7.17-23.91l-8.72-48.55-22.58-125.77-48.45-269.56h36.2l48.44,269.56,22.59,125.77,7.61,42.34,7.58,4C1342.76,1247.93,1348.65,1258,1348.65,1269.93Z" transform="translate(-80.32 -51.6)"/><path class="cls-5" d="M1348.65,1269.93a32.81,32.81,0,0,1-3.61,15.27,23,23,0,0,1-9.3,9.82s-13.8,8.28-15.67,9.08l-.15.08v0a20.71,20.71,0,0,1-8.05,1.66c-15,0-27.15-15.86-27.15-35.43a41.64,41.64,0,0,1,7.17-23.91l-8.72-48.55-22.58-125.77-48.45-269.56h36.2l48.44,269.56,22.59,125.77,7.61,42.34,7.58,4C1342.76,1247.93,1348.65,1258,1348.65,1269.93Z" transform="translate(-80.32 -51.6)"/><path class="cls-6" d="M1348.66,1269.93c0,15-9.32,27.14-20.81,27.14s-20.81-12.15-20.81-27.14,9.32-27.14,20.81-27.14S1348.66,1254.94,1348.66,1269.93Z" transform="translate(-80.32 -51.6)"/><polygon class="cls-7" points="1239.05 1146.31 1202.86 1146.31 1180.27 1020.54 1131.83 750.99 1168.02 750.99 1216.47 1020.54 1239.05 1146.31"/><path class="cls-4" d="M1259.71,1176.13H490.29c-16.32,0-26.87-13.4-23.57-29.94L571.19,622.82c3.3-16.53,19.2-29.94,35.52-29.94h769.42c16.31,0,26.86,13.41,23.56,29.94l-104.46,523.37C1291.93,1162.73,1276,1176.13,1259.71,1176.13Z" transform="translate(-80.32 -51.6)"/><path class="cls-8" d="M1259.71,1176.13H490.29c-16.32,0-26.87-13.4-23.57-29.94L571.19,622.82c3.3-16.53,19.2-29.94,35.52-29.94h769.42c16.31,0,26.86,13.41,23.56,29.94l-104.46,523.37C1291.93,1162.73,1276,1176.13,1259.71,1176.13Z" transform="translate(-80.32 -51.6)"/><polygon class="cls-1" points="1140.09 1038.43 483.65 1038.43 573.14 590.12 1229.57 590.12 1140.09 1038.43"/><path class="cls-6" d="M1306.21,954.56H1277.1c-6.83,0-11.25-5.61-9.86-12.53l23-115c1.38-6.93,8-12.54,14.87-12.54h29.1c6.84,0,11.25,5.61,9.87,12.54l-23,115C1319.7,949,1313,954.56,1306.21,954.56Z" transform="translate(-80.32 -51.6)"/><path class="cls-7" d="M1333.37,848.73c-2.3,11.52-13.38,20.86-24.75,20.86s-18.73-9.34-16.43-20.86,13.38-20.87,24.76-20.87S1335.67,837.2,1333.37,848.73Z" transform="translate(-80.32 -51.6)"/><path class="cls-7" d="M1303.17,939.42h-17a3.7,3.7,0,0,1-3.68-4.67l11.58-58a6,6,0,0,1,5.54-4.68h17a3.7,3.7,0,0,1,3.68,4.68l-11.58,58A6,6,0,0,1,1303.17,939.42Z" transform="translate(-80.32 -51.6)"/><path class="cls-9" d="M667.54,845.73s57-74.46,92.56-91.2,29.75,77.84,53,102.58,74.21-78.58,109.14-87.31,13.63,128.53,44.65,161,249.92-193.06,249.92-193.06l-12,27.65,30.64-32-30.64,45.11L1225,760.18s-101.67,118.93-192.76,179.24-105.64-3.49-105.64-26.17.53-96.35-14.28-98.8-73,83.61-100.68,90.78-36.38-33.17-36.38-33.17,11,13.65,27.32,12.45c0,0-18.59.77-25.86-38.78s-11.65-70.11-27.65-58.47-64,69.85-64,69.85l6.76-20.55-41.69,48,34.93-48Z" transform="translate(-80.32 -51.6)"/><polygon class="cls-9" points="542.89 1019.07 507.96 1019.07 514.54 986.12 549.46 986.12 542.89 1019.07"/><polygon class="cls-10" points="584.01 1019.07 549.09 1019.07 555.66 986.12 590.59 986.12 584.01 1019.07"/><polygon class="cls-11" points="625.13 1019.07 590.21 1019.07 596.79 986.12 631.71 986.12 625.13 1019.07"/><polygon class="cls-5" points="666.25 1019.07 631.33 1019.07 637.91 986.12 672.83 986.12 666.25 1019.07"/><polygon class="cls-6" points="707.38 1019.07 672.46 1019.07 679.03 986.12 713.96 986.12 707.38 1019.07"/><rect class="cls-1" x="776.45" y="456.28" width="225.69" height="64.9" transform="translate(-175.62 191.63) rotate(-14.79)"/><rect class="cls-12" x="776.45" y="456.28" width="225.69" height="64.9" transform="translate(-175.62 191.63) rotate(-14.79)"/><rect class="cls-4" x="785" y="485.69" width="36.69" height="50.17" transform="translate(-184.09 170.42) rotate(-14.79)"/><rect class="cls-13" x="823.22" y="475.6" width="36.69" height="50.17" transform="translate(-180.25 179.84) rotate(-14.79)"/><rect class="cls-14" x="861.45" y="465.5" width="36.69" height="50.17" transform="translate(-176.41 189.27) rotate(-14.79)"/><rect class="cls-15" x="899.67" y="455.41" width="36.69" height="50.17" transform="translate(-172.56 198.69) rotate(-14.79)"/><rect class="cls-16" x="937.89" y="445.32" width="36.69" height="50.17" transform="translate(-168.72 208.12) rotate(-14.79)"/><rect class="cls-1" x="700.97" y="374.09" width="225.69" height="64.9"/><rect class="cls-17" x="700.97" y="374.09" width="225.69" height="64.9"/><rect class="cls-1" x="706.74" y="380.83" width="36.69" height="50.17"/><rect class="cls-18" x="746.27" y="380.83" width="36.69" height="50.17"/><rect class="cls-19" x="785.81" y="380.83" width="36.69" height="50.17"/><rect class="cls-20" x="825.34" y="380.83" width="36.69" height="50.17"/><rect class="cls-21" x="864.87" y="380.83" width="36.69" height="50.17"/><circle class="cls-4" cx="917.53" cy="431.01" r="3.99"/><path class="cls-4" d="M1012.92,500.43c-.27,3.56-2.5,5.68-5.95,5.72h0c-6.29,0-10.34-6.36-12.61-11.58l3.71-1c2,4.35,5,8.78,8.9,8.78h0c1.21,0,2-.37,2.16-2.23.19-2.31-1-5.68-2.84-8.71-2.16-3.4-5.34-6.39-8.74-7a1.88,1.88,0,0,1,.6-3.71,14.17,14.17,0,0,1,6.59,3.18C1010,488.21,1013.3,495.66,1012.92,500.43Z" transform="translate(-80.32 -51.6)"/><g class="cls-22"><path class="cls-9" d="M1012.92,500.43c-.27,3.56-2.5,5.68-5.95,5.72h0c-6.29,0-10.34-6.36-12.61-11.58l3.71-1c2,4.35,5,8.78,8.9,8.78h0c1.21,0,2-.37,2.16-2.23.19-2.31-1-5.68-2.84-8.71-2.16-3.4-5.34-6.39-8.74-7a1.88,1.88,0,0,1,.6-3.71,14.17,14.17,0,0,1,6.59,3.18C1010,488.21,1013.3,495.66,1012.92,500.43Z" transform="translate(-80.32 -51.6)"/></g><path class="cls-23" d="M1222.2,495.86c16.83,37.22,28.23,82.12,13.31,97S1169,553.5,1169,553.5l11.58-7.83s36.2,19.07,38.1,17.79-13.84-55-13.84-55Z" transform="translate(-80.32 -51.6)"/><path class="cls-23" d="M973.34,504.88a91.69,91.69,0,0,1-7.6-6.86c-3.14-3.31-37-3-38.48.65s4.9,20.27,10.53,22,29.61-.8,33.43-3.19S973.34,504.88,973.34,504.88Z" transform="translate(-80.32 -51.6)"/><path class="cls-23" d="M1118.34,1249l-19.65.31c-20-93.74-34.07-209.76-42.85-297.27-1.37-13.72-2.63-26.7-3.73-38.82-.51-5.76-1-11.29-1.49-16.62-2.35-26.31-4-47.17-4.94-60.07-.7-9.41-1.06-14.58-1.06-14.58h71l-.67,18.07-2.19,59.68-.24,6.82L1111,946l-2.47,67.09C1132.88,1107.49,1118.34,1249,1118.34,1249Z" transform="translate(-80.32 -51.6)"/><path class="cls-23" d="M1277.52,1244l-19.33,3.65c-38.7-96.73-75-220.59-98.69-307.12-3.64-13.41-7-25.95-10-37.32-.16-.59-.28-1.14-.44-1.69-6-22.58-10.54-40.58-13.4-52-2.2-8.94-3.42-13.84-3.42-13.84l70-12.07,4,29.4,5.84,43.21,1.14,8.47,4,29.44,10.63,79C1267.76,1102,1277.52,1244,1277.52,1244Z" transform="translate(-80.32 -51.6)"/><path class="cls-7" d="M1212,896.24l-62.49,7c-.16-.59-.28-1.14-.44-1.69-6-22.58-10.54-40.58-13.4-52l70.49,3.49Z" transform="translate(-80.32 -51.6)"/><path class="cls-7" d="M1114.92,840.05l-2.19,59.68-.24,6.82-60.38,6.7c-.51-5.76-1-11.29-1.49-16.62-2.35-26.31-4-47.17-4.94-60.07Z" transform="translate(-80.32 -51.6)"/><path class="cls-1" d="M1060.34,1314.19a38.58,38.58,0,0,1,12.29-6.68h0s13.37-13.27,19.81-53.2l17.5-4.56a14.9,14.9,0,0,1,15.92,6.22,8.46,8.46,0,0,1,1.12,2.3,103.09,103.09,0,0,1,1.87,13c1.76,13.52.25,43.85.25,43.85h-3.17l-1.25-27.53c-.47-9.34-7.62,1.62-9.67,11.68s-6.4,20.77-26.88,21.28C1064.22,1321,1054.31,1320.05,1060.34,1314.19Z" transform="translate(-80.32 -51.6)"/><path class="cls-1" d="M1126.47,1256.29c1.15-9.34,1.51-25.59,1.51-25.59L1089.1,1235s4.7,18.48.82,32.35C1109.51,1262.22,1126.47,1256.29,1126.47,1256.29Z" transform="translate(-80.32 -51.6)"/><path class="cls-1" d="M1218.58,1314.19a38.58,38.58,0,0,1,12.29-6.68h0s13.37-13.27,19.81-53.2l17.5-4.56a14.91,14.91,0,0,1,15.92,6.22,8.15,8.15,0,0,1,1.11,2.3,99.55,99.55,0,0,1,1.87,13c1.76,13.52.25,43.85.25,43.85h-3.16l-1.26-27.53c-.46-9.34-7.62,1.62-9.66,11.68s-6.4,20.77-26.89,21.28C1222.46,1321,1212.54,1320.05,1218.58,1314.19Z" transform="translate(-80.32 -51.6)"/><path class="cls-1" d="M1284.71,1256.29c1.15-9.34,1.51-25.59,1.51-25.59l-38.89,4.31s4.71,18.48.83,32.35C1267.75,1262.22,1284.71,1256.29,1284.71,1256.29Z" transform="translate(-80.32 -51.6)"/><path class="cls-23" d="M1170,421.49a5.61,5.61,0,0,1-.94.68c-4.35,3.09-9.34,6.05-15,7.35-15.89,3.66-26.74,1.49-33.82-5.7h0c-9.92-10.78-12.4-29.88-11-52.92.61-10.57,2.12-19.76,5-26.91,0-.07,0-.34.07-.41.14-.29.25-.69.4-1,4.34-10,11.57-16.46,23.11-19.19a63.19,63.19,0,0,1,13.62-1.53C1196.31,321.41,1204.4,395.82,1170,421.49Z" transform="translate(-80.32 -51.6)"/><path class="cls-7" d="M1169,422.17a41.67,41.67,0,0,1-15,6.72c-15.89,3.67-26.74,1-33.82-6.33,7.8,1.73,18.29,2.38,28.5-2.33C1155.12,417.28,1162.28,418.79,1169,422.17Z" transform="translate(-80.32 -51.6)"/><path class="cls-23" d="M1173.6,462.75c2.76,12.79-13.8,18-13.8,18-27.1-11.57-32.13-26-32.13-26,22.6-11.79,16.06-45.14,16.06-45.14l4.6,2.26,32.28,6.32s-8.95,17.18-10.14,21.1c0,0,0,.07,0,.11C1164.36,459.91,1173.6,462.75,1173.6,462.75Z" transform="translate(-80.32 -51.6)"/><path class="cls-4" d="M1114.17,343.69s-2.48,31.51,27.38,45c0,0,12.82,32.73,31.69,33.19,25.73.63,48.41-36,39.5-73.27C1201.18,300.29,1127.92,296.36,1114.17,343.69Z" transform="translate(-80.32 -51.6)"/><path class="cls-23" d="M1126.43,379.68c0-4.91,4-13.17,11.6-12.05,7.91,1.16,12.29,20.65-7.14,25C1128.1,393.26,1126.41,389.94,1126.43,379.68Z" transform="translate(-80.32 -51.6)"/><path class="cls-4" d="M1169,310.21s-30-7.6-46.67,4.48c-19.4,14.12-26.76,28.72-3.78,51.38,0,0,50.46-16.36,67.24-12.9a181.88,181.88,0,0,1,28.77,8.36C1218.12,328.2,1185.82,303.4,1169,310.21Z" transform="translate(-80.32 -51.6)"/><path class="cls-4" d="M1127.67,311.66c1.88-4.49,5.72-14.24,17.07-8.85s19.73-6.31,27-4.37,14.79,10.09,19.52,9.41,18.9.75,19.77,16.48,14.55,16.31,16,25.53-4.85,13.09,0,21.83,12.13,8.58,6.3,21-12.61,15.68-5.33,26,1.94,20-8.73,24.33c0,0-14.07-14.07-20.86-8.24s-21.48,13.49-28,4.56-17.9-5.53-20.44-.68-14.55-3.88-22.36-3.88-11.7,8.64-11.7,8.64-10.39-2.82-7.18-18.8,10.27-60.67,5.33-73.28S1127.67,311.66,1127.67,311.66Z" transform="translate(-80.32 -51.6)"/><path class="cls-4" d="M1083.64,459.65s35.87-12.07,90,2.66,48.6,33.55,48.6,33.55S1181.36,569.06,1176,652L1059.9,640.73S1047.09,509.45,1083.64,459.65Z" transform="translate(-80.32 -51.6)"/><path class="cls-1" d="M1055.4,648.24h0l2.33-22.86,122.89,12.35-2.56,17.91h0c46.29,82,35.08,175.4,35.08,175.4l5.62,46s-11.62,7.2-89.48,12.28c-68.46,4.46-85.86-2.64-85.86-2.64C1019.13,744.43,1039.94,676.74,1055.4,648.24Z" transform="translate(-80.32 -51.6)"/><path class="cls-12" d="M1218.69,877s-11.59,7.18-89.46,12.25c-68.46,4.49-85.86-2.61-85.86-2.61-.81-4.71-1.54-9.3-2.24-13.83-14.71-94.68-8.79-154.5,1.29-191a157.59,157.59,0,0,1,13-33.55l.85-8.24,1.47-14.6,122.9,12.32L1178,655.63h0c46.27,82,35.09,175.39,35.09,175.39l4.41,36.42Z" transform="translate(-80.32 -51.6)"/><polygon class="cls-4" points="1028.24 598.23 972.95 593.85 973.68 577.1 1029.47 582.95 1028.24 598.23"/><polygon class="cls-4" points="1083.6 602.61 1032.23 598.54 1033.45 583.37 1084.71 588.74 1083.6 602.61"/><polygon class="cls-4" points="1088.7 589.15 1101.74 590.52 1100.08 603.91 1087.59 602.92 1088.7 589.15"/><path class="cls-24" d="M1139.38,724.46c-.26,9.23-.59,16.22-.59,16.22l-23.87,19.5-40.72-18a165.16,165.16,0,0,0,1-19.24c.18-13.79-.37-29.72-.74-38.36-.18-3.94-.29-6.37-.29-6.37l64.59,7.69c.19,1.36.33,3,.44,4.75C1139.9,699.81,1139.71,713.64,1139.38,724.46Z" transform="translate(-80.32 -51.6)"/><path class="cls-24" d="M1201.77,740.2,1186.25,758,1163,743.11a159.81,159.81,0,0,0-1-16.89,344.55,344.55,0,0,0-5.63-35.13c-.7-3.27-1.14-5.22-1.14-5.22h34.43c.33,1,.7,2,1,3a265.81,265.81,0,0,1,8.35,33.62C1200.89,732.88,1201.77,740.2,1201.77,740.2Z" transform="translate(-80.32 -51.6)"/><path class="cls-25" d="M1139.38,724.46c-.26,9.23-.59,16.22-.59,16.22l-23.87,19.5-40.72-18a165.16,165.16,0,0,0,1-19.24c9.42,1.73,25.71,6.73,37.3,21.41C1112.53,744.32,1120.55,728.06,1139.38,724.46Z" transform="translate(-80.32 -51.6)"/><path class="cls-25" d="M1074.49,684.55c-.18-3.94-.29-6.37-.29-6.37l64.59,7.69c.19,1.36.33,3,.44,4.75Z" transform="translate(-80.32 -51.6)"/><path class="cls-25" d="M1190.62,688.89l-34.28,2.2c-.7-3.27-1.14-5.22-1.14-5.22h34.43C1190,686.86,1190.33,687.86,1190.62,688.89Z" transform="translate(-80.32 -51.6)"/><path class="cls-25" d="M1201.77,740.2,1186.25,758,1163,743.11a159.81,159.81,0,0,0-1-16.89A39.75,39.75,0,0,1,1186.25,748s.36-17,12.72-25.45C1200.89,732.88,1201.77,740.2,1201.77,740.2Z" transform="translate(-80.32 -51.6)"/><path class="cls-25" d="M1218.69,877s-11.59,7.18-89.46,12.25c-68.46,4.49-85.86-2.61-85.86-2.61-.81-4.71-1.54-9.3-2.24-13.83,2.13.11,4.52.22,7.14.33-3.46-29.09-13.54-128.16,1.65-182.52a80.44,80.44,0,0,1-7.5-8.83,157.59,157.59,0,0,1,13-33.55l.85-8.24a51.58,51.58,0,0,1,7.5,1.1v3.5s-18.06,64.41-18.06,128.19a646.91,646.91,0,0,0,7.62,100.57c33.43,1.18,97,1.81,164.2-5.92Z" transform="translate(-80.32 -51.6)"/><g class="cls-26"><polygon class="cls-9" points="1028.24 598.23 972.95 593.85 973.68 577.1 1029.47 582.95 1028.24 598.23"/><polygon class="cls-9" points="1083.6 602.61 1032.23 598.54 1033.45 583.37 1084.71 588.74 1083.6 602.61"/><polygon class="cls-9" points="1088.7 589.15 1101.74 590.52 1100.08 603.91 1087.59 602.92 1088.7 589.15"/></g><path class="cls-23" d="M973.34,504.88l-6.41,9.28s34.92,53.85,60.61,49,60.63-56.76,65.48-72.28,9.85-33.83-9.38-31.23-43,71.06-60,78.77S973.34,504.88,973.34,504.88Z" transform="translate(-80.32 -51.6)"/><g id="_Group_" data-name="&lt;Group&gt;"><path class="cls-1" d="M291.75,340.62s58,.54,74.48,8.72S331,412.7,314.18,403.18,275.57,363.64,291.75,340.62Z" transform="translate(-80.32 -51.6)"/><path class="cls-7" d="M291.75,340.62s58,.54,74.48,8.72S331,412.7,314.18,403.18,275.57,363.64,291.75,340.62Z" transform="translate(-80.32 -51.6)"/><path class="cls-1" d="M291.47,1285.68H254.19a2.7,2.7,0,0,0-2.62,2.11l-6,27.33a4.52,4.52,0,0,0,3.49,5.36,4.24,4.24,0,0,0,1,.1c12.06-.19,20.85-.93,36-.93,9.33,0,37.48,1,50.37,1s14.56-12.73,9.29-13.9c-23.66-5.15-41.46-12.29-49-19.09A7.41,7.41,0,0,0,291.47,1285.68Z" transform="translate(-80.32 -51.6)"/><path class="cls-1" d="M449.58,1284.71H412.3a2.69,2.69,0,0,0-2.62,2.1l-6.05,27.33a4.53,4.53,0,0,0,3.49,5.37,4.78,4.78,0,0,0,1,.1c12.06-.2,20.85-.94,36-.94,9.33,0,37.48,1,50.36,1s14.57-12.73,9.3-13.9c-23.66-5.16-41.46-12.3-49-19.09A7.38,7.38,0,0,0,449.58,1284.71Z" transform="translate(-80.32 -51.6)"/><path class="cls-4" d="M271.7,594.58H434.59c15.48,84.57,64,428,29.18,694.65H408.63s5.1-405-43.58-535.85c-5.6,70-62.53,535.57-62.53,535.57H246.38s8.38-175.12,16.79-340.54C268.46,844.24,271.47,616,271.7,594.58Z" transform="translate(-80.32 -51.6)"/><path class="cls-7" d="M365.06,753.39c7.18,19.29,13.16,43.37,18.19,70.47,4.56-62.33-13.66-128.43-13.66-128.43Z" transform="translate(-80.32 -51.6)"/><path class="cls-1" d="M242.43,360.76s78-9.39,158.82.79c0,0,27.13,124.12,29.83,242.9h-164S267,436.84,242.43,360.76Z" transform="translate(-80.32 -51.6)"/><path class="cls-12" d="M242.43,360.76s78-9.39,158.82.79c0,0,27.13,124.12,29.83,242.9h-164S267,436.84,242.43,360.76Z" transform="translate(-80.32 -51.6)"/><path class="cls-27" d="M300.09,364.05c14.09,12.8,48.6,8.07,48.6,8.07s21.55-5.9,17-12.63c-12.69-2.1-18.83-8-21.37-15.6a37,37,0,0,1-1.29-14.49,77.45,77.45,0,0,1,1.07-8.1l-42.67-31.59C307,310.56,313.88,348.93,300.09,364.05Z" transform="translate(-80.32 -51.6)"/><path class="cls-7" d="M311.31,309.79c1.69,25.6,22.73,32.66,33,34.1a37,37,0,0,1-1.29-14.49Z" transform="translate(-80.32 -51.6)"/><path class="cls-4" d="M388.93,230.44s6.37,41.08-15.4,57-22-60.64-22-60.64Z" transform="translate(-80.32 -51.6)"/><path class="cls-27" d="M310.29,320.26c10.64,15.18,27.91,19.11,42.88,14.32a41.55,41.55,0,0,0,23.66-19.38c.71-1.26,1.36-2.59,2-3.95,10.66-25.15,13.94-69.1-12.67-85.48a40.44,40.44,0,0,0-61.67,30.65C301.27,285.8,298,302.92,310.29,320.26Z" transform="translate(-80.32 -51.6)"/><path class="cls-4" d="M347.3,272c-.55,2.32.52,4.49,2.1,4.76s3.12-1.48,3.53-3.84-.55-4.5-2.09-4.75S347.72,269.58,347.3,272Z" transform="translate(-80.32 -51.6)"/><path class="cls-4" d="M374.12,276.48c-.55,2.32.56,4.5,2.1,4.75s3.12-1.47,3.53-3.83-.55-4.5-2.09-4.76S374.51,274.23,374.12,276.48Z" transform="translate(-80.32 -51.6)"/><path class="cls-28" d="M365.41,276.21a85.17,85.17,0,0,0,7.93,22.2,13.9,13.9,0,0,1-11.76.22Z" transform="translate(-80.32 -51.6)"/><path class="cls-4" d="M386,266.69a1.49,1.49,0,0,1-1.45-.27,11.4,11.4,0,0,0-9.8-2.85,1.41,1.41,0,0,1-.75-2.71h0a14,14,0,0,1,12.4,3.43,1.4,1.4,0,0,1,.18,2l0,0A2.39,2.39,0,0,1,386,266.69Z" transform="translate(-80.32 -51.6)"/><path class="cls-4" d="M343.8,260.36a1.29,1.29,0,0,1-.73-.4,1.4,1.4,0,0,1,.45-1.93l0,0a14,14,0,0,1,12.85-1.09,1.4,1.4,0,0,1,.65,1.88h0a1.44,1.44,0,0,1-1.88.65h0a11.37,11.37,0,0,0-10.17,1A1.44,1.44,0,0,1,343.8,260.36Z" transform="translate(-80.32 -51.6)"/><path class="cls-4" d="M331.92,223.66l0,13.11c-4.51,1.76-7.64,6.24-6.29,11.57,2.88,11.37-5.3,27.51-14.44,33.24,0,0,.3-4.75-3.81-4.1s-5.93,25.31.43,37.94c0,0-10.47-12-14-38.53-3.29-24.55-1.69-44.5,4.31-53.13Z" transform="translate(-80.32 -51.6)"/><path class="cls-27" d="M287.71,278.17a28.14,28.14,0,0,0,13.54,16.69c8.7,4.64,15.17-2.64,14.55-12-.62-8.28-5.81-20.93-15.43-21.63S285.21,269.38,287.71,278.17Z" transform="translate(-80.32 -51.6)"/><path class="cls-4" d="M358.5,305.84a77.17,77.17,0,0,0-5.47,9.8c-.64-.17-1.28-.34-1.9-.54-8.6-2.53-11.76-6.54-12.65-10.22a11.56,11.56,0,0,1,.13-5.47,11.22,11.22,0,0,1,1.12-2.92c3.76,4.06,11.6,7,15.85,8.44C357.35,305.54,358.5,305.84,358.5,305.84Z" transform="translate(-80.32 -51.6)"/><path class="cls-9" d="M355.58,304.93l-1.69,2.85c-8.09-2.4-13.47-5.17-15.28-8.37a11.22,11.22,0,0,1,1.12-2.92C343.49,300.55,351.33,303.52,355.58,304.93Z" transform="translate(-80.32 -51.6)"/><path class="cls-28" d="M351.13,315.1c-8.6-2.53-11.76-6.54-12.65-10.22a29,29,0,0,1,9,4.69A11,11,0,0,1,351.13,315.1Z" transform="translate(-80.32 -51.6)"/><path class="cls-4" d="M332,236.77s65.37,22.31,57.83-21.76c0,0-35.26-20.79-66-15s-28.34,37.69-28.34,37.69Z" transform="translate(-80.32 -51.6)"/><path class="cls-1" d="M291.55,351.5s4.39,150-28.43,291.5l-20.69-17.84s9.94-178.39,0-264.4Z" transform="translate(-80.32 -51.6)"/><path class="cls-1" d="M366.23,353.92S409,425,428,638.2l16.78-8.28s-19.14-204.28-43.48-268.37Z" transform="translate(-80.32 -51.6)"/><path class="cls-29" d="M263.13,643l-20.71-17.8s4.27-76.66,4.42-153.69c0-14-.08-28-.41-41.53-.55-25.71-1.76-49.81-4-69.19l49.15-9.27S295.94,501.47,263.13,643Z" transform="translate(-80.32 -51.6)"/><path class="cls-29" d="M366.23,353.92S409,425,428,638.2l16.78-8.28s-19.14-204.28-43.48-268.37Z" transform="translate(-80.32 -51.6)"/><path class="cls-1" d="M291.75,340.62s3.83,12.45,11.49,17.71L291.6,388.62V371.88l-3.3,7.26-14.5-24.29Z" transform="translate(-80.32 -51.6)"/><path class="cls-1" d="M354.81,345.83s13.19,3.89,24,36.64V369l11.54,5.72s-16.61-22.31-20.7-25S354.81,345.83,354.81,345.83Z" transform="translate(-80.32 -51.6)"/><path class="cls-1" d="M380.69,450.74a2.66,2.66,0,0,1-2.5,2.86L307,457.89a2.63,2.63,0,0,1-2.79-2.5l-1.46-25.27L301.33,405a2.64,2.64,0,0,1,2.57-2.79L374,400.25a2.64,2.64,0,0,1,2.72,2.43l2,24.41Z" transform="translate(-80.32 -51.6)"/><path class="cls-30" d="M380.69,450.74a2.66,2.66,0,0,1-2.5,2.86L307,457.89a2.63,2.63,0,0,1-2.79-2.5l-1.46-25.27L301.33,405a2.64,2.64,0,0,1,2.57-2.79L374,400.25a2.64,2.64,0,0,1,2.72,2.43l2,24.41Z" transform="translate(-80.32 -51.6)"/><path class="cls-7" d="M380.69,450.74a2.66,2.66,0,0,1-2.5,2.86L307,457.89a2.63,2.63,0,0,1-2.79-2.5l-1.46-25.27c4.6-9.59,10.75-20.24,15-20.1,7.77.27,4.09,24.62,8.05,27.93S341.66,418.5,343,420.71s1,9.94,1.58,11.88c.44,1.35,22-3,34.18-5.5Z" transform="translate(-80.32 -51.6)"/><path class="cls-31" d="M246.84,471.49c0-14-.08-28-.41-41.53,2.72-6,4.6-9.86,4.6-9.86S261.26,446,246.84,471.49Z" transform="translate(-80.32 -51.6)"/><path class="cls-1" d="M216.68,406.24s-39.46,93.67-47.19,92.81-16.79-23.72-16.79-23.72l-18.77,8.84s14.1,35.89,35.56,45.58,65.9-82.95,65.9-82.95Z" transform="translate(-80.32 -51.6)"/><path class="cls-12" d="M216.68,406.24s-39.46,93.67-47.19,92.81-16.79-23.72-16.79-23.72l-18.77,8.84s14.1,35.89,35.56,45.58,65.9-82.95,65.9-82.95Z" transform="translate(-80.32 -51.6)"/><path class="cls-1" d="M242.43,360.76c-9.86,4.44-57.77,93.11-57.77,93.11l41,28.9,20-28.9s4.79-2.3,4.79-33.58S242.43,360.76,242.43,360.76Z" transform="translate(-80.32 -51.6)"/><rect class="cls-4" x="630.57" y="743.48" width="5.89" height="25.49" rx="0.69" transform="translate(1536.55 625.59) rotate(125.36)"/><path class="cls-4" d="M89.5,363h39.82a0,0,0,0,1,0,0v39a4.22,4.22,0,0,1-4.22,4.22H93.71a4.22,4.22,0,0,1-4.22-4.22V363a0,0,0,0,1,0,0Z" transform="translate(406.03 466.25) rotate(125.36)"/><path class="cls-4" d="M560.3,760.76l73.91,1,4.59-6.47-25.35-69.43h0A162.57,162.57,0,0,1,551.1,659.3L131.9,366.68a5,5,0,0,0-6.88,1.19L98.82,404.8a5,5,0,0,0,1.14,6.89l414.69,299a162.32,162.32,0,0,1,45.65,50.07Z" transform="translate(-80.32 -51.6)"/><path class="cls-32" d="M560.29,760.76a162.15,162.15,0,0,0-45.64-50.11l-100-72.08-3.45-2.49-3.44-2.5L132.2,434.88l-3.45-2.5-3.47-2.46L100,411.65a4.89,4.89,0,0,1-1.13-6.85l26.21-36.94a4.9,4.9,0,0,1,6.84-1.2l25.6,17.86L161,387l3.5,2.42L443.05,583.88l7,4.85L551.1,659.28A166.46,166.46,0,0,0,581.21,676a155.29,155.29,0,0,0,32.23,9.84l1.13,3,1.77,4.85,22.47,61.52-4.6,6.49-65.51-.86-5.17-.06Z" transform="translate(-80.32 -51.6)"/><rect class="cls-4" x="495.84" y="604.13" width="12.9" height="118.33" rx="1.52" transform="translate(1253.6 585.95) rotate(125.36)"/><g class="cls-22"><polygon points="483.22 709.22 534.25 637.28 536.02 642.14 488.38 709.29 483.22 709.22"/></g><g class="cls-22"><path d="M450,588.75l-7-4.85-35.26,49.7,3.44,2.5,3.44,2.49Z" transform="translate(-80.32 -51.6)"/></g><g class="cls-22"><path d="M164.44,389.42,161,387l-3.47-2.47-32.21,45.41,3.47,2.46,3.44,2.49Z" transform="translate(-80.32 -51.6)"/></g><path class="cls-27" d="M452.34,572l-3.46,6.3a16.86,16.86,0,0,0-12.83,4.2s2.43,14.41,3.3,16.26c1.91,4,22.69,13.94,27.67,13.92,1.57,0,3.08-10.54,2.1-13.92-1-3.57-8.36-12.25-8.36-12.25l2.85-5.58Z" transform="translate(-80.32 -51.6)"/><path class="cls-1" d="M410.39,393.82s63.67,46,81.9,96.17C506,527.74,465,586.71,465,586.71L447.9,573.94s28.75-55.56,21.4-78.76-42.49-46.25-42.49-46.25Z" transform="translate(-80.32 -51.6)"/><path class="cls-12" d="M410.39,393.82s63.67,46,81.9,96.17C506,527.74,465,586.71,465,586.71L447.9,573.94s28.75-55.56,21.4-78.76-42.49-46.25-42.49-46.25Z" transform="translate(-80.32 -51.6)"/><path class="cls-1" d="M472.75,443.74l-20.5,35.19-10.11-4.38-17.08-7.41-9.87-43.74-13.93-61.86C418.3,369.74,472.75,443.74,472.75,443.74Z" transform="translate(-80.32 -51.6)"/><path class="cls-27" d="M150.65,476.29l-4.25-13.47s6.28-1.31,6.29-6.83-.54-19-3.14-21.73-17.15-12.32-20.39-14-6.73,10.74-6.86,16.13,11.63,23.17,11.63,23.17L138.64,482Z" transform="translate(-80.32 -51.6)"/><path class="cls-7" d="M442.14,474.55l-17.08-7.41-9.87-43.74C425.5,434.9,441.5,455.12,442.14,474.55Z" transform="translate(-80.32 -51.6)"/></g></svg>