<svg id="Layer_1" enable-background="new 0 0 512.051 512.051" height="512" viewBox="0 0 512.051 512.051" width="512" xmlns="http://www.w3.org/2000/svg"><g><path d="m482.051 46.026h-360c-16.542 0-30 13.458-30 30v28.579c-13.846-12.16-27.799-22.195-40.437-29-21.281-11.459-36.644-12.699-45.664-3.68-9.018 9.018-7.779 24.381 3.68 45.663 9.312 17.292 24.668 37.044 43.241 55.618 12.898 12.898 26.364 24.244 39.181 33.092v129.727c0 16.542 13.458 30 30 30h130v40h-30c-5.522 0-10 4.478-10 10v40c0 5.522 4.478 10 10 10h160c5.522 0 10-4.478 10-10v-40c0-5.522-4.478-10-10-10h-30v-40h130c16.542 0 30-13.458 30-30v-260c-.001-16.541-13.459-29.999-30.001-29.999zm-360 20h360c5.514 0 10 4.486 10 10v220h-380v-77.728c12.007 5.784 20.27 8.395 29.764 7.6-3.777 10.584-1.437 22.882 7.022 31.341 0 .001 0 .001.001.001 8.625 8.624 46.255 23.691 57.583 28.104 3.658 1.431 7.888.573 10.701-2.247 2.805-2.806 3.687-7.004 2.247-10.701-4.413-11.328-19.48-48.958-28.105-57.584-8.459-8.458-20.757-10.799-31.341-7.021.994-8.639-2.158-19.785-9.45-33.327-8.493-15.772-22.016-33.592-38.422-50.697v-47.74c0-5.515 4.486-10.001 10-10.001zm170 256c0-5.523 4.477-10 10-10 13.265.527 13.261 19.475 0 20-5.523 0-10-4.477-10-10zm-129.072-93.072c3.901-3.897 10.245-3.898 14.139-.005 2.554 2.632 8.438 14.666 14.529 28.672-14.002-6.09-26.033-11.973-28.67-14.527-3.896-3.899-3.895-10.242.002-14.14zm-134.154-117.994c-8.63-15.076-9.202-22.779-8.659-24.82 2.042-.54 9.745.03 24.82 8.659 26.985 15.132 62.027 49.111 80.024 76.268l-19.917 19.917c-27.155-17.995-61.139-53.041-76.268-80.024zm343.226 335.066h-140v-20h140zm-40-40h-60v-40h60z"/><path d="m282.051 266.026c35.203 0 64.42-26.122 69.288-60h50.712c3.603 0 6.927-1.938 8.702-5.073 1.774-3.135 1.727-6.982-.127-10.071l-60-100c-3.702-6.418-13.45-6.417-17.15 0l-24.354 40.591c-45.082-19.617-97.669 15.219-97.07 64.554-.001 38.596 31.402 69.999 69.999 69.999zm33.768-106.843c7.628 6.997 13.084 16.324 15.228 26.843h-31.333zm26.232-43.721 42.338 70.563h-33.05c-2.552-17.759-11.794-33.387-25.083-44.238zm-60 30.564c5.828 0 11.427 1.002 16.632 2.844l-25.207 42.012c-1.854 3.089-1.901 6.937-.127 10.071 1.775 3.136 5.1 5.073 8.702 5.073h48.995c-13.421 58.312-97.3 50.353-98.995-10.001 0-27.57 22.43-49.999 50-49.999z"/></g></svg>