<svg xmlns="http://www.w3.org/2000/svg" xmlns:xlink="http://www.w3.org/1999/xlink" viewBox="0 0 2690.37 2139.1"><defs><style>.cls-1,.cls-12,.cls-14,.cls-17,.cls-19,.cls-23,.cls-27,.cls-33,.cls-37,.cls-42,.cls-43,.cls-44,.cls-45,.cls-5,.cls-6{fill:none;}.cls-2{isolation:isolate;}.cls-3{opacity:0.45;}.cls-4{fill:#d3ddf1;}.cls-27,.cls-5,.cls-6{stroke:#fff;}.cls-19,.cls-23,.cls-27,.cls-37,.cls-42,.cls-43,.cls-44,.cls-45,.cls-5{stroke-miterlimit:10;}.cls-44,.cls-45,.cls-5,.cls-6{stroke-width:1.5px;}.cls-12,.cls-14,.cls-17,.cls-33,.cls-6{stroke-linejoin:round;}.cls-7{fill:#eaf0f9;}.cls-8{fill:#ed79af;}.cls-9{fill:#0f123b;}.cls-10{fill:#2a3276;}.cls-11{fill:#212237;}.cls-12,.cls-14{stroke:#cd348b;}.cls-12,.cls-19,.cls-33,.cls-37,.cls-42,.cls-43{stroke-width:0.75px;}.cls-13{fill:#f5855e;}.cls-14,.cls-17{stroke-width:0.5px;}.cls-15{fill:#fff;}.cls-16{fill:#23326b;}.cls-17{stroke:#23326b;stroke-linecap:round;}.cls-18{fill:#f79259;}.cls-19{stroke:#a5302d;}.cls-20{fill:#8a9fd1;}.cls-21{clip-path:url(#clip-path);}.cls-22{opacity:0.19;mix-blend-mode:screen;}.cls-23,.cls-44{stroke:#94abd8;}.cls-23,.cls-27{stroke-width:11px;}.cls-24{fill:#fac6ca;}.cls-25{clip-path:url(#clip-path-2);}.cls-26{opacity:0.25;}.cls-28{fill:#b8c6e6;}.cls-29{clip-path:url(#clip-path-3);}.cls-30{fill:#a5bde2;}.cls-31{clip-path:url(#clip-path-4);}.cls-32{opacity:0.35;}.cls-33{stroke:#253d84;}.cls-34{fill:#ffe1ae;}.cls-35{fill:#cd348b;}.cls-36{fill:#282c68;}.cls-37{stroke:#5666ab;}.cls-38{fill:#4b77bb;}.cls-39{fill:#4c74b9;}.cls-40{fill:#a2cdee;}.cls-41{fill:#816fb2;}.cls-42{stroke:#4c408a;}.cls-43{stroke:#d09a4a;}.cls-45{stroke:#f69a94;}</style><clipPath id="clip-path" transform="translate(-154.81 -73.78)"><path class="cls-1" d="M1938.07,1198.63c-10.91-.77-17.55,11.83-10.67,20.32,13.26,16.37,20.49,36.6,19,58-3.48,49.23-51.77,85.93-107.86,82s-98.73-47.1-95.25-96.34c1.52-21.41,11.52-40.42,27-54.76a12.52,12.52,0,0,0-7.69-21.63l-136.31-9.63a51.74,51.74,0,0,0-55.27,48l-9.32,131.92a12.53,12.53,0,0,0,19.81,11c15.44-10.92,33.82-16.7,53.17-15.33,49.24,3.48,85.94,51.77,82,107.86s-47.1,98.73-96.34,95.24c-19.35-1.36-36.73-9.68-50.48-22.66a12.54,12.54,0,0,0-21.18,8.15l-9.33,131.93a51.75,51.75,0,0,0,48,55.26l448.16,31.69a51.75,51.75,0,0,0,55.26-48l31.69-448.16a51.74,51.74,0,0,0-48-55.26Z"/></clipPath><clipPath id="clip-path-2" transform="translate(-154.81 -73.78)"><path class="cls-1" d="M1393.14,984.63c-49-6.16-83-56.37-76-112.16s52.4-96,101.37-89.87c20.59,2.59,38.5,13,51.84,28.3,7.08,8.13,20.46,4,21.81-6.75l16.84-134a51.74,51.74,0,0,0-44.89-57.79l-445.77-56a51.74,51.74,0,0,0-57.79,44.88l-56,445.77a51.74,51.74,0,0,0,44.89,57.79l136.2,17.12a12.52,12.52,0,0,0,11.69-19.81c-12.67-17.2-19-38.07-16.26-59.65,6.16-49,56.37-83,112.16-76s96,52.4,89.86,101.37c-2.71,21.58-14,40.24-30.51,53.78a12.52,12.52,0,0,0,6.42,22.08l136.2,17.12A51.74,51.74,0,0,0,1453,1116l16.84-134c1.34-10.7-10.59-18.06-19.47-11.93C1433.65,981.58,1413.73,987.21,1393.14,984.63Z"/></clipPath><clipPath id="clip-path-3" transform="translate(-154.81 -73.78)"><path class="cls-1" d="M2041.64,583.43l-449.25-4.66a51.74,51.74,0,0,0-52.28,51.2l-1.38,133c-.1,10.6-12.55,16.37-20.59,9.47-14.68-12.61-32.91-20.16-52.73-20.37-49.36-.51-89.85,44.65-90.43,100.87s39,102.22,88.31,102.73c19.83.21,38.21-7,53.15-19.27,8.18-6.73,20.5-.7,20.39,9.89l-1.38,133a51.75,51.75,0,0,0,51.2,52.28l137.44,1.42a12.52,12.52,0,0,1,8.88,21.23c-15,15.36-24.08,35.26-24.31,57.08-.51,49.36,44.65,89.85,100.88,90.43s102.21-39,102.73-88.31c.22-21.83-8.48-41.91-23.12-57.58a12.52,12.52,0,0,1,9.32-21l137.44,1.43a51.75,51.75,0,0,0,52.27-51.2l4.66-449.26A51.73,51.73,0,0,0,2041.64,583.43Z"/></clipPath><clipPath id="clip-path-4" transform="translate(-154.81 -73.78)"><path class="cls-1" d="M1545.08,1347.85c-20.47,1.15-38.87,10.08-53.17,24.14-7.65,7.53-20.61,2.41-21.21-8.31l-7.53-134.26a51.74,51.74,0,0,0-54.55-48.77l-136.77,7.67a12.52,12.52,0,0,1-10.32-20.53c13.67-16.23,21.3-36.49,20.09-58.07-2.77-49.29-50.51-86.69-106.65-83.54s-99.41,45.65-96.65,94.93c1.21,21.58,11.06,40.87,26.46,55.47a12.52,12.52,0,0,1-8,21.55L960,1205.8a51.73,51.73,0,0,0-48.76,54.55l25.14,448.58A51.74,51.74,0,0,0,991,1757.69l448.57-25.14a51.75,51.75,0,0,0,48.77-54.56l-7.53-134.26c-.6-10.72,11.71-17.26,20.15-10.64,15.79,12.38,35.06,19.2,55.54,18.05,49.28-2.76,86.68-50.51,83.54-106.64S1594.37,1345.09,1545.08,1347.85Z"/></clipPath></defs><g class="cls-2"><g id="Layer_1" data-name="Layer 1"><g class="cls-3"><path class="cls-4" d="M205.71,503.16c.08-.07.59,0,.68,0H512.21c48.11,0,63-1.53,111-.14.55-29.62-7.71-57.55-21.88-72.51-11.64-12.28-31.68-19-48-14.67-20.72,5.48-34.77,19.34-48.2,29.63-4.75-40.81-21.61-78-39.74-86.13-31.19-14-63.8,8.18-78.44,29.7-12.06,17.73-18.67,38.8-21.12,60.1-19.59-21.64-63.39-38.16-79.17-3.83-6.19,13.49-5.69,29-5.06,43.79A91.08,91.08,0,0,0,205.71,503.16Z" transform="translate(-154.81 -73.78)"/></g><g class="cls-3"><path class="cls-4" d="M2457.8,238.67c-5.9-24-61.58-58.94-91.32-37.82-9.15-45.61-17.68-74.06-47.51-96.54s-79.64,6.93-87.62,68.42c-8-25.31-48.65-59.37-81.33-30.62-30.23,26.6-33.25,71.17-30.11,96.56Z" transform="translate(-154.81 -73.78)"/></g><g class="cls-3"><path class="cls-4" d="M2845.19,557.37c-9.2-22.69-26.6-34.85-47.17-37.14-25.93-2.88-52.24,12-52.24,12s9.74-37.45-3.49-66.94c-9-20.12-23.4-39-43.37-44-20.66-5.13-42.59,5-58,20.89s-25.34,37.07-34.18,58.15c-4.57-15-10.65-31.71-24.14-37.27-14-5.74-30.14,4.17-37.45,18.39s-7.7,31.4-6.71,47.68c-16.21-9.72-36.88-12.59-53.1-2.87-10.4,6.23-17.78,18.45-19.38,31.06Z" transform="translate(-154.81 -73.78)"/></g><path class="cls-4" d="M969.49,1069.42c-85-29.11-159.15-86.09-214.41-156.88S637.54,686.36,648.25,555.29c244.86,72.61,344.23,300,359.06,438" transform="translate(-154.81 -73.78)"/><path class="cls-5" d="M648.25,555.29s40.33,315.52,323.37,489.76" transform="translate(-154.81 -73.78)"/><path class="cls-5" d="M648.25,555.29s167,299.26,350.12,481.3" transform="translate(-154.81 -73.78)"/><path class="cls-5" d="M648.25,555.29s246.61,195.82,361.56,463.88" transform="translate(-154.81 -73.78)"/><path class="cls-4" d="M970.33,1590.62c-96.83,36-203.55,37.21-302.94,10.84S402.9,1472.74,320.52,1338.77c236.53-80.51,520.17,28.87,630.33,150.19" transform="translate(-154.81 -73.78)"/><path class="cls-6" d="M320.52,1338.77s257.77,272.69,634.62,226.84" transform="translate(-154.81 -73.78)"/><path class="cls-6" d="M320.52,1338.77s360.31,161.62,652.73,198.57" transform="translate(-154.81 -73.78)"/><path class="cls-6" d="M320.52,1338.77s359.23,2.32,650.79,173.21" transform="translate(-154.81 -73.78)"/><path class="cls-7" d="M1061.11,926.71C979.16,865.81,920.8,778,889.21,681.37S853.7,392.86,920.47,252.51c193.94,152.81,255.8,446.79,214.46,603.37" transform="translate(-154.81 -73.78)"/><path class="cls-6" d="M920.47,252.51S833,612.88,1073.68,900.66" transform="translate(-154.81 -73.78)"/><path class="cls-6" d="M920.47,252.51s59.76,385.65,186.39,648" transform="translate(-154.81 -73.78)"/><path class="cls-6" d="M920.47,252.51s191.26,299.09,206.37,632.71" transform="translate(-154.81 -73.78)"/><path class="cls-4" d="M1803.57,881.48c82.65-15.73,159-58.73,219.67-117.05s139-194.19,146.46-317.17c-236.72,34.87-359,232.59-391.1,358.55" transform="translate(-154.81 -73.78)"/><path class="cls-6" d="M2169.7,447.26s-79.25,287.28-364.87,411.33" transform="translate(-154.81 -73.78)"/><path class="cls-6" d="M2169.7,447.26s-194.62,255.4-388.56,399.94" transform="translate(-154.81 -73.78)"/><path class="cls-6" d="M2169.7,447.26S1915,596.17,1772.84,829.52" transform="translate(-154.81 -73.78)"/><path class="cls-4" d="M2034.92,1549.15c120.91,23,247.91,5.45,361.72-41.36s293.37-189.61,369.51-353c-340.8-79.61-613.38,123.77-724.58,278" transform="translate(-154.81 -73.78)"/><path class="cls-6" d="M2766.15,1154.84s-262,348.35-717.24,363.86" transform="translate(-154.81 -73.78)"/><path class="cls-6" d="M2766.15,1154.84S2407.53,1394.45,2040.2,1462" transform="translate(-154.81 -73.78)"/><path class="cls-6" d="M2766.15,1154.84S2339.68,1220.75,2021,1462" transform="translate(-154.81 -73.78)"/><path class="cls-7" d="M1696.73,849.28c104.07-44.77,189.56-124.68,248.39-220.87s112.19-302.39,76-471c-248.5,115.33-390.53,416.89-386,596.52" transform="translate(-154.81 -73.78)"/><path class="cls-6" d="M2021.15,157.41s2.19,411.45-331.32,660.54" transform="translate(-154.81 -73.78)"/><path class="cls-6" d="M2021.15,157.41s-163.24,401.05-367.09,651.84" transform="translate(-154.81 -73.78)"/><path class="cls-6" d="M2021.15,157.41S1738.1,431.35,1636.39,787.67" transform="translate(-154.81 -73.78)"/><path class="cls-7" d="M953.59,1431.9c-56.35,8.77-152.24,21.86-205.25-13.52-29.3-19.57-34.68-55.74-46.14-87.57-19.61-54.48-59.89-86.51-113.3-95.84-21.37-3.74-44-13.35-54.24-33.79-15.25-30.4,3.52-69.5-8.73-101.39-6.58-17.13-20.86-29.25-32.63-42.87-28.49-33-35.55-81.75-35.55-81.75s34.43,10.89,73-1.14c24.74-7.72,51.59-12.53,77.62-8.41,20.34,3.22,35.58,13.87,49,30,15.8,19,29.06,33.38,51.88,41.27,35.23,12.19,122.54-17.31,132.12,33.26,2.6,13.76-.64,28.66,5.71,41.54,11.5,23.33,39.32,11.48,58.27,17.42,29.16,9.15,61,30.11,73.53,57.47,29.8,65.26,28.42,155.19,11.64,226.07" transform="translate(-154.81 -73.78)"/><path class="cls-6" d="M461.25,976.09c95,102.74,238.91,141.31,331.58,246.48,27.81,31.56,50.06,68.15,76.28,101.21s57.77,63.4,96.38,76.41" transform="translate(-154.81 -73.78)"/><path class="cls-6" d="M527.29,1172.86c49.68,5.35,125.09,4.19,199.94-10,0,0-18.29-96.38-33.75-133.24" transform="translate(-154.81 -73.78)"/><path class="cls-6" d="M528.91,1140.75c54.63,4,100.46.71,164.17-1.87" transform="translate(-154.81 -73.78)"/><path class="cls-6" d="M521,1091.63s46.46,1.55,88.67-4.16" transform="translate(-154.81 -73.78)"/><path class="cls-6" d="M475.32,1029.42c.33.67,14.9,2.39,48.33,1.89" transform="translate(-154.81 -73.78)"/><path class="cls-6" d="M590.93,1076.08c.36.22-21.76-68.21-39-107.21" transform="translate(-154.81 -73.78)"/><path class="cls-6" d="M680.16,1130.47c-.32-.2-21.92-108.44-43.22-153.71" transform="translate(-154.81 -73.78)"/><path class="cls-6" d="M637.27,1251.67c1.67.91,95.23,7.16,172.05-9.12" transform="translate(-154.81 -73.78)"/><path class="cls-6" d="M786,1215s-9.53-115.76-24.52-174.87" transform="translate(-154.81 -73.78)"/><path class="cls-6" d="M860.25,1115.22c10.89,71.33,12.39,212.93,12.39,212.93s-120.54,16.33-170.44,2.66" transform="translate(-154.81 -73.78)"/><path class="cls-6" d="M924.16,1378.43s4.3-160.29-5.14-244.19" transform="translate(-154.81 -73.78)"/><path class="cls-6" d="M711,1362.62s97.13,13.68,179-14.53" transform="translate(-154.81 -73.78)"/><path class="cls-6" d="M944.12,1391.17s28-126.52,7.44-237.62" transform="translate(-154.81 -73.78)"/><path class="cls-7" d="M1729.69,743c25.64-66.23,67.29-131.72,41.68-204.86-14.16-40.44-57.42-57.47-90.51-79.29-56.63-37.33-81.95-94.18-77.76-161.34,1.68-26.87-3-56.72-23.45-74.23-30.41-26.07-80.17-13-113.11-35.79-17.69-12.24-27.54-32.59-39.8-50.27-29.63-42.76-83.29-63.46-83.29-63.46s2.85,44.51-21.55,88.32c-15.66,28.11-28.61,59.51-31.13,92.13-2,25.49,5.92,46.64,20.61,67,17.29,23.9,30,43.57,32.63,73.23,4.12,45.79-53.74,144.46,1.23,168.65,15,6.58,32.84,6.35,45.75,17.25,23.39,19.76,2.17,50.58,3.68,75.07C1397,693.05,1412,737,1439.75,758.92c66.09,52.39,169,73.05,254.38,70.29" transform="translate(-154.81 -73.78)"/><path class="cls-6" d="M1343.53,78.27c90.69,140.9,94.71,325.12,188.84,463.75,28.24,41.59,63.76,77.69,94.15,117.73s56.21,85.88,60.32,136" transform="translate(-154.81 -73.78)"/><path class="cls-6" d="M1482.57,447.56s-104.75-46.16-142.45-74.07" transform="translate(-154.81 -73.78)"/><path class="cls-6" d="M1512.39,201.3c-10.64,67.31-27.08,122.13-47.71,198.82" transform="translate(-154.81 -73.78)"/><path class="cls-6" d="M1458.6,179.54s-11.13,56.78-29.35,106.6" transform="translate(-154.81 -73.78)"/><path class="cls-6" d="M1400.4,108.59c.67.57-1.41,18.68-11.27,59.14" transform="translate(-154.81 -73.78)"/><path class="cls-6" d="M1421.47,260.52c.16.49-71.68-43.35-111.32-74" transform="translate(-154.81 -73.78)"/><path class="cls-6" d="M1458.69,382.36c-.15-.44-117.49-53.56-163.17-90.65" transform="translate(-154.81 -73.78)"/><path class="cls-6" d="M1600.57,260.52c-10.21,38.91-29.82,139.6-88.18,240" transform="translate(-154.81 -73.78)"/><path class="cls-6" d="M1525.69,531.84s-129.27-40.33-192.47-73.2" transform="translate(-154.81 -73.78)"/><path class="cls-6" d="M1673.52,740.15s-183.86-34.6-276.84-66.89" transform="translate(-154.81 -73.78)"/><path class="cls-6" d="M1714.66,477.5s-11.36,121.3-66.25,213.71" transform="translate(-154.81 -73.78)"/><path class="cls-7" d="M2099.57,1322.34c73.12-14.12,154.5-13.61,205.2-77.1,28-35.11,19.07-83,20-124.57,1.61-71.1,38-125.26,100-159,24.8-13.48,48.7-34.27,52.88-62.18,6.21-41.54-33.12-78.46-31.23-120.42,1-22.53,13.6-42.62,22.48-63.35,21.48-50.15,10-109.34,10-109.34s-37.94,27.32-90.45,30.05c-33.7,1.76-68.81,7.75-99.19,23.68-23.74,12.45-38.13,31.24-48,55.61-11.6,28.67-22,50.89-46.87,69.79-38.38,29.16-158.25,32.73-149.12,95,2.49,17,12.65,32.7,10.16,50.25-4.52,31.79-43.72,30.1-64.63,45.09-32.16,23.05-62.78,60.87-66.85,97.71-9.73,87.9,29.22,190.78,79.27,265.13" transform="translate(-154.81 -73.78)"/><path class="cls-6" d="M2475,609c-74.64,159-236,265.25-306.75,426.09-21.21,48.25-33.49,99.92-52.13,149.22s-45,97.77-87.19,129.34" transform="translate(-154.81 -73.78)"/><path class="cls-6" d="M2475,863.78c-59,27.5-152.5,58.57-250.65,74.45,0,0-17.36-118.76-13.56-167.8" transform="translate(-154.81 -73.78)"/><path class="cls-6" d="M2459.72,827.54c-65.72,28-123.56,44-203.18,68.38" transform="translate(-154.81 -73.78)"/><path class="cls-6" d="M2449.09,767.63s-56.64,21.74-111,33.31" transform="translate(-154.81 -73.78)"/><path class="cls-6" d="M2479.69,676.41c-.13.91-17.38,9.15-58.81,22.94" transform="translate(-154.81 -73.78)"/><path class="cls-6" d="M2356.47,779.77c-.35.41-1.42-87.84,3.74-140.13" transform="translate(-154.81 -73.78)"/><path class="cls-6" d="M2269,880.7c.31-.38-17.88-134.2-10.38-195.44" transform="translate(-154.81 -73.78)"/><path class="cls-6" d="M2372.06,1001.72c-1.68,1.77-114.45,49.16-215.91,63.43" transform="translate(-154.81 -73.78)"/><path class="cls-6" d="M2173.52,1023.48s-36.18-137.29-42.2-211.74" transform="translate(-154.81 -73.78)"/><path class="cls-6" d="M2040.62,940.53c16.11,86.75,72.92,250.32,72.92,250.32s155.38-33,211.24-70.18" transform="translate(-154.81 -73.78)"/><path class="cls-6" d="M2070.84,1270.85s-71.69-182.6-94.8-283.18" transform="translate(-154.81 -73.78)"/><path class="cls-6" d="M2327.06,1161.07s-114.08,57.48-226.74,60.21" transform="translate(-154.81 -73.78)"/><path class="cls-6" d="M2051.51,1294.08s-86.87-133.57-107.6-270.21" transform="translate(-154.81 -73.78)"/><path class="cls-8" d="M1803,1023.73c10,20.9,50.39,109,60.37,129.93-32.41,10.35-62.11,23.78-93.89,35.93-13.46,18.11,16.62-17.69,18-37.32" transform="translate(-154.81 -73.78)"/><path class="cls-9" d="M1872.59,1182.68l-18.34,6.33c-.72-1.88-2.19-7.39-3.24-8.9-3.46,1.2-10.66,4.29-11.49,5s-1.41,3-2,5.25a9.21,9.21,0,0,1-5.85,6.42l-72.9,25.16c-9,3.11-14.22-7.41-6.43-16,7.05-7.79,22.44-24.67,23.2-25.14,30-7.14,75.54-28.95,81.32-42.26C1866.55,1143.82,1872.62,1182.42,1872.59,1182.68Z" transform="translate(-154.81 -73.78)"/><path class="cls-8" d="M1795,784.81c1.63,47.64-3.4,143.19,3.07,183.73,4.08,25.5,50,152.3,50,152.3l-60.55,31.43s-51.91-80.2-81.48-175c-19.16-61.43-20.65-129.09-20.65-184.74" transform="translate(-154.81 -73.78)"/><path class="cls-8" d="M1953.12,925.3c17,15.71,87.24,82.56,104.26,98.27-26.26,21.64-48.86,45.12-73.86,68.19-5.79,21.81,8.87-22.59,2.88-41.34" transform="translate(-154.81 -73.78)"/><path class="cls-9" d="M2076.69,1047.11,2062,1059.79c-1.36-1.48-4.77-6-6.3-7.06-2.77,2.39-8.31,7.93-8.81,8.92-.42.82-.21,3.27.07,5.62a9.19,9.19,0,0,1-3,8.14l-58.37,50.41c-7.2,6.22-16-1.61-11.91-12.48,3.67-9.85,11.7-31.23,12.23-31.95,25.2-17.76,59.4-54.91,59.84-69.41C2056.67,1013.25,2076.63,1046.85,2076.69,1047.11Z" transform="translate(-154.81 -73.78)"/><path class="cls-8" d="M1894.06,695s-3.69,140.34,15.6,176.07c22.77,42.16,96.65,105.37,96.65,105.37l-19.91,74s-103.74-57.9-157.89-127.51c-41.1-52.84-43-219.76-43-219.76" transform="translate(-154.81 -73.78)"/><path class="cls-10" d="M1888.32,577.71c73.1,56.41,67.11,282.13,67.11,282.13s-81.27,21.35-147.62,21.35-135.54-10.54-135.54-10.54c4-194.11,38.49-244.57,57.88-277.78" transform="translate(-154.81 -73.78)"/><path class="cls-11" d="M1751.89,269.53s16.49,48,13.84,59.23-39,8.09-48.33,7.61c-.79-24.45,7.38-58.75,7.38-58.75" transform="translate(-154.81 -73.78)"/><path class="cls-8" d="M1757.46,326l3.9,26.75s19.45,12.54,35.8,5.93c17.21-7,16.29-16.38,16.29-16.38l-20.65-49" transform="translate(-154.81 -73.78)"/><path class="cls-8" d="M1730.16,279.06c-.29,34.48,5.86,61.48,28.61,59.73,24-1.85,41.79-21.56,33.2-48.45C1782.94,262.09,1732.16,259.16,1730.16,279.06Z" transform="translate(-154.81 -73.78)"/><path class="cls-12" d="M1759.61,340.76c11.68-1.92,25.85-8.09,32-24" transform="translate(-154.81 -73.78)"/><polygon class="cls-13" points="1633.48 215.1 1633.48 215.1 1633.48 215.1 1633.48 215.1"/><path class="cls-13" d="M1788.26,288.88l0,.31a0,0,0,0,0,0,0s0,0,0,0,0-.2,0-.31,0,0,0,0a0,0,0,0,0,0,0Z" transform="translate(-154.81 -73.78)"/><path class="cls-11" d="M1765.92,276.5c-19.5,5.16-33.29,4.45-46.14-.31,2.07-11.65,9.19-28.3,30.92-28.78,15-13.8,32.7-9,37.57-7.37,12.72,4.13,21.07,11.88,27.85,23.31,11,18.54,13.32,46.67,13.11,62.25-17,4.64-31.17,7.07-42.11,7.69C1787.61,333.31,1780.44,286.66,1765.92,276.5Z" transform="translate(-154.81 -73.78)"/><path class="cls-8" d="M1777.32,299.54a6,6,0,0,1,3.09-5.45c4.81-2.9,9.37,2.8,9.86,8a14.33,14.33,0,0,1-2,8.93c-2.2,3.88-5.85,5.42-8.79,1.86" transform="translate(-154.81 -73.78)"/><path class="cls-14" d="M1748.07,297.42s-4,13.17-2.43,16.05,9,1.13,9,1.13" transform="translate(-154.81 -73.78)"/><path class="cls-15" d="M1747.71,320.72l20.83-3s-.83,11.44-12.38,12.29C1747.93,330.63,1747.71,320.72,1747.71,320.72Z" transform="translate(-154.81 -73.78)"/><path class="cls-16" d="M1739.81,296.31c0,.94,0,1.87,0,2.81a.4.4,0,0,0,.79,0c0-.94,0-1.87-.08-2.81a.35.35,0,0,0-.69,0Z" transform="translate(-154.81 -73.78)"/><path class="cls-17" d="M1744,289.72a5.42,5.42,0,0,0-7.77,1.29" transform="translate(-154.81 -73.78)"/><path class="cls-16" d="M1764.14,295.05c0,.93.06,1.87.14,2.8a.4.4,0,0,0,.79,0c-.06-.94-.15-1.87-.24-2.8a.36.36,0,0,0-.35-.35.35.35,0,0,0-.34.35Z" transform="translate(-154.81 -73.78)"/><path class="cls-17" d="M1760,287.57s4.41-3.09,11.17,1.22" transform="translate(-154.81 -73.78)"/><path class="cls-8" d="M1739.45,469.64c-66.15,91.88-201.22,174.47-201.22,174.47l-27.87-35.29s101.21-84.83,162-182.22" transform="translate(-154.81 -73.78)"/><path class="cls-8" d="M1522.24,599.45c-12.39,10.8-53.93,36.36-53,39.59s15.65-5.58,15.88-2.82S1463.65,654,1465.46,657c2.45,4.1,23.72-12.44,23.72-12.44s-22.3,19.24-19.1,22.25c2.26,2.13,20-11.8,27.56-16.29-7.47,5.87-18.32,16.77-15.92,18.94s14.7-7.08,24.55-13.67c-5.72,4.67-15.63,13.7-13.51,15.8s33.8-18.34,62.78-38.69" transform="translate(-154.81 -73.78)"/><path class="cls-12" d="M1490.41,635.88s16.09.39,22.86-3" transform="translate(-154.81 -73.78)"/><path class="cls-18" d="M1753.7,353.07c-28.89-5.19-54.67,15.46-65.94,33.41-22.67,36.11-35.09,64.65-35.09,64.65l68,41,38.7-121.7" transform="translate(-154.81 -73.78)"/><path class="cls-18" d="M1753.7,353.07c13.47,2.47,16.72,7.29,26.27,4.27a133,133,0,0,0,30.26-14.18c-11.24.76,36.76,9.49,73.45,48.23,12.35,42.44,13.78,84.66,17.34,196.74-91.39,29.55-170.87,4.74-170.87,4.74s-10.37-48.88-22.27-85.09c-16.53-33.35-9.36-70.73,9.12-101.27C1717.59,388,1753.7,353.07,1753.7,353.07Z" transform="translate(-154.81 -73.78)"/><polygon class="cls-15" points="1654.12 257.83 1622.94 284.25 1642.88 305.48 1663.55 274.09 1654.12 257.83"/><polygon class="cls-15" points="1622.94 284.25 1605.29 270.4 1598.88 279.29 1607.34 304.85 1622.94 284.25"/><path class="cls-19" d="M1698.62,469.88c-1.11-21.64,11.69-55.21,11.69-55.21" transform="translate(-154.81 -73.78)"/><path class="cls-20" d="M2039.09,1760.53c-1.25,0-2.51,0-3.76-.13l-448.16-31.69a52.49,52.49,0,0,1-48.65-56.07l9.32-131.92a13.29,13.29,0,0,1,22.44-8.65c14.17,13.39,31.47,21.15,50,22.47,1.85.13,3.73.19,5.57.19,46.69,0,86.21-41.62,90-94.75,1.9-26.94-5.51-52.92-20.88-73.15s-36.8-32.24-60.4-33.9c-1.84-.13-3.71-.2-5.55-.2a81.44,81.44,0,0,0-47.14,15.4,13.34,13.34,0,0,1-7.72,2.49,13.49,13.49,0,0,1-9.82-4.28,13,13,0,0,1-3.45-9.93l9.33-131.93a52.64,52.64,0,0,1,52.3-48.79c1.25,0,2.51,0,3.76.14l136.31,9.63a13.27,13.27,0,0,1,8.15,22.93c-15.79,14.67-25.27,33.94-26.71,54.27-1.67,23.59,7.24,46.52,25.07,64.56s42.54,29.06,69.48,31c2.74.19,5.51.29,8.23.29h0c52.18,0,95.59-35.83,98.82-81.57,1.44-20.32-5.24-40.74-18.81-57.49a13.26,13.26,0,0,1,10.29-21.58c.33,0,.67,0,1,0l136.31,9.64a52.55,52.55,0,0,1,48.66,56.06l-31.69,448.16a52.64,52.64,0,0,1-52.31,48.79Z" transform="translate(-154.81 -73.78)"/><path class="cls-15" d="M1622.51,1176.44c1.23,0,2.47,0,3.71.14l136.31,9.63a12.52,12.52,0,0,1,7.69,21.63c-15.43,14.34-25.43,33.35-27,54.76-3.48,49.24,39.16,92.37,95.25,96.34,2.78.19,5.55.29,8.29.29,52.48,0,96.26-35.47,99.57-82.26,1.51-21.42-5.72-41.65-19-58a12.52,12.52,0,0,1,9.71-20.36c.32,0,.64,0,1,0l136.3,9.64a51.74,51.74,0,0,1,48,55.26l-31.69,448.16a51.75,51.75,0,0,1-51.56,48.09c-1.23,0-2.46,0-3.7-.13L1587.23,1728a51.75,51.75,0,0,1-48-55.26l9.33-131.93a12.53,12.53,0,0,1,21.18-8.15c13.75,13,31.13,21.3,50.48,22.66,1.89.14,3.76.2,5.63.2,46.85,0,86.89-41.51,90.71-95.44,4-56.09-32.74-104.38-82-107.86-1.87-.14-3.74-.2-5.6-.2a82.11,82.11,0,0,0-47.57,15.53,12.52,12.52,0,0,1-19.81-11l9.32-131.92a51.75,51.75,0,0,1,51.56-48.1m0-1.5h0a53.25,53.25,0,0,0-53,49.49l-9.33,131.93a13.79,13.79,0,0,0,3.65,10.49,14.08,14.08,0,0,0,18.53,1.89,80.7,80.7,0,0,1,46.7-15.26c1.83,0,3.67.06,5.5.19,48.33,3.42,84.48,51.09,80.58,106.26-3.73,52.74-42.92,94-89.21,94-1.83,0-3.69-.06-5.52-.19-18.38-1.3-35.52-9-49.56-22.26a14.1,14.1,0,0,0-9.67-3.9,13.91,13.91,0,0,0-14,13l-9.33,131.93a53.24,53.24,0,0,0,49.35,56.86l448.16,31.69c1.27.09,2.55.14,3.81.14a53.23,53.23,0,0,0,53-49.49l31.69-448.16a53.3,53.3,0,0,0-49.35-56.86l-136.31-9.64c-.35,0-.71,0-1.06,0a14,14,0,0,0-10.87,22.81c13.44,16.59,20.07,36.82,18.64,57-3.2,45.35-46.28,80.87-98.07,80.87-2.71,0-5.47-.1-8.18-.29-26.77-1.89-51.27-12.81-69-30.75s-26.51-40.6-24.86-64c1.42-20.14,10.82-39.23,26.47-53.77a14,14,0,0,0-8.61-24.22l-136.31-9.64c-1.26-.09-2.54-.14-3.81-.14Z" transform="translate(-154.81 -73.78)"/><g class="cls-21"><g class="cls-22"><circle class="cls-23" cx="1973.79" cy="1865.72" r="256.14" transform="translate(-895.97 1868.35) rotate(-45)"/><circle class="cls-23" cx="1814.33" cy="1785.94" r="161.84"/><circle class="cls-23" cx="1973.79" cy="1865.72" r="84.71" transform="translate(-573.4 506.13) rotate(-15.13)"/></g></g><path class="cls-24" d="M1401.71,1162a54.3,54.3,0,0,1-6.61-.41l-136.2-17.12a13.26,13.26,0,0,1-6.8-23.41c16.92-13.86,27.66-32.79,30.24-53.29,3-23.47-4.69-46.85-21.52-65.83s-40.89-31.34-67.69-34.71a117.25,117.25,0,0,0-14.47-.91c-49.75,0-91.39,32.78-96.86,76.24-2.57,20.51,3.15,41.5,16.12,59.12a13,13,0,0,1,1.16,13.78,13.19,13.19,0,0,1-11.79,7.33,14.68,14.68,0,0,1-1.75-.11l-136.21-17.13a52.48,52.48,0,0,1-45.53-58.62l56-445.77a52.54,52.54,0,0,1,52-45.95,54.3,54.3,0,0,1,6.61.41l445.77,56a52.54,52.54,0,0,1,45.53,58.62l-16.84,134a13.24,13.24,0,0,1-13.29,11.67,12.88,12.88,0,0,1-9.83-4.53c-13.81-15.86-31.57-25.55-51.36-28a78.83,78.83,0,0,0-9.82-.62c-45.28,0-84.28,38.62-90.72,89.83-7,55.29,26.84,105.23,75.33,111.32a78.23,78.23,0,0,0,9.79.62,82.56,82.56,0,0,0,46.92-15.08,13,13,0,0,1,7.42-2.36,13.4,13.4,0,0,1,10,4.59,13.06,13.06,0,0,1,3.17,10.42l-16.84,134A52.55,52.55,0,0,1,1401.71,1162Z" transform="translate(-154.81 -73.78)"/><path class="cls-15" d="M1011.85,556a51.26,51.26,0,0,1,6.51.41l445.77,56A51.74,51.74,0,0,1,1509,670.18l-16.84,134a12.56,12.56,0,0,1-12.55,11,12.11,12.11,0,0,1-9.26-4.27c-13.34-15.31-31.25-25.71-51.84-28.3a80.88,80.88,0,0,0-9.91-.62c-45,0-84.93,38.49-91.46,90.49-7,55.79,27,106,76,112.16a80.4,80.4,0,0,0,9.88.62A83.2,83.2,0,0,0,1450.36,970a12.23,12.23,0,0,1,7-2.23A12.6,12.6,0,0,1,1469.83,982L1453,1116a51.7,51.7,0,0,1-57.8,44.88L1259,1143.71a12.52,12.52,0,0,1-6.42-22.08c16.53-13.54,27.8-32.2,30.51-53.78,6.16-49-34.07-94.36-89.86-101.37a116.07,116.07,0,0,0-14.56-.92c-49.71,0-92,32.23-97.6,76.9-2.71,21.58,3.59,42.45,16.26,59.65a12.53,12.53,0,0,1-10,19.92,13.47,13.47,0,0,1-1.66-.11l-136.2-17.12A51.74,51.74,0,0,1,904.54,1047l56-445.77A51.75,51.75,0,0,1,1011.85,556m0-1.5a53.29,53.29,0,0,0-52.76,46.6l-56,445.77a53.31,53.31,0,0,0,46.19,59.47l136.2,17.12a14.48,14.48,0,0,0,1.85.12,13.94,13.94,0,0,0,12.46-7.75,13.7,13.7,0,0,0-1.23-14.56c-12.85-17.46-18.53-38.26-16-58.57,5.42-43.09,46.73-75.59,96.11-75.59A115.64,115.64,0,0,1,1193,968c26.62,3.34,50.5,15.58,67.23,34.45s24.26,42,21.34,65.25c-2.56,20.31-13.2,39.06-30,52.8a14,14,0,0,0,7.18,24.73L1395,1162.32a53.2,53.2,0,0,0,59.46-46.18l16.84-134a13.79,13.79,0,0,0-3.35-11,14.17,14.17,0,0,0-10.6-4.84,13.77,13.77,0,0,0-7.85,2.49,81.74,81.74,0,0,1-46.49,15,78.66,78.66,0,0,1-9.69-.61c-48.08-6-81.58-55.61-74.68-110.48,6.39-50.84,45.07-89.18,90-89.18a79.43,79.43,0,0,1,9.73.61c19.6,2.47,37.19,12.08,50.88,27.8a13.65,13.65,0,0,0,10.4,4.78,14,14,0,0,0,14-12.33l16.84-134a53.31,53.31,0,0,0-46.19-59.47l-445.77-56a53.81,53.81,0,0,0-6.7-.42Z" transform="translate(-154.81 -73.78)"/><g class="cls-25"><g class="cls-26"><circle class="cls-27" cx="804.07" cy="532.75" r="256.14"/><circle class="cls-27" cx="798.71" cy="527.39" r="174.53"/><circle class="cls-27" cx="804.07" cy="532.75" r="84.71"/></g></g><path class="cls-28" d="M1809.53,1302.41c-27.37-.28-53-9.91-72.21-27.11s-29.66-40-29.41-64.07c.22-21.14,8.93-41.59,24.53-57.61a11.77,11.77,0,0,0-8.36-19.95l-137.43-1.42a52.5,52.5,0,0,1-52-53l1.38-133a11.64,11.64,0,0,0-3.36-8.4,12.05,12.05,0,0,0-8.5-3.58,11.39,11.39,0,0,0-7.3,2.67c-15.46,12.72-33.71,19.45-52.8,19.45h-.83c-49.7-.51-89.65-46.94-89.06-103.48.28-27.21,9.81-52.75,26.84-71.9s39.59-29.72,63.5-29.72h.84c19.39.2,37.8,7.31,53.22,20.55a11.35,11.35,0,0,0,7.49,2.82A11.9,11.9,0,0,0,1538,762.92l1.39-133a52.65,52.65,0,0,1,52.47-52l449.81,4.67a52.48,52.48,0,0,1,51.94,53L2088.93,1085a52.65,52.65,0,0,1-52.47,51.94l-138.13-1.43a11.77,11.77,0,0,0-8.64,19.78c15.26,16.33,23.55,37,23.33,58.09-.25,23.91-11,46.31-30.33,63.1s-44.81,26-71.93,26Z" transform="translate(-154.81 -73.78)"/><path class="cls-15" d="M1591.84,578.76h.55l449.25,4.66a51.73,51.73,0,0,1,51.2,52.27L2088.18,1085a51.73,51.73,0,0,1-51.73,51.2h-.54l-137.44-1.43h-.14a12.52,12.52,0,0,0-9.18,21c14.64,15.67,23.34,35.75,23.12,57.58-.51,49-45.84,88.32-101.51,88.32h-1.22c-56.23-.58-101.39-41.07-100.88-90.43.23-21.82,9.35-41.72,24.31-57.08a12.52,12.52,0,0,0-8.88-21.23l-137.44-1.42a51.75,51.75,0,0,1-51.2-52.28l1.38-133a12.59,12.59,0,0,0-12.61-12.73,12.13,12.13,0,0,0-7.78,2.84c-14.73,12.13-32.81,19.28-52.32,19.28h-.83c-49.36-.51-88.89-46.5-88.31-102.73.58-55.9,40.61-100.87,89.59-100.87h.84c19.82.21,38,7.76,52.73,20.37a12.13,12.13,0,0,0,8,3,12.58,12.58,0,0,0,12.61-12.47l1.38-133a51.74,51.74,0,0,1,51.73-51.21m0-1.5A53.23,53.23,0,0,0,1538.62,630l-1.39,133a11.15,11.15,0,0,1-11.11,11,10.61,10.61,0,0,1-7-2.64c-15.56-13.36-34.13-20.53-53.7-20.73h-.85c-24.13,0-46.88,10.64-64.06,30s-26.75,45-27,72.39c-.59,57,39.69,103.72,89.8,104.24h.84c19.26,0,37.68-6.79,53.27-19.62a10.7,10.7,0,0,1,6.83-2.5,11.34,11.34,0,0,1,8,3.35,11,11,0,0,1,3.14,7.87l-1.38,133a53.25,53.25,0,0,0,52.69,53.8l137.44,1.42a11,11,0,0,1,7.82,18.68c-15.73,16.15-24.51,36.79-24.74,58.12-.52,50.1,45.4,91.35,102.36,91.94h1.24c27.3,0,53-9.29,72.42-26.16s30.34-39.53,30.59-63.65c.22-21.33-8.14-42.14-23.53-58.62a11,11,0,0,1,8.09-18.51h.12l137.44,1.43h.56a53.25,53.25,0,0,0,53.23-52.69l4.66-449.25a53.28,53.28,0,0,0-52.68-53.79l-449.25-4.66Z" transform="translate(-154.81 -73.78)"/><g class="cls-29"><path class="cls-15" d="M1388.82,661.6a12.11,12.11,0,1,1,9.92-14A12.11,12.11,0,0,1,1388.82,661.6Z" transform="translate(-154.81 -73.78)"/><path class="cls-15" d="M1501.41,642.6a12.1,12.1,0,1,1,9.92-14A12.11,12.11,0,0,1,1501.41,642.6Z" transform="translate(-154.81 -73.78)"/><path class="cls-15" d="M1614,623.61a12.1,12.1,0,1,1,9.92-14A12.1,12.1,0,0,1,1614,623.61Z" transform="translate(-154.81 -73.78)"/><path class="cls-15" d="M1726.57,604.62a12.1,12.1,0,1,1,9.93-14A12.1,12.1,0,0,1,1726.57,604.62Z" transform="translate(-154.81 -73.78)"/><path class="cls-15" d="M1839.16,585.63a12.1,12.1,0,1,1,9.92-14A12.11,12.11,0,0,1,1839.16,585.63Z" transform="translate(-154.81 -73.78)"/><path class="cls-15" d="M1951.74,566.64a12.1,12.1,0,1,1,9.93-13.95A12.11,12.11,0,0,1,1951.74,566.64Z" transform="translate(-154.81 -73.78)"/><path class="cls-15" d="M2064.33,547.65a12.1,12.1,0,1,1,9.92-13.95A12.1,12.1,0,0,1,2064.33,547.65Z" transform="translate(-154.81 -73.78)"/><path class="cls-15" d="M1404.41,754a12.11,12.11,0,1,1,9.93-13.95A12.11,12.11,0,0,1,1404.41,754Z" transform="translate(-154.81 -73.78)"/><circle class="cls-15" cx="1514.98" cy="723.1" r="12.11" transform="translate(-255.36 193.11) rotate(-9.75)"/><path class="cls-15" d="M1629.58,716.05a12.11,12.11,0,1,1,9.92-13.95A12.11,12.11,0,0,1,1629.58,716.05Z" transform="translate(-154.81 -73.78)"/><path class="cls-15" d="M1742.17,697.06a12.11,12.11,0,1,1,9.92-14A12.12,12.12,0,0,1,1742.17,697.06Z" transform="translate(-154.81 -73.78)"/><path class="cls-15" d="M1854.75,678.06a12.1,12.1,0,1,1,9.92-13.95A12.1,12.1,0,0,1,1854.75,678.06Z" transform="translate(-154.81 -73.78)"/><path class="cls-15" d="M1967.33,659.07a12.1,12.1,0,1,1,9.93-14A12.1,12.1,0,0,1,1967.33,659.07Z" transform="translate(-154.81 -73.78)"/><path class="cls-15" d="M2079.92,640.08a12.1,12.1,0,1,1,9.92-14A12.11,12.11,0,0,1,2079.92,640.08Z" transform="translate(-154.81 -73.78)"/><path class="cls-15" d="M1420,846.46a12.1,12.1,0,1,1,9.93-14A12.11,12.11,0,0,1,1420,846.46Z" transform="translate(-154.81 -73.78)"/><path class="cls-15" d="M1532.59,827.47a12.11,12.11,0,1,1,9.92-14A12.11,12.11,0,0,1,1532.59,827.47Z" transform="translate(-154.81 -73.78)"/><path class="cls-15" d="M1645.17,808.48a12.11,12.11,0,1,1,9.93-14A12.11,12.11,0,0,1,1645.17,808.48Z" transform="translate(-154.81 -73.78)"/><path class="cls-15" d="M1757.76,789.49a12.11,12.11,0,1,1,9.92-14A12.1,12.1,0,0,1,1757.76,789.49Z" transform="translate(-154.81 -73.78)"/><path class="cls-15" d="M1870.34,770.5a12.11,12.11,0,1,1,9.93-14A12.11,12.11,0,0,1,1870.34,770.5Z" transform="translate(-154.81 -73.78)"/><path class="cls-15" d="M1982.93,751.51a12.11,12.11,0,1,1,9.92-14A12.1,12.1,0,0,1,1982.93,751.51Z" transform="translate(-154.81 -73.78)"/><path class="cls-15" d="M2095.51,732.52a12.11,12.11,0,1,1,9.93-14A12.11,12.11,0,0,1,2095.51,732.52Z" transform="translate(-154.81 -73.78)"/><path class="cls-15" d="M1435.59,938.89a12.1,12.1,0,1,1,9.93-13.95A12.1,12.1,0,0,1,1435.59,938.89Z" transform="translate(-154.81 -73.78)"/><path class="cls-15" d="M1548.18,919.9A12.1,12.1,0,1,1,1558.1,906,12.11,12.11,0,0,1,1548.18,919.9Z" transform="translate(-154.81 -73.78)"/><path class="cls-15" d="M1660.76,900.91a12.1,12.1,0,1,1,9.93-13.95A12.11,12.11,0,0,1,1660.76,900.91Z" transform="translate(-154.81 -73.78)"/><path class="cls-15" d="M1773.35,881.92a12.1,12.1,0,1,1,9.92-13.95A12.11,12.11,0,0,1,1773.35,881.92Z" transform="translate(-154.81 -73.78)"/><path class="cls-15" d="M1885.93,862.93a12.11,12.11,0,1,1,9.93-13.95A12.11,12.11,0,0,1,1885.93,862.93Z" transform="translate(-154.81 -73.78)"/><path class="cls-15" d="M1998.52,843.94a12.11,12.11,0,1,1,9.92-14A12.11,12.11,0,0,1,1998.52,843.94Z" transform="translate(-154.81 -73.78)"/><path class="cls-15" d="M2111.1,825a12.11,12.11,0,1,1,9.93-14A12.11,12.11,0,0,1,2111.1,825Z" transform="translate(-154.81 -73.78)"/><path class="cls-15" d="M1451.19,1031.33a12.11,12.11,0,1,1,9.92-14A12.11,12.11,0,0,1,1451.19,1031.33Z" transform="translate(-154.81 -73.78)"/><path class="cls-15" d="M1563.77,1012.33a12.1,12.1,0,1,1,9.93-14A12.1,12.1,0,0,1,1563.77,1012.33Z" transform="translate(-154.81 -73.78)"/><path class="cls-15" d="M1676.36,993.34a12.1,12.1,0,1,1,9.92-14A12.11,12.11,0,0,1,1676.36,993.34Z" transform="translate(-154.81 -73.78)"/><path class="cls-15" d="M1788.94,974.35a12.1,12.1,0,1,1,9.92-14A12.11,12.11,0,0,1,1788.94,974.35Z" transform="translate(-154.81 -73.78)"/><path class="cls-15" d="M1901.53,955.36a12.1,12.1,0,1,1,9.92-14A12.12,12.12,0,0,1,1901.53,955.36Z" transform="translate(-154.81 -73.78)"/><path class="cls-15" d="M2014.11,936.37a12.1,12.1,0,1,1,9.92-14A12.11,12.11,0,0,1,2014.11,936.37Z" transform="translate(-154.81 -73.78)"/><path class="cls-15" d="M2126.69,917.38a12.1,12.1,0,1,1,9.93-14A12.11,12.11,0,0,1,2126.69,917.38Z" transform="translate(-154.81 -73.78)"/><path class="cls-15" d="M1466.78,1123.76a12.11,12.11,0,1,1,9.92-14A12.11,12.11,0,0,1,1466.78,1123.76Z" transform="translate(-154.81 -73.78)"/><path class="cls-15" d="M1579.36,1104.77a12.11,12.11,0,1,1,9.93-14A12.11,12.11,0,0,1,1579.36,1104.77Z" transform="translate(-154.81 -73.78)"/><path class="cls-15" d="M1692,1085.78a12.11,12.11,0,1,1,9.92-14A12.1,12.1,0,0,1,1692,1085.78Z" transform="translate(-154.81 -73.78)"/><path class="cls-15" d="M1804.53,1066.79a12.11,12.11,0,1,1,9.93-14A12.11,12.11,0,0,1,1804.53,1066.79Z" transform="translate(-154.81 -73.78)"/><path class="cls-15" d="M1917.12,1047.79a12.1,12.1,0,1,1,9.92-14A12.09,12.09,0,0,1,1917.12,1047.79Z" transform="translate(-154.81 -73.78)"/><path class="cls-15" d="M2029.7,1028.8a12.1,12.1,0,1,1,9.93-13.95A12.1,12.1,0,0,1,2029.7,1028.8Z" transform="translate(-154.81 -73.78)"/><path class="cls-15" d="M2142.29,1009.81a12.1,12.1,0,1,1,9.92-13.95A12.12,12.12,0,0,1,2142.29,1009.81Z" transform="translate(-154.81 -73.78)"/><path class="cls-15" d="M1482.37,1216.19a12.1,12.1,0,1,1,9.92-14A12.11,12.11,0,0,1,1482.37,1216.19Z" transform="translate(-154.81 -73.78)"/><path class="cls-15" d="M1595,1197.2a12.11,12.11,0,1,1,9.93-14A12.11,12.11,0,0,1,1595,1197.2Z" transform="translate(-154.81 -73.78)"/><path class="cls-15" d="M1707.54,1178.21a12.11,12.11,0,1,1,9.92-14A12.11,12.11,0,0,1,1707.54,1178.21Z" transform="translate(-154.81 -73.78)"/><path class="cls-15" d="M1820.12,1159.22a12.11,12.11,0,1,1,9.93-14A12.11,12.11,0,0,1,1820.12,1159.22Z" transform="translate(-154.81 -73.78)"/><path class="cls-15" d="M1932.71,1140.23a12.11,12.11,0,1,1,9.92-14A12.11,12.11,0,0,1,1932.71,1140.23Z" transform="translate(-154.81 -73.78)"/><path class="cls-15" d="M2045.29,1121.24a12.11,12.11,0,1,1,9.93-14A12.11,12.11,0,0,1,2045.29,1121.24Z" transform="translate(-154.81 -73.78)"/><path class="cls-15" d="M2157.88,1102.25a12.11,12.11,0,1,1,9.92-14A12.11,12.11,0,0,1,2157.88,1102.25Z" transform="translate(-154.81 -73.78)"/><path class="cls-15" d="M1498,1308.62a12.1,12.1,0,1,1,9.93-13.95A12.1,12.1,0,0,1,1498,1308.62Z" transform="translate(-154.81 -73.78)"/><path class="cls-15" d="M1610.55,1289.63a12.1,12.1,0,1,1,9.92-14A12.12,12.12,0,0,1,1610.55,1289.63Z" transform="translate(-154.81 -73.78)"/><path class="cls-15" d="M1723.13,1270.64a12.1,12.1,0,1,1,9.92-14A12.11,12.11,0,0,1,1723.13,1270.64Z" transform="translate(-154.81 -73.78)"/><path class="cls-15" d="M1835.72,1251.65a12.11,12.11,0,1,1,9.92-14A12.12,12.12,0,0,1,1835.72,1251.65Z" transform="translate(-154.81 -73.78)"/><path class="cls-15" d="M1948.3,1232.66a12.11,12.11,0,1,1,9.92-14A12.11,12.11,0,0,1,1948.3,1232.66Z" transform="translate(-154.81 -73.78)"/><path class="cls-15" d="M2060.88,1213.67a12.11,12.11,0,1,1,9.93-14A12.11,12.11,0,0,1,2060.88,1213.67Z" transform="translate(-154.81 -73.78)"/><path class="cls-15" d="M2173.47,1194.68a12.11,12.11,0,1,1,9.92-14A12.11,12.11,0,0,1,2173.47,1194.68Z" transform="translate(-154.81 -73.78)"/></g><path class="cls-30" d="M988,1758.52A52.48,52.48,0,0,1,935.68,1709l-25.15-448.58A52.55,52.55,0,0,1,960,1205.05l136.77-7.67a11.77,11.77,0,0,0,7.49-20.26c-16-15.21-25.52-35.09-26.69-56-1.34-24.06,8-47.27,26.46-65.35s43.56-28.85,70.9-30.38c2.2-.12,4.43-.18,6.63-.18,53.87,0,98.15,37.08,100.81,84.43,1.17,20.88-6,41.69-20.27,58.6a11.44,11.44,0,0,0-1.66,12.47,11.68,11.68,0,0,0,10.66,6.84l.71,0,136.77-7.67c1-.05,2-.08,3-.08a52.5,52.5,0,0,1,52.36,49.55l7.53,134.27a11.89,11.89,0,0,0,11.86,11.18,11.32,11.32,0,0,0,8.08-3.36c15.06-14.81,33.61-23.24,53.65-24.36,1.5-.08,3-.12,4.51-.12,48.08,0,88.15,42.81,91.22,97.47,1.53,27.34-6.38,53.56-22.27,73.85s-37.92,32.24-62,33.59c-1.49.09-3,.13-4.49.13-18.44,0-36.26-6.34-51.55-18.34a11.5,11.5,0,0,0-7.11-2.5,12,12,0,0,0-8.68,3.77,11.69,11.69,0,0,0-3.15,8.74l7.53,134.26a52.55,52.55,0,0,1-49.48,55.34L991,1758.44C990,1758.49,989,1758.52,988,1758.52Z" transform="translate(-154.81 -73.78)"/><path class="cls-15" d="M1181.55,1026c53.24,0,97.41,36.38,100.07,83.73,1.21,21.58-6.42,41.84-20.09,58.07a12.52,12.52,0,0,0,9.57,20.55l.75,0,136.77-7.67c1-.05,2-.08,2.94-.08a51.74,51.74,0,0,1,51.61,48.85l7.53,134.26a12.57,12.57,0,0,0,12.61,11.89,12.1,12.1,0,0,0,8.6-3.58c14.3-14.06,32.7-23,53.17-24.14q2.25-.12,4.47-.12c47.36,0,87.42,42.33,90.47,96.77,3.14,56.13-34.26,103.88-83.54,106.64-1.49.09-3,.13-4.45.13-18.81,0-36.45-6.7-51.09-18.18a12.15,12.15,0,0,0-7.57-2.66,12.6,12.6,0,0,0-12.58,13.3l7.53,134.26a51.75,51.75,0,0,1-48.77,54.56L991,1757.69c-1,0-2,.08-2.94.08a51.75,51.75,0,0,1-51.62-48.84l-25.14-448.58A51.73,51.73,0,0,1,960,1205.8l136.77-7.67a12.52,12.52,0,0,0,8-21.55c-15.4-14.6-25.25-33.89-26.46-55.47-2.76-49.28,40.51-91.78,96.65-94.93,2.21-.12,4.4-.19,6.58-.19m0-1.5c-2.21,0-4.45.07-6.67.19-27.51,1.54-52.86,12.41-71.37,30.59s-28,41.65-26.68,65.93c1.18,21.07,10.74,41.12,26.91,56.47a10.79,10.79,0,0,1,2.74,11.73,10.9,10.9,0,0,1-9.76,7.23L960,1204.3a53.3,53.3,0,0,0-50.18,56.14L934.93,1709A53.24,53.24,0,0,0,988,1759.27c1,0,2,0,3-.08L1439.64,1734a53.23,53.23,0,0,0,50.17-56.13l-7.52-134.27a10.85,10.85,0,0,1,3-8.17,11.24,11.24,0,0,1,8.13-3.54,10.74,10.74,0,0,1,6.65,2.34c15.42,12.1,33.41,18.5,52,18.5,1.5,0,3,0,4.53-.13,24.28-1.36,46.48-13.39,62.53-33.88s24-46.83,22.43-74.35c-3.09-55.06-43.49-98.18-92-98.18-1.51,0-3,0-4.55.12-20.23,1.14-39,9.63-54.14,24.57a10.58,10.58,0,0,1-7.55,3.15,11.13,11.13,0,0,1-11.11-10.47l-7.53-134.27a53.24,53.24,0,0,0-53.11-50.26c-1,0-2,0-3,.08l-136.76,7.67-.67,0a10.91,10.91,0,0,1-10-6.41,10.71,10.71,0,0,1,1.56-11.67c14.36-17.06,21.62-38,20.43-59.13-1.3-23.25-12.52-44.8-31.6-60.68s-43.78-24.46-70-24.46Z" transform="translate(-154.81 -73.78)"/><g class="cls-31"><g class="cls-32"><path class="cls-15" d="M672.4,1575.86a12.1,12.1,0,1,1,8.82-14.68A12.09,12.09,0,0,1,672.4,1575.86Z" transform="translate(-154.81 -73.78)"/><path class="cls-15" d="M783.18,1548.22a12.1,12.1,0,1,1,8.82-14.67A12.09,12.09,0,0,1,783.18,1548.22Z" transform="translate(-154.81 -73.78)"/><path class="cls-15" d="M894,1520.59a12.1,12.1,0,1,1,8.82-14.68A12.1,12.1,0,0,1,894,1520.59Z" transform="translate(-154.81 -73.78)"/><path class="cls-15" d="M1004.74,1493a12.1,12.1,0,1,1,8.82-14.67A12.09,12.09,0,0,1,1004.74,1493Z" transform="translate(-154.81 -73.78)"/><path class="cls-15" d="M1115.52,1465.32a12.1,12.1,0,1,1,8.82-14.68A12.1,12.1,0,0,1,1115.52,1465.32Z" transform="translate(-154.81 -73.78)"/><path class="cls-15" d="M1226.3,1437.68a12.1,12.1,0,1,1,8.82-14.67A12.09,12.09,0,0,1,1226.3,1437.68Z" transform="translate(-154.81 -73.78)"/><path class="cls-15" d="M1337.08,1410.05a12.11,12.11,0,1,1,8.82-14.68A12.11,12.11,0,0,1,1337.08,1410.05Z" transform="translate(-154.81 -73.78)"/><path class="cls-15" d="M695.09,1666.81a12.1,12.1,0,1,1,8.82-14.67A12.11,12.11,0,0,1,695.09,1666.81Z" transform="translate(-154.81 -73.78)"/><path class="cls-15" d="M805.87,1639.18a12.11,12.11,0,1,1,8.82-14.68A12.12,12.12,0,0,1,805.87,1639.18Z" transform="translate(-154.81 -73.78)"/><path class="cls-15" d="M916.65,1611.54a12.1,12.1,0,1,1,8.82-14.68A12.11,12.11,0,0,1,916.65,1611.54Z" transform="translate(-154.81 -73.78)"/><path class="cls-15" d="M1027.43,1583.9a12.1,12.1,0,1,1,8.82-14.67A12.09,12.09,0,0,1,1027.43,1583.9Z" transform="translate(-154.81 -73.78)"/><path class="cls-15" d="M1138.21,1556.27a12.1,12.1,0,1,1,8.82-14.68A12.11,12.11,0,0,1,1138.21,1556.27Z" transform="translate(-154.81 -73.78)"/><path class="cls-15" d="M1249,1528.63a12.1,12.1,0,1,1,8.82-14.67A12.11,12.11,0,0,1,1249,1528.63Z" transform="translate(-154.81 -73.78)"/><path class="cls-15" d="M1359.77,1501a12.11,12.11,0,1,1,8.82-14.68A12.11,12.11,0,0,1,1359.77,1501Z" transform="translate(-154.81 -73.78)"/><path class="cls-15" d="M717.78,1757.76a12.1,12.1,0,1,1,8.82-14.67A12.11,12.11,0,0,1,717.78,1757.76Z" transform="translate(-154.81 -73.78)"/><path class="cls-15" d="M828.56,1730.13a12.11,12.11,0,1,1,8.82-14.68A12.11,12.11,0,0,1,828.56,1730.13Z" transform="translate(-154.81 -73.78)"/><path class="cls-15" d="M939.34,1702.49a12.1,12.1,0,1,1,8.82-14.68A12.11,12.11,0,0,1,939.34,1702.49Z" transform="translate(-154.81 -73.78)"/><path class="cls-15" d="M1050.12,1674.86a12.11,12.11,0,1,1,8.82-14.68A12.12,12.12,0,0,1,1050.12,1674.86Z" transform="translate(-154.81 -73.78)"/><path class="cls-15" d="M1160.9,1647.22a12.1,12.1,0,1,1,8.82-14.68A12.11,12.11,0,0,1,1160.9,1647.22Z" transform="translate(-154.81 -73.78)"/><path class="cls-15" d="M1271.68,1619.58a12.1,12.1,0,1,1,8.82-14.67A12.1,12.1,0,0,1,1271.68,1619.58Z" transform="translate(-154.81 -73.78)"/><circle class="cls-15" cx="1379.53" cy="1580.2" r="12.11" transform="matrix(0.51, -0.86, 0.86, 0.51, -838.81, 1883.23)"/><path class="cls-15" d="M740.47,1848.71a12.1,12.1,0,1,1,8.82-14.67A12.11,12.11,0,0,1,740.47,1848.71Z" transform="translate(-154.81 -73.78)"/><path class="cls-15" d="M851.25,1821.08a12.1,12.1,0,1,1,8.82-14.68A12.11,12.11,0,0,1,851.25,1821.08Z" transform="translate(-154.81 -73.78)"/><path class="cls-15" d="M962,1793.44a12.1,12.1,0,1,1,8.82-14.67A12.11,12.11,0,0,1,962,1793.44Z" transform="translate(-154.81 -73.78)"/><path class="cls-15" d="M1072.81,1765.81a12.11,12.11,0,1,1,8.82-14.68A12.12,12.12,0,0,1,1072.81,1765.81Z" transform="translate(-154.81 -73.78)"/><path class="cls-15" d="M1183.59,1738.17a12.1,12.1,0,1,1,8.82-14.68A12.11,12.11,0,0,1,1183.59,1738.17Z" transform="translate(-154.81 -73.78)"/><path class="cls-15" d="M1294.37,1710.53a12.1,12.1,0,1,1,8.82-14.67A12.1,12.1,0,0,1,1294.37,1710.53Z" transform="translate(-154.81 -73.78)"/><circle class="cls-15" cx="1402.22" cy="1671.15" r="12.11" transform="translate(-905.88 1947.15) rotate(-59.23)"/><path class="cls-15" d="M763.16,1939.66A12.1,12.1,0,1,1,772,1925,12.1,12.1,0,0,1,763.16,1939.66Z" transform="translate(-154.81 -73.78)"/><path class="cls-15" d="M873.94,1912a12.1,12.1,0,1,1,8.81-14.68A12.11,12.11,0,0,1,873.94,1912Z" transform="translate(-154.81 -73.78)"/><path class="cls-15" d="M984.72,1884.39a12.1,12.1,0,1,1,8.81-14.67A12.11,12.11,0,0,1,984.72,1884.39Z" transform="translate(-154.81 -73.78)"/><path class="cls-15" d="M1095.5,1856.76a12.11,12.11,0,1,1,8.81-14.68A12.11,12.11,0,0,1,1095.5,1856.76Z" transform="translate(-154.81 -73.78)"/><path class="cls-15" d="M1206.28,1829.12a12.1,12.1,0,1,1,8.81-14.67A12.11,12.11,0,0,1,1206.28,1829.12Z" transform="translate(-154.81 -73.78)"/><circle class="cls-15" cx="1314.13" cy="1789.74" r="12.11" transform="translate(-1060.63 1671.78) rotate(-52.57)"/><path class="cls-15" d="M1427.84,1773.85a12.1,12.1,0,1,1,8.81-14.68A12.11,12.11,0,0,1,1427.84,1773.85Z" transform="translate(-154.81 -73.78)"/><path class="cls-15" d="M785.85,2030.62a12.11,12.11,0,1,1,8.81-14.68A12.12,12.12,0,0,1,785.85,2030.62Z" transform="translate(-154.81 -73.78)"/><path class="cls-15" d="M896.63,2003a12.1,12.1,0,1,1,8.81-14.68A12.11,12.11,0,0,1,896.63,2003Z" transform="translate(-154.81 -73.78)"/><path class="cls-15" d="M1007.41,1975.34a12.1,12.1,0,1,1,8.81-14.67A12.1,12.1,0,0,1,1007.41,1975.34Z" transform="translate(-154.81 -73.78)"/><path class="cls-15" d="M1118.19,1947.71A12.1,12.1,0,1,1,1127,1933,12.11,12.11,0,0,1,1118.19,1947.71Z" transform="translate(-154.81 -73.78)"/><path class="cls-15" d="M1229,1920.07a12.1,12.1,0,1,1,8.81-14.67A12.11,12.11,0,0,1,1229,1920.07Z" transform="translate(-154.81 -73.78)"/><path class="cls-15" d="M1339.75,1892.44a12.11,12.11,0,1,1,8.81-14.68A12.11,12.11,0,0,1,1339.75,1892.44Z" transform="translate(-154.81 -73.78)"/><path class="cls-15" d="M1450.53,1864.8a12.1,12.1,0,1,1,8.81-14.68A12.11,12.11,0,0,1,1450.53,1864.8Z" transform="translate(-154.81 -73.78)"/><path class="cls-15" d="M808.54,2121.57a12.11,12.11,0,1,1,8.81-14.68A12.12,12.12,0,0,1,808.54,2121.57Z" transform="translate(-154.81 -73.78)"/><path class="cls-15" d="M919.32,2093.93a12.1,12.1,0,1,1,8.81-14.68A12.11,12.11,0,0,1,919.32,2093.93Z" transform="translate(-154.81 -73.78)"/><path class="cls-15" d="M1030.1,2066.29a12.1,12.1,0,1,1,8.81-14.67A12.1,12.1,0,0,1,1030.1,2066.29Z" transform="translate(-154.81 -73.78)"/><path class="cls-15" d="M1140.88,2038.66a12.1,12.1,0,1,1,8.81-14.68A12.11,12.11,0,0,1,1140.88,2038.66Z" transform="translate(-154.81 -73.78)"/><path class="cls-15" d="M1251.66,2011a12.1,12.1,0,1,1,8.81-14.67A12.11,12.11,0,0,1,1251.66,2011Z" transform="translate(-154.81 -73.78)"/><circle class="cls-15" cx="1359.51" cy="1971.64" r="12.11" transform="translate(-1184.92 2057.19) rotate(-59.23)"/><path class="cls-15" d="M1473.22,1955.75a12.1,12.1,0,1,1,8.81-14.67A12.11,12.11,0,0,1,1473.22,1955.75Z" transform="translate(-154.81 -73.78)"/><path class="cls-15" d="M831.23,2212.52a12.11,12.11,0,1,1,8.81-14.68A12.11,12.11,0,0,1,831.23,2212.52Z" transform="translate(-154.81 -73.78)"/><path class="cls-15" d="M942,2184.88a12.1,12.1,0,1,1,8.81-14.68A12.11,12.11,0,0,1,942,2184.88Z" transform="translate(-154.81 -73.78)"/><circle class="cls-15" cx="1049.86" cy="2145.5" r="12.11" transform="translate(-1485.61 1877.07) rotate(-59.25)"/><path class="cls-15" d="M1163.57,2129.61a12.1,12.1,0,1,1,8.81-14.68A12.11,12.11,0,0,1,1163.57,2129.61Z" transform="translate(-154.81 -73.78)"/><circle class="cls-15" cx="1271.42" cy="2090.23" r="12.11" transform="translate(-1329.83 2039.42) rotate(-59.23)"/><path class="cls-15" d="M1385.13,2074.34a12.1,12.1,0,1,1,8.81-14.68A12.11,12.11,0,0,1,1385.13,2074.34Z" transform="translate(-154.81 -73.78)"/><path class="cls-15" d="M1495.91,2046.7a12.1,12.1,0,1,1,8.81-14.67A12.11,12.11,0,0,1,1495.91,2046.7Z" transform="translate(-154.81 -73.78)"/></g></g><path class="cls-8" d="M381.35,1119s-4.17,183.88-15.4,247c-12.58,70.67-117.87,213.28-117.87,213.28l24.35,24.12,36.13,17.21s92.05-88,143.94-198.12c45-95.49,47-293.76,47-293.76" transform="translate(-154.81 -73.78)"/><path class="cls-16" d="M355.2,1679.47c1.15-4.36,1.62-9.78.07-12.06l-37.55-55.24c-35.88-6.61-67.16-39-67.16-39L219.16,1608a2.78,2.78,0,0,0,.87,3.82l126.37,79.59C348.94,1693,355.16,1679.61,355.2,1679.47Z" transform="translate(-154.81 -73.78)"/><path class="cls-33" d="M327.5,1621.53a72.37,72.37,0,0,0-15.09,7.6" transform="translate(-154.81 -73.78)"/><path class="cls-33" d="M331.53,1629.58a63.58,63.58,0,0,0-12.63,6.59" transform="translate(-154.81 -73.78)"/><path class="cls-33" d="M335.23,1635.93a89.56,89.56,0,0,0-11.71,6" transform="translate(-154.81 -73.78)"/><line class="cls-33" x1="68.89" y1="1528.53" x2="198.35" y2="1610.06"/><path class="cls-33" d="M239.43,1585.54s29.92,19.93,20.89,39.85" transform="translate(-154.81 -73.78)"/><path class="cls-33" d="M347.57,1656.09s-15.92,6.55-21.06,11" transform="translate(-154.81 -73.78)"/><path class="cls-8" d="M516.48,1195.32s7,107.48,11.95,189.69,14.49,269.86,14.49,269.86l35.58,8.4,39.46-6.58s10.25-162,10.25-269.35c0-111-4.28-268.36-4.28-268.36" transform="translate(-154.81 -73.78)"/><path class="cls-16" d="M687.92,1685.66c-1.37-4.3-3.89-9.12-6.43-10.21L620.15,1649c-33.81,13.7-77.57,3.23-77.57,3.23l-7.81,46.18a2.77,2.77,0,0,0,2.79,2.75l149.33-.76C689.89,1700.41,688,1685.8,687.92,1685.66Z" transform="translate(-154.81 -73.78)"/><path class="cls-33" d="M633.43,1651.67a72.73,72.73,0,0,0-8.65,14.52" transform="translate(-154.81 -73.78)"/><path class="cls-33" d="M641.15,1656.29a63.89,63.89,0,0,0-7.11,12.35" transform="translate(-154.81 -73.78)"/><path class="cls-33" d="M647.68,1659.66A90.45,90.45,0,0,0,641,1671" transform="translate(-154.81 -73.78)"/><line class="cls-33" x1="380.75" y1="1617.44" x2="533.73" y2="1616.66"/><path class="cls-33" d="M539.81,1668.64s35.94.73,39,22.38" transform="translate(-154.81 -73.78)"/><path class="cls-33" d="M668.92,1670s-9.91,14.08-11.86,20.58" transform="translate(-154.81 -73.78)"/><path class="cls-34" d="M513.84,587.39c-19.25-4.39-37.59,8.57-46.12,21.93-2.7,4.24-4.79,8.88-7.82,12.89-19.24,25.46-96.72,17.57-81.39,67.67,1.76,5.75,5.13,11.08,5.63,17.07.63,7.52-3.32,14.56-5.4,21.82-6.74,23.54,9.81,51,33.76,56.13,10.73,2.27,22.67.76,31.94,6.61,8.64,5.45,12.56,15.81,18.68,24,16.73,22.38,50,26.79,76.28,17.24,9.94-3.61,19.88-9.54,24.13-19.22,2.42-5.51,2.82-11.85,6-17,6.09-9.91,19.54-11.55,29.64-17.31,14.5-8.27,23-27.65,16.42-43.34-6.76-16-21.06-30.75-24.34-47.94-1.82-9.58.81-19.61-1.13-29.16A31.36,31.36,0,0,0,579,640.64c-3.91-3.09-8.52-5.21-12.37-8.37-8.11-6.65-9.16-18.52-17.5-25.35s-19.46-9.07-28.41-14.85" transform="translate(-154.81 -73.78)"/><path class="cls-8" d="M549.1,705.39c48.87-13.65,120.65-10.82,177.95-67.45s81.81-99.77,81.81-99.77L853,573S795.06,684.15,743.4,721.52c-67.91,49.12-114.07,56.71-153.06,63.77" transform="translate(-154.81 -73.78)"/><path class="cls-8" d="M796.79,556.65c12.07-18.48,41.25-71.42,45.32-70.84s-5.28,19.11-1.84,19,19.76-27.7,23.68-26C869.25,481,851,508.31,851,508.31s4.73-4.89,8.77-1.6c2.87,2.33-.55,10.58-.55,10.58s5.47-5.44,8.4-3-1,12.26-1,12.26,4.07-2.22,6.88-.06S862,561.65,835.34,604.41" transform="translate(-154.81 -73.78)"/><path class="cls-12" d="M836.38,512s-.78,9.67,0,16.18c1.24,10.48-1.92,16-1.92,16" transform="translate(-154.81 -73.78)"/><path class="cls-35" d="M849.47,510.51c-1.32,3-2.53,6.12-3.56,9.25-.52,1.57-1,3.16-1.34,4.76a12.85,12.85,0,0,0-.4,4.83,1.47,1.47,0,0,0,1.43,1.38,4.16,4.16,0,0,0,2.21-.65,19.36,19.36,0,0,0,3.82-3,64.38,64.38,0,0,0,6.4-7.49.34.34,0,0,1,.47-.07.33.33,0,0,1,.09.43,94.8,94.8,0,0,0-4.27,8.78,42.41,42.41,0,0,0-1.67,4.57,18,18,0,0,0-.55,2.34,6.61,6.61,0,0,0,0,2.3,1.78,1.78,0,0,0,.44.89,1.56,1.56,0,0,0,.9.36,3.84,3.84,0,0,0,2.17-.46,13.68,13.68,0,0,0,3.71-3,46.17,46.17,0,0,0,5.73-7.85.32.32,0,0,1,.57.3c-1.28,2.69-2.5,5.43-3.58,8.21a35.1,35.1,0,0,0-2.39,8.56,4,4,0,0,0,.26,2.09,1.21,1.21,0,0,0,.72.61,2.51,2.51,0,0,0,1,0,9.46,9.46,0,0,0,3.6-2.46,45.07,45.07,0,0,0,5.59-7,45,45,0,0,1-5.43,7.16,9.64,9.64,0,0,1-3.68,2.63,2.85,2.85,0,0,1-1.2,0,1.57,1.57,0,0,1-1-.78,4.42,4.42,0,0,1-.34-2.31,34.84,34.84,0,0,1,2.3-8.72c1-2.82,2.21-5.58,3.51-8.3l.57.3a46.84,46.84,0,0,1-5.78,8,14.46,14.46,0,0,1-3.91,3.14,4.55,4.55,0,0,1-2.56.54,2.25,2.25,0,0,1-1.32-.56,2.38,2.38,0,0,1-.66-1.26,7.2,7.2,0,0,1,0-2.58,20,20,0,0,1,.59-2.43,44.23,44.23,0,0,1,1.71-4.63,96.53,96.53,0,0,1,4.35-8.84l.56.36a61.53,61.53,0,0,1-6.53,7.53,19.94,19.94,0,0,1-4,3.06,4.7,4.7,0,0,1-2.49.68,1.83,1.83,0,0,1-1.26-.56,2.41,2.41,0,0,1-.57-1.22,13.29,13.29,0,0,1,.47-5c.41-1.62.91-3.2,1.47-4.76C846.79,516.56,848.07,513.51,849.47,510.51Z" transform="translate(-154.81 -73.78)"/><path class="cls-34" d="M492.88,596.15" transform="translate(-154.81 -73.78)"/><path class="cls-34" d="M502.45,591.26c-2.31-1.25-5.39-.88-7.36-2.61-3.3-2.91-3.34-7.89-1.94-11.74,2.23-6.15,10.14-8.84,16.16-7.95,14.4,2.13,12.15,16,3.38,21.17" transform="translate(-154.81 -73.78)"/><path class="cls-36" d="M422.91,941.34s-51.67,55.11-61.49,130.14-10,197.18-10,197.18,148.81,27.27,284.1-2.92c-5.17-62.39,0-237-47.24-324.4" transform="translate(-154.81 -73.78)"/><path class="cls-37" d="M378.65,1272.68S374,1084.22,395.83,1020.6c17.16-50,54.91-98.23,54.91-98.23" transform="translate(-154.81 -73.78)"/><path class="cls-38" d="M637.69,691.56l17.6,84.06s-34.46,14-70.15,16c-19.23-.35-48.36-75.21-37.35-89.64C579.88,692.45,637.69,691.56,637.69,691.56Z" transform="translate(-154.81 -73.78)"/><path class="cls-38" d="M419.33,785.89s-2.31,98.52,3.58,155.45c83.08,18.39,165.38,0,165.38,0l5.76-89.48c41.48-42.6,5.11-97.77,5.11-97.77L547.79,702l-51.38-2.84Z" transform="translate(-154.81 -73.78)"/><path class="cls-38" d="M496.41,699.13s-45.67-7.26-89.84,29.06c-10,8.2-22.36,25.29-32.59,45.94l71.2,46.9,42-46.9" transform="translate(-154.81 -73.78)"/><path class="cls-33" d="M612.35,788c-3.51-13.16-13.22-33.92-13.22-46.59" transform="translate(-154.81 -73.78)"/><line class="cls-33" x1="469.44" y1="618.23" x2="489.57" y2="705.75"/><line class="cls-33" x1="225.36" y1="688.74" x2="276.97" y2="720.79"/><path class="cls-8" d="M551.61,607.67s18.88,49.07,4.73,64c-7.36,7.77-32.89,3.46-42.5-3.89-7.14-5.44-16.56-38.09-12.71-44.25C515.82,600,551.61,607.67,551.61,607.67Z" transform="translate(-154.81 -73.78)"/><path class="cls-8" d="M498.33,650.86l-1.92,48.27c3.83,12.16,44.83,23.73,51.38,2.84l-4.09-36.21Z" transform="translate(-154.81 -73.78)"/><path class="cls-34" d="M476.6,645.35c-1.72-4.54-2.07-9.5-2-14.37a55.66,55.66,0,0,1,2.78-18.18A40.34,40.34,0,0,1,498,590.1c9.49-4.47,27.62-8.74,42.33-.05,7.51-.77,15.46,1.34,21,6.43s8.42,13.29,6.38,20.56l-41.94-4.8A39.81,39.81,0,0,1,511,631c-6.47,4.42-13.59,9.94-10.91,19,1.12,3.76-2.95,4.46-2.95,11.74-7.52-.79-18.65-11.55-20.4-15.93C476.71,645.65,476.65,645.5,476.6,645.35Z" transform="translate(-154.81 -73.78)"/><path class="cls-8" d="M504.72,643.05c-4.45-6.88-8.64-6.25-11.21-2.94-3.42,4.41,1.64,14.74,4.26,16.66,5.33,3.91,9.93,4,10.79-.55" transform="translate(-154.81 -73.78)"/><path class="cls-12" d="M544.82,677.17a50.79,50.79,0,0,1-31-9.37" transform="translate(-154.81 -73.78)"/><path class="cls-14" d="M541.24,632.5s12,10.46,11.76,13.73-7.8,4.65-7.8,4.65" transform="translate(-154.81 -73.78)"/><path class="cls-15" d="M554,653.7l-20.27,5.62s5.35,10.14,16.27,6.29C557.8,662.86,554,653.7,554,653.7Z" transform="translate(-154.81 -73.78)"/><path class="cls-16" d="M550.8,628.4c.35.9.71,1.81,1.1,2.69a.38.38,0,0,0,.49.16.39.39,0,0,0,.23-.46c-.37-.9-.78-1.78-1.19-2.65-.16-.35-.77-.1-.63.26Z" transform="translate(-154.81 -73.78)"/><path class="cls-17" d="M545,623.81a5.42,5.42,0,0,1,7.64-1.94" transform="translate(-154.81 -73.78)"/><path class="cls-16" d="M528,637c.28.89.57,1.78.9,2.66a.4.4,0,0,0,.48.27.39.39,0,0,0,.28-.48c-.31-.89-.65-1.76-1-2.63a.35.35,0,0,0-.42-.24.34.34,0,0,0-.24.42Z" transform="translate(-154.81 -73.78)"/><path class="cls-17" d="M529.43,628.28s-5.28-1.06-9.74,5.61" transform="translate(-154.81 -73.78)"/><path class="cls-8" d="M374,774.13c-22.19,44.77-36,110,10.82,129.88,48.83,20.74,176.8-135.92,176.8-135.92l-39.5-34-105.69,68" transform="translate(-154.81 -73.78)"/><line class="cls-12" x1="261.6" y1="728.3" x2="229.99" y2="752.92"/><path class="cls-36" d="M561.84,747.14h0a11.75,11.75,0,0,1-9.37-13.71L561,688.05l23.08,4.34-8.55,45.38A11.73,11.73,0,0,1,561.84,747.14Z" transform="translate(-154.81 -73.78)"/><path class="cls-39" d="M587.56,702.27,569,697.74a24.58,24.58,0,0,1-18.07-29.68h0A24.57,24.57,0,0,1,580.6,650l18.58,4.52A2.06,2.06,0,0,1,600.7,657l-10.65,43.74A2.07,2.07,0,0,1,587.56,702.27Z" transform="translate(-154.81 -73.78)"/><path class="cls-40" d="M601.53,680.38c-3.21,13.18-9.44,23-13.91,21.9s-5.49-12.66-2.28-25.84,9.43-23,13.9-21.91S604.73,667.19,601.53,680.38Z" transform="translate(-154.81 -73.78)"/><path class="cls-36" d="M645.38,743.59s-34.06-29.24-54.21-41.31c-6.32-5.14-4.18-17.26-2.43-23.88,4.52-17.09,10.41-19.32,10.41-19.32,27.37,1.9,70.34-11.15,70.34-11.15" transform="translate(-154.81 -73.78)"/><path class="cls-40" d="M647.6,691.46c-7.5,29.77-6.68,55.64,1.83,57.79s21.5-20.25,29-50,6.68-55.65-1.84-57.79S655.1,661.69,647.6,691.46Z" transform="translate(-154.81 -73.78)"/><path class="cls-39" d="M652.63,692.83c-6.34,25.18-6.28,46.9.13,48.52s16.77-17.48,23.11-42.66,6.29-46.91-.13-48.52S659,667.65,652.63,692.83Z" transform="translate(-154.81 -73.78)"/><path class="cls-36" d="M663.88,707.19a32.19,32.19,0,0,0-14.2-.3c.75-4.48,1.73-9.2,3-14.06s2.6-9.48,4.07-13.78a32.14,32.14,0,0,0,12.64,6.46Z" transform="translate(-154.81 -73.78)"/><path class="cls-34" d="M663.65,695.61c-1.52,6-1.43,11.28.2,11.69s4.2-4.15,5.72-10.2,1.44-11.28-.2-11.69S665.18,689.56,663.65,695.61Z" transform="translate(-154.81 -73.78)"/><path class="cls-8" d="M503,746.4C529.33,729.16,547.82,719,551,717.65c10.58-4.5,22-2.76,30.32.61a17.56,17.56,0,0,1,7.35,5.12,15.66,15.66,0,0,1,3,10.33,2.23,2.23,0,0,1-.71,1.86c-1.31.9-2.54-1.14-3.36-2.5-2.06-3.42-5.53-4.84-9.52-4.85,2,.06,2.92,2,3.8,3.86s-.14,4.48-2.15,4.76a4.47,4.47,0,0,1,1,8.47,3,3,0,0,1,1.72,3.31,7.93,7.93,0,0,1-1.78,3.57c-3.62,4.75-8.12,8.74-12.64,12.64-14.17,12.18-43.51,45.28-43.51,45.28" transform="translate(-154.81 -73.78)"/><path class="cls-8" d="M663.82,1678.91,544.61,1670l-39.1,4,.78,148.22a6.78,6.78,0,0,0,6.81,6.74h0a6.78,6.78,0,0,0,6.31-4.37l30.4-66.12,124.24,14.92" transform="translate(-154.81 -73.78)"/><path class="cls-38" d="M507.94,1835.74c4.91-1.57,10.43-4.44,11.68-7.34l30.19-70.11c-15.66-38.64-3.69-88.66-3.69-88.66l-52.79-3.84a3.16,3.16,0,0,0-3.14,3.18l.87,165.6C491.08,1838,507.79,1835.79,507.94,1835.74Z" transform="translate(-154.81 -73.78)"/><path class="cls-33" d="M546.79,1773.46a83.08,83.08,0,0,0-16.6-9.88" transform="translate(-154.81 -73.78)"/><path class="cls-33" d="M541.51,1782.29a73.21,73.21,0,0,0-14.11-8.13" transform="translate(-154.81 -73.78)"/><path class="cls-33" d="M537.66,1789.75a104.15,104.15,0,0,0-12.95-7.62" transform="translate(-154.81 -73.78)"/><line class="cls-33" x1="346.77" y1="1592.91" x2="347.66" y2="1762.68"/><path class="cls-33" d="M526.84,1668.22s-.28,39.32-25,42.85" transform="translate(-154.81 -73.78)"/><path class="cls-33" d="M525.8,1814s-16.09-11.33-23.51-13.56" transform="translate(-154.81 -73.78)"/><path class="cls-41" d="M872,1434.31c1.77,3.65,24,161,39.83,270.67,9.94,68.67,11.19,112-88.79,103.81-137.67-11.3-233.59-17.53-233.59-17.53l-3.2-123.44,189.18,9-24.64-122.13s-45.75-61-12-130.84" transform="translate(-154.81 -73.78)"/><line class="cls-42" x1="451.87" y1="1595.01" x2="456.86" y2="1717.48"/><path class="cls-42" d="M838.87,1515.82l33.26,193.25a8.53,8.53,0,0,1-9,9.56l-276-17" transform="translate(-154.81 -73.78)"/><path class="cls-8" d="M1014.7,1662.86l-25.17,119.2-1,39.11,153.32-.79a6.78,6.78,0,0,0,6.74-6.81h0a6.79,6.79,0,0,0-4.38-6.3L1078,1776.86l31.21-124.24" transform="translate(-154.81 -73.78)"/><path class="cls-38" d="M1155.24,1818.73c-1.56-4.91-4.44-10.42-7.34-11.67l-70.11-30.2c-38.64,15.67-88.66,3.7-88.66,3.7l-8.92,52.78a3.16,3.16,0,0,0,3.18,3.15l170.68-.88C1157.5,1835.59,1155.29,1818.89,1155.24,1818.73Z" transform="translate(-154.81 -73.78)"/><path class="cls-33" d="M1093,1779.89a83.05,83.05,0,0,0-9.89,16.59" transform="translate(-154.81 -73.78)"/><path class="cls-33" d="M1101.79,1785.16a72.67,72.67,0,0,0-8.12,14.12" transform="translate(-154.81 -73.78)"/><path class="cls-33" d="M1109.25,1789a102.15,102.15,0,0,0-7.61,13" transform="translate(-154.81 -73.78)"/><line class="cls-33" x1="826.29" y1="1751.31" x2="1001.15" y2="1750.41"/><path class="cls-33" d="M986,1799.28s41.08.83,44.61,25.58" transform="translate(-154.81 -73.78)"/><path class="cls-33" d="M1133.53,1800.87s-11.32,16.09-13.56,23.52" transform="translate(-154.81 -73.78)"/><path class="cls-41" d="M935.79,1398.36l8.75,34.36a11.08,11.08,0,0,0,10.74,8.35H1074c29,0,59.68.75,76.28,25.93,13.6,20.65,8.77,55-2.55,94.5-9.71,33.89-44.07,188.32-44.07,188.32H981.51L1016,1565.47H875.09s-91.18.75-78.56-90.67" transform="translate(-154.81 -73.78)"/><line class="cls-42" x1="829.97" y1="1656.94" x2="952.25" y2="1656.94"/><path class="cls-42" d="M891.8,1565.47H875.09s-87.34,0-88.45-90.67" transform="translate(-154.81 -73.78)"/><path class="cls-42" d="M882.12,1427.78s2.22,102.27,88.24,102.27h64.75a12.66,12.66,0,0,1,12.4,15.26l-42.7,204.22" transform="translate(-154.81 -73.78)"/><path class="cls-42" d="M890.54,1470.22c.67,1.83,36.14-8.13,35.47-42.44" transform="translate(-154.81 -73.78)"/><path class="cls-42" d="M816,1484.71s18.61,0,35.52-4.92" transform="translate(-154.81 -73.78)"/><path class="cls-42" d="M726.61,1484.71s17.16.49,30.19,0" transform="translate(-154.81 -73.78)"/><path class="cls-8" d="M830.8,1057.32S873.05,926.23,951.73,820.7l-53.79-32.8c-85.09,92.31-141.14,246.73-141.14,246.73" transform="translate(-154.81 -73.78)"/><path class="cls-34" d="M723.84,1280s-17.59-161.73,49-297.39l78.66,25.69L830.8,1112" transform="translate(-154.81 -73.78)"/><line class="cls-43" x1="612.14" y1="924.05" x2="689.66" y2="950.87"/><path class="cls-8" d="M940.44,835.82c12.69-19.39,58.69-69.54,56.46-73.73s-18.64,13.24-19.82,9.45,22.24-32.3,18.9-35.89c-4.53-4.87-27,25.63-27,25.63s22.91-34.63,17.76-37.72c-3.65-2.18-22.35,23.44-30.72,32.34,7.85-10.8,18.49-29.8,14.65-32s-16.9,15-27.64,27.63c6-8.51,16-24.57,12.54-26.76S908.5,769,874.1,816" transform="translate(-154.81 -73.78)"/><path class="cls-8" d="M882.83,1238.88s80.5,30.85,139.51,34.68c77.4,5,167.38-23.8,167.38-23.8s11.88-63.6-19.08-60.57c-38.16,7-104.17,11.83-153.81,5.81-31-3.75-96.87-39-96.87-39" transform="translate(-154.81 -73.78)"/><path class="cls-8" d="M1153.09,1192.59c23-3,88.09-22.81,90.91-19s-20,11.08-17.1,13.78,38.75-6.07,40.54-1.51c2.43,6.2-34.78,13.23-34.78,13.23s41.14-5.67,41.69.31c.39,4.23-30.81,10-42.45,13.7,13.13-2.4,34.87-3.78,35.18.63s-20.84,8.75-36.87,13c10.25-1.7,29.07-3.78,29.55.27s-50.22,18.29-98.47,29.82" transform="translate(-154.81 -73.78)"/><path class="cls-8" d="M799.61,1087l-11,55.3s31,31.35,63.4,2.17l-.36-37.07Z" transform="translate(-154.81 -73.78)"/><path class="cls-8" d="M858.22,1034.89s26.43,52.87,10.06,70.36c-8.5,9.09-21,12.55-32.19,4.07-8.33-6.29-40.27-44.2-35.84-51.38C817.18,1030.49,858.22,1034.89,858.22,1034.89Z" transform="translate(-154.81 -73.78)"/><path class="cls-8" d="M868.75,1064.68s9.75,9.72,9.75,16.15c0,2.85-9.75,3.28-9.75,3.28" transform="translate(-154.81 -73.78)"/><path class="cls-15" d="M868.28,1089.53,851.11,1087C850.27,1093.52,863.06,1109.76,868.28,1089.53Z" transform="translate(-154.81 -73.78)"/><path class="cls-16" d="M856.63,1064.15a6.59,6.59,0,0,0,.21,2,7.43,7.43,0,0,0,.32.94,2.45,2.45,0,0,0,.56.9.28.28,0,0,0,.46-.26,4.86,4.86,0,0,0-.38-.91,6.11,6.11,0,0,1-.3-.85,7.74,7.74,0,0,1-.28-1.85.3.3,0,0,0-.59,0Z" transform="translate(-154.81 -73.78)"/><path class="cls-17" d="M847.49,1060.63a11,11,0,0,1,8.18-4.84,5.6,5.6,0,0,1,4,1" transform="translate(-154.81 -73.78)"/><path class="cls-9" d="M794.09,1038.84c2.84-18.76,21.93-22.64,57.46-17.35,4.75.71,13.55-1.78,15.38,2.66,2.41,5.84,1.92,17.18-4.13,21.77-5.3,4-12.75,1.89-18.67,4-9.57,3.44-4.84,12.66-9.91,19.4-8.44,11.22-2.86,27.75-16.77,36.31-7.93,4.88-18.06,3.48-27.21,1.78a7.21,7.21,0,0,1-3.17-1.14c-3.14-2.46-1.87-11-2.79-14.75-2.95-11.92-4.6-24.43-3.55-36.68C781.64,1044.21,790.18,1037.77,794.09,1038.84Z" transform="translate(-154.81 -73.78)"/><path class="cls-8" d="M834.57,1072c-1.87-11-10.09-7.22-13.06-3.35-4,5.15,2,17.12,5.07,19.35,6.22,4.51,11.57,4.57,12.54-.72" transform="translate(-154.81 -73.78)"/><path class="cls-12" d="M851.11,1114.92a65,65,0,0,1-19.48-9.67" transform="translate(-154.81 -73.78)"/><path class="cls-34" d="M788.33,1125.39s-48,20.35-62.84,96.22c-6.58,33.75,6.08,215.25,6.08,215.11,104,20.27,215.89-9.67,215.89-9.67s-12.82-118.31-18.66-162.88c-13.49-102.82-84.32-135.5-84.32-135.5Z" transform="translate(-154.81 -73.78)"/><path class="cls-34" d="M844.48,1128.67s40,6.14,65.65,18.4,83.47,40.36,83.47,40.36l-29.7,82.17L859,1236.44" transform="translate(-154.81 -73.78)"/><line class="cls-43" x1="772.88" y1="1183.01" x2="713.97" y2="1165.74"/><line class="cls-43" x1="820.8" y1="1104.9" x2="792.65" y2="1189.34"/><path class="cls-43" d="M730.57,1423.87s101.24,15.34,214.91-7.86" transform="translate(-154.81 -73.78)"/><path class="cls-8" d="M2344,1652.14l25.17,119.2-4,39.11-148.22-.79a6.78,6.78,0,0,1-6.74-6.81h0a6.76,6.76,0,0,1,4.38-6.3l66.12-30.41-31.22-124.24" transform="translate(-154.81 -73.78)"/><path class="cls-10" d="M2203.49,1808c1.57-4.91,4.45-10.42,7.34-11.67l70.11-30.2c38.65,15.67,88.67,3.7,88.67,3.7l3.83,52.78a3.16,3.16,0,0,1-3.18,3.15l-165.59-.88C2201.23,1824.88,2203.44,1808.17,2203.49,1808Z" transform="translate(-154.81 -73.78)"/><path class="cls-37" d="M2265.77,1769.17a82.54,82.54,0,0,1,9.88,16.59" transform="translate(-154.81 -73.78)"/><path class="cls-37" d="M2256.94,1774.44a72.75,72.75,0,0,1,8.13,14.12" transform="translate(-154.81 -73.78)"/><path class="cls-37" d="M2249.48,1778.3a102.93,102.93,0,0,1,7.62,13" transform="translate(-154.81 -73.78)"/><line class="cls-37" x1="2217.73" y1="1740.59" x2="2047.96" y2="1739.69"/><path class="cls-37" d="M2371,1789.11s-39.32.28-42.85,25" transform="translate(-154.81 -73.78)"/><path class="cls-37" d="M2225.2,1790.15s11.33,16.1,13.56,23.52" transform="translate(-154.81 -73.78)"/><path class="cls-38" d="M2290.91,1219.24s-94.84,212.1-89.83,287.22c4.65,70,57.7,247.1,57.7,247.1l113.7-20.84s-54.37-218.8-51.55-241.43,72.26-178.39,72.26-178.39,26.88-36.71,17.66-99.81" transform="translate(-154.81 -73.78)"/><path class="cls-33" d="M2353.47,1736.2s-53-220.87-50.2-243.5,68.54-175.52,68.54-175.52" transform="translate(-154.81 -73.78)"/><line class="cls-33" x1="2212.53" y1="1638.04" x2="2098.48" y2="1661.03"/><path class="cls-8" d="M2508.44,1596.45l53,111,12.92,37.12-134.56,62.16a6.78,6.78,0,0,1-9-3.31h0a6.78,6.78,0,0,1,1.29-7.57l47-55.58-60.65-112.94" transform="translate(-154.81 -73.78)"/><path class="cls-10" d="M2427,1810.89c-.66-5.11-.39-11.33,1.7-13.69l50.69-57.08c41.63-2.2,81.86-34.26,81.86-34.26l25.85,46.17a3.16,3.16,0,0,1-1.54,4.2l-150.33,69.45C2432.07,1827.12,2427,1811.05,2427,1810.89Z" transform="translate(-154.81 -73.78)"/><path class="cls-37" d="M2466.89,1749.29a83.19,83.19,0,0,1,16,10.84" transform="translate(-154.81 -73.78)"/><path class="cls-37" d="M2461.13,1757.82a72,72,0,0,1,13.34,9.33" transform="translate(-154.81 -73.78)"/><path class="cls-37" d="M2456,1764.47a103,103,0,0,1,12.39,8.5" transform="translate(-154.81 -73.78)"/><line class="cls-37" x1="2427.94" y1="1671.16" x2="2273.81" y2="1742.36"/><path class="cls-37" d="M2570.65,1722.72s-35.48,16.93-28.19,40.84" transform="translate(-154.81 -73.78)"/><path class="cls-37" d="M2439.05,1785.5s17.08,9.77,22.25,15.55" transform="translate(-154.81 -73.78)"/><path class="cls-38" d="M2365.9,1225.67s-36.15,200.29-19.09,273.61c19.09,82,101.35,221,101.35,221l102.49-50.92s-88.45-169-88.3-205.43c.09-22.81,20.25-163.37,20.25-163.37s20.25-40.74.45-101.36" transform="translate(-154.81 -73.78)"/><path class="cls-33" d="M2527.05,1681.12S2438.69,1516,2438.74,1469c0-22.81,14-129.17,20.26-163.37s18.42-73.75.44-101.37" transform="translate(-154.81 -73.78)"/><path class="cls-33" d="M2342.44,1431.24c5.39-56.29,11.75-131.83,20.32-199.13" transform="translate(-154.81 -73.78)"/><path class="cls-33" d="M2423,1232.11s6.95,17.25,44.57,27.27" transform="translate(-154.81 -73.78)"/><path class="cls-33" d="M2346.35,1236.21s-5.65,41.28-2.34,46.73c1.52,2.5,13.43,4.75,13.43,4.75" transform="translate(-154.81 -73.78)"/><path class="cls-33" d="M2276.66,1252.41s22.72.58,35.76-14" transform="translate(-154.81 -73.78)"/><line class="cls-33" x1="2386.66" y1="1577.78" x2="2282.76" y2="1628.09"/><path class="cls-10" d="M2322.51,918.6s-43.12,12.39-49.31,94.95c-5.86,33.88,8.21,222.22,8.22,222.07,104.36,18,215.62-14.32,215.62-14.32s-19.48-118-26.9-162.34C2451.52,947.68,2374.57,924,2374.57,924Z" transform="translate(-154.81 -73.78)"/><path class="cls-8" d="M2340.59,919.35a570.7,570.7,0,0,0-64.91-88.72c-51.84-57.68-130.11-106.12-130.11-106.12s-52.94,37.19-28.67,56.66c32.16,21.69,73.26,64.82,104.57,103.82,19.53,24.33,59,98.88,59,98.88" transform="translate(-154.81 -73.78)"/><path class="cls-8" d="M2131.83,791c-18.57-13.87-79-45.24-78.3-49.94s22,6.06,21.87,2.1-32-22.74-30.06-27.26c2.59-6.12,34.12,14.85,34.12,14.85s-33.39-24.69-29.6-29.36c2.68-3.3,29,14.37,39.94,19.86-11.08-7.45-27.58-21.66-24.73-25s21,8.31,35.44,16.49c-8.52-6-23.44-17.61-21-20.84s48.87,20.2,92.62,50.39" transform="translate(-154.81 -73.78)"/><path class="cls-8" d="M2419.69,1056.93s-38.73,77-79.77,119.6c-53.82,55.84-139.76,95.13-139.76,95.13s-51.61-39-26.68-57.63c32.89-20.56,85-61.41,117.61-99.29,20.36-23.63,52.94-97.59,52.94-97.59" transform="translate(-154.81 -73.78)"/><path class="cls-8" d="M2188.74,1204.73c-19,13.22-80.48,42.47-80,47.19s22.24-5.28,21.93-1.33-32.74,21.61-31,26.19c2.38,6.21,34.61-13.65,34.61-13.65s-34.22,23.51-30.6,28.3c2.56,3.4,29.51-13.34,40.6-18.45-11.32,7.06-28.31,20.69-25.58,24.16s21.3-7.57,36-15.25c-8.72,5.65-24,16.78-21.65,20.1s49.43-20.3,92.86-44.28" transform="translate(-154.81 -73.78)"/><path class="cls-10" d="M2342.39,997.24c-10.77,36.24-39.24,96.26-39.24,96.26l77.29,40.73s39.87-48.64,54.94-107.09" transform="translate(-154.81 -73.78)"/><path class="cls-37" d="M2380.44,1134.23s43.28-60.43,50.8-93.08" transform="translate(-154.81 -73.78)"/><path class="cls-37" d="M2303.15,1093.5s28.76-55.7,34.8-82.68" transform="translate(-154.81 -73.78)"/><path class="cls-10" d="M2271.79,1038.1c-1-30.27-15.55-93.51-59-151.36l68.34-54.66s60,48.08,77.16,90.48" transform="translate(-154.81 -73.78)"/><path class="cls-8" d="M2309,831.34s-17.44,48.35-1.92,64.07c8.08,8.16,31.9,9.59,42,1.49,7.52-6,18.67-43.18,14.4-49.7C2347.23,822.32,2309,831.34,2309,831.34Z" transform="translate(-154.81 -73.78)"/><path class="cls-14" d="M2318.76,854.14s-9.36,11.42-9,14.93,8.47,4.8,8.47,4.8" transform="translate(-154.81 -73.78)"/><path class="cls-15" d="M2308.87,877.1l21.87,5.56s-5.5,11-17.3,7.12C2305,887,2308.87,877.1,2308.87,877.1Z" transform="translate(-154.81 -73.78)"/><path class="cls-16" d="M2311.07,849.63c-.42.94-.83,1.9-1.21,2.86a.41.41,0,0,0,.28.49.41.41,0,0,0,.49-.28c.38-.92.73-1.87,1.07-2.81.13-.36-.47-.62-.63-.26Z" transform="translate(-154.81 -73.78)"/><path class="cls-17" d="M2317.85,844.83a5.83,5.83,0,0,0-8.23-1.91" transform="translate(-154.81 -73.78)"/><path class="cls-16" d="M2335.68,858.42c-.36.94-.7,1.88-1,2.84a.39.39,0,0,0,.27.48.4.4,0,0,0,.49-.27c.33-1,.62-1.91.91-2.87a.35.35,0,0,0-.24-.42.34.34,0,0,0-.42.24Z" transform="translate(-154.81 -73.78)"/><path class="cls-17" d="M2334.65,849.27s5.63-1.26,10.57,5.78" transform="translate(-154.81 -73.78)"/><path class="cls-8" d="M2365,875.56l9.55,48.47s-36.59,27.44-56.82-1.76l-.62-31.68Z" transform="translate(-154.81 -73.78)"/><path class="cls-11" d="M2382.46,867.21a47.19,47.19,0,0,1,1.51-5.16c1.47-4.1,3.71-7.71,5.32-11.73A20.86,20.86,0,0,0,2383,826.9a35.63,35.63,0,0,1-3.59-2.88c-2.4-2.49-3.24-6-4.63-9.2a12.84,12.84,0,0,0-5.29-6.41c-5.73-3-13.35,1.08-19.07-2a26.39,26.39,0,0,1-3.41-2.47c-8.2-6.2-17.51-4.76-26.46-1.52-4.18,1.51-5.55,3.16-9,5.87-3.8,3-9.07,2.76-12.9,5.66-4,3-5,8.63-5.07,13.67a12.51,12.51,0,0,0,.84,5.37,10.13,10.13,0,0,0,5.15,4.58c5.13,2.34,10.9,1.44,16.33,1s11.49-4.15,16.69-2.21,6.36,8.12,12.6,8.6c2.46.19,5.45-.26,6.92,1.72,1.66,2.24.79,5.92,2.1,8.51s3.4,4.65,5,6.9c3.15,4.48,7.62,7.55,6,13.39-1.11,4.06-5.62,10.58-3.76,14.88,1.23,2.84,7.47,2.79,12.19-.8s6.31-10.76,7.5-16.38C2381.59,871.18,2382,869.19,2382.46,867.21Z" transform="translate(-154.81 -73.78)"/><path class="cls-8" d="M2360.13,868.2c4.61-7.49,9.12-6.9,11.95-3.41,3.77,4.65-1.41,15.84-4.18,18-5.62,4.31-10.56,4.5-11.59-.35" transform="translate(-154.81 -73.78)"/><path class="cls-12" d="M2319,902.68c17.38.6,31.9-7.72,31.9-7.72" transform="translate(-154.81 -73.78)"/><path class="cls-37" d="M2271,1026.94s1.15-47.27-4.25-61.71" transform="translate(-154.81 -73.78)"/><path class="cls-37" d="M2313.07,930.91s8.59,15,31.84,14.44c26.35-.56,37.25-18.23,37.25-18.23" transform="translate(-154.81 -73.78)"/><path class="cls-8" d="M1855.49,680.62c-2.6,22.35-19.2,74.14-15.94,76.25s11-17.79,13.37-15.59-6.43,32.32-2.57,33.61c5.22,1.76,12.11-28,12.11-28s-5.66,32.82-.66,33.12c3.55.21,9.54-23.52,12.35-32.69-1.69,10.3-4.24,26.55-.56,26.7s7.82-13.88,11-26.48c-1.17,8-4.91,24-1.51,24.26s15.75-35.94,23.63-81.1" transform="translate(-154.81 -73.78)"/><path class="cls-8" d="M1920.8,453.49c16,118.09-19.13,260-19.13,260L1852.89,703s18.3-128.11-2.3-240.64" transform="translate(-154.81 -73.78)"/><path class="cls-18" d="M1818,348.27c23.12,0,47.1,7.48,68.34,24.15C1918.89,398,1927,456.85,1927,456.85l-76.92,15.38s-4.06-49.67-4.66-66.69" transform="translate(-154.81 -73.78)"/><path class="cls-19" d="M1847.31,472.23a222.07,222.07,0,0,0-9.42-43.28" transform="translate(-154.81 -73.78)"/><rect class="cls-44" x="2342.27" y="324.31" width="96.99" height="96.98" transform="translate(1967.85 -2105.74) rotate(74.78)"/><rect class="cls-44" x="215.58" y="1405" width="47.68" height="47.68" transform="translate(1532.18 1296.11) rotate(97.18)"/><circle class="cls-45" cx="2604.8" cy="1488.33" r="38.36" transform="translate(605.14 3780.27) rotate(-81.79)"/><path class="cls-44" d="M1098.91,176.59a19.18,19.18,0,1,1-19.18-19.18A19.18,19.18,0,0,1,1098.91,176.59Z" transform="translate(-154.81 -73.78)"/><path class="cls-44" d="M2688.14,1021.33a19.18,19.18,0,1,1-19.18-19.18A19.18,19.18,0,0,1,2688.14,1021.33Z" transform="translate(-154.81 -73.78)"/><path class="cls-44" d="M2707.32,1417a19.18,19.18,0,1,1-19.18-19.18A19.18,19.18,0,0,1,2707.32,1417Z" transform="translate(-154.81 -73.78)"/><path class="cls-45" d="M193.93,1277.84a19.19,19.19,0,1,1-19.19-19.18A19.19,19.19,0,0,1,193.93,1277.84Z" transform="translate(-154.81 -73.78)"/><path class="cls-44" d="M657.36,247.36l2,12.77A11.49,11.49,0,0,0,671,269.8l8.47-.17a11.49,11.49,0,0,1,11.59,9.68l1.34,8.36A11.49,11.49,0,0,0,704,297.34l8.48-.17a11.49,11.49,0,0,1,11.59,9.67l1.35,8.4A11.49,11.49,0,0,0,737,324.91l10-.2" transform="translate(-154.81 -73.78)"/><path class="cls-44" d="M289.67,1085.9l-4-12.3a11.5,11.5,0,0,0-12.94-7.78l-8.35,1.47a11.48,11.48,0,0,1-12.93-7.78l-2.61-8a11.51,11.51,0,0,0-12.94-7.79l-8.36,1.48a11.49,11.49,0,0,1-12.93-7.78l-2.63-8.09a11.51,11.51,0,0,0-12.93-7.78l-9.89,1.74" transform="translate(-154.81 -73.78)"/><path class="cls-44" d="M2255.58,577.93l12.89-1.1A11.51,11.51,0,0,0,2279,566l.45-8.46a11.49,11.49,0,0,1,10.5-10.85l8.43-.72a11.51,11.51,0,0,0,10.51-10.85l.45-8.47a11.49,11.49,0,0,1,10.49-10.85l8.48-.73a11.51,11.51,0,0,0,10.5-10.84l.53-10" transform="translate(-154.81 -73.78)"/><path class="cls-44" d="M2653.15,764.25l-12.32,4a11.49,11.49,0,0,0-7.82,12.91l1.44,8.35a11.5,11.5,0,0,1-7.82,12.91l-8.06,2.58a11.5,11.5,0,0,0-7.83,12.91l1.45,8.37a11.5,11.5,0,0,1-7.82,12.9l-8.11,2.6a11.49,11.49,0,0,0-7.81,12.91l1.7,9.89" transform="translate(-154.81 -73.78)"/><path class="cls-44" d="M2723.05,1323.74l10.73,7.23a11.49,11.49,0,0,0,15-1.87l5.66-6.3a11.48,11.48,0,0,1,15-1.86l7,4.72a11.5,11.5,0,0,0,15-1.85l5.66-6.32a11.5,11.5,0,0,1,15-1.87l7.06,4.75a11.49,11.49,0,0,0,15-1.86l6.71-7.47" transform="translate(-154.81 -73.78)"/><line class="cls-45" x1="2455.96" y1="848.78" x2="2411.63" y2="876.14"/><line class="cls-45" x1="2008.42" y1="273.83" x2="1967.69" y2="306.31"/><line class="cls-45" x1="1102.15" y1="349.19" x2="1051.43" y2="337.28"/><line class="cls-45" x1="141.39" y1="569.83" x2="102.82" y2="534.81"/></g></g></svg>