<svg width="2691" height="2140" viewBox="0 0 2691 2140" fill="none" xmlns="http://www.w3.org/2000/svg">
<g id="Illustration_01 1" clip-path="url(#clip0)">
<g id="firstpart">
<path id="Vector" d="M1222.9 1108.24C1220.69 1108.24 1218.48 1108.1 1216.29 1107.83L1080.09 1090.71C1077.51 1090.39 1075.09 1089.33 1073.11 1087.65C1071.13 1085.97 1069.69 1083.74 1068.97 1081.25C1068.25 1078.76 1068.27 1076.1 1069.04 1073.63C1069.81 1071.15 1071.28 1068.95 1073.29 1067.3C1090.21 1053.44 1100.95 1034.51 1103.53 1014.01C1106.53 990.54 1098.84 967.16 1082.01 948.18C1065.18 929.2 1041.12 916.84 1014.32 913.47C1009.52 912.868 1004.69 912.565 999.85 912.56C950.1 912.56 908.46 945.34 902.99 988.8C900.42 1009.31 906.14 1030.3 919.11 1047.92C920.58 1049.88 921.469 1052.21 921.674 1054.64C921.879 1057.08 921.393 1059.53 920.27 1061.7C919.18 1063.9 917.5 1065.75 915.417 1067.04C913.335 1068.34 910.932 1069.03 908.48 1069.03C907.895 1069.03 907.311 1068.99 906.73 1068.92L770.52 1051.79C763.681 1050.93 757.079 1048.73 751.089 1045.32C745.1 1041.91 739.841 1037.35 735.613 1031.91C731.385 1026.47 728.271 1020.24 726.448 1013.6C724.625 1006.95 724.13 1000.01 724.99 993.17L780.99 547.4C782.592 534.729 788.754 523.076 798.325 514.619C807.895 506.162 820.218 501.48 832.99 501.45C835.2 501.452 837.407 501.589 839.6 501.86L1285.37 557.86C1299.17 559.61 1311.72 566.765 1320.26 577.754C1328.79 588.744 1332.62 602.671 1330.9 616.48L1314.06 750.48C1313.67 753.721 1312.1 756.706 1309.65 758.86C1307.2 761.014 1304.03 762.185 1300.77 762.15C1298.9 762.153 1297.05 761.75 1295.36 760.968C1293.66 760.185 1292.15 759.043 1290.94 757.62C1277.13 741.76 1259.37 732.07 1239.58 729.62C1236.32 729.209 1233.04 729.002 1229.76 729C1184.48 729 1145.48 767.62 1139.04 818.83C1132.04 874.12 1165.88 924.06 1214.37 930.15C1217.62 930.561 1220.89 930.768 1224.16 930.77C1240.97 930.638 1257.34 925.376 1271.08 915.69C1273.25 914.164 1275.84 913.34 1278.5 913.33C1280.4 913.344 1282.27 913.76 1283.99 914.551C1285.72 915.343 1287.25 916.491 1288.5 917.92C1289.75 919.326 1290.68 920.985 1291.22 922.784C1291.77 924.582 1291.92 926.477 1291.67 928.34L1274.83 1062.34C1273.22 1074.99 1267.06 1086.62 1257.5 1095.06C1247.95 1103.51 1235.65 1108.19 1222.9 1108.24Z" fill="#FAC6CA"/>
<path id="Vector_2" d="M833.04 502.24C835.216 502.238 837.391 502.375 839.55 502.65L1285.32 558.65C1298.93 560.365 1311.3 567.413 1319.71 578.246C1328.13 589.079 1331.9 602.81 1330.19 616.42L1313.35 750.42C1312.97 753.472 1311.48 756.278 1309.17 758.306C1306.85 760.333 1303.88 761.441 1300.8 761.42C1299.04 761.424 1297.3 761.045 1295.7 760.307C1294.1 759.57 1292.68 758.492 1291.54 757.15C1278.2 741.84 1260.29 731.44 1239.7 728.85C1236.41 728.441 1233.1 728.233 1229.79 728.23C1184.79 728.23 1144.86 766.72 1138.33 818.72C1131.33 874.51 1165.33 924.72 1214.33 930.88C1217.61 931.289 1220.91 931.496 1224.21 931.5C1241.18 931.359 1257.7 926.035 1271.55 916.24C1273.6 914.797 1276.04 914.018 1278.55 914.01C1280.34 914.013 1282.11 914.398 1283.74 915.139C1285.37 915.88 1286.82 916.959 1288 918.306C1289.18 919.652 1290.06 921.235 1290.58 922.948C1291.1 924.661 1291.25 926.465 1291.02 928.24L1274.19 1062.24C1273.35 1068.98 1271.18 1075.5 1267.82 1081.4C1264.46 1087.31 1259.96 1092.5 1254.6 1096.67C1249.23 1100.83 1243.09 1103.9 1236.53 1105.7C1229.98 1107.49 1223.13 1107.97 1216.39 1107.12L1080.19 1089.95C1077.76 1089.65 1075.48 1088.64 1073.62 1087.05C1071.76 1085.47 1070.4 1083.37 1069.72 1081.02C1069.03 1078.67 1069.05 1076.18 1069.77 1073.84C1070.49 1071.5 1071.88 1069.43 1073.77 1067.87C1090.3 1054.33 1101.57 1035.67 1104.28 1014.09C1110.44 965.09 1070.21 919.73 1014.42 912.72C1009.59 912.108 1004.73 911.801 999.86 911.8C950.15 911.8 907.86 944.03 902.26 988.7C899.55 1010.28 905.85 1031.15 918.52 1048.35C919.879 1050.21 920.698 1052.41 920.889 1054.7C921.079 1057 920.633 1059.3 919.6 1061.36C918.566 1063.42 916.985 1065.15 915.031 1066.37C913.076 1067.59 910.823 1068.25 908.52 1068.27C907.965 1068.27 907.411 1068.23 906.86 1068.16L770.66 1051.04C763.913 1050.2 757.399 1048.04 751.488 1044.67C745.578 1041.31 740.388 1036.82 736.216 1031.45C732.043 1026.08 728.969 1019.95 727.17 1013.39C725.371 1006.83 724.881 999.986 725.73 993.24L781.73 547.47C783.316 534.979 789.402 523.496 798.847 515.17C808.292 506.844 820.449 502.247 833.04 502.24ZM833.04 500.74C820.084 500.766 807.581 505.512 797.871 514.089C788.16 522.666 781.906 534.486 780.28 547.34L724.28 993.11C722.537 1007.12 726.42 1021.25 735.079 1032.39C743.738 1043.54 756.466 1050.8 770.47 1052.58L906.67 1069.7C907.283 1069.78 907.901 1069.82 908.52 1069.82C911.112 1069.81 913.651 1069.09 915.852 1067.72C918.053 1066.35 919.829 1064.39 920.98 1062.07C922.17 1059.77 922.686 1057.19 922.468 1054.61C922.251 1052.04 921.308 1049.57 919.75 1047.51C906.9 1030.05 901.22 1009.25 903.75 988.94C909.17 945.85 950.48 913.35 999.86 913.35C1004.65 913.35 1009.44 913.647 1014.19 914.24C1040.81 917.58 1064.69 929.82 1081.42 948.69C1098.15 967.56 1105.68 990.69 1102.76 1013.94C1100.2 1034.25 1089.56 1053 1072.76 1066.74C1070.64 1068.48 1069.07 1070.8 1068.26 1073.42C1067.45 1076.04 1067.42 1078.84 1068.18 1081.48C1068.95 1084.11 1070.47 1086.46 1072.56 1088.24C1074.65 1090.02 1077.22 1091.14 1079.94 1091.47L1216.19 1108.56C1223.13 1109.44 1230.17 1108.94 1236.91 1107.09C1243.66 1105.24 1249.97 1102.09 1255.49 1097.8C1261.02 1093.51 1265.64 1088.17 1269.1 1082.09C1272.56 1076.02 1274.78 1069.32 1275.65 1062.38L1292.49 928.38C1292.76 926.413 1292.59 924.413 1292.02 922.514C1291.44 920.616 1290.46 918.865 1289.14 917.38C1287.82 915.868 1286.19 914.654 1284.36 913.82C1282.53 912.985 1280.55 912.549 1278.54 912.54C1275.73 912.55 1272.99 913.419 1270.69 915.03C1257.08 924.652 1240.86 929.886 1224.2 930.03C1220.96 930.026 1217.72 929.823 1214.51 929.42C1166.43 923.42 1132.93 873.81 1139.83 818.94C1146.22 768.1 1184.9 729.76 1229.83 729.76C1233.08 729.764 1236.33 729.968 1239.56 730.37C1259.16 732.84 1276.75 742.45 1290.44 758.17C1291.72 759.672 1293.32 760.877 1295.11 761.703C1296.91 762.528 1298.86 762.954 1300.84 762.95C1304.28 762.975 1307.61 761.731 1310.19 759.457C1312.78 757.182 1314.43 754.037 1314.84 750.62L1331.68 616.62C1333.42 602.612 1329.54 588.484 1320.88 577.335C1312.22 566.186 1299.49 558.927 1285.49 557.15L839.72 501.15C837.498 500.871 835.26 500.73 833.02 500.73L833.04 500.74Z" fill="white"/>
</g>
<g id="secondpart">
<path id="Vector_3" d="M1630.72 1248.65C1603.35 1248.37 1577.72 1238.74 1558.51 1221.54C1539.3 1204.34 1528.85 1181.54 1529.1 1157.47C1529.32 1136.33 1538.03 1115.88 1553.63 1099.86C1555.23 1098.2 1556.31 1096.12 1556.73 1093.85C1557.16 1091.59 1556.91 1089.25 1556.02 1087.13C1555.13 1085.01 1553.64 1083.19 1551.73 1081.91C1549.82 1080.62 1547.57 1079.93 1545.27 1079.91L1407.84 1078.49C1400.95 1078.42 1394.13 1077 1387.79 1074.3C1381.44 1071.6 1375.69 1067.68 1370.86 1062.76C1366.03 1057.84 1362.22 1052.01 1359.64 1045.62C1357.07 1039.22 1355.77 1032.38 1355.84 1025.49L1357.22 892.49C1357.25 890.936 1356.97 889.393 1356.39 887.95C1355.81 886.508 1354.95 885.195 1353.86 884.09C1352.75 882.964 1351.42 882.069 1349.97 881.455C1348.51 880.84 1346.94 880.519 1345.36 880.51C1342.69 880.516 1340.1 881.462 1338.06 883.18C1322.6 895.9 1304.35 902.63 1285.26 902.63H1284.43C1234.73 902.12 1194.78 855.69 1195.37 799.15C1195.65 771.94 1205.18 746.4 1222.21 727.25C1239.24 708.1 1261.8 697.53 1285.71 697.53H1286.55C1305.94 697.73 1324.35 704.84 1339.77 718.08C1341.84 719.898 1344.5 720.901 1347.26 720.9C1350.39 720.908 1353.4 719.68 1355.64 717.482C1357.87 715.284 1359.15 712.293 1359.19 709.16L1360.58 576.16C1360.75 562.34 1366.35 549.142 1376.16 539.413C1385.98 529.685 1399.23 524.206 1413.05 524.16L1862.86 528.83C1876.78 528.973 1890.06 534.636 1899.8 544.575C1909.54 554.514 1914.94 567.915 1914.8 581.83L1910.12 1031.24C1909.93 1045.05 1904.33 1058.23 1894.51 1067.95C1884.7 1077.66 1871.46 1083.13 1857.65 1083.18L1719.52 1081.75C1717.23 1081.75 1714.98 1082.41 1713.07 1083.67C1711.15 1084.92 1709.64 1086.71 1708.72 1088.81C1707.8 1090.91 1707.52 1093.23 1707.9 1095.49C1708.28 1097.75 1709.32 1099.85 1710.88 1101.53C1726.14 1117.86 1734.43 1138.53 1734.21 1159.62C1733.96 1183.53 1723.21 1205.93 1703.88 1222.72C1684.55 1239.51 1659.07 1248.72 1631.95 1248.72L1630.72 1248.65Z" fill="#B8C6E6"/>
<path id="Vector_4" d="M1413.03 525H1413.58L1862.83 529.66C1869.62 529.729 1876.34 531.136 1882.59 533.801C1888.84 536.465 1894.5 540.335 1899.26 545.189C1904.01 550.043 1907.76 555.786 1910.3 562.09C1912.83 568.394 1914.1 575.136 1914.03 581.93L1909.37 1031.24C1909.23 1044.87 1903.72 1057.89 1894.03 1067.48C1884.35 1077.06 1871.27 1082.44 1857.64 1082.44H1857.1L1719.66 1081.01H1719.52C1717.09 1081.02 1714.72 1081.73 1712.68 1083.06C1710.65 1084.39 1709.05 1086.29 1708.08 1088.52C1707.11 1090.74 1706.8 1093.2 1707.2 1095.6C1707.6 1097.99 1708.69 1100.22 1710.34 1102.01C1724.98 1117.68 1733.68 1137.76 1733.46 1159.59C1732.95 1208.59 1687.62 1247.91 1631.95 1247.91H1630.73C1574.5 1247.33 1529.34 1206.84 1529.85 1157.48C1530.08 1135.66 1539.2 1115.76 1554.16 1100.4C1555.86 1098.64 1557.01 1096.42 1557.47 1094.01C1557.92 1091.61 1557.66 1089.12 1556.72 1086.86C1555.77 1084.6 1554.18 1082.67 1552.15 1081.3C1550.12 1079.93 1547.73 1079.19 1545.28 1079.17L1407.84 1077.75C1394.12 1077.6 1381.02 1072.02 1371.41 1062.21C1361.81 1052.41 1356.5 1039.19 1356.64 1025.47L1358.02 892.47C1358.04 890.803 1357.73 889.149 1357.1 887.604C1356.47 886.059 1355.55 884.654 1354.38 883.47C1353.2 882.286 1351.81 881.346 1350.27 880.706C1348.73 880.065 1347.08 879.737 1345.41 879.74C1342.56 879.745 1339.81 880.75 1337.63 882.58C1322.9 894.71 1304.82 901.86 1285.31 901.86H1284.48C1235.12 901.35 1195.59 855.36 1196.17 799.13C1196.75 743.23 1236.78 698.26 1285.76 698.26H1286.6C1306.42 698.47 1324.6 706.02 1339.33 718.63C1341.54 720.567 1344.39 721.633 1347.33 721.63C1350.65 721.638 1353.84 720.331 1356.21 717.995C1358.57 715.659 1359.91 712.483 1359.94 709.16L1361.32 576.16C1361.46 562.531 1366.97 549.508 1376.66 539.92C1386.34 530.331 1399.42 524.952 1413.05 524.95L1413.03 525ZM1413.05 523.45C1399.01 523.447 1385.53 528.993 1375.56 538.881C1365.59 548.769 1359.93 562.197 1359.81 576.24L1358.42 709.24C1358.38 712.164 1357.19 714.956 1355.12 717.013C1353.04 719.071 1350.23 720.23 1347.31 720.24C1344.73 720.239 1342.25 719.301 1340.31 717.6C1324.75 704.24 1306.18 697.07 1286.61 696.87H1285.76C1261.63 696.87 1238.88 707.51 1221.7 726.87C1204.52 746.23 1194.95 771.87 1194.7 799.26C1194.11 856.26 1234.39 902.98 1284.5 903.5H1285.34C1304.6 903.5 1323.02 896.71 1338.61 883.88C1340.52 882.275 1342.94 881.39 1345.44 881.38C1348.45 881.393 1351.32 882.597 1353.44 884.73C1354.46 885.769 1355.26 887 1355.8 888.351C1356.34 889.701 1356.6 891.146 1356.58 892.6L1355.2 1025.6C1355.05 1039.72 1360.52 1053.32 1370.4 1063.41C1380.28 1073.5 1393.77 1079.25 1407.89 1079.4L1545.33 1080.82C1547.49 1080.83 1549.6 1081.48 1551.39 1082.68C1553.19 1083.88 1554.59 1085.58 1555.42 1087.57C1556.26 1089.56 1556.48 1091.76 1556.08 1093.88C1555.68 1096 1554.66 1097.95 1553.15 1099.5C1537.42 1115.65 1528.64 1136.29 1528.41 1157.62C1527.89 1207.72 1573.81 1248.97 1630.77 1249.56H1632.01C1659.31 1249.56 1685.01 1240.27 1704.43 1223.4C1723.85 1206.53 1734.77 1183.87 1735.02 1159.75C1735.24 1138.42 1726.88 1117.61 1711.49 1101.13C1710.02 1099.56 1709.05 1097.6 1708.69 1095.48C1708.32 1093.36 1708.59 1091.18 1709.45 1089.21C1710.31 1087.25 1711.73 1085.57 1713.53 1084.4C1715.33 1083.23 1717.43 1082.61 1719.58 1082.62H1719.7L1857.14 1084.05H1857.7C1871.72 1084.05 1885.18 1078.51 1895.14 1068.64C1905.11 1058.78 1910.78 1045.38 1910.93 1031.36L1915.59 582.11C1915.73 567.994 1910.25 554.402 1900.38 544.317C1890.5 534.232 1877.03 528.478 1862.91 528.32L1413.66 523.66L1413.05 523.45Z" fill="white"/>
</g>
<g id="thirdpart">
<path id="Vector_5" d="M809.19 1704.76C795.797 1704.74 782.918 1699.6 773.191 1690.39C763.464 1681.19 757.625 1668.61 756.87 1655.24L731.72 1206.66C730.95 1192.76 735.727 1179.12 745.002 1168.74C754.277 1158.36 767.292 1152.08 781.19 1151.29L917.96 1143.62C920.252 1143.49 922.458 1142.7 924.305 1141.34C926.152 1139.98 927.56 1138.1 928.356 1135.95C929.152 1133.8 929.301 1131.46 928.785 1129.22C928.269 1126.98 927.109 1124.95 925.45 1123.36C909.45 1108.15 899.93 1088.27 898.76 1067.36C897.42 1043.3 906.76 1020.09 925.22 1002.01C943.68 983.93 968.78 973.16 996.12 971.63C998.32 971.51 1000.55 971.45 1002.75 971.45C1056.62 971.45 1100.9 1008.53 1103.56 1055.88C1104.73 1076.76 1097.56 1097.57 1083.29 1114.48C1081.83 1116.17 1080.89 1118.25 1080.59 1120.47C1080.3 1122.68 1080.66 1124.94 1081.63 1126.95C1082.56 1128.99 1084.06 1130.73 1085.95 1131.94C1087.84 1133.15 1090.04 1133.8 1092.29 1133.79H1093L1229.77 1126.12C1230.77 1126.07 1231.77 1126.04 1232.77 1126.04C1246.17 1126.05 1259.06 1131.19 1268.8 1140.41C1278.53 1149.62 1284.38 1162.21 1285.13 1175.59L1292.66 1309.86C1292.84 1312.88 1294.17 1315.72 1296.37 1317.8C1298.58 1319.88 1301.49 1321.04 1304.52 1321.04C1306.02 1321.04 1307.51 1320.75 1308.9 1320.17C1310.28 1319.6 1311.54 1318.75 1312.6 1317.68C1327.66 1302.87 1346.21 1294.44 1366.25 1293.32C1367.75 1293.24 1369.25 1293.2 1370.76 1293.2C1418.84 1293.2 1458.91 1336.01 1461.98 1390.67C1463.51 1418.01 1455.6 1444.23 1439.71 1464.52C1423.82 1484.81 1401.79 1496.76 1377.71 1498.11C1376.22 1498.2 1374.71 1498.24 1373.22 1498.24C1354.78 1498.24 1336.96 1491.9 1321.67 1479.9C1319.65 1478.29 1317.14 1477.41 1314.56 1477.4C1312.93 1477.41 1311.32 1477.75 1309.83 1478.39C1308.34 1479.04 1307 1479.99 1305.88 1481.17C1304.79 1482.33 1303.94 1483.71 1303.4 1485.21C1302.86 1486.72 1302.63 1488.32 1302.73 1489.91L1310.26 1624.17C1311.02 1638.07 1306.24 1651.7 1296.96 1662.07C1287.69 1672.45 1274.67 1678.72 1260.78 1679.51L812.19 1704.68C811.19 1704.73 810.19 1704.76 809.19 1704.76Z" fill="#A5BDE2"/>
<path id="Vector_6" d="M1002.74 972.24C1055.98 972.24 1100.15 1008.62 1102.81 1055.97C1104.02 1077.55 1096.39 1097.81 1082.72 1114.04C1081.19 1115.86 1080.22 1118.09 1079.91 1120.44C1079.6 1122.8 1079.97 1125.2 1080.98 1127.36C1081.98 1129.51 1083.58 1131.34 1085.58 1132.62C1087.58 1133.9 1089.91 1134.58 1092.29 1134.59H1093.04L1229.81 1126.92C1230.81 1126.87 1231.81 1126.84 1232.75 1126.84C1245.96 1126.85 1258.67 1131.92 1268.27 1141C1277.86 1150.09 1283.62 1162.5 1284.36 1175.69L1291.89 1309.95C1292.06 1313.17 1293.47 1316.2 1295.82 1318.42C1298.17 1320.63 1301.27 1321.85 1304.5 1321.84C1306.1 1321.84 1307.68 1321.53 1309.16 1320.91C1310.63 1320.3 1311.97 1319.4 1313.1 1318.26C1327.4 1304.2 1345.8 1295.26 1366.27 1294.12C1367.77 1294.04 1369.26 1294 1370.74 1294C1418.1 1294 1458.16 1336.33 1461.21 1390.77C1464.35 1446.9 1426.95 1494.65 1377.67 1497.41C1376.18 1497.5 1374.67 1497.54 1373.22 1497.54C1354.41 1497.54 1336.77 1490.84 1322.13 1479.36C1319.98 1477.64 1317.31 1476.7 1314.56 1476.7C1312.85 1476.7 1311.15 1477.05 1309.58 1477.73C1308 1478.41 1306.58 1479.4 1305.41 1480.64C1304.23 1481.89 1303.32 1483.36 1302.73 1484.97C1302.14 1486.58 1301.88 1488.29 1301.98 1490L1309.51 1624.26C1310.28 1637.96 1305.57 1651.41 1296.42 1661.64C1287.28 1671.87 1274.44 1678.05 1260.74 1678.82L812.19 1703.93C811.19 1703.93 810.19 1704.01 809.25 1704.01C796.037 1704 783.329 1698.93 773.732 1689.85C764.134 1680.77 758.373 1668.36 757.63 1655.17L732.49 1206.59C731.72 1192.9 736.417 1179.46 745.549 1169.23C754.681 1159.01 767.5 1152.82 781.19 1152.04L917.96 1144.37C920.401 1144.24 922.751 1143.4 924.72 1141.96C926.69 1140.51 928.192 1138.52 929.043 1136.22C929.893 1133.93 930.055 1131.44 929.507 1129.06C928.959 1126.68 927.726 1124.51 925.96 1122.82C910.56 1108.22 900.71 1088.93 899.5 1067.35C896.74 1018.07 940.01 975.57 996.15 972.42C998.36 972.3 1000.55 972.23 1002.73 972.23L1002.74 972.24ZM1002.73 970.73C1000.52 970.73 998.28 970.8 996.06 970.92C968.55 972.46 943.2 983.33 924.69 1001.51C906.18 1019.69 896.69 1043.16 898.01 1067.44C899.19 1088.51 908.75 1108.56 924.92 1123.91C926.491 1125.37 927.591 1127.27 928.079 1129.36C928.567 1131.45 928.421 1133.63 927.66 1135.64C926.934 1137.68 925.618 1139.45 923.88 1140.74C922.142 1142.03 920.061 1142.77 917.9 1142.87L781.19 1150.54C767.097 1151.35 753.898 1157.71 744.49 1168.23C735.083 1178.76 730.235 1192.58 731.01 1206.68L756.12 1655.24C756.878 1668.81 762.797 1681.58 772.664 1690.92C782.531 1700.27 795.599 1705.49 809.19 1705.51C810.19 1705.51 811.19 1705.51 812.19 1705.43L1260.83 1680.24C1267.81 1679.85 1274.64 1678.09 1280.94 1675.05C1287.24 1672.02 1292.88 1667.78 1297.54 1662.57C1302.2 1657.35 1305.79 1651.28 1308.1 1644.68C1310.4 1638.08 1311.39 1631.09 1311 1624.11L1303.48 1489.84C1303.39 1488.34 1303.61 1486.85 1304.12 1485.44C1304.64 1484.03 1305.44 1482.75 1306.48 1481.67C1307.52 1480.56 1308.78 1479.67 1310.18 1479.06C1311.58 1478.46 1313.09 1478.14 1314.61 1478.13C1317.03 1478.14 1319.37 1478.96 1321.26 1480.47C1336.68 1492.57 1354.67 1498.97 1373.26 1498.97C1374.76 1498.97 1376.26 1498.97 1377.79 1498.84C1402.07 1497.48 1424.27 1485.45 1440.32 1464.96C1456.37 1444.47 1464.32 1418.13 1462.75 1390.61C1459.66 1335.55 1419.26 1292.43 1370.75 1292.43C1369.24 1292.43 1367.75 1292.43 1366.2 1292.55C1345.97 1293.69 1327.2 1302.18 1312.06 1317.12C1311.07 1318.12 1309.9 1318.91 1308.6 1319.45C1307.31 1320 1305.91 1320.27 1304.51 1320.27C1301.67 1320.27 1298.94 1319.19 1296.88 1317.24C1294.81 1315.29 1293.57 1312.63 1293.4 1309.8L1285.87 1175.53C1285.11 1161.96 1279.18 1149.19 1269.31 1139.84C1259.43 1130.49 1246.36 1125.28 1232.76 1125.27C1231.76 1125.27 1230.76 1125.27 1229.76 1125.35L1093 1133.02H1092.33C1090.22 1133.03 1088.16 1132.43 1086.38 1131.3C1084.61 1130.16 1083.2 1128.53 1082.33 1126.61C1081.42 1124.73 1081.09 1122.62 1081.36 1120.54C1081.64 1118.47 1082.52 1116.52 1083.89 1114.94C1098.25 1097.88 1105.51 1076.94 1104.32 1055.81C1103.02 1032.56 1091.8 1011.01 1072.72 995.13C1053.64 979.25 1028.94 970.67 1002.72 970.67L1002.73 970.73Z" fill="white"/>
</g>
<g id="Group 1">
<path id="Vector_7" d="M790.68 1015.66C705.68 986.55 631.53 929.57 576.27 858.78C521.01 787.99 458.73 632.6 469.44 501.53C714.3 574.14 813.67 801.53 828.5 939.53" fill="#D3DDF1"/>
<path id="Vector_8" d="M469.44 501.53C469.44 501.53 509.77 817.05 792.81 991.29" stroke="white" stroke-width="1.5" stroke-miterlimit="10"/>
<path id="Vector_9" d="M469.44 501.53C469.44 501.53 636.44 800.79 819.56 982.83" stroke="white" stroke-width="1.5" stroke-miterlimit="10"/>
<path id="Vector_10" d="M469.44 501.53C469.44 501.53 716.05 697.35 831 965.41" stroke="white" stroke-width="1.5" stroke-miterlimit="10"/>
<path id="Vector_11" d="M791.52 1536.86C694.69 1572.86 587.97 1574.07 488.58 1547.7C389.19 1521.33 224.09 1418.98 141.71 1285.01C378.24 1204.5 661.88 1313.88 772.04 1435.2" fill="#D3DDF1"/>
<path id="Vector_12" d="M141.71 1285.01C141.71 1285.01 399.48 1557.7 776.33 1511.85" stroke="white" stroke-width="1.5" stroke-linejoin="round"/>
<path id="Vector_13" d="M141.71 1285.01C141.71 1285.01 502.02 1446.63 794.44 1483.58" stroke="white" stroke-width="1.5" stroke-linejoin="round"/>
<path id="Vector_14" d="M141.71 1285.01C141.71 1285.01 500.94 1287.33 792.5 1458.22" stroke="white" stroke-width="1.5" stroke-linejoin="round"/>
<path id="Vector_15" d="M882.3 872.95C800.35 812.05 741.99 724.24 710.4 627.61C678.81 530.98 674.89 339.1 741.66 198.75C935.6 351.56 997.46 645.54 956.12 802.12" fill="#EAF0F9"/>
<path id="Vector_16" d="M741.66 198.75C741.66 198.75 654.19 559.12 894.87 846.9" stroke="white" stroke-width="1.5" stroke-linejoin="round"/>
<path id="Vector_17" d="M741.66 198.75C741.66 198.75 801.42 584.4 928.05 846.75" stroke="white" stroke-width="1.5" stroke-linejoin="round"/>
<path id="Vector_18" d="M741.66 198.75C741.66 198.75 932.92 497.84 948.03 831.46" stroke="white" stroke-width="1.5" stroke-linejoin="round"/>
<path id="Vector_19" d="M1624.76 827.72C1707.41 811.99 1783.76 768.99 1844.43 710.67C1905.1 652.35 1983.43 516.48 1990.89 393.5C1754.17 428.37 1631.89 626.09 1599.79 752.05" fill="#D3DDF1"/>
<path id="Vector_20" d="M1990.89 393.5C1990.89 393.5 1911.64 680.78 1626.02 804.83" stroke="white" stroke-width="1.5" stroke-linejoin="round"/>
<path id="Vector_21" d="M1990.89 393.5C1990.89 393.5 1796.27 648.9 1602.33 793.44" stroke="white" stroke-width="1.5" stroke-linejoin="round"/>
<path id="Vector_22" d="M1990.89 393.5C1990.89 393.5 1736.19 542.41 1594.03 775.76" stroke="white" stroke-width="1.5" stroke-linejoin="round"/>
<path id="Vector_23" d="M1856.11 1495.39C1977.02 1518.39 2104.02 1500.84 2217.83 1454.03C2331.64 1407.22 2511.2 1264.42 2587.34 1101.03C2246.54 1021.42 1973.96 1224.8 1862.76 1379.03" fill="#D3DDF1"/>
<path id="Vector_24" d="M2587.34 1101.08C2587.34 1101.08 2325.34 1449.43 1870.1 1464.94" stroke="white" stroke-width="1.5" stroke-linejoin="round"/>
<path id="Vector_25" d="M2587.34 1101.08C2587.34 1101.08 2228.72 1340.69 1861.39 1408.24" stroke="white" stroke-width="1.5" stroke-linejoin="round"/>
<path id="Vector_26" d="M2587.34 1101.08C2587.34 1101.08 2160.87 1166.99 1842.19 1408.24" stroke="white" stroke-width="1.5" stroke-linejoin="round"/>
<path id="Vector_27" d="M1517.92 795.52C1621.99 750.75 1707.48 670.84 1766.31 574.65C1825.14 478.46 1878.5 272.26 1842.31 103.65C1593.81 218.98 1451.78 520.54 1456.31 700.17" fill="#EAF0F9"/>
<path id="Vector_28" d="M1842.34 103.65C1842.34 103.65 1844.53 515.1 1511.02 764.19" stroke="white" stroke-width="1.5" stroke-linejoin="round"/>
<path id="Vector_29" d="M1842.34 103.65C1842.34 103.65 1679.1 504.7 1475.25 755.49" stroke="white" stroke-width="1.5" stroke-linejoin="round"/>
<path id="Vector_30" d="M1842.34 103.65C1842.34 103.65 1559.29 377.59 1457.58 733.91" stroke="white" stroke-width="1.5" stroke-linejoin="round"/>
<path id="Vector_31" d="M774.78 1378.14C718.43 1386.91 622.54 1400 569.53 1364.62C540.23 1345.05 534.85 1308.88 523.39 1277.05C503.78 1222.57 463.5 1190.54 410.09 1181.21C388.72 1177.47 366.09 1167.86 355.85 1147.42C340.6 1117.02 359.37 1077.92 347.12 1046.03C340.54 1028.9 326.26 1016.78 314.49 1003.16C286 970.16 278.94 921.41 278.94 921.41C278.94 921.41 313.37 932.3 351.94 920.27C376.68 912.55 403.53 907.74 429.56 911.86C449.9 915.08 465.14 925.73 478.56 941.86C494.36 960.86 507.62 975.24 530.44 983.13C565.67 995.32 652.98 965.82 662.56 1016.39C665.16 1030.15 661.92 1045.05 668.27 1057.93C679.77 1081.26 707.59 1069.41 726.54 1075.35C755.7 1084.5 787.54 1105.46 800.07 1132.82C829.87 1198.08 828.49 1288.01 811.71 1358.89" fill="#EAF0F9"/>
<path id="Vector_32" d="M282.44 922.33C377.44 1025.07 521.35 1063.64 614.02 1168.81C641.83 1200.37 664.08 1236.96 690.3 1270.02C716.52 1303.08 748.07 1333.42 786.68 1346.43" stroke="white" stroke-width="1.5" stroke-linejoin="round"/>
<path id="Vector_33" d="M348.48 1119.1C398.16 1124.45 473.57 1123.29 548.42 1109.1C548.42 1109.1 530.13 1012.72 514.67 975.86" stroke="white" stroke-width="1.5" stroke-linejoin="round"/>
<path id="Vector_34" d="M350.1 1086.99C404.73 1090.99 450.56 1087.7 514.27 1085.12" stroke="white" stroke-width="1.5" stroke-linejoin="round"/>
<path id="Vector_35" d="M342.19 1037.87C342.19 1037.87 388.65 1039.42 430.86 1033.71" stroke="white" stroke-width="1.5" stroke-linejoin="round"/>
<path id="Vector_36" d="M296.51 975.66C296.84 976.33 311.41 978.05 344.84 977.55" stroke="white" stroke-width="1.5" stroke-linejoin="round"/>
<path id="Vector_37" d="M412.12 1022.32C412.48 1022.54 390.36 954.11 373.12 915.11" stroke="white" stroke-width="1.5" stroke-linejoin="round"/>
<path id="Vector_38" d="M501.35 1076.71C501.03 1076.51 479.43 968.27 458.13 923" stroke="white" stroke-width="1.5" stroke-linejoin="round"/>
<path id="Vector_39" d="M458.46 1197.91C460.13 1198.82 553.69 1205.07 630.51 1188.79" stroke="white" stroke-width="1.5" stroke-linejoin="round"/>
<path id="Vector_40" d="M607.19 1161.24C607.19 1161.24 597.66 1045.48 582.67 986.37" stroke="white" stroke-width="1.5" stroke-linejoin="round"/>
<path id="Vector_41" d="M681.44 1061.46C692.33 1132.79 693.83 1274.39 693.83 1274.39C693.83 1274.39 573.29 1290.72 523.39 1277.05" stroke="white" stroke-width="1.5" stroke-linejoin="round"/>
<path id="Vector_42" d="M745.35 1324.67C745.35 1324.67 749.65 1164.38 740.21 1080.48" stroke="white" stroke-width="1.5" stroke-linejoin="round"/>
<path id="Vector_43" d="M532.19 1308.86C532.19 1308.86 629.32 1322.54 711.19 1294.33" stroke="white" stroke-width="1.5" stroke-linejoin="round"/>
<path id="Vector_44" d="M765.31 1337.41C765.31 1337.41 793.31 1210.89 772.75 1099.79" stroke="white" stroke-width="1.5" stroke-linejoin="round"/>
<path id="Vector_45" d="M1550.88 689.24C1576.52 623.01 1618.17 557.52 1592.56 484.38C1578.4 443.94 1535.14 426.91 1502.05 405.09C1445.42 367.76 1420.1 310.91 1424.29 243.75C1425.97 216.88 1421.29 187.03 1400.84 169.52C1370.43 143.45 1320.67 156.52 1287.73 133.73C1270.04 121.49 1260.19 101.14 1247.93 83.46C1218.3 40.7 1164.64 20 1164.64 20C1164.64 20 1167.49 64.51 1143.09 108.32C1127.43 136.43 1114.48 167.83 1111.96 200.45C1109.96 225.94 1117.88 247.09 1132.57 267.45C1149.86 291.35 1162.57 311.02 1165.2 340.68C1169.32 386.47 1111.46 485.14 1166.43 509.33C1181.43 515.91 1199.27 515.68 1212.18 526.58C1235.57 546.34 1214.35 577.16 1215.86 601.65C1218.19 639.29 1233.19 683.24 1260.94 705.16C1327.03 757.55 1429.94 778.21 1515.32 775.45" fill="#EAF0F9"/>
<path id="Vector_46" d="M1164.72 24.51C1255.41 165.41 1259.43 349.63 1353.56 488.26C1381.8 529.85 1417.32 565.95 1447.71 605.99C1478.1 646.03 1503.92 691.87 1508.03 741.99" stroke="white" stroke-width="1.5" stroke-linejoin="round"/>
<path id="Vector_47" d="M1303.76 393.8C1303.76 393.8 1199.01 347.64 1161.31 319.73" stroke="white" stroke-width="1.5" stroke-linejoin="round"/>
<path id="Vector_48" d="M1333.58 147.54C1322.94 214.85 1306.5 269.67 1285.87 346.36" stroke="white" stroke-width="1.5" stroke-linejoin="round"/>
<path id="Vector_49" d="M1279.79 125.78C1279.79 125.78 1268.66 182.56 1250.44 232.38" stroke="white" stroke-width="1.5" stroke-linejoin="round"/>
<path id="Vector_50" d="M1221.59 54.83C1222.26 55.4 1220.18 73.51 1210.32 113.97" stroke="white" stroke-width="1.5" stroke-linejoin="round"/>
<path id="Vector_51" d="M1242.66 206.76C1242.82 207.25 1170.98 163.41 1131.34 132.76" stroke="white" stroke-width="1.5" stroke-linejoin="round"/>
<path id="Vector_52" d="M1279.88 328.6C1279.73 328.16 1162.39 275.04 1116.71 237.95" stroke="white" stroke-width="1.5" stroke-linejoin="round"/>
<path id="Vector_53" d="M1421.76 206.76C1411.55 245.67 1391.94 346.36 1333.58 446.76" stroke="white" stroke-width="1.5" stroke-linejoin="round"/>
<path id="Vector_54" d="M1346.88 478.08C1346.88 478.08 1217.61 437.75 1154.41 404.88" stroke="white" stroke-width="1.5" stroke-linejoin="round"/>
<path id="Vector_55" d="M1494.71 686.39C1494.71 686.39 1310.85 651.79 1217.87 619.5" stroke="white" stroke-width="1.5" stroke-linejoin="round"/>
<path id="Vector_56" d="M1535.85 423.74C1535.85 423.74 1524.49 545.04 1469.6 637.45" stroke="white" stroke-width="1.5" stroke-linejoin="round"/>
<path id="Vector_57" d="M1920.76 1268.58C1993.88 1254.46 2075.26 1254.97 2125.96 1191.48C2153.96 1156.37 2145.03 1108.48 2145.96 1066.91C2147.57 995.81 2183.96 941.65 2245.96 907.91C2270.76 894.43 2294.66 873.64 2298.84 845.73C2305.05 804.19 2265.72 767.27 2267.61 725.31C2268.61 702.78 2281.21 682.69 2290.09 661.96C2311.57 611.81 2300.09 552.62 2300.09 552.62C2300.09 552.62 2262.15 579.94 2209.64 582.67C2175.94 584.43 2140.83 590.42 2110.45 606.35C2086.71 618.8 2072.32 637.59 2062.45 661.96C2050.85 690.63 2040.45 712.85 2015.58 731.75C1977.2 760.91 1857.33 764.48 1866.46 826.75C1868.95 843.75 1879.11 859.45 1876.62 877C1872.1 908.79 1832.9 907.1 1811.99 922.09C1779.83 945.14 1749.21 982.96 1745.14 1019.8C1735.41 1107.7 1774.36 1210.58 1824.41 1284.93" fill="#EAF0F9"/>
<path id="Vector_58" d="M2296.19 555.24C2221.55 714.24 2060.19 820.49 1989.44 981.33C1968.23 1029.58 1955.95 1081.25 1937.31 1130.55C1918.67 1179.85 1892.31 1228.32 1850.12 1259.89" stroke="white" stroke-width="1.5" stroke-linejoin="round"/>
<path id="Vector_59" d="M2296.19 810.02C2237.19 837.52 2143.69 868.59 2045.54 884.47C2045.54 884.47 2028.18 765.71 2031.98 716.67" stroke="white" stroke-width="1.5" stroke-linejoin="round"/>
<path id="Vector_60" d="M2280.91 773.78C2215.19 801.78 2157.35 817.78 2077.73 842.16" stroke="white" stroke-width="1.5" stroke-linejoin="round"/>
<path id="Vector_61" d="M2270.28 713.87C2270.28 713.87 2213.64 735.61 2159.28 747.18" stroke="white" stroke-width="1.5" stroke-linejoin="round"/>
<path id="Vector_62" d="M2300.88 622.65C2300.75 623.56 2283.5 631.8 2242.07 645.59" stroke="white" stroke-width="1.5" stroke-linejoin="round"/>
<path id="Vector_63" d="M2177.66 726.01C2177.31 726.42 2176.24 638.17 2181.4 585.88" stroke="white" stroke-width="1.5" stroke-linejoin="round"/>
<path id="Vector_64" d="M2090.19 826.94C2090.5 826.56 2072.31 692.74 2079.81 631.5" stroke="white" stroke-width="1.5" stroke-linejoin="round"/>
<path id="Vector_65" d="M2193.25 947.96C2191.57 949.73 2078.8 997.12 1977.34 1011.39" stroke="white" stroke-width="1.5" stroke-linejoin="round"/>
<path id="Vector_66" d="M1994.71 969.72C1994.71 969.72 1958.53 832.43 1952.51 757.98" stroke="white" stroke-width="1.5" stroke-linejoin="round"/>
<path id="Vector_67" d="M1861.81 886.77C1877.92 973.52 1934.73 1137.09 1934.73 1137.09C1934.73 1137.09 2090.11 1104.09 2145.97 1066.91" stroke="white" stroke-width="1.5" stroke-linejoin="round"/>
<path id="Vector_68" d="M1892.03 1217.09C1892.03 1217.09 1820.34 1034.49 1797.23 933.91" stroke="white" stroke-width="1.5" stroke-linejoin="round"/>
<path id="Vector_69" d="M2148.25 1107.31C2148.25 1107.31 2034.17 1164.79 1921.51 1167.52" stroke="white" stroke-width="1.5" stroke-linejoin="round"/>
<path id="Vector_70" d="M1872.7 1240.32C1872.7 1240.32 1785.83 1106.75 1765.1 970.11" stroke="white" stroke-width="1.5" stroke-linejoin="round"/>
<path id="Vector_71" d="M1624.19 969.97C1634.19 990.87 1674.58 1078.97 1684.56 1099.9C1652.15 1110.25 1622.45 1123.68 1590.67 1135.83C1577.21 1153.94 1607.29 1118.14 1608.67 1098.51" fill="#ED79AF"/>
<path id="Vector_72" d="M1693.78 1128.92L1675.44 1135.25C1674.72 1133.37 1673.25 1127.86 1672.2 1126.35C1668.74 1127.55 1661.54 1130.64 1660.71 1131.35C1659.88 1132.06 1659.3 1134.35 1658.71 1136.6C1658.34 1138.07 1657.61 1139.42 1656.59 1140.54C1655.57 1141.66 1654.29 1142.51 1652.86 1143.02L1579.96 1168.18C1570.96 1171.29 1565.74 1160.77 1573.53 1152.18C1580.58 1144.39 1595.97 1127.51 1596.73 1127.04C1626.73 1119.9 1672.27 1098.09 1678.05 1084.78C1687.74 1090.06 1693.81 1128.66 1693.78 1128.92Z" fill="#0F123B"/>
<path id="Vector_73" d="M1616.19 731.05C1617.82 778.69 1612.79 874.24 1619.26 914.78C1623.34 940.28 1669.26 1067.08 1669.26 1067.08L1608.71 1098.51C1608.71 1098.51 1556.8 1018.31 1527.23 923.51C1508.07 862.08 1506.58 794.42 1506.58 738.77" fill="#ED79AF"/>
<path id="Vector_74" d="M1774.31 871.54C1791.31 887.25 1861.55 954.1 1878.57 969.81C1852.31 991.45 1829.71 1014.93 1804.71 1038C1798.92 1059.81 1813.58 1015.41 1807.59 996.66" fill="#ED79AF"/>
<path id="Vector_75" d="M1897.88 993.35L1883.19 1006.03C1881.83 1004.55 1878.42 1000.03 1876.89 998.97C1874.12 1001.36 1868.58 1006.9 1868.08 1007.89C1867.66 1008.71 1867.87 1011.16 1868.15 1013.51C1868.36 1015.01 1868.19 1016.54 1867.67 1017.96C1867.15 1019.38 1866.28 1020.65 1865.15 1021.65L1806.78 1072.06C1799.58 1078.28 1790.78 1070.45 1794.87 1059.58C1798.54 1049.73 1806.57 1028.35 1807.1 1027.63C1832.3 1009.87 1866.5 972.72 1866.94 958.22C1877.86 959.49 1897.82 993.09 1897.88 993.35Z" fill="#0F123B"/>
<path id="Vector_76" d="M1715.25 641.24C1715.25 641.24 1711.56 781.58 1730.85 817.31C1753.62 859.47 1827.5 922.68 1827.5 922.68L1807.59 996.68C1807.59 996.68 1703.85 938.78 1649.7 869.17C1608.6 816.33 1606.7 649.41 1606.7 649.41" fill="#ED79AF"/>
<path id="Vector_77" d="M1709.51 523.95C1782.61 580.36 1776.62 806.08 1776.62 806.08C1776.62 806.08 1695.35 827.43 1629 827.43C1562.65 827.43 1493.46 816.89 1493.46 816.89C1497.46 622.78 1531.95 572.32 1551.34 539.11" fill="#2A3276"/>
<path id="Vector_78" d="M1573.08 215.77C1573.08 215.77 1589.57 263.77 1586.92 275C1584.27 286.23 1547.92 283.09 1538.59 282.61C1537.8 258.16 1545.97 223.86 1545.97 223.86" fill="#212237"/>
<path id="Vector_79" d="M1578.65 272.24L1582.55 298.99C1582.55 298.99 1602 311.53 1618.35 304.92C1635.56 297.92 1634.64 288.54 1634.64 288.54L1613.99 239.54" fill="#ED79AF"/>
<path id="Vector_80" d="M1551.35 225.3C1551.06 259.78 1557.21 286.78 1579.96 285.03C1603.96 283.18 1621.75 263.47 1613.16 236.58C1604.13 208.33 1553.35 205.4 1551.35 225.3Z" fill="#ED79AF"/>
<path id="Vector_81" d="M1580.8 287C1592.48 285.08 1606.65 278.91 1612.8 263" stroke="#CD348B" stroke-width="0.75" stroke-linejoin="round"/>
<path id="Vector_82" d="M1587.11 222.74C1567.61 227.9 1553.82 227.19 1540.97 222.43C1543.04 210.78 1550.16 194.13 1571.89 193.65C1586.89 179.85 1604.59 184.65 1609.46 186.28C1622.18 190.41 1630.53 198.16 1637.31 209.59C1648.31 228.13 1650.63 256.26 1650.42 271.84C1633.42 276.48 1619.25 278.91 1608.31 279.53C1608.8 279.55 1601.63 232.9 1587.11 222.74Z" fill="#212237"/>
<path id="Vector_83" d="M1598.51 245.78C1598.47 244.675 1598.74 243.581 1599.29 242.62C1599.83 241.658 1600.63 240.866 1601.6 240.33C1606.41 237.43 1610.97 243.13 1611.46 248.33C1611.79 251.445 1611.08 254.582 1609.46 257.26C1607.26 261.14 1603.61 262.68 1600.67 259.12" fill="#ED79AF"/>
<path id="Vector_84" d="M1569.26 243.66C1569.26 243.66 1565.26 256.83 1566.83 259.71C1568.4 262.59 1575.83 260.84 1575.83 260.84" stroke="#CD348B" stroke-width="0.5" stroke-linejoin="round"/>
<path id="Vector_85" d="M1568.9 266.96L1589.73 263.96C1589.73 263.96 1588.9 275.4 1577.35 276.25C1569.12 276.87 1568.9 266.96 1568.9 266.96Z" fill="white"/>
<path id="Vector_86" d="M1561 242.55C1561 243.49 1561 244.42 1561 245.36C1561.01 245.454 1561.06 245.54 1561.14 245.601C1561.21 245.663 1561.3 245.697 1561.39 245.697C1561.49 245.697 1561.58 245.663 1561.65 245.601C1561.73 245.54 1561.77 245.454 1561.79 245.36C1561.79 244.42 1561.79 243.49 1561.71 242.55C1561.7 242.469 1561.65 242.395 1561.59 242.341C1561.53 242.288 1561.45 242.259 1561.36 242.259C1561.28 242.259 1561.2 242.288 1561.14 242.341C1561.08 242.395 1561.03 242.469 1561.02 242.55H1561Z" fill="#23326B"/>
<path id="Vector_87" d="M1565.19 235.96C1564.6 235.514 1563.93 235.194 1563.21 235.017C1562.5 234.84 1561.75 234.811 1561.03 234.932C1560.3 235.053 1559.6 235.32 1558.98 235.719C1558.36 236.118 1557.83 236.639 1557.42 237.25" stroke="#23326B" stroke-width="0.5" stroke-linecap="round" stroke-linejoin="round"/>
<path id="Vector_88" d="M1585.33 241.29C1585.33 242.22 1585.39 243.16 1585.47 244.09C1585.48 244.184 1585.53 244.27 1585.61 244.331C1585.68 244.393 1585.77 244.427 1585.86 244.427C1585.96 244.427 1586.05 244.393 1586.12 244.331C1586.2 244.27 1586.24 244.184 1586.26 244.09C1586.2 243.15 1586.11 242.22 1586.02 241.29C1586.02 241.198 1585.98 241.11 1585.91 241.045C1585.85 240.98 1585.76 240.943 1585.67 240.94C1585.58 240.943 1585.49 240.981 1585.43 241.046C1585.37 241.111 1585.33 241.199 1585.33 241.29V241.29Z" fill="#23326B"/>
<path id="Vector_89" d="M1581.19 233.81C1581.19 233.81 1585.6 230.72 1592.36 235.03" stroke="#23326B" stroke-width="0.5" stroke-linecap="round" stroke-linejoin="round"/>
<path id="Vector_90" d="M1560.64 415.88C1494.49 507.76 1359.42 590.35 1359.42 590.35L1331.55 555.06C1331.55 555.06 1432.76 470.23 1493.55 372.84" fill="#ED79AF"/>
<path id="Vector_91" d="M1343.43 545.69C1331.04 556.49 1289.5 582.05 1290.43 585.28C1291.36 588.51 1306.08 579.7 1306.31 582.46C1306.54 585.22 1284.84 600.24 1286.65 603.24C1289.1 607.34 1310.37 590.8 1310.37 590.8C1310.37 590.8 1288.07 610.04 1291.27 613.05C1293.53 615.18 1311.27 601.25 1318.83 596.76C1311.36 602.63 1300.51 613.53 1302.91 615.7C1305.31 617.87 1317.61 608.62 1327.46 602.03C1321.74 606.7 1311.83 615.73 1313.95 617.83C1316.07 619.93 1347.75 599.49 1376.73 579.14" fill="#ED79AF"/>
<path id="Vector_92" d="M1311.6 582.12C1311.6 582.12 1327.69 582.51 1334.46 579.12" stroke="#CD348B" stroke-width="0.75" stroke-linejoin="round"/>
<path id="Vector_93" d="M1574.89 299.31C1546 294.12 1520.22 314.77 1508.95 332.72C1486.28 368.83 1473.86 397.37 1473.86 397.37L1541.86 438.37L1580.56 316.67" fill="#F79259"/>
<path id="Vector_94" d="M1574.89 299.31C1588.36 301.78 1591.61 306.6 1601.16 303.58C1611.8 300.144 1621.97 295.38 1631.42 289.4C1620.18 290.16 1668.18 298.89 1704.87 337.63C1717.22 380.07 1718.65 422.29 1722.21 534.37C1630.82 563.92 1551.34 539.11 1551.34 539.11C1551.34 539.11 1540.97 490.23 1529.07 454.02C1512.54 420.67 1519.71 383.29 1538.19 352.75C1538.78 334.24 1574.89 299.31 1574.89 299.31Z" fill="#F79259"/>
<path id="Vector_95" d="M1630.12 277.85L1598.94 304.27L1618.88 325.5L1639.55 294.11L1630.12 277.85Z" fill="white"/>
<path id="Vector_96" d="M1598.94 304.27L1581.29 290.42L1574.88 299.31L1583.34 324.87L1598.94 304.27Z" fill="white"/>
<path id="Vector_97" d="M1519.81 416.12C1518.7 394.48 1531.5 360.91 1531.5 360.91" stroke="#A5302D" stroke-width="0.75" stroke-miterlimit="10"/>
<path id="Vector_98" d="M202.54 1065.24C202.54 1065.24 198.37 1249.12 187.14 1312.24C174.56 1382.91 69.27 1525.52 69.27 1525.52L93.62 1549.64L129.75 1566.85C129.75 1566.85 221.8 1478.85 273.69 1368.73C318.69 1273.24 320.69 1074.97 320.69 1074.97" fill="#ED79AF"/>
<path id="Vector_99" d="M176.39 1625.71C177.54 1621.35 178.01 1615.93 176.46 1613.65L138.91 1558.41C103.03 1551.8 71.75 1519.41 71.75 1519.41L40.35 1554.24C39.9614 1554.86 39.8348 1555.61 39.9978 1556.33C40.1607 1557.04 40.6001 1557.67 41.22 1558.06L167.59 1637.65C170.13 1639.24 176.35 1625.85 176.39 1625.71Z" fill="#23326B"/>
<path id="Vector_100" d="M148.69 1567.77C143.38 1569.71 138.316 1572.26 133.6 1575.37" stroke="#253D84" stroke-width="0.75" stroke-linejoin="round"/>
<path id="Vector_101" d="M152.72 1575.82C148.276 1577.54 144.04 1579.75 140.09 1582.41" stroke="#253D84" stroke-width="0.75" stroke-linejoin="round"/>
<path id="Vector_102" d="M156.42 1582.17C152.375 1583.88 148.461 1585.89 144.71 1588.17" stroke="#253D84" stroke-width="0.75" stroke-linejoin="round"/>
<path id="Vector_103" d="M44.89 1548.55L174.35 1630.08" stroke="#253D84" stroke-width="0.75" stroke-linejoin="round"/>
<path id="Vector_104" d="M60.62 1531.78C60.62 1531.78 90.54 1551.71 81.51 1571.63" stroke="#253D84" stroke-width="0.75" stroke-linejoin="round"/>
<path id="Vector_105" d="M168.76 1602.33C168.76 1602.33 152.84 1608.88 147.7 1613.33" stroke="#253D84" stroke-width="0.75" stroke-linejoin="round"/>
<path id="Vector_106" d="M337.67 1141.56C337.67 1141.56 344.67 1249.04 349.62 1331.25C354.57 1413.46 364.11 1601.11 364.11 1601.11L399.69 1609.51L439.15 1602.93C439.15 1602.93 449.4 1440.93 449.4 1333.58C449.4 1222.58 445.12 1065.22 445.12 1065.22" fill="#ED79AF"/>
<path id="Vector_107" d="M509.11 1631.9C507.74 1627.6 505.22 1622.78 502.68 1621.69L441.34 1595.24C407.53 1608.94 363.77 1598.47 363.77 1598.47L355.96 1644.65C355.963 1645.01 356.037 1645.37 356.178 1645.71C356.32 1646.04 356.526 1646.35 356.785 1646.6C357.044 1646.86 357.351 1647.06 357.688 1647.2C358.025 1647.33 358.386 1647.4 358.75 1647.4L508.08 1646.64C511.08 1646.65 509.19 1632.04 509.11 1631.9Z" fill="#23326B"/>
<path id="Vector_108" d="M454.62 1597.91C451.182 1602.4 448.279 1607.27 445.97 1612.43" stroke="#253D84" stroke-width="0.75" stroke-linejoin="round"/>
<path id="Vector_109" d="M462.34 1602.53C459.517 1606.37 457.132 1610.51 455.23 1614.88" stroke="#253D84" stroke-width="0.75" stroke-linejoin="round"/>
<path id="Vector_110" d="M468.87 1605.9C466.371 1609.51 464.138 1613.3 462.19 1617.24" stroke="#253D84" stroke-width="0.75" stroke-linejoin="round"/>
<path id="Vector_111" d="M356.75 1637.46L509.73 1636.68" stroke="#253D84" stroke-width="0.75" stroke-linejoin="round"/>
<path id="Vector_112" d="M361 1614.88C361 1614.88 396.94 1615.61 400 1637.26" stroke="#253D84" stroke-width="0.75" stroke-linejoin="round"/>
<path id="Vector_113" d="M490.11 1616.24C490.11 1616.24 480.2 1630.32 478.25 1636.82" stroke="#253D84" stroke-width="0.75" stroke-linejoin="round"/>
<path id="Vector_114" d="M335.03 533.63C315.78 529.24 297.44 542.2 288.91 555.56C286.21 559.8 284.12 564.44 281.09 568.45C261.85 593.91 184.37 586.02 199.7 636.12C201.46 641.87 204.83 647.2 205.33 653.19C205.96 660.71 202.01 667.75 199.93 675.01C193.19 698.55 209.74 726.01 233.69 731.14C244.42 733.41 256.36 731.9 265.63 737.75C274.27 743.2 278.19 753.56 284.31 761.75C301.04 784.13 334.31 788.54 360.59 778.99C370.53 775.38 380.47 769.45 384.72 759.77C387.14 754.26 387.54 747.92 390.72 742.77C396.81 732.86 410.26 731.22 420.36 725.46C434.86 717.19 443.36 697.81 436.78 682.12C430.02 666.12 415.72 651.37 412.44 634.18C410.62 624.6 413.25 614.57 411.31 605.02C409.83 597.862 405.897 591.446 400.19 586.88C396.28 583.79 391.67 581.67 387.82 578.51C379.71 571.86 378.66 559.99 370.32 553.16C361.98 546.33 350.86 544.09 341.91 538.31" fill="#FFE1AE"/>
<path id="Vector_115" d="M370.29 651.63C419.16 637.98 490.94 640.81 548.24 584.18C605.54 527.55 630.05 484.41 630.05 484.41L674.19 519.24C674.19 519.24 616.25 630.39 564.59 667.76C496.68 716.88 450.52 724.47 411.53 731.53" fill="#ED79AF"/>
<path id="Vector_116" d="M617.98 502.89C630.05 484.41 659.23 431.47 663.3 432.05C667.37 432.63 658.02 451.16 661.46 451.05C664.9 450.94 681.22 423.35 685.14 425.05C690.44 427.24 672.19 454.55 672.19 454.55C672.19 454.55 676.92 449.66 680.96 452.95C683.83 455.28 680.41 463.53 680.41 463.53C680.41 463.53 685.88 458.09 688.81 460.53C691.74 462.97 687.81 472.79 687.81 472.79C687.81 472.79 691.88 470.57 694.69 472.73C697.5 474.89 683.19 507.89 656.53 550.65" fill="#ED79AF"/>
<path id="Vector_117" d="M657.57 458.24C657.57 458.24 656.79 467.91 657.57 474.42C658.81 484.9 655.65 490.42 655.65 490.42" stroke="#CD348B" stroke-width="0.75" stroke-linejoin="round"/>
<path id="Vector_118" d="M670.66 456.75C669.34 459.75 668.13 462.87 667.1 466C666.58 467.57 666.1 469.16 665.76 470.76C665.322 472.33 665.186 473.969 665.36 475.59C665.382 475.957 665.542 476.303 665.806 476.558C666.071 476.814 666.422 476.961 666.79 476.97C667.573 476.966 668.339 476.74 669 476.32C670.394 475.484 671.678 474.476 672.82 473.32C675.142 470.99 677.281 468.486 679.22 465.83C679.274 465.759 679.353 465.712 679.441 465.699C679.529 465.686 679.618 465.708 679.69 465.76C679.755 465.808 679.8 465.879 679.817 465.958C679.834 466.037 679.82 466.12 679.78 466.19C678.207 469.041 676.782 471.972 675.51 474.97C674.866 476.46 674.309 477.986 673.84 479.54C673.605 480.307 673.421 481.089 673.29 481.88C673.156 482.641 673.156 483.419 673.29 484.18C673.349 484.512 673.502 484.821 673.73 485.07C673.984 485.283 674.299 485.409 674.63 485.43C675.383 485.493 676.138 485.333 676.8 484.97C678.203 484.195 679.459 483.18 680.51 481.97C682.691 479.562 684.611 476.931 686.24 474.12C686.28 474.044 686.348 473.988 686.43 473.962C686.511 473.937 686.599 473.945 686.675 473.985C686.751 474.025 686.807 474.093 686.833 474.175C686.858 474.256 686.85 474.344 686.81 474.42C685.53 477.11 684.31 479.85 683.23 482.63C682.074 485.371 681.271 488.247 680.84 491.19C680.738 491.897 680.828 492.619 681.1 493.28C681.173 493.425 681.274 493.553 681.398 493.658C681.522 493.763 681.665 493.842 681.82 493.89C682.15 493.957 682.49 493.957 682.82 493.89C684.195 493.362 685.428 492.519 686.42 491.43C688.511 489.288 690.384 486.943 692.01 484.43C690.443 486.992 688.624 489.39 686.58 491.59C685.579 492.746 684.318 493.648 682.9 494.22C682.505 494.305 682.095 494.305 681.7 494.22C681.488 494.167 681.29 494.07 681.118 493.935C680.946 493.801 680.803 493.632 680.7 493.44C680.382 492.714 680.264 491.917 680.36 491.13C680.746 488.136 681.519 485.205 682.66 482.41C683.66 479.59 684.87 476.83 686.17 474.11L686.74 474.41C685.1 477.273 683.163 479.954 680.96 482.41C679.85 483.676 678.526 484.739 677.05 485.55C676.268 485.977 675.378 486.164 674.49 486.09C674.001 486.052 673.537 485.856 673.17 485.53C672.827 485.187 672.596 484.747 672.51 484.27C672.355 483.417 672.355 482.543 672.51 481.69C672.656 480.868 672.853 480.057 673.1 479.26C673.583 477.686 674.154 476.14 674.81 474.63C676.109 471.611 677.56 468.661 679.16 465.79L679.72 466.15C677.751 468.832 675.567 471.351 673.19 473.68C671.991 474.865 670.647 475.893 669.19 476.74C668.44 477.195 667.577 477.43 666.7 477.42C666.223 477.405 665.771 477.204 665.44 476.86C665.138 476.516 664.94 476.093 664.87 475.64C664.707 473.959 664.867 472.262 665.34 470.64C665.75 469.02 666.25 467.44 666.81 465.88C667.98 462.8 669.26 459.75 670.66 456.75Z" fill="#CD348B"/>
<path id="Vector_119" d="M323.64 537.5C321.33 536.25 318.25 536.62 316.28 534.89C312.98 531.98 312.94 527 314.34 523.15C316.57 517 324.48 514.31 330.5 515.2C344.9 517.33 342.65 531.2 333.88 536.37" fill="#FFE1AE"/>
<path id="Vector_120" d="M244.1 887.58C244.1 887.58 192.43 942.69 182.61 1017.72C172.79 1092.75 172.61 1214.9 172.61 1214.9C172.61 1214.9 321.42 1242.17 456.71 1211.98C451.54 1149.59 456.71 974.98 409.47 887.58" fill="#282C68"/>
<path id="Vector_121" d="M199.84 1218.92C199.84 1218.92 195.19 1030.46 217.02 966.84C234.18 916.84 271.93 868.61 271.93 868.61" stroke="#5666AB" stroke-width="0.75" stroke-miterlimit="10"/>
<path id="Vector_122" d="M458.88 637.8L476.48 721.86C476.48 721.86 442.02 735.86 406.33 737.86C387.1 737.51 357.97 662.65 368.98 648.22C401.07 638.69 458.88 637.8 458.88 637.8Z" fill="#4B77BB"/>
<path id="Vector_123" d="M240.52 732.13C240.52 732.13 238.21 830.65 244.1 887.58C327.18 905.97 409.48 887.58 409.48 887.58L415.24 798.1C456.72 755.5 420.35 700.33 420.35 700.33L368.98 648.24L317.6 645.4L240.52 732.13Z" fill="#4B77BB"/>
<path id="Vector_124" d="M317.6 645.37C317.6 645.37 271.93 638.11 227.76 674.43C217.76 682.63 205.4 699.72 195.17 720.37L266.37 767.27L308.37 720.37" fill="#4B77BB"/>
<path id="Vector_125" d="M433.54 734.24C430.03 721.08 420.32 700.32 420.32 687.65" stroke="#253D84" stroke-width="0.75" stroke-linejoin="round"/>
<path id="Vector_126" d="M445.44 638.25L465.57 725.77" stroke="#253D84" stroke-width="0.75" stroke-linejoin="round"/>
<path id="Vector_127" d="M201.36 708.76L252.97 740.81" stroke="#253D84" stroke-width="0.75" stroke-linejoin="round"/>
<path id="Vector_128" d="M372.8 553.91C372.8 553.91 391.68 602.98 377.53 617.91C370.17 625.68 344.64 621.37 335.03 614.02C327.89 608.58 318.47 575.93 322.32 569.77C337.01 546.24 372.8 553.91 372.8 553.91Z" fill="#ED79AF"/>
<path id="Vector_129" d="M319.52 597.1L317.6 645.37C321.43 657.53 362.43 669.1 368.98 648.21L364.89 612L319.52 597.1Z" fill="#ED79AF"/>
<path id="Vector_130" d="M297.79 591.59C296.07 587.05 295.72 582.09 295.79 577.22C295.702 571.048 296.642 564.904 298.57 559.04C302.187 549.054 309.596 540.897 319.19 536.34C328.68 531.87 346.81 527.6 361.52 536.29C369.03 535.52 376.98 537.63 382.52 542.72C388.06 547.81 390.94 556.01 388.9 563.28L346.96 558.48C344.072 566.097 338.917 572.645 332.19 577.24C325.72 581.66 318.6 587.18 321.28 596.24C322.4 600 318.33 600.7 318.33 607.98C310.81 607.19 299.68 596.43 297.93 592.05C297.9 591.89 297.84 591.74 297.79 591.59Z" fill="#FFE1AE"/>
<path id="Vector_131" d="M325.91 589.29C321.46 582.41 317.27 583.04 314.7 586.35C311.28 590.76 316.34 601.09 318.96 603.01C324.29 606.92 328.89 607.01 329.75 602.46" fill="#ED79AF"/>
<path id="Vector_132" d="M366.01 623.41C354.931 623.753 344.044 620.462 335.01 614.04" stroke="#CD348B" stroke-width="0.75" stroke-linejoin="round"/>
<path id="Vector_133" d="M362.43 578.74C362.43 578.74 374.43 589.2 374.19 592.47C373.95 595.74 366.39 597.12 366.39 597.12" stroke="#CD348B" stroke-width="0.5" stroke-linejoin="round"/>
<path id="Vector_134" d="M375.19 599.94L354.92 605.56C354.92 605.56 360.27 615.7 371.19 611.85C378.99 609.1 375.19 599.94 375.19 599.94Z" fill="white"/>
<path id="Vector_135" d="M371.99 574.64C372.34 575.54 372.7 576.45 373.09 577.33C373.137 577.413 373.213 577.476 373.304 577.506C373.394 577.535 373.493 577.53 373.58 577.49C373.668 577.454 373.739 577.388 373.782 577.303C373.824 577.219 373.834 577.122 373.81 577.03C373.44 576.13 373.03 575.25 372.62 574.38C372.46 574.03 371.85 574.28 371.99 574.64Z" fill="#23326B"/>
<path id="Vector_136" d="M366.19 570.05C366.549 569.405 367.036 568.84 367.621 568.39C368.206 567.94 368.876 567.615 369.592 567.433C370.307 567.251 371.052 567.218 371.781 567.334C372.509 567.45 373.207 567.715 373.83 568.11" stroke="#23326B" stroke-width="0.5" stroke-linecap="round" stroke-linejoin="round"/>
<path id="Vector_137" d="M349.19 583.24C349.47 584.13 349.76 585.02 350.09 585.9C350.12 585.998 350.187 586.08 350.276 586.131C350.365 586.181 350.471 586.195 350.57 586.17C350.62 586.157 350.667 586.135 350.708 586.103C350.75 586.072 350.784 586.033 350.811 585.989C350.837 585.944 350.853 585.895 350.86 585.843C350.867 585.792 350.864 585.74 350.85 585.69C350.54 584.8 350.2 583.93 349.85 583.06C349.824 582.974 349.766 582.9 349.688 582.856C349.61 582.811 349.517 582.798 349.43 582.82C349.387 582.832 349.346 582.852 349.31 582.879C349.274 582.907 349.245 582.941 349.222 582.98C349.2 583.019 349.186 583.062 349.18 583.107C349.175 583.151 349.178 583.197 349.19 583.24V583.24Z" fill="#23326B"/>
<path id="Vector_138" d="M350.62 574.52C350.62 574.52 345.34 573.46 340.88 580.13" stroke="#23326B" stroke-width="0.5" stroke-linecap="round" stroke-linejoin="round"/>
<path id="Vector_139" d="M195.19 720.37C173 765.14 159.19 830.37 206.01 850.25C254.84 870.99 382.81 714.33 382.81 714.33L343.31 680.33L237.62 748.33" fill="#ED79AF"/>
<path id="Vector_140" d="M237.6 748.32L205.99 772.94" stroke="#CD348B" stroke-width="0.75" stroke-linejoin="round"/>
<path id="Vector_141" d="M383.03 693.38C379.97 692.803 377.265 691.034 375.508 688.464C373.751 685.893 373.087 682.73 373.66 679.67L382.19 634.29L405.27 638.63L396.72 684.01C396.436 685.524 395.857 686.968 395.016 688.258C394.174 689.548 393.087 690.66 391.816 691.53C390.544 692.401 389.114 693.012 387.607 693.329C386.099 693.646 384.544 693.664 383.03 693.38V693.38Z" fill="#282C68"/>
<path id="Vector_142" d="M408.75 648.51L390.19 643.98C383.859 642.438 378.4 638.446 375.011 632.88C371.623 627.315 370.583 620.632 372.12 614.3V614.3C373.662 607.972 377.653 602.515 383.217 599.128C388.78 595.742 395.461 594.703 401.79 596.24L420.37 600.76C420.9 600.888 421.358 601.221 421.642 601.686C421.927 602.151 422.016 602.71 421.89 603.24L411.24 646.98C411.112 647.513 410.778 647.973 410.311 648.259C409.844 648.546 409.283 648.636 408.75 648.51V648.51Z" fill="#4C74B9"/>
<path id="Vector_143" d="M422.72 626.62C419.51 639.8 413.28 649.62 408.81 648.52C404.34 647.42 403.32 635.86 406.53 622.68C409.74 609.5 415.96 599.68 420.43 600.77C424.9 601.86 425.92 613.43 422.72 626.62Z" fill="#A2CDEE"/>
<path id="Vector_144" d="M466.57 689.83C466.57 689.83 432.51 660.59 412.36 648.52C406.04 643.38 408.18 631.26 409.93 624.64C414.45 607.55 420.34 605.32 420.34 605.32C447.71 607.22 490.68 594.17 490.68 594.17" fill="#282C68"/>
<path id="Vector_145" d="M468.79 637.7C461.29 667.47 462.11 693.34 470.62 695.49C479.13 697.64 492.12 675.24 499.62 645.49C507.12 615.74 506.3 589.84 497.78 587.7C489.26 585.56 476.29 607.93 468.79 637.7Z" fill="#A2CDEE"/>
<path id="Vector_146" d="M473.82 639.07C467.48 664.25 467.54 685.97 473.95 687.59C480.36 689.21 490.72 670.11 497.06 644.93C503.4 619.75 503.35 598.02 496.93 596.41C490.51 594.8 480.19 613.89 473.82 639.07Z" fill="#4C74B9"/>
<path id="Vector_147" d="M485.07 653.43C480.418 652.274 475.567 652.171 470.87 653.13C471.62 648.65 472.6 643.93 473.87 639.07C475.14 634.21 476.47 629.59 477.94 625.29C481.619 628.358 485.938 630.566 490.58 631.75L485.07 653.43Z" fill="#282C68"/>
<path id="Vector_148" d="M484.84 641.85C483.32 647.85 483.41 653.13 485.04 653.54C486.67 653.95 489.24 649.39 490.76 643.34C492.28 637.29 492.2 632.06 490.56 631.65C488.92 631.24 486.37 635.8 484.84 641.85Z" fill="#FFE1AE"/>
<path id="Vector_149" d="M324.19 692.64C350.52 675.4 369.01 665.24 372.19 663.89C382.77 659.39 394.19 661.13 402.51 664.5C405.361 665.543 407.894 667.307 409.86 669.62C412.048 672.601 413.111 676.26 412.86 679.95C412.894 680.294 412.847 680.641 412.724 680.964C412.601 681.286 412.404 681.576 412.15 681.81C410.84 682.71 409.61 680.67 408.79 679.31C406.73 675.89 403.26 674.47 399.27 674.46C401.27 674.52 402.19 676.46 403.07 678.32C403.95 680.18 402.93 682.8 400.92 683.08C401.855 683.257 402.709 683.727 403.358 684.423C404.007 685.119 404.417 686.003 404.528 686.948C404.64 687.893 404.447 688.849 403.978 689.676C403.509 690.504 402.788 691.16 401.92 691.55C402.538 691.827 403.045 692.304 403.357 692.905C403.669 693.506 403.769 694.195 403.64 694.86C403.361 696.182 402.748 697.411 401.86 698.43C398.24 703.18 393.74 707.17 389.22 711.07C375.05 723.25 345.71 756.35 345.71 756.35" fill="#ED79AF"/>
<path id="Vector_150" d="M485.01 1625.15L365.8 1616.24L326.7 1620.24L327.48 1768.46C327.491 1770.26 328.214 1771.98 329.49 1773.24C330.767 1774.5 332.493 1775.21 334.29 1775.2V1775.2C335.66 1775.19 336.996 1774.77 338.123 1773.99C339.249 1773.21 340.113 1772.11 340.6 1770.83L371 1704.71L495.24 1719.63" fill="#ED79AF"/>
<path id="Vector_151" d="M329.13 1781.98C334.04 1780.41 339.56 1777.54 340.81 1774.64L371 1704.53C355.34 1665.89 367.31 1615.87 367.31 1615.87L314.52 1612.03C314.105 1612.03 313.695 1612.12 313.312 1612.28C312.93 1612.44 312.583 1612.67 312.291 1612.97C312 1613.26 311.769 1613.61 311.613 1614C311.456 1614.38 311.377 1614.79 311.38 1615.21L312.25 1780.81C312.27 1784.24 328.98 1782.03 329.13 1781.98Z" fill="#4B77BB"/>
<path id="Vector_152" d="M367.98 1719.7C362.85 1715.77 357.279 1712.46 351.38 1709.82" stroke="#253D84" stroke-width="0.75" stroke-linejoin="round"/>
<path id="Vector_153" d="M362.7 1728.53C358.314 1725.3 353.581 1722.58 348.59 1720.4" stroke="#253D84" stroke-width="0.75" stroke-linejoin="round"/>
<path id="Vector_154" d="M358.85 1735.99C354.722 1733.14 350.395 1730.59 345.9 1728.37" stroke="#253D84" stroke-width="0.75" stroke-linejoin="round"/>
<path id="Vector_155" d="M322.77 1612.93L323.66 1782.7" stroke="#253D84" stroke-width="0.75" stroke-linejoin="round"/>
<path id="Vector_156" d="M348.03 1614.46C348.03 1614.46 347.75 1653.78 323.03 1657.31" stroke="#253D84" stroke-width="0.75" stroke-linejoin="round"/>
<path id="Vector_157" d="M346.99 1760.24C346.99 1760.24 330.9 1748.91 323.48 1746.68" stroke="#253D84" stroke-width="0.75" stroke-linejoin="round"/>
<path id="Vector_158" d="M693.19 1380.55C694.96 1384.2 717.19 1541.55 733.02 1651.22C742.96 1719.89 744.21 1763.22 644.23 1755.03C506.56 1743.73 410.64 1737.5 410.64 1737.5L407.44 1614.06L596.62 1623.06L571.98 1500.93C571.98 1500.93 526.23 1439.93 559.98 1370.09" fill="#816FB2"/>
<path id="Vector_159" d="M427.87 1615.03L432.86 1737.5" stroke="#4C408A" stroke-width="0.75" stroke-miterlimit="10"/>
<path id="Vector_160" d="M660.06 1462.06L693.32 1655.31C693.474 1656.55 693.352 1657.82 692.962 1659.01C692.572 1660.2 691.925 1661.29 691.065 1662.2C690.206 1663.12 689.156 1663.83 687.99 1664.29C686.824 1664.75 685.571 1664.95 684.32 1664.87L408.32 1647.87" stroke="#4C408A" stroke-width="0.75" stroke-miterlimit="10"/>
<path id="Vector_161" d="M835.89 1609.1L810.72 1728.3L809.72 1767.41L963.04 1766.62C964.836 1766.61 966.555 1765.89 967.819 1764.61C969.083 1763.33 969.788 1761.61 969.78 1759.81C969.77 1758.44 969.347 1757.11 968.565 1755.98C967.784 1754.86 966.68 1754 965.4 1753.51L899.19 1723.1L930.4 1598.86" fill="#ED79AF"/>
<path id="Vector_162" d="M976.43 1764.97C974.87 1760.06 971.99 1754.55 969.09 1753.3L898.98 1723.1C860.34 1738.77 810.32 1726.8 810.32 1726.8L801.4 1779.58C801.401 1780 801.485 1780.41 801.645 1780.79C801.806 1781.17 802.041 1781.52 802.336 1781.82C802.632 1782.11 802.982 1782.34 803.367 1782.5C803.752 1782.65 804.164 1782.73 804.58 1782.73L975.26 1781.85C978.69 1781.83 976.48 1765.13 976.43 1764.97Z" fill="#4B77BB"/>
<path id="Vector_163" d="M914.19 1726.13C910.259 1731.26 906.94 1736.82 904.3 1742.72" stroke="#253D84" stroke-width="0.75" stroke-linejoin="round"/>
<path id="Vector_164" d="M922.98 1731.4C919.753 1735.79 917.029 1740.52 914.86 1745.52" stroke="#253D84" stroke-width="0.75" stroke-linejoin="round"/>
<path id="Vector_165" d="M930.44 1735.24C927.587 1739.38 925.043 1743.73 922.83 1748.24" stroke="#253D84" stroke-width="0.75" stroke-linejoin="round"/>
<path id="Vector_166" d="M802.29 1771.33L977.15 1770.43" stroke="#253D84" stroke-width="0.75" stroke-linejoin="round"/>
<path id="Vector_167" d="M807.19 1745.52C807.19 1745.52 848.27 1746.35 851.8 1771.1" stroke="#253D84" stroke-width="0.75" stroke-linejoin="round"/>
<path id="Vector_168" d="M954.72 1747.11C954.72 1747.11 943.4 1763.2 941.16 1770.63" stroke="#253D84" stroke-width="0.75" stroke-linejoin="round"/>
<path id="Vector_169" d="M756.98 1344.6L765.73 1378.96C766.337 1381.35 767.723 1383.47 769.668 1384.98C771.613 1386.49 774.006 1387.31 776.47 1387.31H895.19C924.19 1387.31 954.87 1388.06 971.47 1413.24C985.07 1433.89 980.24 1468.24 968.92 1507.74C959.21 1541.63 924.85 1696.06 924.85 1696.06H802.7L837.19 1511.71H696.28C696.28 1511.71 605.1 1512.46 617.72 1421.04" fill="#816FB2"/>
<path id="Vector_170" d="M805.97 1676.96H928.25" stroke="#4C408A" stroke-width="0.75" stroke-miterlimit="10"/>
<path id="Vector_171" d="M712.99 1511.71H696.28C696.28 1511.71 608.94 1511.71 607.83 1421.04" stroke="#4C408A" stroke-width="0.75" stroke-miterlimit="10"/>
<path id="Vector_172" d="M703.31 1374.02C703.31 1374.02 705.53 1476.29 791.55 1476.29H856.3C858.184 1476.29 860.045 1476.71 861.746 1477.52C863.447 1478.33 864.947 1479.5 866.135 1480.97C867.323 1482.43 868.17 1484.14 868.614 1485.97C869.057 1487.8 869.087 1489.71 868.7 1491.55L826 1695.77" stroke="#4C408A" stroke-width="0.75" stroke-miterlimit="10"/>
<path id="Vector_173" d="M711.73 1416.46C712.4 1418.29 747.87 1408.33 747.2 1374.02" stroke="#4C408A" stroke-width="0.75" stroke-miterlimit="10"/>
<path id="Vector_174" d="M637.19 1430.95C637.19 1430.95 655.8 1430.95 672.71 1426.03" stroke="#4C408A" stroke-width="0.75" stroke-miterlimit="10"/>
<path id="Vector_175" d="M547.8 1430.95C547.8 1430.95 564.96 1431.44 577.99 1430.95" stroke="#4C408A" stroke-width="0.75" stroke-miterlimit="10"/>
<path id="Vector_176" d="M651.99 1003.56C651.99 1003.56 694.24 872.47 772.92 766.94L719.13 734.14C634.04 826.45 577.99 980.87 577.99 980.87" fill="#ED79AF"/>
<path id="Vector_177" d="M545.03 1226.24C545.03 1226.24 527.44 1064.51 594.03 928.85L672.69 954.54L651.99 1058.24" fill="#FFE1AE"/>
<path id="Vector_178" d="M588.14 944.07L665.66 970.89" stroke="#D09A4A" stroke-width="0.75" stroke-miterlimit="10"/>
<path id="Vector_179" d="M761.63 782.06C774.32 762.67 820.32 712.52 818.09 708.33C815.86 704.14 799.45 721.57 798.27 717.78C797.09 713.99 820.51 685.48 817.17 681.89C812.64 677.02 790.17 707.52 790.17 707.52C790.17 707.52 813.08 672.89 807.93 669.8C804.28 667.62 785.58 693.24 777.21 702.14C785.06 691.34 795.7 672.34 791.86 670.14C788.02 667.94 774.96 685.14 764.22 697.77C770.22 689.26 780.22 673.2 776.76 671.01C773.3 668.82 729.69 715.24 695.29 762.24" fill="#ED79AF"/>
<path id="Vector_180" d="M704.02 1185.12C704.02 1185.12 784.52 1215.97 843.53 1219.8C920.93 1224.8 1010.91 1196 1010.91 1196C1010.91 1196 1022.79 1132.4 991.83 1135.43C953.67 1142.43 887.66 1147.26 838.02 1141.24C807.02 1137.49 741.15 1102.24 741.15 1102.24" fill="#ED79AF"/>
<path id="Vector_181" d="M974.28 1138.83C997.28 1135.83 1062.37 1116.02 1065.19 1119.83C1068.01 1123.64 1045.19 1130.91 1048.09 1133.61C1050.99 1136.31 1086.84 1127.54 1088.63 1132.1C1091.06 1138.3 1053.85 1145.33 1053.85 1145.33C1053.85 1145.33 1094.99 1139.66 1095.54 1145.64C1095.93 1149.87 1064.73 1155.64 1053.09 1159.34C1066.22 1156.94 1087.96 1155.56 1088.27 1159.97C1088.58 1164.38 1067.43 1168.72 1051.4 1172.97C1061.65 1171.27 1080.47 1169.19 1080.95 1173.24C1081.43 1177.29 1030.73 1191.53 982.48 1203.06" fill="#ED79AF"/>
<path id="Vector_182" d="M620.8 1033.24L609.8 1088.54C609.8 1088.54 640.8 1119.89 673.2 1090.71L672.84 1053.64L620.8 1033.24Z" fill="#ED79AF"/>
<path id="Vector_183" d="M679.41 981.13C679.41 981.13 705.84 1034 689.47 1051.49C680.97 1060.58 668.47 1064.04 657.28 1055.56C648.95 1049.27 617.01 1011.36 621.44 1004.18C638.37 976.73 679.41 981.13 679.41 981.13Z" fill="#ED79AF"/>
<path id="Vector_184" d="M689.94 1010.92C689.94 1010.92 699.69 1020.64 699.69 1027.07C699.69 1029.92 689.94 1030.35 689.94 1030.35" fill="#ED79AF"/>
<path id="Vector_185" d="M689.47 1035.77L672.3 1033.24C671.46 1039.76 684.25 1056 689.47 1035.77Z" fill="white"/>
<path id="Vector_186" d="M677.82 1010.39C677.787 1011.06 677.858 1011.74 678.03 1012.39C678.116 1012.71 678.222 1013.02 678.35 1013.33C678.469 1013.67 678.66 1013.97 678.91 1014.23C678.954 1014.27 679.008 1014.29 679.066 1014.3C679.124 1014.3 679.182 1014.29 679.232 1014.26C679.283 1014.23 679.323 1014.19 679.348 1014.14C679.372 1014.09 679.38 1014.03 679.37 1013.97C679.275 1013.65 679.147 1013.35 678.99 1013.06C678.869 1012.78 678.769 1012.5 678.69 1012.21C678.522 1011.61 678.428 1010.99 678.41 1010.36C678.397 1010.29 678.361 1010.23 678.307 1010.18C678.253 1010.14 678.185 1010.11 678.115 1010.11C678.045 1010.11 677.977 1010.14 677.923 1010.18C677.869 1010.23 677.833 1010.29 677.82 1010.36V1010.39Z" fill="#23326B"/>
<path id="Vector_187" d="M668.68 1006.87C669.595 1005.5 670.805 1004.36 672.22 1003.52C673.636 1002.68 675.221 1002.17 676.86 1002.03C678.272 1001.84 679.702 1002.2 680.86 1003.03" stroke="#23326B" stroke-width="0.5" stroke-linecap="round" stroke-linejoin="round"/>
<path id="Vector_188" d="M615.28 985.08C618.12 966.32 637.21 962.44 672.74 967.73C677.49 968.44 686.29 965.95 688.12 970.39C690.53 976.23 690.04 987.57 683.99 992.16C678.69 996.16 671.24 994.05 665.32 996.16C655.75 999.6 660.48 1008.82 655.41 1015.56C646.97 1026.78 652.55 1043.31 638.64 1051.87C630.71 1056.75 620.58 1055.35 611.43 1053.65C610.298 1053.53 609.212 1053.13 608.26 1052.51C605.12 1050.05 606.39 1041.51 605.47 1037.76C602.52 1025.84 600.87 1013.33 601.92 1001.08C602.83 990.45 611.37 984.01 615.28 985.08Z" fill="#0F123B"/>
<path id="Vector_189" d="M655.76 1018.24C653.89 1007.24 645.67 1011.02 642.7 1014.89C638.7 1020.04 644.7 1032.01 647.77 1034.24C653.99 1038.75 659.34 1038.81 660.31 1033.52" fill="#ED79AF"/>
<path id="Vector_190" d="M672.3 1061.16C665.31 1059.05 658.724 1055.78 652.82 1051.49" stroke="#CD348B" stroke-width="0.75" stroke-linejoin="round"/>
<path id="Vector_191" d="M609.52 1071.63C609.52 1071.63 561.52 1091.98 546.68 1167.85C540.1 1201.6 552.76 1383.1 552.76 1382.96C656.76 1403.23 768.65 1373.29 768.65 1373.29C768.65 1373.29 755.83 1254.98 749.99 1210.41C736.5 1107.59 665.67 1074.91 665.67 1074.91L609.52 1071.63Z" fill="#FFE1AE"/>
<path id="Vector_192" d="M665.67 1074.91C665.67 1074.91 705.67 1081.05 731.32 1093.31C756.97 1105.57 814.79 1133.67 814.79 1133.67L785.09 1215.84L680.19 1182.68" fill="#FFE1AE"/>
<path id="Vector_193" d="M748.88 1203.03L689.97 1185.76" stroke="#D09A4A" stroke-width="0.75" stroke-miterlimit="10"/>
<path id="Vector_194" d="M796.8 1124.92L768.65 1209.36" stroke="#D09A4A" stroke-width="0.75" stroke-miterlimit="10"/>
<path id="Vector_195" d="M551.76 1370.11C551.76 1370.11 653 1385.45 766.67 1362.25" stroke="#D09A4A" stroke-width="0.75" stroke-miterlimit="10"/>
<path id="Vector_196" d="M2165.19 1598.38L2190.36 1717.58L2186.36 1756.69L2038.14 1755.9C2036.34 1755.89 2034.62 1755.17 2033.36 1753.89C2032.1 1752.61 2031.39 1750.89 2031.4 1749.09V1749.09C2031.41 1747.72 2031.83 1746.38 2032.61 1745.26C2033.39 1744.13 2034.5 1743.27 2035.78 1742.79L2101.9 1712.38L2070.68 1588.14" fill="#ED79AF"/>
<path id="Vector_197" d="M2024.68 1754.24C2026.25 1749.33 2029.13 1743.82 2032.02 1742.57L2102.13 1712.37C2140.78 1728.04 2190.8 1716.07 2190.8 1716.07L2194.63 1768.85C2194.63 1769.27 2194.55 1769.68 2194.38 1770.06C2194.22 1770.44 2193.99 1770.79 2193.69 1771.09C2193.4 1771.38 2193.05 1771.61 2192.66 1771.77C2192.28 1771.92 2191.87 1772 2191.45 1772L2025.86 1771.12C2022.42 1771.12 2024.63 1754.41 2024.68 1754.24Z" fill="#2A3276"/>
<path id="Vector_198" d="M2086.96 1715.41C2090.89 1720.53 2094.21 1726.1 2096.84 1732" stroke="#5666AB" stroke-width="0.75" stroke-miterlimit="10"/>
<path id="Vector_199" d="M2078.13 1720.68C2081.36 1725.07 2084.09 1729.8 2086.26 1734.8" stroke="#5666AB" stroke-width="0.75" stroke-miterlimit="10"/>
<path id="Vector_200" d="M2070.67 1724.54C2073.52 1728.68 2076.07 1733.03 2078.29 1737.54" stroke="#5666AB" stroke-width="0.75" stroke-miterlimit="10"/>
<path id="Vector_201" d="M2193.73 1760.61L2023.96 1759.71" stroke="#5666AB" stroke-width="0.75" stroke-miterlimit="10"/>
<path id="Vector_202" d="M2192.19 1735.35C2192.19 1735.35 2152.87 1735.63 2149.34 1760.35" stroke="#5666AB" stroke-width="0.75" stroke-miterlimit="10"/>
<path id="Vector_203" d="M2046.39 1736.39C2046.39 1736.39 2057.72 1752.49 2059.95 1759.91" stroke="#5666AB" stroke-width="0.75" stroke-miterlimit="10"/>
<path id="Vector_204" d="M2112.1 1165.48C2112.1 1165.48 2017.26 1377.58 2022.27 1452.7C2026.92 1522.7 2079.97 1699.8 2079.97 1699.8L2193.67 1678.96C2193.67 1678.96 2139.3 1460.16 2142.12 1437.53C2144.94 1414.9 2214.38 1259.14 2214.38 1259.14C2214.38 1259.14 2241.26 1222.43 2232.04 1159.33" fill="#4B77BB"/>
<path id="Vector_205" d="M2174.66 1682.44C2174.66 1682.44 2121.66 1461.57 2124.46 1438.94C2127.26 1416.31 2193 1263.42 2193 1263.42" stroke="#253D84" stroke-width="0.75" stroke-linejoin="round"/>
<path id="Vector_206" d="M2188.53 1658.06L2074.48 1681.05" stroke="#253D84" stroke-width="0.75" stroke-linejoin="round"/>
<path id="Vector_207" d="M2329.63 1542.69L2382.63 1653.69L2395.55 1690.81L2260.99 1752.97C2260.18 1753.34 2259.31 1753.55 2258.42 1753.59C2257.53 1753.63 2256.64 1753.49 2255.8 1753.18C2254.97 1752.87 2254.2 1752.4 2253.55 1751.8C2252.89 1751.2 2252.36 1750.47 2251.99 1749.66V1749.66C2251.41 1748.42 2251.23 1747.03 2251.46 1745.67C2251.69 1744.32 2252.32 1743.07 2253.28 1742.09L2300.28 1686.51L2239.63 1573.57" fill="#ED79AF"/>
<path id="Vector_208" d="M2248.19 1757.13C2247.53 1752.02 2247.8 1745.8 2249.89 1743.44L2300.58 1686.36C2342.21 1684.16 2382.44 1652.1 2382.44 1652.1L2408.29 1698.27C2408.47 1698.65 2408.56 1699.05 2408.58 1699.47C2408.6 1699.88 2408.53 1700.3 2408.39 1700.69C2408.25 1701.08 2408.03 1701.44 2407.75 1701.74C2407.47 1702.05 2407.13 1702.3 2406.75 1702.47L2256.42 1771.92C2253.26 1773.36 2248.19 1757.29 2248.19 1757.13Z" fill="#2A3276"/>
<path id="Vector_209" d="M2288.08 1695.53C2293.82 1698.51 2299.19 1702.15 2304.08 1706.37" stroke="#5666AB" stroke-width="0.75" stroke-miterlimit="10"/>
<path id="Vector_210" d="M2282.32 1704.06C2287.1 1706.66 2291.58 1709.79 2295.66 1713.39" stroke="#5666AB" stroke-width="0.75" stroke-miterlimit="10"/>
<path id="Vector_211" d="M2277.19 1710.71C2281.52 1713.24 2285.66 1716.08 2289.58 1719.21" stroke="#5666AB" stroke-width="0.75" stroke-miterlimit="10"/>
<path id="Vector_212" d="M2403.94 1691.18L2249.81 1762.38" stroke="#5666AB" stroke-width="0.75" stroke-miterlimit="10"/>
<path id="Vector_213" d="M2391.84 1668.96C2391.84 1668.96 2356.36 1685.89 2363.65 1709.8" stroke="#5666AB" stroke-width="0.75" stroke-miterlimit="10"/>
<path id="Vector_214" d="M2260.24 1731.74C2260.24 1731.74 2277.32 1741.51 2282.49 1747.29" stroke="#5666AB" stroke-width="0.75" stroke-miterlimit="10"/>
<path id="Vector_215" d="M2187.09 1171.91C2187.09 1171.91 2150.94 1372.2 2168 1445.52C2187.09 1527.52 2269.35 1666.52 2269.35 1666.52L2371.84 1615.6C2371.84 1615.6 2283.39 1446.6 2283.54 1410.17C2283.63 1387.36 2303.79 1246.8 2303.79 1246.8C2303.79 1246.8 2324.04 1206.06 2304.24 1145.44" fill="#4B77BB"/>
<path id="Vector_216" d="M2348.24 1627.36C2348.24 1627.36 2259.88 1462.24 2259.93 1415.24C2259.93 1392.43 2273.93 1286.07 2280.19 1251.87C2286.45 1217.67 2298.61 1178.12 2280.63 1150.5" stroke="#253D84" stroke-width="0.75" stroke-linejoin="round"/>
<path id="Vector_217" d="M2163.63 1377.48C2169.02 1321.19 2175.38 1245.65 2183.95 1178.35" stroke="#253D84" stroke-width="0.75" stroke-linejoin="round"/>
<path id="Vector_218" d="M2244.19 1178.35C2244.19 1178.35 2251.14 1195.6 2288.76 1205.62" stroke="#253D84" stroke-width="0.75" stroke-linejoin="round"/>
<path id="Vector_219" d="M2167.54 1182.45C2167.54 1182.45 2161.89 1223.73 2165.2 1229.18C2166.72 1231.68 2178.63 1233.93 2178.63 1233.93" stroke="#253D84" stroke-width="0.75" stroke-linejoin="round"/>
<path id="Vector_220" d="M2097.85 1198.65C2097.85 1198.65 2120.57 1199.23 2133.61 1184.65" stroke="#253D84" stroke-width="0.75" stroke-linejoin="round"/>
<path id="Vector_221" d="M2362.66 1597.8L2258.76 1648.11" stroke="#253D84" stroke-width="0.75" stroke-linejoin="round"/>
<path id="Vector_222" d="M2143.7 864.84C2143.7 864.84 2100.58 877.23 2094.39 959.79C2088.53 993.67 2102.6 1182.01 2102.61 1181.86C2206.97 1199.86 2318.23 1167.54 2318.23 1167.54C2318.23 1167.54 2298.75 1049.54 2291.33 1005.2C2272.71 893.92 2195.76 870.24 2195.76 870.24L2143.7 864.84Z" fill="#2A3276"/>
<path id="Vector_223" d="M2161.78 865.59C2143.05 833.997 2121.31 804.286 2096.87 776.87C2045.03 719.19 1966.76 670.75 1966.76 670.75C1966.76 670.75 1913.82 707.94 1938.09 727.41C1970.25 749.1 2011.35 792.23 2042.66 831.23C2062.19 855.56 2101.66 930.11 2101.66 930.11" fill="#ED79AF"/>
<path id="Vector_224" d="M1953.02 737.24C1934.45 723.37 1874.02 692 1874.72 687.3C1875.42 682.6 1896.72 693.36 1896.59 689.4C1896.46 685.44 1864.59 666.66 1866.53 662.14C1869.12 656.02 1900.65 676.99 1900.65 676.99C1900.65 676.99 1867.26 652.3 1871.05 647.63C1873.73 644.33 1900.05 662 1910.99 667.49C1899.91 660.04 1883.41 645.83 1886.26 642.49C1889.11 639.15 1907.26 650.8 1921.7 658.98C1913.18 652.98 1898.26 641.37 1900.7 638.14C1903.14 634.91 1949.57 658.34 1993.32 688.53" fill="#ED79AF"/>
<path id="Vector_225" d="M2240.88 1003.17C2240.88 1003.17 2202.15 1080.17 2161.11 1122.77C2107.29 1178.61 2021.35 1217.9 2021.35 1217.9C2021.35 1217.9 1969.74 1178.9 1994.67 1160.27C2027.56 1139.71 2079.67 1098.86 2112.28 1060.98C2132.64 1037.35 2165.22 963.39 2165.22 963.39" fill="#ED79AF"/>
<path id="Vector_226" d="M2009.93 1150.97C1990.93 1164.19 1929.45 1193.44 1929.93 1198.16C1930.41 1202.88 1952.17 1192.88 1951.86 1196.83C1951.55 1200.78 1919.12 1218.44 1920.86 1223.02C1923.24 1229.23 1955.47 1209.37 1955.47 1209.37C1955.47 1209.37 1921.25 1232.88 1924.87 1237.67C1927.43 1241.07 1954.38 1224.33 1965.47 1219.22C1954.15 1226.28 1937.16 1239.91 1939.89 1243.38C1942.62 1246.85 1961.19 1235.81 1975.89 1228.13C1967.17 1233.78 1951.89 1244.91 1954.24 1248.23C1956.59 1251.55 2003.67 1227.93 2047.1 1203.95" fill="#ED79AF"/>
<path id="Vector_227" d="M2163.58 943.48C2152.81 979.72 2124.34 1039.74 2124.34 1039.74L2201.63 1080.47C2201.63 1080.47 2241.5 1031.83 2256.57 973.38" fill="#2A3276"/>
<path id="Vector_228" d="M2201.63 1080.47C2201.63 1080.47 2244.91 1020.04 2252.43 987.39" stroke="#5666AB" stroke-width="0.75" stroke-miterlimit="10"/>
<path id="Vector_229" d="M2124.34 1039.74C2124.34 1039.74 2153.1 984.04 2159.14 957.06" stroke="#5666AB" stroke-width="0.75" stroke-miterlimit="10"/>
<path id="Vector_230" d="M2092.98 984.34C2091.98 954.07 2077.43 890.83 2033.98 832.98L2102.32 778.32C2102.32 778.32 2162.32 826.4 2179.48 868.8" fill="#2A3276"/>
<path id="Vector_231" d="M2130.19 777.58C2130.19 777.58 2112.75 825.93 2128.27 841.65C2136.35 849.81 2160.17 851.24 2170.27 843.14C2177.79 837.14 2188.94 799.96 2184.67 793.44C2168.42 768.56 2130.19 777.58 2130.19 777.58Z" fill="#ED79AF"/>
<path id="Vector_232" d="M2139.95 800.38C2139.95 800.38 2130.59 811.8 2130.95 815.31C2131.31 818.82 2139.42 820.11 2139.42 820.11" stroke="#CD348B" stroke-width="0.5" stroke-linejoin="round"/>
<path id="Vector_233" d="M2130.06 823.34L2151.93 828.9C2151.93 828.9 2146.43 839.9 2134.63 836.02C2126.19 833.24 2130.06 823.34 2130.06 823.34Z" fill="white"/>
<path id="Vector_234" d="M2132.26 795.87C2131.84 796.81 2131.43 797.77 2131.05 798.73C2131.03 798.832 2131.04 798.94 2131.09 799.031C2131.14 799.122 2131.23 799.19 2131.33 799.22C2131.43 799.245 2131.54 799.23 2131.63 799.178C2131.72 799.126 2131.79 799.041 2131.82 798.94C2132.2 798.02 2132.55 797.07 2132.89 796.13C2133.02 795.77 2132.42 795.51 2132.26 795.87V795.87Z" fill="#23326B"/>
<path id="Vector_235" d="M2139.04 791.07C2138.64 790.389 2138.1 789.797 2137.47 789.329C2136.83 788.862 2136.1 788.528 2135.33 788.35C2134.56 788.171 2133.77 788.151 2132.99 788.29C2132.21 788.429 2131.47 788.725 2130.81 789.16" stroke="#23326B" stroke-width="0.5" stroke-linecap="round" stroke-linejoin="round"/>
<path id="Vector_236" d="M2156.87 804.66C2156.51 805.6 2156.17 806.54 2155.87 807.5C2155.84 807.599 2155.86 807.706 2155.91 807.796C2155.96 807.886 2156.04 807.952 2156.14 807.98C2156.24 808.008 2156.35 807.995 2156.44 807.945C2156.53 807.894 2156.6 807.81 2156.63 807.71C2156.96 806.71 2157.25 805.8 2157.54 804.84C2157.56 804.753 2157.55 804.66 2157.5 804.582C2157.46 804.504 2157.39 804.446 2157.3 804.42C2157.26 804.408 2157.21 804.405 2157.17 804.41C2157.12 804.416 2157.08 804.43 2157.04 804.452C2157 804.475 2156.97 804.504 2156.94 804.54C2156.91 804.576 2156.89 804.617 2156.88 804.66H2156.87Z" fill="#23326B"/>
<path id="Vector_237" d="M2155.84 795.51C2155.84 795.51 2161.47 794.25 2166.41 801.29" stroke="#23326B" stroke-width="0.5" stroke-linecap="round" stroke-linejoin="round"/>
<path id="Vector_238" d="M2186.19 821.8L2195.74 870.27C2195.74 870.27 2159.15 897.71 2138.92 868.51L2138.3 836.83L2186.19 821.8Z" fill="#ED79AF"/>
<path id="Vector_239" d="M2203.65 813.45C2204.05 811.703 2204.56 809.98 2205.16 808.29C2206.63 804.19 2208.87 800.58 2210.48 796.56C2212 792.488 2212.22 788.041 2211.09 783.842C2209.96 779.643 2207.55 775.901 2204.19 773.14C2202.93 772.258 2201.73 771.296 2200.6 770.26C2198.2 767.77 2197.36 764.26 2195.97 761.06C2194.97 758.396 2193.11 756.141 2190.68 754.65C2184.95 751.65 2177.33 755.73 2171.61 752.65C2170.41 751.919 2169.27 751.093 2168.2 750.18C2160 743.98 2150.69 745.42 2141.74 748.66C2137.56 750.17 2136.19 751.82 2132.74 754.53C2128.94 757.53 2123.67 757.29 2119.84 760.19C2115.84 763.19 2114.84 768.82 2114.77 773.86C2114.65 775.69 2114.94 777.523 2115.61 779.23C2116.74 781.312 2118.56 782.932 2120.76 783.81C2125.89 786.15 2131.66 785.25 2137.09 784.81C2142.52 784.37 2148.58 780.66 2153.78 782.6C2158.98 784.54 2160.14 790.72 2166.38 791.2C2168.84 791.39 2171.83 790.94 2173.3 792.92C2174.96 795.16 2174.09 798.84 2175.4 801.43C2176.71 804.02 2178.8 806.08 2180.4 808.33C2183.55 812.81 2188.02 815.88 2186.4 821.72C2185.29 825.78 2180.78 832.3 2182.64 836.6C2183.87 839.44 2190.11 839.39 2194.83 835.8C2199.55 832.21 2201.14 825.04 2202.33 819.42C2202.78 817.42 2203.19 815.43 2203.65 813.45Z" fill="#212237"/>
<path id="Vector_240" d="M2181.32 814.44C2185.93 806.95 2190.44 807.54 2193.27 811.03C2197.04 815.68 2191.86 826.87 2189.09 829.03C2183.47 833.34 2178.53 833.53 2177.5 828.68" fill="#ED79AF"/>
<path id="Vector_241" d="M2140.19 848.92C2157.57 849.52 2172.09 841.2 2172.09 841.2" stroke="#CD348B" stroke-width="0.75" stroke-linejoin="round"/>
<path id="Vector_242" d="M2092.19 973.18C2092.19 973.18 2093.34 925.91 2087.94 911.47" stroke="#5666AB" stroke-width="0.75" stroke-miterlimit="10"/>
<path id="Vector_243" d="M2134.26 877.15C2134.26 877.15 2142.85 892.15 2166.1 891.59C2192.45 891.03 2203.35 873.36 2203.35 873.36" stroke="#5666AB" stroke-width="0.75" stroke-miterlimit="10"/>
<path id="Vector_244" d="M1676.68 626.86C1674.08 649.21 1657.48 701 1660.74 703.11C1664 705.22 1671.74 685.32 1674.11 687.52C1676.48 689.72 1667.68 719.84 1671.54 721.13C1676.76 722.89 1683.65 693.13 1683.65 693.13C1683.65 693.13 1677.99 725.95 1682.99 726.25C1686.54 726.46 1692.53 702.73 1695.34 693.56C1693.65 703.86 1691.1 720.11 1694.78 720.26C1698.46 720.41 1702.6 706.38 1705.78 693.78C1704.61 701.78 1700.87 717.78 1704.27 718.04C1707.67 718.3 1720.02 682.1 1727.9 636.94" fill="#ED79AF"/>
<path id="Vector_245" d="M1741.99 399.73C1757.99 517.82 1722.86 659.73 1722.86 659.73L1674.08 649.24C1674.08 649.24 1692.38 521.13 1671.78 408.6" fill="#ED79AF"/>
<path id="Vector_246" d="M1639.19 294.51C1662.31 294.51 1686.29 301.99 1707.53 318.66C1740.08 344.24 1748.19 403.09 1748.19 403.09L1671.27 418.47C1671.27 418.47 1667.21 368.8 1666.61 351.78" fill="#F79259"/>
<path id="Vector_247" d="M1668.5 418.47C1666.81 403.765 1663.65 389.267 1659.08 375.19" stroke="#A5302D" stroke-width="0.75" stroke-miterlimit="10"/>
<path id="Vector_248" d="M2271.28 353.123L2245.82 259.535L2152.24 284.994L2177.71 378.582L2271.28 353.123Z" stroke="#94ABD8" stroke-width="1.5" stroke-miterlimit="10"/>
<path id="Vector_249" d="M81.2934 1401.72L87.2528 1354.41L39.9466 1348.45L33.9873 1395.76L81.2934 1401.72Z" stroke="#94ABD8" stroke-width="1.5" stroke-miterlimit="10"/>
<path id="Vector_250" d="M2464.15 1440.2C2467.18 1419.23 2452.63 1399.78 2431.66 1396.75C2410.7 1393.73 2391.24 1408.28 2388.22 1429.24C2385.19 1450.21 2399.74 1469.66 2420.71 1472.69C2441.68 1475.71 2461.13 1461.17 2464.15 1440.2Z" stroke="#F69A94" stroke-width="1.5" stroke-miterlimit="10"/>
<path id="Vector_251" d="M920.1 122.83C920.1 126.623 918.975 130.332 916.868 133.486C914.76 136.64 911.765 139.098 908.26 140.55C904.755 142.002 900.899 142.382 897.178 141.641C893.458 140.901 890.04 139.075 887.358 136.392C884.675 133.71 882.849 130.292 882.109 126.572C881.369 122.851 881.748 118.995 883.2 115.49C884.652 111.985 887.11 108.99 890.264 106.882C893.418 104.775 897.127 103.65 900.92 103.65C903.439 103.65 905.933 104.146 908.26 105.11C910.587 106.074 912.701 107.487 914.482 109.268C916.263 111.049 917.676 113.163 918.64 115.49C919.604 117.817 920.1 120.311 920.1 122.83Z" stroke="#94ABD8" stroke-width="1.5" stroke-miterlimit="10"/>
<path id="Vector_252" d="M2509.33 967.57C2509.33 971.363 2508.21 975.072 2506.1 978.226C2503.99 981.38 2500.99 983.838 2497.49 985.29C2493.99 986.742 2490.13 987.122 2486.41 986.381C2482.69 985.641 2479.27 983.815 2476.59 981.132C2473.91 978.45 2472.08 975.032 2471.34 971.312C2470.6 967.591 2470.98 963.735 2472.43 960.23C2473.88 956.725 2476.34 953.73 2479.49 951.622C2482.65 949.515 2486.36 948.39 2490.15 948.39C2495.24 948.39 2500.12 950.411 2503.71 954.008C2507.31 957.605 2509.33 962.483 2509.33 967.57Z" stroke="#94ABD8" stroke-width="1.5" stroke-miterlimit="10"/>
<path id="Vector_253" d="M2528.51 1363.24C2528.51 1367.03 2527.39 1370.74 2525.28 1373.9C2523.17 1377.05 2520.17 1379.51 2516.67 1380.96C2513.17 1382.41 2509.31 1382.79 2505.59 1382.05C2501.87 1381.31 2498.45 1379.48 2495.77 1376.8C2493.09 1374.12 2491.26 1370.7 2490.52 1366.98C2489.78 1363.26 2490.16 1359.4 2491.61 1355.9C2493.06 1352.4 2495.52 1349.4 2498.67 1347.29C2501.83 1345.18 2505.54 1344.06 2509.33 1344.06C2514.42 1344.06 2519.3 1346.08 2522.89 1349.68C2526.49 1353.27 2528.51 1358.15 2528.51 1363.24V1363.24Z" stroke="#94ABD8" stroke-width="1.5" stroke-miterlimit="10"/>
<path id="Vector_254" d="M15.12 1224.08C15.122 1227.88 13.9982 1231.59 11.8908 1234.74C9.78334 1237.9 6.78696 1240.36 3.28062 1241.82C-0.225721 1243.27 -4.0845 1243.65 -7.80765 1242.91C-11.5308 1242.17 -14.9511 1240.35 -17.6358 1237.66C-20.3206 1234.98 -22.1493 1231.56 -22.8905 1227.84C-23.6318 1224.11 -23.2524 1220.26 -21.8002 1216.75C-20.3481 1213.24 -17.8884 1210.24 -14.7324 1208.13C-11.5764 1206.03 -7.86585 1204.9 -4.07 1204.9C1.01777 1204.9 5.89731 1206.92 9.49585 1210.52C13.0944 1214.11 15.1173 1218.99 15.12 1224.08V1224.08Z" stroke="#F69A94" stroke-width="1.5" stroke-miterlimit="10"/>
<path id="Vector_255" d="M478.55 193.6L480.55 206.37C480.99 209.118 482.413 211.613 484.553 213.392C486.694 215.17 489.408 216.111 492.19 216.04L500.66 215.87C503.435 215.811 506.138 216.759 508.269 218.539C510.399 220.318 511.813 222.809 512.25 225.55L513.59 233.91C514.029 236.651 515.446 239.141 517.578 240.918C519.711 242.696 522.415 243.641 525.19 243.58L533.67 243.41C536.444 243.351 539.145 244.297 541.276 246.075C543.406 247.852 544.821 250.34 545.26 253.08L546.61 261.48C547.049 264.218 548.462 266.705 550.591 268.482C552.719 270.259 555.418 271.207 558.19 271.15L568.19 270.95" stroke="#94ABD8" stroke-width="1.5" stroke-miterlimit="10"/>
<path id="Vector_256" d="M110.86 1032.14L106.86 1019.84C106.005 1017.2 104.224 1014.96 101.846 1013.53C99.4675 1012.1 96.6526 1011.58 93.92 1012.06L85.57 1013.53C82.8385 1014.01 80.0241 1013.49 77.6471 1012.06C75.2701 1010.63 73.4915 1008.39 72.64 1005.75L70.03 997.75C69.1747 995.11 67.3943 992.867 65.0164 991.436C62.6386 990.004 59.8236 989.48 57.09 989.96L48.73 991.44C45.9987 991.922 43.1852 991.4 40.8088 989.97C38.4323 988.54 36.6533 986.299 35.8 983.66L33.17 975.57C32.313 972.933 30.5333 970.695 28.1578 969.265C25.7823 967.836 22.9708 967.312 20.24 967.79L10.35 969.53" stroke="#94ABD8" stroke-width="1.5" stroke-miterlimit="10"/>
<path id="Vector_257" d="M2076.77 524.17L2089.66 523.07C2092.43 522.838 2095.01 521.614 2096.95 519.624C2098.88 517.634 2100.04 515.011 2100.19 512.24L2100.64 503.78C2100.78 501.008 2101.93 498.383 2103.86 496.388C2105.79 494.394 2108.37 493.165 2111.14 492.93L2119.57 492.21C2122.34 491.973 2124.92 490.744 2126.85 488.75C2128.79 486.756 2129.93 484.132 2130.08 481.36L2130.53 472.89C2130.67 470.12 2131.82 467.495 2133.74 465.501C2135.67 463.507 2138.26 462.278 2141.02 462.04L2149.5 461.31C2152.26 461.071 2154.85 459.843 2156.77 457.851C2158.7 455.859 2159.85 453.238 2160 450.47L2160.53 440.47" stroke="#94ABD8" stroke-width="1.5" stroke-miterlimit="10"/>
<path id="Vector_258" d="M2474.34 710.49L2462.02 714.49C2459.38 715.335 2457.13 717.108 2455.69 719.481C2454.26 721.854 2453.73 724.667 2454.2 727.4L2455.64 735.75C2456.11 738.483 2455.58 741.295 2454.14 743.667C2452.71 746.04 2450.46 747.813 2447.82 748.66L2439.76 751.24C2437.12 752.085 2434.87 753.857 2433.43 756.23C2431.99 758.603 2431.46 761.416 2431.93 764.15L2433.38 772.52C2433.85 775.252 2433.32 778.061 2431.88 780.431C2430.44 782.802 2428.2 784.573 2425.56 785.42L2417.45 788.02C2414.81 788.867 2412.56 790.641 2411.13 793.013C2409.69 795.386 2409.16 798.198 2409.64 800.93L2411.34 810.82" stroke="#94ABD8" stroke-width="1.5" stroke-miterlimit="10"/>
<path id="Vector_259" d="M2544.24 1269.98L2554.97 1277.21C2557.27 1278.77 2560.06 1279.43 2562.82 1279.09C2565.58 1278.75 2568.12 1277.41 2569.97 1275.34L2575.63 1269.04C2577.48 1266.97 2580.02 1265.64 2582.78 1265.29C2585.54 1264.95 2588.33 1265.62 2590.63 1267.18L2597.63 1271.9C2599.93 1273.46 2602.72 1274.13 2605.48 1273.79C2608.23 1273.45 2610.77 1272.12 2612.63 1270.05L2618.29 1263.73C2620.14 1261.66 2622.68 1260.33 2625.44 1259.98C2628.2 1259.64 2630.99 1260.31 2633.29 1261.86L2640.35 1266.61C2642.65 1268.17 2645.44 1268.84 2648.2 1268.49C2650.96 1268.15 2653.5 1266.82 2655.35 1264.75L2662.06 1257.28" stroke="#94ABD8" stroke-width="1.5" stroke-miterlimit="10"/>
<path id="Vector_260" d="M2431.96 868.8L2387.63 896.16" stroke="#F69A94" stroke-width="1.5" stroke-miterlimit="10"/>
<path id="Vector_261" d="M1984.42 293.85L1943.69 326.33" stroke="#F69A94" stroke-width="1.5" stroke-miterlimit="10"/>
<path id="Vector_262" d="M1078.15 369.21L1027.43 357.3" stroke="#F69A94" stroke-width="1.5" stroke-miterlimit="10"/>
<path id="Vector_263" d="M117.39 589.85L78.8199 554.83" stroke="#F69A94" stroke-width="1.5" stroke-miterlimit="10"/>
</g>
<g id="fourthpart">
<path id="Vector_264" d="M1832.42 1698.54C1831.17 1698.54 1829.91 1698.54 1828.66 1698.41L1380.5 1666.72C1373.63 1666.23 1366.91 1664.4 1360.75 1661.31C1354.58 1658.23 1349.08 1653.97 1344.56 1648.76C1340.05 1643.55 1336.6 1637.51 1334.42 1630.97C1332.24 1624.43 1331.37 1617.53 1331.85 1610.65L1341.17 1478.73C1341.35 1476.21 1342.25 1473.8 1343.75 1471.78C1345.25 1469.75 1347.3 1468.19 1349.65 1467.29C1352 1466.38 1354.56 1466.16 1357.04 1466.65C1359.51 1467.15 1361.79 1468.34 1363.61 1470.08C1377.78 1483.47 1395.08 1491.23 1413.61 1492.55C1415.46 1492.68 1417.34 1492.74 1419.18 1492.74C1465.87 1492.74 1505.39 1451.12 1509.18 1397.99C1511.08 1371.05 1503.67 1345.07 1488.3 1324.84C1472.93 1304.61 1451.5 1292.6 1427.9 1290.94C1426.06 1290.81 1424.19 1290.74 1422.35 1290.74C1405.42 1290.85 1388.94 1296.23 1375.21 1306.14C1372.96 1307.75 1370.26 1308.62 1367.49 1308.63C1365.65 1308.62 1363.83 1308.24 1362.14 1307.51C1360.45 1306.77 1358.93 1305.7 1357.67 1304.35C1356.44 1303.03 1355.49 1301.46 1354.9 1299.75C1354.3 1298.04 1354.07 1296.22 1354.22 1294.42L1363.55 1162.49C1364.52 1149.27 1370.45 1136.89 1380.14 1127.85C1389.84 1118.8 1402.59 1113.75 1415.85 1113.7C1417.1 1113.7 1418.36 1113.7 1419.61 1113.84L1555.92 1123.47C1558.5 1123.65 1560.97 1124.58 1563.03 1126.14C1565.09 1127.7 1566.65 1129.83 1567.51 1132.26C1568.38 1134.7 1568.51 1137.33 1567.9 1139.85C1567.29 1142.36 1565.96 1144.63 1564.07 1146.4C1548.28 1161.07 1538.8 1180.34 1537.36 1200.67C1535.69 1224.26 1544.6 1247.19 1562.43 1265.23C1580.26 1283.27 1604.97 1294.29 1631.91 1296.23C1634.65 1296.42 1637.42 1296.52 1640.14 1296.52C1692.32 1296.52 1735.73 1260.69 1738.96 1214.95C1740.4 1194.63 1733.72 1174.21 1720.15 1157.46C1718.58 1155.51 1717.6 1153.17 1717.31 1150.68C1717.02 1148.2 1717.43 1145.69 1718.51 1143.43C1719.58 1141.18 1721.27 1139.27 1723.39 1137.94C1725.5 1136.6 1727.94 1135.89 1730.44 1135.88C1730.77 1135.88 1731.11 1135.88 1731.44 1135.88L1867.75 1145.52C1881.63 1146.52 1894.55 1152.98 1903.67 1163.49C1912.8 1174 1917.38 1187.7 1916.41 1201.58L1884.72 1649.74C1883.75 1662.97 1877.83 1675.34 1868.13 1684.39C1858.43 1693.43 1845.67 1698.48 1832.41 1698.53L1832.42 1698.54Z" fill="#8A9FD1"/>
<path id="Vector_265" d="M1415.84 1114.45C1417.07 1114.45 1418.31 1114.45 1419.55 1114.59L1555.86 1124.22C1558.29 1124.39 1560.62 1125.26 1562.57 1126.74C1564.51 1128.21 1565.98 1130.22 1566.79 1132.52C1567.61 1134.81 1567.74 1137.3 1567.16 1139.67C1566.59 1142.04 1565.33 1144.18 1563.55 1145.85C1548.12 1160.19 1538.12 1179.2 1536.55 1200.61C1533.07 1249.85 1575.71 1292.98 1631.8 1296.95C1634.58 1297.14 1637.35 1297.24 1640.09 1297.24C1692.57 1297.24 1736.35 1261.77 1739.66 1214.98C1741.17 1193.56 1733.94 1173.33 1720.66 1156.98C1719.19 1155.14 1718.26 1152.93 1717.99 1150.59C1717.72 1148.25 1718.11 1145.88 1719.12 1143.75C1720.14 1141.62 1721.73 1139.83 1723.72 1138.57C1725.71 1137.3 1728.02 1136.63 1730.37 1136.62C1730.69 1136.62 1731.01 1136.62 1731.37 1136.62L1867.67 1146.26C1874.45 1146.73 1881.07 1148.54 1887.16 1151.57C1893.24 1154.61 1898.67 1158.81 1903.12 1163.94C1907.58 1169.08 1910.98 1175.04 1913.14 1181.48C1915.29 1187.93 1916.15 1194.74 1915.67 1201.52L1883.98 1649.68C1883.06 1662.73 1877.23 1674.94 1867.66 1683.86C1858.09 1692.79 1845.5 1697.75 1832.42 1697.77C1831.19 1697.77 1829.96 1697.77 1828.72 1697.64L1380.56 1666.01C1373.78 1665.53 1367.16 1663.73 1361.08 1660.69C1355 1657.66 1349.57 1653.45 1345.12 1648.32C1340.66 1643.19 1337.26 1637.23 1335.1 1630.79C1332.95 1624.34 1332.08 1617.53 1332.56 1610.75L1341.89 1478.82C1342.06 1476.44 1342.9 1474.17 1344.32 1472.25C1345.74 1470.34 1347.67 1468.87 1349.89 1468.01C1352.11 1467.16 1354.53 1466.95 1356.87 1467.42C1359.2 1467.89 1361.36 1469.02 1363.07 1470.67C1376.82 1483.67 1394.2 1491.97 1413.55 1493.33C1415.44 1493.47 1417.31 1493.53 1419.18 1493.53C1466.03 1493.53 1506.07 1452.02 1509.89 1398.09C1513.89 1342 1477.15 1293.71 1427.89 1290.23C1426.02 1290.09 1424.15 1290.03 1422.29 1290.03C1405.21 1290.13 1388.58 1295.56 1374.72 1305.56C1372.79 1306.95 1370.51 1307.76 1368.14 1307.9C1365.77 1308.04 1363.4 1307.5 1361.33 1306.35C1359.25 1305.19 1357.54 1303.47 1356.41 1301.39C1355.27 1299.3 1354.75 1296.93 1354.91 1294.56L1364.23 1162.64C1365.16 1149.59 1370.99 1137.37 1380.55 1128.45C1390.12 1119.53 1402.71 1114.56 1415.79 1114.54L1415.84 1114.45ZM1415.79 1113.04C1402.34 1113.07 1389.4 1118.19 1379.57 1127.37C1369.74 1136.55 1363.74 1149.11 1362.79 1162.53L1353.46 1294.46C1353.31 1296.37 1353.56 1298.28 1354.18 1300.09C1354.81 1301.89 1355.81 1303.55 1357.11 1304.95C1359.44 1307.47 1362.61 1309.05 1366.02 1309.4C1369.43 1309.74 1372.85 1308.84 1375.64 1306.84C1389.24 1297.02 1405.57 1291.69 1422.34 1291.58C1424.17 1291.58 1426.01 1291.64 1427.84 1291.77C1476.17 1295.19 1512.32 1342.86 1508.42 1398.03C1504.69 1450.77 1465.5 1492.03 1419.21 1492.03C1417.38 1492.03 1415.52 1491.97 1413.69 1491.84C1395.31 1490.54 1378.17 1482.84 1364.13 1469.58C1361.53 1467.09 1358.07 1465.7 1354.46 1465.68C1350.91 1465.65 1347.48 1466.98 1344.88 1469.4C1342.27 1471.81 1340.69 1475.14 1340.46 1478.68L1331.13 1610.61C1330.14 1624.69 1334.78 1638.6 1344.03 1649.26C1353.29 1659.92 1366.4 1666.47 1380.48 1667.47L1828.64 1699.16C1829.91 1699.25 1831.19 1699.3 1832.45 1699.3C1845.91 1699.28 1858.85 1694.16 1868.68 1684.98C1878.52 1675.79 1884.51 1663.23 1885.45 1649.81L1917.14 1201.65C1918.12 1187.57 1913.48 1173.68 1904.22 1163.02C1894.97 1152.36 1881.87 1145.8 1867.79 1144.79L1731.48 1135.15C1731.13 1135.15 1730.77 1135.15 1730.42 1135.15C1727.78 1135.15 1725.19 1135.9 1722.96 1137.31C1720.72 1138.73 1718.93 1140.74 1717.79 1143.13C1716.66 1145.51 1716.22 1148.17 1716.53 1150.8C1716.84 1153.42 1717.89 1155.91 1719.55 1157.96C1732.99 1174.55 1739.62 1194.78 1738.19 1214.96C1734.99 1260.31 1691.91 1295.83 1640.12 1295.83C1637.41 1295.83 1634.65 1295.73 1631.94 1295.54C1605.17 1293.65 1580.67 1282.73 1562.94 1264.79C1545.21 1246.85 1536.43 1224.19 1538.08 1200.79C1539.5 1180.65 1548.9 1161.56 1564.55 1147.02C1566.55 1145.16 1567.97 1142.75 1568.62 1140.1C1569.27 1137.44 1569.12 1134.66 1568.21 1132.08C1567.29 1129.5 1565.64 1127.25 1563.46 1125.6C1561.28 1123.96 1558.67 1122.98 1555.94 1122.8L1419.63 1113.16C1418.37 1113.07 1417.09 1113.02 1415.82 1113.02L1415.79 1113.04Z" fill="white"/>
</g>
</g>
<defs>
<clipPath id="clip0">
<rect width="2690.37" height="2139.1" fill="white"/>
</clipPath>
</defs>
</svg>
