<svg id="Layer_1" data-name="Layer 1" xmlns="http://www.w3.org/2000/svg" viewBox="0 0 1490.91 469.19"><defs><style>.cls-1{fill:#8c7851;}</style></defs><path class="cls-1" d="M666,940.3a64.38,64.38,0,0,1,24.68,24.81q8.93,15.87,8.94,36.26v54.39a75.24,75.24,0,0,1-8.82,36.27,65.55,65.55,0,0,1-24.8,25.81q-16,9.44-36.14,9.44a79.74,79.74,0,0,1-33.74-7.18,70.42,70.42,0,0,1-26.19-20.52,11.38,11.38,0,0,1-2.77-7q0-5.29,5.29-9.07a13,13,0,0,1,7.05-2.26,12.42,12.42,0,0,1,10.32,5.29A44.38,44.38,0,0,0,606.92,1100a56.44,56.44,0,0,0,23.42,4.66,43.49,43.49,0,0,0,22.41-5.92,42.58,42.58,0,0,0,16.11-17.38q6-11.46,6-27.32v-12.34a58.24,58.24,0,0,1-20.65,21.66,54.69,54.69,0,0,1-29,7.8q-18.64,0-33.37-8.94a61,61,0,0,1-22.91-24.8q-8.19-15.86-8.19-36,0-20.4,8.82-36.26a63.18,63.18,0,0,1,24.68-24.81q15.85-8.92,36-8.94Q650.23,931.36,666,940.3Zm-12.59,102.12a41.69,41.69,0,0,0,15.86-16.75,51.08,51.08,0,0,0,5.67-24.3,51.89,51.89,0,0,0-5.67-24.43,41.57,41.57,0,0,0-15.86-16.87,47,47,0,0,0-46.09,0,42.55,42.55,0,0,0-16,16.87,51,51,0,0,0-5.79,24.43,50.22,50.22,0,0,0,5.79,24.3,42.69,42.69,0,0,0,16,16.75,47,47,0,0,0,46.09,0Z" transform="translate(-254.73 -765.77)"/><path class="cls-1" d="M826.25,934.89q7.56,4,7.56,10.07a8.66,8.66,0,0,1-.26,2.52q-2.26,8.07-10.07,8.06a21.71,21.71,0,0,1-3.78-.5,98.79,98.79,0,0,0-16.37-1.77q-18.12,0-29.21,8.31T763,984v73.53q0,6-3.14,9.31c-2.11,2.19-5.25,3.28-9.45,3.28q-6,0-9.32-3.15t-3.27-9.44V945q0-6,3.27-9.31t9.32-3.28q12.6,0,12.59,12.59v4.79a53.13,53.13,0,0,1,18.64-13.85,56.45,56.45,0,0,1,23.67-5Q818.7,930.86,826.25,934.89Z" transform="translate(-254.73 -765.77)"/><path class="cls-1" d="M947.75,940.56a67.76,67.76,0,0,1,24.93,25.18,70.2,70.2,0,0,1,9.2,35.63v56.16a12.85,12.85,0,1,1-25.69,0v-9.32a63.43,63.43,0,0,1-81.47,13.85A63.49,63.49,0,0,1,851.56,1037a75.08,75.08,0,0,1-8.44-35.63,70.91,70.91,0,0,1,9.07-35.63,66.21,66.21,0,0,1,25-25.18,69.72,69.72,0,0,1,35.38-9.2A68.34,68.34,0,0,1,947.75,940.56Zm-12.34,101.73a43.48,43.48,0,0,0,16-16.87,49.71,49.71,0,0,0,5.8-24.05,50.43,50.43,0,0,0-5.8-24.17,44.39,44.39,0,0,0-61.57-17,44.16,44.16,0,0,0-16.11,17,49.5,49.5,0,0,0-5.92,24.17,48.79,48.79,0,0,0,5.92,24.05,44.37,44.37,0,0,0,16.11,16.87,45.17,45.17,0,0,0,45.58,0Z" transform="translate(-254.73 -765.77)"/><path class="cls-1" d="M1285.82,1059.54a11.68,11.68,0,0,1-4.53,9.32,12.72,12.72,0,0,1-8.06,3,11,11,0,0,1-9.07-4.53l-47.84-59.18-12.6,11.08v38.53a12.34,12.34,0,1,1-24.67,0v-172a12.34,12.34,0,1,1,24.67,0v102.5l61.2-54.65a10.65,10.65,0,0,1,7.8-3.27,10.51,10.51,0,0,1,8.57,4,10.69,10.69,0,0,1,3.27,7.8,10.5,10.5,0,0,1-4,8.56l-46.33,41.3,48.85,59.94A10.77,10.77,0,0,1,1285.82,1059.54Z" transform="translate(-254.73 -765.77)"/><path class="cls-1" d="M1407.32,940.56a67.76,67.76,0,0,1,24.93,25.18,70.19,70.19,0,0,1,9.19,35.63v56.16a12.84,12.84,0,1,1-25.68,0v-9.32a63.43,63.43,0,0,1-81.47,13.85,63.49,63.49,0,0,1-23.16-25.06,75.08,75.08,0,0,1-8.44-35.63,71,71,0,0,1,9.06-35.63,66.3,66.3,0,0,1,25.06-25.18,69.7,69.7,0,0,1,35.38-9.2A68.34,68.34,0,0,1,1407.32,940.56ZM1395,1042.29a43.48,43.48,0,0,0,16-16.87,49.7,49.7,0,0,0,5.79-24.05A50.43,50.43,0,0,0,1411,977.2a44.39,44.39,0,0,0-61.57-17,44.26,44.26,0,0,0-16.12,17,49.6,49.6,0,0,0-5.91,24.17,48.89,48.89,0,0,0,5.91,24.05,44.47,44.47,0,0,0,16.12,16.87,45.17,45.17,0,0,0,45.58,0Z" transform="translate(-254.73 -765.77)"/><path class="cls-1" d="M1577.3,940.56a67.76,67.76,0,0,1,24.93,25.18,70.29,70.29,0,0,1,9.19,35.63v56.16a12.85,12.85,0,1,1-25.69,0v-9.32a63.42,63.42,0,0,1-81.46,13.85A63.51,63.51,0,0,1,1481.1,1037a75.2,75.2,0,0,1-8.44-35.63,71,71,0,0,1,9.07-35.63,66.16,66.16,0,0,1,25.06-25.18,69.7,69.7,0,0,1,35.38-9.2A68.37,68.37,0,0,1,1577.3,940.56ZM1565,1042.29a43.48,43.48,0,0,0,16-16.87,49.7,49.7,0,0,0,5.79-24.05A50.43,50.43,0,0,0,1581,977.2a44.39,44.39,0,0,0-61.57-17,44.26,44.26,0,0,0-16.12,17,49.61,49.61,0,0,0-5.92,24.17,48.9,48.9,0,0,0,5.92,24.05,44.47,44.47,0,0,0,16.12,16.87,45.17,45.17,0,0,0,45.58,0Z" transform="translate(-254.73 -765.77)"/><path class="cls-1" d="M1738.08,934.89q7.56,4,7.56,10.07a8.66,8.66,0,0,1-.26,2.52q-2.27,8.07-10.07,8.06a21.71,21.71,0,0,1-3.78-.5,98.79,98.79,0,0,0-16.37-1.77q-18.12,0-29.21,8.31T1674.87,984v73.53q0,6-3.14,9.31c-2.11,2.19-5.25,3.28-9.45,3.28q-6,0-9.31-3.15t-3.28-9.44V945q0-6,3.28-9.31t9.31-3.28q12.6,0,12.59,12.59v4.79a53.13,53.13,0,0,1,18.64-13.85,56.45,56.45,0,0,1,23.67-5Q1730.53,930.86,1738.08,934.89Z" transform="translate(-254.73 -765.77)"/><path class="cls-1" d="M1056.92,905.93q-8.57,9.33-8.57,24.68v6.8H1074a12.14,12.14,0,0,1,8.56,3,10.44,10.44,0,0,1,3.27,8.06,9.85,9.85,0,0,1-3.27,7.55,12.1,12.1,0,0,1-8.56,3h-25.69v98.22a12.58,12.58,0,0,1-3.52,9.31q-3.54,3.54-9.82,3.53a12,12,0,0,1-8.69-3.53,12.32,12.32,0,0,1-3.65-9.31V959.06h-10.83a12.08,12.08,0,0,1-8.56-3,9.82,9.82,0,0,1-3.28-7.55,10.41,10.41,0,0,1,3.28-8.06,12.13,12.13,0,0,1,8.56-3h10.83v-4.28q0-17.88,7.17-31.35A51.52,51.52,0,0,1,1050,880.87q13-7.43,29.59-7.42a13.26,13.26,0,0,1,9.19,3.27,11.28,11.28,0,0,1,0,16.62,13.21,13.21,0,0,1-9.19,3.27Q1065.47,896.61,1056.92,905.93Z" transform="translate(-254.73 -765.77)"/><path class="cls-1" d="M1106.65,905.05a16.42,16.42,0,1,1,11.71,4.91A16,16,0,0,1,1106.65,905.05Zm2.52,161.42a12.45,12.45,0,0,1-3.65-9.19V945.21a12.34,12.34,0,0,1,3.65-9.31,12.78,12.78,0,0,1,22,9.31v112.07a12.71,12.71,0,0,1-3.52,9.19,13.56,13.56,0,0,1-18.51,0Z" transform="translate(-254.73 -765.77)"/><path class="cls-1" d="M371.1,1030.59A116.38,116.38,0,1,1,487.48,914.21,116.51,116.51,0,0,1,371.1,1030.59Zm0-204.37a88,88,0,1,0,88,88A88.09,88.09,0,0,0,371.1,826.22Z" transform="translate(-254.73 -765.77)"/><path class="cls-1" d="M371.1,1235a116.51,116.51,0,0,1-116.37-116.38,14.19,14.19,0,0,1,28.38,0,88,88,0,0,0,176,0,14.19,14.19,0,0,1,28.38,0A116.51,116.51,0,0,1,371.1,1235Z" transform="translate(-254.73 -765.77)"/><path class="cls-1" d="M371.1,979.49a65.28,65.28,0,1,1,65.29-65.28A65.35,65.35,0,0,1,371.1,979.49Zm0-102.18a36.9,36.9,0,1,0,36.9,36.9A36.94,36.94,0,0,0,371.1,877.31Z" transform="translate(-254.73 -765.77)"/><path class="cls-1" d="M359.39,1152.59a16.42,16.42,0,1,1,11.71,4.91A16,16,0,0,1,359.39,1152.59Z" transform="translate(-254.73 -765.77)"/><path class="cls-1" d="M288.43,794.1A16.42,16.42,0,1,1,300.14,799,16,16,0,0,1,288.43,794.1Z" transform="translate(-254.73 -765.77)"/><path class="cls-1" d="M430.36,794.1A16.41,16.41,0,1,1,442.07,799,16,16,0,0,1,430.36,794.1Z" transform="translate(-254.73 -765.77)"/></svg>