<svg id="Layer_1" data-name="Layer 1" xmlns="http://www.w3.org/2000/svg" xmlns:xlink="http://www.w3.org/1999/xlink" viewBox="0 0 697.35 526.22"><defs><style>.cls-1,.cls-13,.cls-15,.cls-18,.cls-2,.cls-20,.cls-25,.cls-26,.cls-27,.cls-28,.cls-3,.cls-4{fill:none;}.cls-18,.cls-2,.cls-26,.cls-3{stroke:#f47b20;}.cls-13,.cls-15,.cls-18,.cls-2,.cls-20,.cls-25,.cls-26,.cls-27,.cls-28,.cls-3,.cls-4{stroke-miterlimit:10;}.cls-2{stroke-width:0.59px;stroke-dasharray:3.68;}.cls-15,.cls-25,.cls-3{stroke-width:0.75px;}.cls-25,.cls-3{stroke-dasharray:4.65;}.cls-4{stroke:#03bfdf;stroke-width:0.65px;}.cls-5{fill:#03bfdf;}.cls-6{fill:#d0d4de;}.cls-7{clip-path:url(#clip-path);}.cls-8{fill:#8f9199;}.cls-9{fill:#e0e4f0;}.cls-10{clip-path:url(#clip-path-2);}.cls-11{fill:#8a8d94;}.cls-12{fill:#39c6f4;}.cls-13,.cls-28{stroke:#fff;}.cls-13{stroke-width:1.51px;}.cls-14{fill:#046575;}.cls-15,.cls-25{stroke:#046575;}.cls-15{stroke-dasharray:4.66 4.66;}.cls-16{fill:#078399;}.cls-17{fill:#fff;}.cls-18{stroke-width:0.68px;}.cls-19{fill:#f47b20;}.cls-20,.cls-27{stroke:#fed500;}.cls-20{stroke-width:0.73px;}.cls-21{fill:#fed500;}.cls-22{fill:#201648;}.cls-23{fill:#3f2f89;}.cls-24{fill:#b7bbc4;}.cls-26,.cls-27,.cls-28{stroke-width:0.9px;}</style><clipPath id="clip-path" transform="translate(-64.15 -32.1)"><rect id="SVGID" class="cls-1" x="257.88" y="65.11" width="65.2" height="12.93" transform="translate(8.86 172.52) rotate(-33.56)"/></clipPath><clipPath id="clip-path-2" transform="translate(-64.15 -32.1)"><rect id="SVGID-2" data-name="SVGID" class="cls-1" x="266.94" y="84.05" width="65.2" height="12.93" transform="translate(-13.32 96.29) rotate(-17.87)"/></clipPath></defs><circle class="cls-2" cx="129.43" cy="493.07" r="64.96" transform="translate(-176.07 11.95) rotate(-13.55)"/><circle class="cls-3" cx="242.83" cy="147.04" r="82.11"/><rect class="cls-4" x="153.59" y="306.31" width="122.25" height="78.71" rx="3.09"/><line class="cls-4" x1="153.59" y1="316.78" x2="275.84" y2="316.78"/><path class="cls-5" d="M227,343.57a2.4,2.4,0,1,1-2.39-2.39A2.39,2.39,0,0,1,227,343.57Z" transform="translate(-64.15 -32.1)"/><circle class="cls-5" cx="168.59" cy="311.47" r="2.39"/><circle class="cls-5" cx="176.74" cy="311.47" r="2.39"/><rect class="cls-4" x="424.93" y="78.63" width="122.25" height="78.71" rx="3.09"/><line class="cls-4" x1="424.93" y1="89.1" x2="547.19" y2="89.1"/><circle class="cls-5" cx="431.8" cy="83.8" r="2.39"/><circle class="cls-5" cx="439.94" cy="83.8" r="2.39"/><path class="cls-5" d="M514.63,115.9a2.4,2.4,0,1,1-2.4-2.4A2.39,2.39,0,0,1,514.63,115.9Z" transform="translate(-64.15 -32.1)"/><rect class="cls-6" x="257.88" y="65.11" width="65.2" height="12.93" transform="translate(-55.3 140.42) rotate(-33.56)"/><g class="cls-7"><rect class="cls-8" x="259.09" y="71.8" width="5.53" height="37.72" transform="matrix(0.98, 0.2, -0.2, 0.98, -40.97, -82.23)"/><rect class="cls-8" x="273.98" y="61.92" width="5.53" height="37.72" transform="translate(-42.64 -85.38) rotate(11.44)"/><rect class="cls-8" x="288.88" y="52.04" width="5.53" height="37.72" transform="translate(-44.3 -88.53) rotate(11.44)"/><rect class="cls-8" x="303.77" y="42.16" width="5.53" height="37.72" transform="translate(-45.97 -91.68) rotate(11.44)"/><rect class="cls-8" x="318.67" y="32.27" width="5.53" height="37.72" transform="translate(-47.63 -94.83) rotate(11.44)"/></g><path class="cls-9" d="M273.26,83.23h63a0,0,0,0,1,0,0V124a6.14,6.14,0,0,1-6.14,6.14H279.4a6.14,6.14,0,0,1-6.14-6.14V83.23a0,0,0,0,1,0,0Z" transform="translate(-82.19 66.57) rotate(-17.87)"/><rect class="cls-6" x="266.94" y="84.05" width="65.2" height="12.93" transform="translate(-77.48 64.19) rotate(-17.87)"/><g class="cls-10"><rect class="cls-8" x="264.05" y="82.29" width="5.53" height="37.72" transform="translate(11.32 -142.64) rotate(27.13)"/><rect class="cls-8" x="281.07" y="76.8" width="5.53" height="37.72" transform="translate(10.69 -151) rotate(27.13)"/><rect class="cls-8" x="298.08" y="71.32" width="5.53" height="37.72" transform="translate(10.06 -159.36) rotate(27.13)"/><rect class="cls-8" x="315.09" y="65.83" width="5.53" height="37.72" transform="translate(9.43 -167.72) rotate(27.13)"/><rect class="cls-8" x="332.1" y="60.35" width="5.53" height="37.72" transform="translate(8.8 -176.08) rotate(27.13)"/></g><path class="cls-6" d="M313.94,107.34a1.69,1.69,0,0,1,.89,2.78L310,115.48l-4.84,5.35a1.69,1.69,0,0,1-2.86-.61l-2.21-6.87-2.22-6.87a1.69,1.69,0,0,1,2-2.17l7.06,1.52Z" transform="translate(-64.15 -32.1)"/><path class="cls-9" d="M140.41,477.2H194.3V336.78H140.41Zm2.84-131.34v-5.28h5.29v5.28Zm0,11.69v-5.29h5.29v5.29Zm0,11.68V364h5.29v5.28Zm0,11.69v-5.29h5.29v5.29Zm0,11.68v-5.28h5.29v5.28Zm0,11.69V399h5.29v5.29Zm0,11.68v-5.28h5.29V416Zm0,11.69v-5.28h5.29v5.28Zm0,11.69v-5.29h5.29v5.29Zm0,11.68v-5.28h5.29V451Zm0,11.69v-5.29h5.29v5.29Zm0,11.68v-5.28h5.29v5.28Zm47.53-5.28v5.28h-5.29v-5.28Zm0-11.69v5.29h-5.29v-5.29Zm0-11.68V451h-5.29v-5.28Zm-11.69-1.81a2.58,2.58,0,0,1,2.59,2.58v26a2.59,2.59,0,0,1-2.59,2.59H155.62a2.59,2.59,0,0,1-2.59-2.59v-26a2.58,2.58,0,0,1,2.59-2.58Zm11.69-9.88v5.29h-5.29v-5.29Zm0-11.68v5.28h-5.29v-5.28Zm0-11.69V416h-5.29v-5.28Zm-11.69-1.79a2.59,2.59,0,0,1,2.59,2.59v26a2.59,2.59,0,0,1-2.59,2.58H155.62a2.59,2.59,0,0,1-2.59-2.58v-26a2.59,2.59,0,0,1,2.59-2.59Zm11.69-9.9v5.29h-5.29V399Zm0-11.68v5.28h-5.29v-5.28Zm0-11.69v5.29h-5.29v-5.29Zm-11.69-1.76a2.59,2.59,0,0,1,2.59,2.59v26a2.59,2.59,0,0,1-2.59,2.59H155.62a2.59,2.59,0,0,1-2.59-2.59v-26a2.59,2.59,0,0,1,2.59-2.59ZM190.78,364v5.28h-5.29V364Zm0-11.69v5.29h-5.29v-5.29Zm0-11.68v5.28h-5.29v-5.28Zm-11.69-1.74a2.58,2.58,0,0,1,2.59,2.58v26a2.59,2.59,0,0,1-2.59,2.59H155.62a2.59,2.59,0,0,1-2.59-2.59v-26a2.58,2.58,0,0,1,2.59-2.58Z" transform="translate(-64.15 -32.1)"/><path class="cls-9" d="M636.34,262h53.89V121.6H636.34Zm2.84-131.34v-5.29h5.29v5.29Zm0,11.68v-5.28h5.29v5.28Zm0,11.69v-5.28h5.29v5.28Zm0,11.69v-5.29h5.29v5.29Zm0,11.68v-5.28h5.29v5.28Zm0,11.69v-5.29h5.29v5.29Zm0,11.68v-5.28h5.29v5.28Zm0,11.69v-5.29h5.29v5.29Zm0,11.68v-5.28h5.29v5.28Zm0,11.69v-5.29h5.29v5.29Zm0,11.69v-5.29h5.29v5.29Zm0,11.68v-5.28h5.29v5.28Zm47.53-5.28v5.28h-5.29v-5.28Zm0-11.69v5.29h-5.29v-5.29Zm0-11.69v5.29h-5.29v-5.29ZM675,228.76a2.58,2.58,0,0,1,2.58,2.58v26A2.59,2.59,0,0,1,675,260H651.55a2.58,2.58,0,0,1-2.58-2.59v-26a2.57,2.57,0,0,1,2.58-2.58Zm11.68-9.88v5.28h-5.29v-5.28Zm0-11.69v5.29h-5.29v-5.29Zm0-11.68v5.28h-5.29v-5.28ZM675,193.72a2.59,2.59,0,0,1,2.58,2.59v26a2.59,2.59,0,0,1-2.58,2.59H651.55a2.58,2.58,0,0,1-2.58-2.59v-26a2.58,2.58,0,0,1,2.58-2.59Zm11.68-9.9v5.29h-5.29v-5.29Zm0-11.68v5.28h-5.29v-5.28Zm0-11.69v5.29h-5.29v-5.29ZM675,158.69a2.59,2.59,0,0,1,2.58,2.58v26A2.59,2.59,0,0,1,675,189.9H651.55a2.58,2.58,0,0,1-2.58-2.59v-26a2.58,2.58,0,0,1,2.58-2.58Zm11.68-9.92v5.28h-5.29v-5.28Zm0-11.69v5.28h-5.29v-5.28Zm0-11.69v5.29h-5.29v-5.29ZM675,123.65a2.59,2.59,0,0,1,2.58,2.59v26a2.58,2.58,0,0,1-2.58,2.58H651.55a2.57,2.57,0,0,1-2.58-2.58v-26a2.58,2.58,0,0,1,2.58-2.59Z" transform="translate(-64.15 -32.1)"/><rect class="cls-11" x="375.74" y="352.38" width="61.54" height="35.68"/><rect class="cls-11" x="251.89" y="173.66" width="301.68" height="180.93" rx="8.75"/><rect class="cls-9" x="240.54" y="173.66" width="301.68" height="180.93" rx="8.75"/><rect class="cls-12" x="372.22" y="153.77" width="166.63" height="284.91" rx="4.87" transform="translate(687.61 -191.4) rotate(90)"/><rect class="cls-13" x="372.22" y="153.77" width="166.63" height="284.91" rx="4.87" transform="translate(687.61 -191.4) rotate(90)"/><rect class="cls-9" x="360.61" y="352.38" width="61.54" height="35.68"/><path class="cls-11" d="M525.42,437.14H420.7v-17h87.73a17,17,0,0,1,17,17Z" transform="translate(-64.15 -32.1)"/><path class="cls-9" d="M468.09,437.14H363.36a17,17,0,0,1,17-17H451.1a17,17,0,0,1,17,17Z" transform="translate(-64.15 -32.1)"/><rect class="cls-14" x="197.12" y="131.23" width="252.18" height="149.85" rx="10.7"/><rect class="cls-15" x="212.96" y="143.86" width="242.25" height="143.94" rx="10.28"/><path class="cls-16" d="M513.46,174v20.9H261.28V174A10.7,10.7,0,0,1,272,163.33H502.75A10.7,10.7,0,0,1,513.46,174Z" transform="translate(-64.15 -32.1)"/><rect class="cls-9" x="197.12" y="242.04" width="252.18" height="23.69"/><rect class="cls-9" x="197.12" y="213.82" width="252.18" height="23.69"/><rect class="cls-16" x="197.12" y="185.6" width="252.18" height="23.69"/><rect class="cls-5" x="197.12" y="175.18" width="252.18" height="5.89"/><rect class="cls-5" x="205.4" y="169.05" width="2.91" height="8.6"/><rect class="cls-5" x="244.18" y="169.05" width="2.91" height="8.6"/><rect class="cls-5" x="282.97" y="169.05" width="2.91" height="8.6"/><rect class="cls-5" x="321.76" y="169.05" width="2.91" height="8.6"/><rect class="cls-5" x="360.55" y="169.05" width="2.91" height="8.6"/><rect class="cls-5" x="399.33" y="169.05" width="2.91" height="8.6"/><rect class="cls-5" x="438.12" y="169.05" width="2.91" height="8.6"/><polygon class="cls-14" points="395.07 218.46 387.09 218.46 395.07 226.44 395.07 218.46"/><polygon class="cls-5" points="403.05 218.46 395.07 218.46 395.07 226.44 403.05 218.46"/><polygon class="cls-14" points="395.07 232.87 387.09 232.87 395.07 224.88 395.07 232.87"/><polygon class="cls-5" points="403.05 232.87 395.07 232.87 395.07 224.88 403.05 232.87"/><polygon class="cls-14" points="282.3 246.68 274.32 246.68 282.3 254.66 282.3 246.68"/><polygon class="cls-5" points="290.28 246.68 282.3 246.68 282.3 254.66 290.28 246.68"/><polygon class="cls-14" points="282.3 261.09 274.32 261.09 282.3 253.1 282.3 261.09"/><polygon class="cls-5" points="290.28 261.09 282.3 261.09 282.3 253.1 290.28 261.09"/><polygon class="cls-14" points="235.53 225.66 244.12 234.25 244.12 217.07 235.53 225.66"/><polygon class="cls-5" points="244.12 217.07 244.12 234.25 252.71 225.66 244.12 217.07"/><polygon class="cls-14" points="307.57 225.66 316.16 234.25 316.16 217.07 307.57 225.66"/><polygon class="cls-5" points="316.16 217.07 316.16 234.25 324.76 225.66 316.16 217.07"/><polygon class="cls-14" points="208.66 253.88 217.25 262.47 217.25 245.29 208.66 253.88"/><polygon class="cls-5" points="217.25 245.29 217.25 262.47 225.85 253.88 217.25 245.29"/><polygon class="cls-14" points="344.76 253.88 353.35 262.47 353.35 245.29 344.76 253.88"/><polygon class="cls-5" points="353.35 245.29 353.35 262.47 361.94 253.88 353.35 245.29"/><polygon class="cls-14" points="419.49 253.88 428.08 262.47 428.08 245.29 419.49 253.88"/><polygon class="cls-5" points="428.08 245.29 428.08 262.47 436.68 253.88 428.08 245.29"/><rect class="cls-9" x="197.12" y="189.95" width="252.18" height="14.98"/><rect class="cls-14" x="197.12" y="189.95" width="110.45" height="14.98"/><path class="cls-17" d="M374.61,217.61a2.89,2.89,0,1,0-3.44,2.83V237h1.11V220.44A2.89,2.89,0,0,0,374.61,217.61Z" transform="translate(-64.15 -32.1)"/><circle class="cls-18" cx="552.1" cy="155.05" r="20.94" transform="translate(-84.55 156.26) rotate(-19.02)"/><circle class="cls-19" cx="484.17" cy="120.95" r="20.94"/><path class="cls-17" d="M558.72,151.19a2.14,2.14,0,0,1,0,3.71l-7.94,4.59-7.95,4.59a2.14,2.14,0,0,1-3.22-1.85V143.87a2.15,2.15,0,0,1,3.22-1.86l7.95,4.59Z" transform="translate(-64.15 -32.1)"/><circle class="cls-20" cx="263.06" cy="385.29" r="22.41" transform="translate(-236.25 521.37) rotate(-76.81)"/><circle class="cls-21" cx="259.5" cy="382.2" r="22.41" transform="translate(-236.51 514.15) rotate(-76.63)"/><path class="cls-17" d="M252.42,369h0a3.12,3.12,0,0,1,3.12,3.12v20.15a3.12,3.12,0,0,1-3.12,3.12h0a3.12,3.12,0,0,1-3.11-3.12V372.12A3.12,3.12,0,0,1,252.42,369Z" transform="translate(-64.15 -32.1)"/><path class="cls-17" d="M266.57,369h0a3.12,3.12,0,0,1,3.12,3.12v20.15a3.12,3.12,0,0,1-3.12,3.12h0a3.12,3.12,0,0,1-3.12-3.12V372.12A3.12,3.12,0,0,1,266.57,369Z" transform="translate(-64.15 -32.1)"/><rect class="cls-22" x="170.64" y="405.04" width="19.13" height="64.07"/><rect class="cls-22" x="495.62" y="405.04" width="201.73" height="18.54"/><rect class="cls-23" x="158.82" y="405.04" width="402.28" height="18.54"/><rect class="cls-23" x="158.82" y="405.04" width="19.13" height="64.07"/><rect class="cls-22" x="553.06" y="405.04" width="19.13" height="64.07"/><rect class="cls-23" x="541.24" y="405.04" width="19.13" height="64.07"/><path class="cls-24" d="M562.57,423h-9c-7.81,0-11.89,6.33-11.89,14.13h35A14.14,14.14,0,0,0,562.57,423Z" transform="translate(-64.15 -32.1)"/><path class="cls-9" d="M552.48,423h-2.94a14.14,14.14,0,0,0-14.14,14.13h31.22A14.14,14.14,0,0,0,552.48,423Z" transform="translate(-64.15 -32.1)"/><rect class="cls-11" x="486.47" y="390.91" width="0.77" height="14.14"/><rect class="cls-25" x="516.06" y="308.49" width="112.26" height="74.35" rx="6.95"/><rect class="cls-16" x="500.88" y="297.62" width="120.45" height="79.78" rx="7.46"/><path class="cls-17" d="M664.69,344.36h-87a3.77,3.77,0,0,1-3.77-3.77h0a3.77,3.77,0,0,1,3.77-3.78h87a3.78,3.78,0,0,1,3.78,3.78h0A3.77,3.77,0,0,1,664.69,344.36Z" transform="translate(-64.15 -32.1)"/><path class="cls-17" d="M631,358.75H577.65a3.77,3.77,0,0,1-3.77-3.78h0a3.77,3.77,0,0,1,3.77-3.77H631a3.77,3.77,0,0,1,3.77,3.77h0A3.77,3.77,0,0,1,631,358.75Z" transform="translate(-64.15 -32.1)"/><path class="cls-17" d="M649.36,373.13H577.65a3.77,3.77,0,0,1-3.77-3.77h0a3.77,3.77,0,0,1,3.77-3.78h71.71a3.78,3.78,0,0,1,3.78,3.78h0A3.77,3.77,0,0,1,649.36,373.13Z" transform="translate(-64.15 -32.1)"/><path class="cls-17" d="M601.62,387.52h-24a3.77,3.77,0,0,1-3.77-3.78h0a3.77,3.77,0,0,1,3.77-3.77h24a3.77,3.77,0,0,1,3.77,3.77h0A3.77,3.77,0,0,1,601.62,387.52Z" transform="translate(-64.15 -32.1)"/><path class="cls-17" d="M627.9,401.9H577.65a3.77,3.77,0,0,1-3.77-3.77h0a3.77,3.77,0,0,1,3.77-3.77H627.9a3.77,3.77,0,0,1,3.78,3.77h0A3.77,3.77,0,0,1,627.9,401.9Z" transform="translate(-64.15 -32.1)"/><path class="cls-17" d="M554.07,305.31,552.38,299l-2.11-7.87a1.53,1.53,0,0,1,1.88-1.88l7.87,2.11,6.3,1.69a1.53,1.53,0,0,1,.24,2.88l-4.3,1.95,5.22,5.23a2.37,2.37,0,1,1-3.35,3.35l-5.23-5.22-1.95,4.3A1.53,1.53,0,0,1,554.07,305.31Z" transform="translate(-64.15 -32.1)"/><path class="cls-21" d="M442.52,111.59H386.11a12.5,12.5,0,0,0-12.49,12.5h0a12.38,12.38,0,0,0,1.77,6.38l-3.29,10.2a2.64,2.64,0,0,0,3.88,3.06l11.72-7.15h54.82A12.49,12.49,0,0,0,455,124.09h0A12.5,12.5,0,0,0,442.52,111.59Z" transform="translate(-64.15 -32.1)"/><circle class="cls-17" cx="323.62" cy="91.83" r="5.65"/><circle class="cls-17" cx="341.11" cy="91.83" r="5.65"/><path class="cls-17" d="M428.41,123.93a5.66,5.66,0,1,1-5.66-5.65A5.65,5.65,0,0,1,428.41,123.93Z" transform="translate(-64.15 -32.1)"/><circle class="cls-17" cx="376.09" cy="91.83" r="5.65"/><path class="cls-19" d="M174.62,281.56H231a12.49,12.49,0,0,1,12.49,12.49h0a12.39,12.39,0,0,1-1.77,6.39L245,310.63a2.63,2.63,0,0,1-3.88,3.06l-11.72-7.15H174.62a12.49,12.49,0,0,1-12.49-12.49h0A12.49,12.49,0,0,1,174.62,281.56Z" transform="translate(-64.15 -32.1)"/><path class="cls-17" d="M223.72,293.89a5.65,5.65,0,1,0,5.65-5.65A5.65,5.65,0,0,0,223.72,293.89Z" transform="translate(-64.15 -32.1)"/><path class="cls-17" d="M206.23,293.89a5.65,5.65,0,1,0,5.65-5.65A5.65,5.65,0,0,0,206.23,293.89Z" transform="translate(-64.15 -32.1)"/><path class="cls-17" d="M188.73,293.89a5.66,5.66,0,1,0,5.66-5.65A5.65,5.65,0,0,0,188.73,293.89Z" transform="translate(-64.15 -32.1)"/><path class="cls-17" d="M171.24,293.89a5.65,5.65,0,1,0,5.65-5.65A5.65,5.65,0,0,0,171.24,293.89Z" transform="translate(-64.15 -32.1)"/><path class="cls-26" d="M653.2,299.58a5.69,5.69,0,1,1-5.69-5.69A5.69,5.69,0,0,1,653.2,299.58Z" transform="translate(-64.15 -32.1)"/><path class="cls-26" d="M348.15,141.72a5.69,5.69,0,1,1-5.69-5.69A5.69,5.69,0,0,1,348.15,141.72Z" transform="translate(-64.15 -32.1)"/><circle class="cls-27" cx="307.57" cy="375.6" r="5.69"/><path class="cls-27" d="M626.86,71.58a5.69,5.69,0,1,1-5.69-5.69A5.68,5.68,0,0,1,626.86,71.58Z" transform="translate(-64.15 -32.1)"/><rect class="cls-27" x="445.54" y="71.56" width="11.4" height="11.4" transform="translate(122.64 -328.54) rotate(45)"/><rect class="cls-26" x="97.43" y="373.84" width="11.4" height="11.4" transform="translate(234.43 6.14) rotate(45)"/><rect class="cls-26" x="568.18" y="471.5" width="11.4" height="11.4" transform="translate(441.36 -298.12) rotate(45)"/><line class="cls-26" x1="162.85" y1="55.57" x2="191.76" y2="26.65"/><line class="cls-27" x1="572.19" y1="64.93" x2="598.39" y2="38.73"/><line class="cls-26" x1="130.15" y1="232.27" x2="144.15" y2="218.27"/><line class="cls-26" x1="240.59" y1="474.62" x2="268.54" y2="446.67"/><line class="cls-26" x1="613.46" y1="278.51" x2="646.75" y2="245.22"/><line class="cls-28" x1="403.05" y1="330.78" x2="430.42" y2="303.42"/><line class="cls-26" x1="406.51" y1="72.17" x2="425.89" y2="52.79"/><line class="cls-27" x1="0.32" y1="411.84" x2="30.55" y2="381.6"/><line class="cls-28" x1="284.43" y1="312.26" x2="301.88" y2="294.81"/></svg>