<svg xmlns="http://www.w3.org/2000/svg" xmlns:xlink="http://www.w3.org/1999/xlink" viewBox="0 0 501.21 502.49"><defs><style>.cls-1{isolation:isolate;}.cls-2{fill:#f4f7fa;}.cls-3,.cls-38{opacity:0.5;}.cls-4{fill:url(#linear-gradient);}.cls-5{fill:url(#linear-gradient-2);}.cls-6{fill:url(#linear-gradient-3);}.cls-7{fill:url(#linear-gradient-4);}.cls-8{fill:url(#linear-gradient-5);}.cls-9{fill:url(#linear-gradient-6);}.cls-10{fill:url(#linear-gradient-7);}.cls-11{fill:url(#linear-gradient-8);}.cls-12{fill:url(#linear-gradient-9);}.cls-13{fill:#b7c0ce;}.cls-14,.cls-38{fill:#fff;}.cls-15{fill:#d8dee8;}.cls-16{fill:url(#linear-gradient-10);}.cls-17,.cls-20,.cls-33,.cls-36{opacity:0.3;}.cls-17{mix-blend-mode:soft-light;}.cls-18{fill:url(#linear-gradient-11);}.cls-19{fill:url(#linear-gradient-12);}.cls-20,.cls-33,.cls-36{mix-blend-mode:multiply;}.cls-20{fill:url(#linear-gradient-13);}.cls-21{fill:url(#linear-gradient-14);}.cls-22{fill:url(#linear-gradient-15);}.cls-23{fill:url(#linear-gradient-16);}.cls-24{fill:url(#linear-gradient-17);}.cls-25{fill:url(#linear-gradient-18);}.cls-26{fill:#26274f;}.cls-27{fill:url(#linear-gradient-19);}.cls-28{fill:url(#linear-gradient-20);}.cls-29{fill:url(#linear-gradient-21);}.cls-30{fill:url(#linear-gradient-22);}.cls-31{fill:url(#linear-gradient-23);}.cls-32{fill:url(#linear-gradient-24);}.cls-33{fill:url(#linear-gradient-25);}.cls-34{fill:url(#linear-gradient-26);}.cls-35{fill:url(#linear-gradient-27);}.cls-36{fill:url(#linear-gradient-28);}.cls-37{fill:url(#linear-gradient-29);}.cls-39{fill:url(#linear-gradient-30);}</style><linearGradient id="linear-gradient" x1="248.07" y1="86.28" x2="525.99" y2="86.28" gradientUnits="userSpaceOnUse"><stop offset="0" stop-color="#d191c0"/><stop offset="1" stop-color="#8172b4"/></linearGradient><linearGradient id="linear-gradient-2" x1="434.64" y1="173.91" x2="630.13" y2="173.91" xlink:href="#linear-gradient"/><linearGradient id="linear-gradient-3" x1="388.56" y1="310.24" x2="598.05" y2="310.24" xlink:href="#linear-gradient"/><linearGradient id="linear-gradient-4" x1="165.21" y1="253.74" x2="473.96" y2="253.74" xlink:href="#linear-gradient"/><linearGradient id="linear-gradient-5" x1="571.24" y1="124.1" x2="591.15" y2="124.1" xlink:href="#linear-gradient"/><linearGradient id="linear-gradient-6" x1="165.52" y1="335.39" x2="201.02" y2="335.39" xlink:href="#linear-gradient"/><linearGradient id="linear-gradient-7" x1="548.43" y1="81.87" x2="572.71" y2="81.87" xlink:href="#linear-gradient"/><linearGradient id="linear-gradient-8" x1="147.17" y1="161.35" x2="191.69" y2="161.35" xlink:href="#linear-gradient"/><linearGradient id="linear-gradient-9" x1="2627.57" y1="-67.64" x2="2653.06" y2="-67.64" gradientTransform="translate(-2046.37 -659.51) rotate(20.36)" xlink:href="#linear-gradient"/><linearGradient id="linear-gradient-10" x1="88.15" y1="231.06" x2="415.25" y2="231.06" gradientUnits="userSpaceOnUse"><stop offset="0" stop-color="#f58f86"/><stop offset="1" stop-color="#ed72ac"/></linearGradient><linearGradient id="linear-gradient-11" x1="285.94" y1="280.7" x2="252.34" y2="456.46" gradientUnits="userSpaceOnUse"><stop offset="0" stop-color="#9681bc"/><stop offset="1" stop-color="#6166ae"/></linearGradient><linearGradient id="linear-gradient-12" x1="192.35" y1="414.58" x2="324.69" y2="463.7" xlink:href="#linear-gradient"/><linearGradient id="linear-gradient-13" x1="177.34" y1="470.09" x2="341.82" y2="470.09" xlink:href="#linear-gradient"/><linearGradient id="linear-gradient-14" x1="456.23" y1="254.54" x2="451.14" y2="264.21" gradientUnits="userSpaceOnUse"><stop offset="0" stop-color="#ffc546"/><stop offset="1" stop-color="#f36f56"/></linearGradient><linearGradient id="linear-gradient-15" x1="506.83" y1="349.27" x2="575.43" y2="577.95" gradientUnits="userSpaceOnUse"><stop offset="0" stop-color="#454c8d"/><stop offset="1" stop-color="#26274f"/></linearGradient><linearGradient id="linear-gradient-16" x1="2825.92" y1="-208.7" x2="2815.73" y2="-179.18" gradientTransform="matrix(0.91, 0.42, -0.42, 0.91, -2270.92, -670.45)" xlink:href="#linear-gradient-14"/><linearGradient id="linear-gradient-17" x1="-2613.21" y1="320.26" x2="-2636.21" y2="336.65" gradientTransform="matrix(-1, 0, 0, 1, -2295.67, -46.23)" xlink:href="#linear-gradient-14"/><linearGradient id="linear-gradient-18" x1="2570.44" y1="1810.53" x2="2547.44" y2="1826.93" gradientTransform="matrix(0.87, -0.5, 0.5, 0.87, -2740.28, 188.88)" xlink:href="#linear-gradient-14"/><linearGradient id="linear-gradient-19" x1="2570.33" y1="1810.37" x2="2547.33" y2="1826.76" gradientTransform="matrix(0.87, -0.5, 0.5, 0.87, -2740.28, 188.88)" xlink:href="#linear-gradient-14"/><linearGradient id="linear-gradient-20" x1="-2665.97" y1="532" x2="-2669.74" y2="557.6" gradientTransform="matrix(-1, 0, 0, 1, -2295.67, -46.23)" xlink:href="#linear-gradient-14"/><linearGradient id="linear-gradient-21" x1="-2669.86" y1="544.9" x2="-2655.28" y2="544.9" gradientTransform="matrix(-1, 0, 0, 1, -2148.49, 0)" gradientUnits="userSpaceOnUse"><stop offset="0" stop-color="#321944"/><stop offset="1" stop-color="#8a3a77"/></linearGradient><linearGradient id="linear-gradient-22" x1="-2610.48" y1="525.15" x2="-2616.25" y2="559.78" gradientTransform="matrix(-1, 0, 0, 1, -2295.67, -46.23)" xlink:href="#linear-gradient-14"/><linearGradient id="linear-gradient-23" x1="-2619.12" y1="542.16" x2="-2607.8" y2="542.16" xlink:href="#linear-gradient-21"/><linearGradient id="linear-gradient-24" x1="-2698.22" y1="457.82" x2="-2643.35" y2="483.25" gradientTransform="matrix(-1, 0, 0, 1, -2148.49, 0)" xlink:href="#linear-gradient-14"/><linearGradient id="linear-gradient-25" x1="-2697.94" y1="457.23" x2="-2643.07" y2="482.65" gradientTransform="matrix(-1, 0, 0, 1, -2148.49, 0)" xlink:href="#linear-gradient-14"/><linearGradient id="linear-gradient-26" x1="-2595.63" y1="427.89" x2="-2651.84" y2="499.49" gradientTransform="matrix(-1, 0, 0, 1, -2148.49, 0)" xlink:href="#linear-gradient-14"/><linearGradient id="linear-gradient-27" x1="454.37" y1="364.7" x2="523.24" y2="594.27" xlink:href="#linear-gradient-15"/><linearGradient id="linear-gradient-28" x1="-2577.49" y1="303.16" x2="-2681.88" y2="433.64" gradientTransform="matrix(-1, 0, 0, 1, -2148.49, 0)" xlink:href="#linear-gradient-15"/><linearGradient id="linear-gradient-29" x1="639.13" y1="380.65" x2="580.97" y2="491.63" xlink:href="#linear-gradient-11"/><linearGradient id="linear-gradient-30" x1="614.89" y1="457.75" x2="546.86" y2="539.29" xlink:href="#linear-gradient-10"/></defs><g class="cls-1"><g id="Layer_1" data-name="Layer 1"><path class="cls-2" d="M362.4,46.27c-64.74,1.08-164.91,24.41-193.74,84.37-10.07,20.94-9.39,51.72-8,113.29.4,18.1,1.06,44.47,5.73,77.2,9.69,68,16.29,114.27,41.27,141.21,62.58,67.53,288.64,65.58,385.18-56C645.48,340,653.58,245.7,605.43,167.74,552.41,81.9,449.07,44.82,362.4,46.27Z" transform="translate(-147.17 -46.23)"/><g class="cls-3"><path class="cls-4" d="M508.14,76,274.35,55.19c-14.76-1.31-26.41,7.45-26.27,19.55l.07,7c.13,12.11,12.16,22.55,26.91,23.33l233.53,12.41A16.16,16.16,0,0,0,526,100.81l0-5.62A19.68,19.68,0,0,0,508.14,76Z" transform="translate(-147.17 -46.23)"/><path class="cls-5" d="M630.11,174.21c-.05-7.84-5.82-14.37-13.13-14.59L452.6,154.73c-9.94-.29-18,7-18,16.35l.05,5.17c.08,9.33,8.38,16.87,18.31,16.85l164.17-.32c7.31,0,13-6.38,13-14.22Z" transform="translate(-147.17 -46.23)"/><path class="cls-6" d="M598,296.27c-.06-8.07-6.42-14.09-14.2-13.42L408,297.83c-10.69.92-19.48,9.49-19.39,19.15l.05,5.35c.09,9.66,9,16.45,19.65,15.2L584.05,317c7.78-.9,14.06-8.17,14-16.24Z" transform="translate(-147.17 -46.23)"/><path class="cls-7" d="M453.94,223.86l-259,7.1c-16.5.45-29.87,11.19-29.72,24l.09,7.39c.15,12.77,13.7,22.26,30.18,21.22l258.93-16.36c11-.69,19.64-9.47,19.55-19.62l0-5.86C473.83,231.56,464.91,223.56,453.94,223.86Z" transform="translate(-147.17 -46.23)"/><path class="cls-8" d="M591.15,124.71c0,5.69-4.32,10.07-9.79,9.78a11,11,0,0,1-10.12-11c0-5.79,4.45-10.17,10-9.77A11.07,11.07,0,0,1,591.15,124.71Z" transform="translate(-147.17 -46.23)"/><path class="cls-9" d="M201,333.62c.08,7.54-7.64,14.51-17.37,15.58s-18-4.3-18.13-12,7.93-14.74,17.8-15.63S200.93,326.07,201,333.62Z" transform="translate(-147.17 -46.23)"/><path class="cls-10" d="M560.79,94.32a14,14,0,0,1-12.36-13.65,10.85,10.85,0,0,1,12.18-11.22,14,14,0,0,1,12.1,13.62A10.86,10.86,0,0,1,560.79,94.32Zm-.15-21.19a7.65,7.65,0,0,0-8.55,7.9,9.85,9.85,0,0,0,8.68,9.6,7.63,7.63,0,0,0,8.41-7.91A9.88,9.88,0,0,0,560.64,73.13Z" transform="translate(-147.17 -46.23)"/><path class="cls-11" d="M191.69,176.32l-44.52,0,22.39-29.89ZM155,172.85l29.4.13-14.72-19.83Z" transform="translate(-147.17 -46.23)"/><polygon class="cls-12" points="441.11 189.58 469.33 186.82 456.97 212.4 441.11 189.58"/></g><path class="cls-13" d="M571.53,157.17c0-10.1-6.71-18.67-15.14-19.15L222.92,119.3c-.4,0-.78,0-1.18,0a21.74,21.74,0,0,0-18,9.06,21.41,21.41,0,0,0-3.87,12.6v16.45h0v258.2a21.91,21.91,0,0,0,.35,4.56c.08.37.1.73.2,1.08a20.11,20.11,0,0,0,1.54,4,19.86,19.86,0,0,0,14.09,10.29,22.65,22.65,0,0,0,6.91.25l261.45-30.86h0l72-8.55c8.43-1,15.14-10,15.14-20.12v-206h0Z" transform="translate(-147.17 -46.23)"/><path class="cls-14" d="M565,138,231.49,119.3c-12.81-.72-23.33,9-23.33,21.63V415.58c0,12.67,10.52,21.69,23.33,20.18L565,396.35c8.42-1,15.19-10,15.19-20.09V157.17C580.18,147.07,573.41,138.5,565,138Z" transform="translate(-147.17 -46.23)"/><path class="cls-2" d="M231.49,428.53c-8.69,1-15.81-5.17-15.81-13.75V141.26a14.77,14.77,0,0,1,15.81-14.73L565,143.92c5.73.3,10.37,6.15,10.37,13V376.77c0,6.89-4.64,13-10.37,13.67Z" transform="translate(-147.17 -46.23)"/><path class="cls-15" d="M565,138,231.49,119.3c-12.81-.72-23.33,9-23.33,21.63v16.45l372,12.91V157.17C580.18,147.07,573.41,138.5,565,138Z" transform="translate(-147.17 -46.23)"/><path class="cls-14" d="M249.37,140.56a7,7,0,0,1-7.42,7,7.82,7.82,0,0,1-7.48-7.7,7,7,0,0,1,7.48-7A7.83,7.83,0,0,1,249.37,140.56Z" transform="translate(-147.17 -46.23)"/><path class="cls-14" d="M275,141.7a6.87,6.87,0,0,1-7.21,6.94,7.65,7.65,0,0,1-7.27-7.59,6.87,6.87,0,0,1,7.27-6.93A7.65,7.65,0,0,1,275,141.7Z" transform="translate(-147.17 -46.23)"/><path class="cls-14" d="M299.83,142.82a6.74,6.74,0,0,1-7,6.85,7.5,7.5,0,0,1-7.06-7.48,6.73,6.73,0,0,1,7.06-6.85A7.5,7.5,0,0,1,299.83,142.82Z" transform="translate(-147.17 -46.23)"/><polygon class="cls-16" points="415.25 282.66 88.15 306.39 88.15 155.73 415.25 159.21 415.25 282.66"/><polygon class="cls-15" points="415.25 303.97 88.15 332.39 88.15 320.84 415.25 294.51 415.25 303.97"/><polygon class="cls-15" points="415.25 327.17 88.15 360.7 88.15 349.16 415.25 317.71 415.25 327.17"/><polygon class="cls-15" points="274.64 135.3 88.15 130.75 88.15 142.29 274.64 145.65 274.64 135.3"/><polygon class="cls-15" points="398.76 138.33 398.76 147.89 415.25 148.19 415.25 138.73 398.76 138.33"/><g class="cls-17"><path class="cls-14" d="M445.59,264.16c-38.25-57.94-107.31-38-153-105.59a152.85,152.85,0,0,1-18.08-36.85l-43-2.42c-12.81-.72-23.33,9-23.33,21.63V415.58c0,12.67,10.52,21.69,23.33,20.18L493,404.86A199.28,199.28,0,0,1,473.7,369.3C452,317.38,468.12,298.27,445.59,264.16Z" transform="translate(-147.17 -46.23)"/></g><path class="cls-14" d="M374,319.71v-96c0-6.16,4.83-10.21,9-7.56l71.93,45.76c4.35,2.77,4.35,11.38,0,14.43L383,326.7C378.81,329.61,374,325.87,374,319.71Z" transform="translate(-147.17 -46.23)"/><path class="cls-18" d="M225.13,382.81l24.72,34.85c-27.8,17.11-54.85,33.68-82.65,50.8,14.78,19.92,29.56,42,44.35,61.93,24.44-21.64,48.14-44.87,72.59-66.51l27.56,35.9L350,379.23Z" transform="translate(-147.17 -46.23)"/><path class="cls-19" d="M356.88,375.45l-15.06,41.13-27.45,74.95-23.31-31.42c-24.45,21.64-48.15,42.72-72.6,64.36L177.34,469l-3.46-4.66c27.81-17.12,54.63-33.8,82.43-50.91l-22.85-31Z" transform="translate(-147.17 -46.23)"/><path class="cls-20" d="M341.82,416.58l-27.45,74.95-23.31-31.42c-24.45,21.64-48.15,42.72-72.6,64.36L177.34,469c9.58-7.92,24.33-14.57,45.48-10.62,43.71,8.18,45.28.32,63.52-13.52C301.42,433.42,320.8,411,341.82,416.58Z" transform="translate(-147.17 -46.23)"/><path class="cls-21" d="M463.19,261.4s-5.62.79-6.59-3.07-9.72-3-11.16-3,5,2.78,6.44,4.71,6.91,3.55,6.91,3.55Z" transform="translate(-147.17 -46.23)"/><path class="cls-22" d="M455.88,263l4.66-2.33c7.48.63,28.78,3.43,44.23,20.37,20.76,22.76,22.13,61.41,10.47,68.08-8.48,4.85-27.38-5.17-32-18.62-3.92-11.4,4.81-18.33,3.5-31.42C485.81,290,480,277.13,455.88,263Z" transform="translate(-147.17 -46.23)"/><path class="cls-23" d="M384.54,338.24s.36-6.69-.7-8.65-4.89-2.07-8.13-3.57l-2.25-8.24s-2.79,5.69-1.78,9.92c.52,2.22,8.27,5,9.11,6.37s0,6.4,0,6.4Z" transform="translate(-147.17 -46.23)"/><polygon class="cls-24" points="322.29 271.67 327.6 278.96 322.45 283.28 318.02 274.21 322.29 271.67"/><path class="cls-25" d="M467.93,322c-.52,0-3.95,1.45-5.38,0-1.94-2-1.47-6-1.47-6.65,0-2.55.13-3,.45-3.58l.47-.82.07-.08a9.64,9.64,0,0,1,2.23-1.4c1.12-.33,4.4,3.17,7.23,9.1l.48.6C472.43,319.69,468,322.23,467.93,322Z" transform="translate(-147.17 -46.23)"/><path class="cls-26" d="M458.47,312.49c1,.86,3.08,1.13,4,1.25a3.19,3.19,0,0,1,1,.35,1,1,0,0,1,.21.16c1,.91-.06,3.21.56,3.52.44.23,1.39-.92,1.71-.68s-.38,1.39,0,1.66.75-.38,1.37-.18c.3.1.33.29.88.8a7.09,7.09,0,0,0,.93.74c1.19.71,3.14.15,3.25-.46,0-.16-.1-.22-.22-.66a3.42,3.42,0,0,1-.08-1,9.1,9.1,0,0,1,1.21-2.82,6.6,6.6,0,0,0,.84-3.71s0-.09,0-.12l0-.21c-.32-1.41-2-2.15-2.86-2.46a18.6,18.6,0,0,0-5.62-1.09c-.67,0-7.12-.24-8,2.22A2.72,2.72,0,0,0,458.47,312.49Z" transform="translate(-147.17 -46.23)"/><path class="cls-27" d="M464.7,317c.11-.84,1.19-.69,1.61.09a1.61,1.61,0,0,1-.7,2.24C464.8,319.57,464.55,318.13,464.7,317Z" transform="translate(-147.17 -46.23)"/><polygon class="cls-28" points="373.25 486.91 372.49 495.94 369.23 497.37 367.99 487.82 373.25 486.91"/><path class="cls-29" d="M520.75,542.05l.62,3s-.19,1.31-7.31,3.06-8.29-1.06-6.58-1.53,7-3,7-3l4.46-2.38A1.22,1.22,0,0,1,520.75,542.05Z" transform="translate(-147.17 -46.23)"/><polygon class="cls-30" points="317.2 481.78 320.73 490.78 318.83 493.25 311.85 484.79 317.2 481.78"/><path class="cls-31" d="M468.49,536.23l2.12,2.26s.53,1.21-4.6,6.45-7.61,3.46-6.4,2.16,4.4-6.27,4.4-6.27l2.53-4.37A1.23,1.23,0,0,1,468.49,536.23Z" transform="translate(-147.17 -46.23)"/><path class="cls-32" d="M511.7,421.18c.59,5.5,1.68,13.86,3.76,23.91,4.68,22.71,9.66,31.14,12,44.1,2,10.93,2.38,27.11-5.66,48.55l-7.72.66a141.16,141.16,0,0,0-6.87-38.93c-5.42-16.44-14.85-34.38-21.33-62.23-1.35-5.79-2.69-12.56,1-16.56C493.22,413.8,509.71,420.36,511.7,421.18Z" transform="translate(-147.17 -46.23)"/><path class="cls-33" d="M486.86,420.68c6.36-6.88,22.85-.32,24.84.5.32,3,.8,6.81,1.49,11.28-9.22,12.39-9.82,20.65-8.27,26.11,2.4,8.43,10.19,11.18,10.54,21.08.24,6.62-3.15,8.21-2,14.8,1.26,7.23,5.71,7.46,7.28,14.3,1.71,7.45-2.77,10.57-3.51,19.83a32.19,32.19,0,0,0,.71,9.49l-3.88.33a141.16,141.16,0,0,0-6.87-38.93c-5.42-16.44-14.85-34.38-21.33-62.23C484.5,431.45,483.16,424.68,486.86,420.68Z" transform="translate(-147.17 -46.23)"/><path class="cls-34" d="M507.68,414.91a54,54,0,0,1-6.2,19.35c-7.14,12.92-15.59,14.85-25.37,28A74.31,74.31,0,0,0,464,487.17c-4.72,18.32,0,34.75,3.68,44l-6.94,4.16c-5.59-7-15.44-21.35-17.72-41.61-4.73-41.87,27.1-71,30.72-74.19Z" transform="translate(-147.17 -46.23)"/><path class="cls-35" d="M493.13,316.19A17.37,17.37,0,0,1,503.21,320c13.81,10.5,17,42.09,17,42.09a179.14,179.14,0,0,1-5,62.62c-5.22.45-14.22,1.27-25.58,2.56-14.41,1.65-19,2.51-23-.5-5.33-4.07-4.48-11.47-5.64-21.88-1-9-3.75-22.13-11.79-37.89-10.35,10.73-25.45,15.25-39.37,11.59C393.29,374.23,381.06,359,380,341c1.53-.91,4.19-2.64,5.71-3.55,5.23,4.4,13.1,11.42,25.14,12.77,18.93,2.13,36-8.74,43.16-13.31,10.5-6.69,21.65-12.28,32.37-18.6A14,14,0,0,1,493.13,316.19Z" transform="translate(-147.17 -46.23)"/><path class="cls-36" d="M479.33,422.94c1.32-.18,12.22-1.77,15.56-9.29,2.58-5.8-2.08-9,.25-15.8,2.52-7.38,9.16-7.07,11.54-14.06,1.91-5.62-1.64-8.05-2.76-16.31-2-14.38,7.1-19.49,6.27-31.86a28.1,28.1,0,0,0-5.14-14c12.25,11.77,15.17,40.49,15.17,40.49a179.14,179.14,0,0,1-5,62.62c-5.22.45-14.22,1.27-25.58,2.56-14.41,1.65-19,2.51-23-.5-2.53-1.93-3.66-4.62-4.28-8C466.83,421.56,472.66,423.83,479.33,422.94Z" transform="translate(-147.17 -46.23)"/><path class="cls-37" d="M646.9,455.5c-2.86-2.31-10.41.81-15,5.83-6.51,7.1-5.39,16.08-10.48,17.81a5.27,5.27,0,0,1-6-2c-2.47-4,2.78-12.63,6.34-17.12,7.86-9.88,14.4-8.36,17.66-15.64,2.46-5.48,1.92-13.47-2.85-17.15-3.88-3-10.3-2.94-14.45.15-8.26,6.14-5,22.47-9.19,23.5-1.89.46-4-2.6-4.9-5-1.82-4.95.52-9.79,3.17-16.53,5.43-13.81,8.07-20.52,6.1-25.33s-7.37-7.77-12.86-7.67c-6.31.13-13,4.49-15.06,9.87-2.68,7,4.42,10.62,3.3,23.78-.15,1.78-.91,9.23-3.45,9.95-2.18.61-4.68-4-5.89-6.2-4-7.24-2.22-10.86-5.32-13.49-3.43-2.91-10.46-2.65-14.56.58-6.16,4.84-5.33,16.08-2.72,23,6,15.74,24.22,17.65,22.33,25.2-.73,2.94-4.18,5.54-6.79,5.86s-4-1.58-9.76-7.66c-7-7.35-8.21-8.1-9.79-7.88-3.71.5-8.12,6.19-9,11.47-1.58,9.35,7.66,18.29,16.88,21.68s16.85.79,19.39,6.59c.88,2,1.17,5.05-.23,6.88-2.84,3.72-11.47.89-13.14.34-9-3-11.06-8.6-15.4-7-3,1.11-5.67,5.07-6.12,8.48-1.22,9.24,13.89,15.95,24.55,17.58,9.8,1.5,18.85-.84,25.57-3.59,28.76-14.77,39.35-33,43.3-41.61C645.72,473.22,651,458.79,646.9,455.5Z" transform="translate(-147.17 -46.23)"/><path class="cls-38" d="M600.9,517.47c-2.38-6.6-3.8-17.88-4-31.77a208.42,208.42,0,0,1,1.9-32.64c2.42-15.06,2.27-36.28,2.27-36.49h1.26c0,.22.15,21.54-2.29,36.7-3.93,24.56-1.42,54.18,2,63.78Z" transform="translate(-147.17 -46.23)"/><path class="cls-39" d="M625.35,496.22c-3-.07-4.06,3.62-10.91,8.3-2.85,2-7.17,4.91-9.08,3.37-1.34-1.08-1.1-4-.48-6.08,1.68-5.49,6.62-5.87,11.55-11.64,3.8-4.43,7.77-12.25,5.39-16.57-1.69-3.06-6.53-4.29-9.51-2.47-2.7,1.65-1.95,4.6-5.41,9.33-2.65,3.62-7.34,7.7-9.69,6.62-2.06-.95-2.05-5.76-1.1-9.34,2.09-8,8.6-9.05,10.18-16.05,1-4.32-.22-9.55-3.2-10.69-3.44-1.32-9.24,2.8-12.09,7.52-4.08,6.75-.68,12.24-5.13,16.54-2.17,2.11-5.56,3.3-7.24,2.18-2-1.35-1.13-5.69-.33-9.38,2.11-9.8,6-11.94,5.7-17s-4.32-9.74-8.56-9.69c-6.63.08-13.26,12.17-16,19.78-5.65,15.73-.8,29.47,1.73,36.64a65.92,65.92,0,0,0,18.37,27.42,17.1,17.1,0,0,0,16.15,3.66,80.17,80.17,0,0,0,25.57-12.48c8.8-6.51,9.76-10.23,9.8-12.33C631.14,500.16,628.35,496.29,625.35,496.22Z" transform="translate(-147.17 -46.23)"/></g></g></svg>